<svg width="241" height="248" viewBox="0 0 241 248" fill="none" xmlns="http://www.w3.org/2000/svg">
<path d="M230.237 114.497C227.711 101.784 223.277 89.3744 218.004 77.9664C208.913 58.2852 194.019 41.942 174.966 32.2402C128.212 8.43221 94.4719 18.3522 76.1559 37.6962C57.8399 57.0402 63.1419 90.2722 43.3799 104.656C23.6179 119.04 9.63993 125.488 8.67593 151.776C7.71193 178.064 20.2439 197.904 40.4879 204.352C60.7319 210.8 91.0979 231.632 151.83 219.728C212.562 207.824 227.504 174.592 231.36 150.784C233.288 138.806 232.623 126.515 230.237 114.497Z" fill="#CBCBCB"/>
<path opacity="0.7" d="M230.237 114.497C227.711 101.784 223.277 89.3744 218.004 77.9664C208.913 58.2852 194.019 41.942 174.966 32.2402C128.212 8.43221 94.4719 18.3522 76.1559 37.6962C57.8399 57.0402 63.1419 90.2722 43.3799 104.656C23.6179 119.04 9.63993 125.488 8.67593 151.776C7.71193 178.064 20.2439 197.904 40.4879 204.352C60.7319 210.8 91.0979 231.632 151.83 219.728C212.562 207.824 227.504 174.592 231.36 150.784C233.288 138.806 232.623 126.515 230.237 114.497Z" fill="white"/>
<path d="M87.8787 41.9219H83.5117V61.8363H87.8787V41.9219Z" fill="#C9C9C9" stroke="#263238" stroke-linecap="round" stroke-linejoin="round"/>
<path d="M87.8787 44.9185H83.5117V46.8628H87.8787V44.9185Z" fill="white" stroke="#263238" stroke-linecap="round" stroke-linejoin="round"/>
<path d="M87.8787 57.2734H83.5117V59.2178H87.8787V57.2734Z" fill="white" stroke="#263238" stroke-linecap="round" stroke-linejoin="round"/>
<path d="M92.9741 41.9219H86.8623V61.8363H92.9741V41.9219Z" fill="#878787" stroke="#263238" stroke-linecap="round" stroke-linejoin="round"/>
<path d="M92.5388 41.9219H88.1719V61.8363H92.5388V41.9219Z" fill="#C9C9C9" stroke="#263238" stroke-linecap="round" stroke-linejoin="round"/>
<path d="M92.5388 44.9185H88.1719V46.8628H92.5388V44.9185Z" fill="white" stroke="#263238" stroke-linecap="round" stroke-linejoin="round"/>
<path d="M92.5388 57.2734H88.1719V59.2178H92.5388V57.2734Z" fill="white" stroke="#263238" stroke-linecap="round" stroke-linejoin="round"/>
<path d="M97.6293 41.9219H91.5176V61.8363H97.6293V41.9219Z" fill="#878787" stroke="#263238" stroke-linecap="round" stroke-linejoin="round"/>
<path d="M97.195 41.9219H92.8281V61.8363H97.195V41.9219Z" fill="#C9C9C9" stroke="#263238" stroke-linecap="round" stroke-linejoin="round"/>
<path d="M97.195 44.9185H92.8281V46.8628H97.195V44.9185Z" fill="white" stroke="#263238" stroke-linecap="round" stroke-linejoin="round"/>
<path d="M97.195 57.2734H92.8281V59.2178H97.195V57.2734Z" fill="white" stroke="#263238" stroke-linecap="round" stroke-linejoin="round"/>
<path d="M102.285 41.9219H96.1729V61.8363H102.285V41.9219Z" fill="#C9C9C9" stroke="#263238" stroke-linecap="round" stroke-linejoin="round"/>
<path d="M106.266 62.04H116.523L119.251 59.5005H106.266V62.04Z" fill="white" stroke="#263238" stroke-linecap="round" stroke-linejoin="round"/>
<path d="M118.09 62.1686L117.762 61.5883L106.055 61.5635L106.392 62.1686H118.09Z" fill="white" stroke="#263238" stroke-linecap="round" stroke-linejoin="round"/>
<path d="M100.329 42.3368L96.5488 44.5864L106.237 61.8258L110.017 59.5762L100.329 42.3368Z" fill="#C9C9C9" stroke="#263238" stroke-linecap="round" stroke-linejoin="round"/>
<path d="M101.787 44.9237L98.0068 47.1733L98.9527 48.8565L102.733 46.6069L101.787 44.9237Z" fill="white" stroke="#263238" stroke-linecap="round" stroke-linejoin="round"/>
<path d="M107.802 55.6181L104.021 57.8677L104.967 59.5508L108.748 57.3012L107.802 55.6181Z" fill="white" stroke="#263238" stroke-linecap="round" stroke-linejoin="round"/>
<path d="M119.184 59.674L109.915 59.6492L100.227 42.4082L109.495 42.433L119.184 59.674Z" fill="#C9C9C9" stroke="#263238" stroke-linecap="round" stroke-linejoin="round"/>
<path d="M124.235 51.9563C124.235 51.9563 122.548 51.3363 122.066 48.6083C121.584 45.8803 120.741 42.0363 121.705 41.1683C122.669 40.3003 124.476 39.8043 124.717 41.5403C124.958 43.2763 124.597 46.6243 124.958 47.3683C125.32 48.1123 126.525 47.6163 126.525 46.1283C126.525 43.6781 125.561 41.1683 125.903 38.6883C126.385 35.261 129.759 34.884 130.12 38.6883C130.323 40.7914 130.381 42.939 130.381 45.052C130.381 45.92 131.827 46.416 131.706 44.308C131.619 42.82 132.67 41.084 134.116 41.58C135.562 42.076 134.357 48.648 133.875 49.764C133.393 50.88 130.381 51.0883 130.381 51.0883V53.9403L126.766 54.0643L126.645 51.2123C125.909 51.6501 125.084 51.9049 124.235 51.9563V51.9563Z" fill="#CBCBCB" stroke="#263238" stroke-linecap="round" stroke-linejoin="round"/>
<path d="M127.489 46.5205C127.533 47.1405 127.562 47.5125 127.562 47.5125" stroke="#263238" stroke-linecap="round" stroke-linejoin="round"/>
<path d="M127.73 36.9028C127.73 36.9028 126.939 37.4683 126.997 39.1646C127.036 40.1963 127.229 43.0532 127.378 45.1414" stroke="#263238" stroke-linecap="round" stroke-linejoin="round"/>
<path d="M129.089 42.7505L129.214 46.902" stroke="#263238" stroke-linecap="round" stroke-linejoin="round"/>
<path d="M130.853 49.6001C130.574 49.6448 130.292 49.6697 130.01 49.6745" stroke="#263238" stroke-linecap="round" stroke-linejoin="round"/>
<path d="M133.37 42.6265C133.091 43.1694 132.944 43.7734 132.941 44.3873C132.941 45.3793 133.004 48.1618 132.391 48.9157C132.242 49.085 132.06 49.2202 131.856 49.3125" stroke="#263238" stroke-linecap="round" stroke-linejoin="round"/>
<path d="M122.91 48.2065C123.055 48.9523 123.403 49.6403 123.913 50.1905C124.214 50.439 124.587 50.5793 124.973 50.59C125.359 50.6008 125.738 50.4814 126.053 50.2501" stroke="#263238" stroke-linecap="round" stroke-linejoin="round"/>
<path d="M122.794 41.4961C122.794 41.4961 121.575 41.4961 121.999 43.6934C122.182 44.6209 122.351 45.7617 122.568 46.838" stroke="#263238" stroke-linecap="round" stroke-linejoin="round"/>
<path d="M127.379 49.8584L127.625 52.5616" stroke="#263238" stroke-linecap="round" stroke-linejoin="round"/>
<path d="M133.635 52.8242L133.196 56.5244L132.898 59.0441L132.551 61.9754H123.879L123.532 59.0441L123.234 56.5244L122.795 52.8242H133.635Z" fill="white" stroke="#263238" stroke-linecap="round" stroke-linejoin="round"/>
<path d="M133.195 56.5244L132.897 59.0441H123.531L123.232 56.5244H133.195Z" fill="#CBCBCB" stroke="#263238" stroke-linecap="round" stroke-linejoin="round"/>
<path d="M138.397 61.9751H82.7402V65.7695H138.397V61.9751Z" fill="white" stroke="#263238" stroke-linecap="round" stroke-linejoin="round"/>
<path d="M138.395 61.9751H125.564V65.7695H138.395V61.9751Z" fill="white" stroke="#263238" stroke-linecap="round" stroke-linejoin="round"/>
<path d="M124.317 65.7847C130.28 68.0464 129.205 72.3219 129.205 72.3219H134.849V65.7847H124.317Z" fill="#919191" stroke="#263238" stroke-linecap="round" stroke-linejoin="round"/>
<path d="M126.222 65.7847C132.179 68.0464 131.104 72.3219 131.104 72.3219H136.753V65.7847H126.222Z" fill="white" stroke="#263238" stroke-linecap="round" stroke-linejoin="round"/>
<path d="M86.1191 65.7852C92.0815 68.0469 91.0066 72.3225 91.0066 72.3225H96.6509V65.7852H86.1191Z" fill="#919191" stroke="#263238" stroke-linecap="round" stroke-linejoin="round"/>
<path d="M88.0234 65.7852C93.981 68.0469 92.9061 72.3225 92.9061 72.3225H98.5552V65.7852H88.0234Z" fill="white" stroke="#263238" stroke-linecap="round" stroke-linejoin="round"/>
<path d="M215.955 42.6313H166.039V113.936H215.955V42.6313Z" fill="#919191" stroke="#263238" stroke-linecap="round" stroke-linejoin="round"/>
<path d="M213.79 45.7266H168.207V110.841H213.79V45.7266Z" fill="#CBCBCB"/>
<path opacity="0.5" d="M213.79 45.7266H168.207V110.841H213.79V45.7266Z" fill="white"/>
<path d="M178.229 105.896C177.007 107.814 175.463 109.494 173.669 110.856H213.791V45.7261H206.397L205.433 46.0386C198.203 48.3846 190.732 55.1749 186.495 67.5154" stroke="#263238" stroke-linecap="round" stroke-linejoin="round"/>
<path d="M185.791 69.6782C184.108 75.5634 183.178 81.6494 183.024 87.7822C182.759 95.1429 181.236 100.435 179.202 104.239" stroke="#263238" stroke-linecap="round" stroke-linejoin="round"/>
<path d="M209.332 62.2529C202.704 66.2209 194.987 72.8872 192.105 83.1097C190.558 88.5657 192.008 93.4861 194.876 97.6971" stroke="#263238" stroke-linecap="round" stroke-linejoin="round"/>
<path d="M196.429 99.7504C200.405 104.542 206.069 108.311 210.653 110.846H213.79V59.8472C212.894 60.2787 211.939 60.7648 210.947 61.3352" stroke="#263238" stroke-linecap="round" stroke-linejoin="round"/>
<path d="M175.785 62.7042C179.275 55.3832 179.641 49.575 179.241 45.7261H168.218V75.5158C169.847 73.1301 171.842 69.9408 174.252 65.6653C174.402 65.4024 174.542 65.1693 174.681 64.8915" stroke="#263238" stroke-linecap="round" stroke-linejoin="round"/>
<path d="M180.104 90.9021C179.569 94.508 177.959 97.1269 176.06 97.1269C173.722 97.1269 171.823 93.1589 171.823 88.2485C171.823 83.3381 173.722 79.3701 176.06 79.3701C178.398 79.3701 180.297 83.3381 180.297 88.2485" stroke="#263238" stroke-linecap="round" stroke-linejoin="round"/>
<path d="M182.114 70.0255C182.114 71.9153 181.304 73.4529 180.297 73.4529C179.289 73.4529 178.484 71.9153 178.484 70.0255C178.484 68.1357 179.294 66.5981 180.297 66.5981C181.299 66.5981 182.114 68.1308 182.114 70.0255Z" stroke="#263238" stroke-linecap="round" stroke-linejoin="round"/>
<path d="M205.24 84.5037C206.99 85.3618 208.132 86.8597 208.132 88.561C208.132 91.2246 205.288 93.3871 201.775 93.3871C198.261 93.3871 195.422 91.2246 195.422 88.561C195.422 85.8975 198.266 83.73 201.775 83.73C202.335 83.7296 202.893 83.7861 203.442 83.8986" stroke="#263238" stroke-linecap="round" stroke-linejoin="round"/>
<path d="M204.455 88.5609C204.455 89.6769 203.264 90.5845 201.79 90.5845C200.315 90.5845 199.124 89.6769 199.124 88.5609C199.124 87.4449 200.319 86.5322 201.79 86.5322C203.26 86.5322 204.455 87.4399 204.455 88.5609Z" stroke="#263238" stroke-linecap="round" stroke-linejoin="round"/>
<path d="M208.754 76.255C208.754 77.8026 207.265 79.0575 205.423 79.0575C203.582 79.0575 202.093 77.8026 202.093 76.255C202.093 74.7075 203.582 73.4526 205.423 73.4526C207.265 73.4526 208.754 74.7075 208.754 76.255Z" stroke="#263238" stroke-linecap="round" stroke-linejoin="round"/>
<path d="M184.687 60.6808C185.941 60.6808 186.957 58.1004 186.957 54.9173C186.957 51.7342 185.941 49.1538 184.687 49.1538C183.433 49.1538 182.417 51.7342 182.417 54.9173C182.417 58.1004 183.433 60.6808 184.687 60.6808Z" stroke="#263238" stroke-linecap="round" stroke-linejoin="round"/>
<path d="M190.896 104.448C190.896 105.095 190.709 105.728 190.36 106.267C190.01 106.805 189.513 107.225 188.932 107.472C188.351 107.72 187.711 107.785 187.094 107.659C186.477 107.532 185.91 107.221 185.465 106.763C185.02 106.305 184.717 105.722 184.594 105.087C184.472 104.452 184.535 103.793 184.775 103.195C185.016 102.597 185.424 102.086 185.947 101.726C186.47 101.366 187.085 101.174 187.714 101.174C188.558 101.174 189.367 101.519 189.964 102.133C190.56 102.747 190.896 103.58 190.896 104.448Z" stroke="#263238" stroke-linecap="round" stroke-linejoin="round"/>
<path d="M205.727 55.8499C205.728 56.2515 205.613 56.6444 205.397 56.9788C205.18 57.3131 204.873 57.5739 204.512 57.7281C204.152 57.8822 203.755 57.9228 203.372 57.8447C202.989 57.7666 202.638 57.5733 202.362 57.2893C202.086 57.0053 201.898 56.6433 201.822 56.2494C201.746 55.8554 201.785 55.4471 201.935 55.0762C202.085 54.7053 202.338 54.3885 202.663 54.166C202.988 53.9435 203.37 53.8252 203.76 53.8262C204.282 53.8275 204.781 54.0411 205.15 54.4203C205.518 54.7996 205.726 55.3136 205.727 55.8499Z" stroke="#263238" stroke-linecap="round" stroke-linejoin="round"/>
<path d="M193.315 70.179C193.316 70.3951 193.255 70.6065 193.139 70.7866C193.023 70.9667 192.858 71.1073 192.664 71.1907C192.47 71.274 192.257 71.2964 192.051 71.2548C191.845 71.2133 191.655 71.1097 191.507 70.9573C191.358 70.8049 191.256 70.6105 191.215 70.3987C191.174 70.1869 191.194 69.9672 191.275 69.7675C191.355 69.5679 191.491 69.3972 191.665 69.277C191.84 69.1569 192.045 69.0928 192.255 69.0928C192.394 69.0921 192.532 69.1197 192.66 69.174C192.789 69.2283 192.906 69.3082 193.004 69.4092C193.103 69.5101 193.181 69.6301 193.234 69.7622C193.288 69.8943 193.315 70.036 193.315 70.179V70.179Z" stroke="#263238" stroke-linecap="round" stroke-linejoin="round"/>
<path d="M213.79 45.7266H168.207V110.841H213.79V45.7266Z" stroke="#263238" stroke-linecap="round" stroke-linejoin="round"/>
<path d="M139.295 138.578H126.912V143.374H139.295V138.578Z" fill="#263238" stroke="#263238" stroke-linecap="round" stroke-linejoin="round"/>
<path d="M155.908 139.301H106.624L108.957 99.9883H158.246L155.908 139.301Z" fill="#919191" stroke="#263238" stroke-linecap="round" stroke-linejoin="round"/>
<path d="M154.496 139.301H105.212L107.545 99.9883H156.829L154.496 139.301Z" fill="#263238" stroke="#263238" stroke-linecap="round" stroke-linejoin="round"/>
<path d="M151.889 137.114H108.08L110.153 102.171H153.962L151.889 137.114Z" fill="white" stroke="#263238" stroke-linecap="round" stroke-linejoin="round"/>
<path d="M139.145 131.906H109.387L110.982 104.978H140.746L139.145 131.906Z" fill="#919191" stroke="#263238" stroke-linecap="round" stroke-linejoin="round"/>
<path d="M121.128 120.339C121.128 120.339 114.929 122.864 114.891 123.543C114.852 124.223 113.638 131.906 113.638 131.906H132.069L130.517 123.057L123.697 120.141L121.128 120.339Z" fill="white" stroke="#263238" stroke-linecap="round" stroke-linejoin="round"/>
<path d="M121.31 118.782C120.844 118.908 120.41 119.14 120.042 119.461C119.56 119.957 118.972 121.599 118.972 121.599L118.948 123.543L121.392 122.184L123.874 122.016L126.198 124.253L126.496 120.85C126.496 120.85 126.14 118.906 125.388 118.806C124.636 118.707 121.31 118.782 121.31 118.782Z" fill="white" stroke="#263238" stroke-linecap="round" stroke-linejoin="round"/>
<path d="M121.234 116.937L121.128 120.339L122.588 122.769L125.003 120.24L125.379 117.13L121.234 116.937Z" fill="white" stroke="#263238" stroke-linecap="round" stroke-linejoin="round"/>
<path d="M127.192 112.959C127.018 115.811 125.177 119.268 123.157 119.268C121.138 119.268 119.706 115.796 119.875 112.959C120.044 110.122 121.803 107.795 123.837 107.795C125.871 107.795 127.36 110.112 127.192 112.959Z" fill="white" stroke="#263238" stroke-linecap="round" stroke-linejoin="round"/>
<path d="M119.841 113.335C119.841 113.335 119.19 111.589 118.92 112.948C118.65 114.308 119.98 115.766 119.98 115.766L119.841 113.335Z" fill="white" stroke="#263238" stroke-linecap="round" stroke-linejoin="round"/>
<path d="M127.191 112.959C127.191 112.959 128.786 112.269 128.319 113.728C128.2 114.14 127.993 114.52 127.713 114.839C127.432 115.159 127.086 115.409 126.699 115.573L127.191 112.959Z" fill="white" stroke="#263238" stroke-linecap="round" stroke-linejoin="round"/>
<path d="M122.958 113.336C122.971 113.161 122.948 112.985 122.891 112.819C122.834 112.654 122.744 112.502 122.627 112.374C122.51 112.246 122.369 112.145 122.212 112.077C122.055 112.008 121.885 111.974 121.715 111.977C121.359 111.986 121.02 112.13 120.761 112.381C120.503 112.632 120.343 112.971 120.312 113.336C120.299 113.511 120.322 113.687 120.379 113.853C120.436 114.019 120.526 114.171 120.643 114.299C120.76 114.427 120.901 114.529 121.058 114.598C121.215 114.667 121.385 114.702 121.556 114.7C121.912 114.69 122.252 114.545 122.51 114.294C122.769 114.042 122.929 113.701 122.958 113.336V113.336Z" fill="white" stroke="#263238" stroke-linecap="round" stroke-linejoin="round"/>
<path d="M126.17 113.336L127.611 112.949" stroke="#263238" stroke-linecap="round" stroke-linejoin="round"/>
<path d="M126.169 113.336C126.182 113.161 126.159 112.985 126.102 112.82C126.046 112.655 125.956 112.504 125.84 112.376C125.723 112.248 125.582 112.147 125.426 112.078C125.269 112.009 125.101 111.975 124.93 111.977C124.574 111.985 124.234 112.128 123.974 112.379C123.714 112.63 123.554 112.971 123.523 113.336C123.51 113.511 123.533 113.687 123.59 113.853C123.647 114.019 123.737 114.171 123.854 114.299C123.97 114.427 124.112 114.529 124.269 114.598C124.426 114.667 124.596 114.702 124.767 114.7C125.123 114.69 125.462 114.545 125.721 114.294C125.98 114.042 126.14 113.701 126.169 113.336V113.336Z" fill="white" stroke="#263238" stroke-linecap="round" stroke-linejoin="round"/>
<path d="M123.509 107.21C123.509 107.21 122.063 106.436 120.979 106.922C119.894 107.408 119.094 110.032 119.147 110.712C119.317 111.602 119.549 112.479 119.841 113.335L120.988 109.933L123.996 108.574L123.509 107.21Z" fill="#263238" stroke="#263238" stroke-linecap="round" stroke-linejoin="round"/>
<path d="M122.054 107.894C122.054 107.894 124.435 105.95 126.363 106.902C126.953 107.166 127.441 107.625 127.749 108.206C128.057 108.787 128.168 109.458 128.065 110.111C128.036 110.607 127.997 112.829 127.997 112.829L126.85 113.028L126.286 111.198C125.634 110.932 125 110.624 124.387 110.275C124.387 110.275 121.837 109.933 122.054 107.894Z" fill="#263238" stroke="#263238" stroke-linecap="round" stroke-linejoin="round"/>
<path d="M122.96 113.335L122.791 116.158H123.451" fill="white"/>
<path d="M122.96 113.335L122.791 116.158H123.451" stroke="#263238" stroke-linecap="round" stroke-linejoin="round"/>
<path d="M122.444 117.224H123.861" stroke="#263238" stroke-linecap="round" stroke-linejoin="round"/>
<path d="M122.589 122.77L122.063 131.613" stroke="#263238" stroke-linecap="round" stroke-linejoin="round"/>
<path d="M130.508 123.057C130.508 123.057 128.537 127.63 128.479 128.602C128.421 129.574 128.199 131.712 128.199 131.712" stroke="#263238" stroke-linecap="round" stroke-linejoin="round"/>
<path d="M114.89 123.543C114.89 123.543 116.851 127.045 117.107 127.511C117.362 127.977 117.049 131.692 117.049 131.692" stroke="#263238" stroke-linecap="round" stroke-linejoin="round"/>
<path d="M131.823 126.366L132.474 123.35L133.583 122.184L134.628 120.433H135.101L134.522 122.283L135.988 121.406L136.932 119.853L137.482 120.141L136.132 123.742L133.992 124.808L133.621 126.266L131.823 126.366Z" fill="white" stroke="#263238" stroke-linecap="round" stroke-linejoin="round"/>
<path d="M133.656 131.906L133.835 125.879L131.685 125.487L129.988 131.906H133.656Z" fill="white" stroke="#263238" stroke-linecap="round" stroke-linejoin="round"/>
<path d="M139.015 134.143H109.252L109.387 131.906H139.146L139.015 134.143Z" fill="white" stroke="#263238" stroke-linecap="round" stroke-linejoin="round"/>
<path d="M110.467 132.784H137.772" stroke="#263238" stroke-linecap="round" stroke-linejoin="round"/>
<path d="M151.937 112.165H141.921L142.345 105.067H152.361L151.937 112.165Z" fill="#CBCBCB" stroke="#263238" stroke-linecap="round" stroke-linejoin="round"/>
<path d="M151.937 112.165H141.921L141.993 111H152.009L151.937 112.165Z" fill="white" stroke="#263238" stroke-linecap="round" stroke-linejoin="round"/>
<path d="M148.703 108.202L146.1 106.6L145.912 109.804L148.703 108.202Z" fill="white" stroke="#263238" stroke-linecap="round" stroke-linejoin="round"/>
<path d="M151.285 123.151H141.27L141.689 116.059H151.705L151.285 123.151Z" fill="#CBCBCB" stroke="#263238" stroke-linecap="round" stroke-linejoin="round"/>
<path d="M151.285 123.152H141.27L141.342 121.986H151.353L151.285 123.152Z" fill="white" stroke="#263238" stroke-linecap="round" stroke-linejoin="round"/>
<path d="M148.053 119.193L145.451 117.591L145.263 120.795L148.053 119.193Z" fill="white" stroke="#263238" stroke-linecap="round" stroke-linejoin="round"/>
<path d="M150.63 134.143H140.619L141.038 127.045H151.054L150.63 134.143Z" fill="#CBCBCB" stroke="#263238" stroke-linecap="round" stroke-linejoin="round"/>
<path d="M150.63 134.143H140.619L140.687 132.978H150.703L150.63 134.143Z" fill="white" stroke="#263238" stroke-linecap="round" stroke-linejoin="round"/>
<path d="M147.397 130.18L144.799 128.578L144.606 131.782L147.397 130.18Z" fill="white" stroke="#263238" stroke-linecap="round" stroke-linejoin="round"/>
<path d="M141.95 113.335H151.677" stroke="#263238" stroke-linecap="round" stroke-linejoin="round"/>
<path d="M141.878 114.507H151.609" stroke="#263238" stroke-linecap="round" stroke-linejoin="round"/>
<path d="M141.29 124.421H151.022" stroke="#263238" stroke-linecap="round" stroke-linejoin="round"/>
<path d="M141.224 125.587H150.955" stroke="#263238" stroke-linecap="round" stroke-linejoin="round"/>
<path d="M136.976 143.374H129.659C129.659 142.623 129.949 141.902 130.465 141.371C130.981 140.84 131.681 140.542 132.411 140.542H134.214C134.944 140.542 135.644 140.84 136.16 141.371C136.676 141.902 136.966 142.623 136.966 143.374H136.976Z" fill="white" stroke="#263238" stroke-linecap="round" stroke-linejoin="round"/>
<path d="M126.174 141.831H90.4004V143.373H126.174V141.831Z" fill="#919191" stroke="#263238" stroke-linecap="round" stroke-linejoin="round"/>
<path d="M126.165 141.831H117.176V143.373H126.165V141.831Z" fill="white" stroke="#263238" stroke-linecap="round" stroke-linejoin="round"/>
<path d="M75.7354 67.7686V38.46" stroke="#263238" stroke-linecap="round" stroke-linejoin="round"/>
<path d="M75.7354 214.451V70.6851" stroke="#263238" stroke-linecap="round" stroke-linejoin="round"/>
<path d="M140.778 153.662L145.116 213.841C145.139 214.061 145.242 214.263 145.404 214.408C145.567 214.552 145.777 214.627 145.991 214.617C146.206 214.608 146.409 214.515 146.559 214.357C146.709 214.199 146.794 213.988 146.798 213.767L146.148 153.662H140.778Z" fill="#919191" stroke="#263238" stroke-linecap="round" stroke-linejoin="round"/>
<path d="M144.051 153.661L146.34 214.535C146.475 214.46 146.588 214.35 146.666 214.214C146.744 214.079 146.785 213.924 146.784 213.766L146.148 153.661H144.051Z" fill="white" stroke="#263238" stroke-linecap="round" stroke-linejoin="round"/>
<path d="M168.046 153.661L172.384 213.84C172.406 214.06 172.509 214.263 172.672 214.407C172.835 214.551 173.045 214.626 173.259 214.616C173.473 214.607 173.676 214.514 173.826 214.356C173.976 214.198 174.062 213.987 174.066 213.766L173.415 153.661H168.046Z" fill="#919191" stroke="#263238" stroke-linecap="round" stroke-linejoin="round"/>
<path d="M171.062 153.661L173.733 214.445C173.833 214.365 173.914 214.262 173.969 214.144C174.024 214.026 174.052 213.897 174.051 213.766L173.415 153.661H171.062Z" fill="white" stroke="#263238" stroke-linecap="round" stroke-linejoin="round"/>
<path d="M96.1684 154.316L91.8304 213.836C91.8158 214.054 91.721 214.259 91.5652 214.408C91.4095 214.557 91.2045 214.64 90.9917 214.639V214.639C90.8802 214.641 90.7693 214.621 90.6656 214.578C90.5619 214.536 90.4674 214.473 90.3876 214.392C90.3078 214.312 90.2443 214.216 90.2007 214.111C90.1572 214.005 90.1344 213.891 90.1338 213.776L90.7748 154.157L96.1684 154.316Z" fill="#263238" stroke="#263238" stroke-linecap="round" stroke-linejoin="round"/>
<path d="M68.9265 154.316L64.5885 213.836C64.5739 214.055 64.4791 214.259 64.3234 214.408C64.1676 214.558 63.9626 214.64 63.7499 214.64V214.64C63.6387 214.639 63.5287 214.616 63.4263 214.571C63.3239 214.527 63.231 214.462 63.1531 214.38C63.0752 214.299 63.0137 214.202 62.9722 214.096C62.9306 213.99 62.9099 213.876 62.9112 213.762L63.5522 154.143L68.9265 154.316Z" fill="#263238" stroke="#263238" stroke-linecap="round" stroke-linejoin="round"/>
<path d="M175.011 144.773H61.9189V154.147H175.011V144.773Z" fill="#919191" stroke="#263238" stroke-linecap="round" stroke-linejoin="round"/>
<path d="M175.009 144.773H142.6V154.147H175.009V144.773Z" fill="white" stroke="#263238" stroke-linecap="round" stroke-linejoin="round"/>
<path d="M175.011 146.261H61.9189V148.845H175.011V146.261Z" fill="#263238" stroke="#263238" stroke-linecap="round" stroke-linejoin="round"/>
<path d="M176.639 143.429H60.2891V146.563H176.639V143.429Z" fill="#919191" stroke="#263238" stroke-linecap="round" stroke-linejoin="round"/>
<path d="M176.633 143.429H144.682V146.563H176.633V143.429Z" fill="white" stroke="#263238" stroke-linecap="round" stroke-linejoin="round"/>
<path d="M142.33 85.312H126.627C125.809 85.312 125.024 85.6465 124.446 86.2418C123.867 86.8371 123.542 87.6445 123.542 88.4864V94.4384C123.541 94.8554 123.621 95.2685 123.776 95.654C123.93 96.0394 124.158 96.3896 124.444 96.6845C124.731 96.9794 125.071 97.2132 125.446 97.3725C125.82 97.5318 126.222 97.6134 126.627 97.6128H134.85L131.77 106.466L137.669 97.6128H142.33C142.736 97.6134 143.137 97.5318 143.512 97.3725C143.886 97.2132 144.226 96.9794 144.513 96.6845C144.8 96.3896 145.027 96.0394 145.182 95.654C145.336 95.2685 145.416 94.8554 145.415 94.4384V88.4864C145.415 87.6445 145.09 86.8371 144.512 86.2418C143.933 85.6465 143.149 85.312 142.33 85.312Z" fill="white" stroke="#263238" stroke-linecap="round" stroke-linejoin="round"/>
<path d="M130.271 92.8167C130.891 92.8167 131.394 92.2993 131.394 91.661C131.394 91.0228 130.891 90.5054 130.271 90.5054C129.65 90.5054 129.147 91.0228 129.147 91.661C129.147 92.2993 129.65 92.8167 130.271 92.8167Z" fill="#263238"/>
<path d="M134.48 92.8167C135.1 92.8167 135.603 92.2993 135.603 91.661C135.603 91.0228 135.1 90.5054 134.48 90.5054C133.859 90.5054 133.356 91.0228 133.356 91.661C133.356 92.2993 133.859 92.8167 134.48 92.8167Z" fill="#263238"/>
<path d="M139.805 91.661C139.805 91.4323 139.739 91.2086 139.615 91.0185C139.491 90.8283 139.316 90.6802 139.11 90.5929C138.905 90.5055 138.679 90.4829 138.461 90.5279C138.243 90.5729 138.043 90.6835 137.886 90.8456C137.729 91.0077 137.622 91.2141 137.58 91.4386C137.537 91.6631 137.56 91.8957 137.645 92.1067C137.731 92.3178 137.876 92.498 138.061 92.6244C138.247 92.7507 138.464 92.8177 138.686 92.8167C138.834 92.8167 138.98 92.7868 139.116 92.7287C139.252 92.6705 139.375 92.5853 139.479 92.4779C139.583 92.3705 139.665 92.2431 139.721 92.1029C139.777 91.9627 139.805 91.8126 139.805 91.661Z" fill="#263238"/>
<path d="M216.9 214.768H229.914" stroke="#263238" stroke-linecap="round" stroke-linejoin="round"/>
<path d="M11.5684 214.768H210.152" stroke="#263238" stroke-linecap="round" stroke-linejoin="round"/>
<path d="M88.0324 127.115C86.6201 124.635 82.4653 115.087 82.4653 115.087C82.5905 114.067 82.7936 113.059 83.0726 112.072C83.4148 111.08 84.2776 108.074 84.1041 107.449C83.9306 106.824 81.429 105.673 81.1735 105.584C80.9181 105.495 81.5157 103.987 80.5662 103.63C79.6167 103.272 79.2744 103.808 79.2744 103.808L78.9129 106.288L77.8043 108.074C77.3427 107.713 76.8598 107.381 76.3583 107.082C75.5823 106.635 73.77 106.457 73.6832 107.171C73.5965 107.885 75.1292 108.5 75.6642 108.947C76.1993 109.393 76.8741 111.521 77.4814 112.146C78.0332 112.766 78.5514 113.417 79.0334 114.095L79.3805 115.251C79.3805 115.251 80.5614 126.952 80.7012 129.863C80.8409 132.775 81.2651 140.477 82.1134 141.638C82.9617 142.799 83.1063 143.533 85.4874 142.66C87.8685 141.787 88.3119 140.621 88.8614 138.002C89.4109 135.384 89.4446 129.585 88.0324 127.115Z" fill="white" stroke="#263238" stroke-linecap="round" stroke-linejoin="round"/>
<path d="M88.8797 138.017C89.4436 135.403 89.4436 129.585 88.0314 127.105C87.8771 126.832 87.6892 126.48 87.4771 126.063C84.2814 125.106 81.2448 126.668 81.2448 126.668L80.4736 127.016C80.5749 128.231 80.652 129.248 80.6809 129.868C80.8255 132.774 81.2448 140.482 82.0932 141.643C82.9415 142.803 83.0861 143.537 85.4671 142.664C87.8482 141.792 88.3109 140.636 88.8797 138.017Z" fill="#CBCBCB" stroke="#263238" stroke-linecap="round" stroke-linejoin="round"/>
<path d="M77.7269 87.792C78.075 89.1077 78.2692 90.4614 78.3054 91.8245C78.3054 93.7638 77.727 94.9592 78.5994 95.5544C79.4718 96.1496 80.1948 96.1545 80.0454 97.3499C79.9882 98.0098 79.7339 98.6352 79.3176 99.1405C79.3176 99.1405 79.0284 105.261 78.7392 105.861C78.45 106.461 74.6759 105.712 73.8035 105.559C72.931 105.405 70.468 106.605 68.8678 103.322C67.2676 100.038 68.5786 95.108 71.4802 92.5685C73.4761 90.86 75.5614 89.2655 77.7269 87.792V87.792Z" fill="white" stroke="#263238" stroke-linecap="round" stroke-linejoin="round"/>
<path d="M78.3057 91.7997C78.3057 91.7997 77.52 91.1946 77.1055 92.256" stroke="#263238" stroke-linecap="round" stroke-linejoin="round"/>
<path d="M77.6012 94.2695C77.4884 94.8709 77.5249 95.4919 77.7073 96.075" stroke="#263238" stroke-linecap="round" stroke-linejoin="round"/>
<path d="M79.0464 101.283C78.9176 101.326 78.7815 101.34 78.647 101.325C78.5125 101.31 78.3826 101.265 78.2658 101.195C78.1489 101.125 78.0478 101.03 77.9688 100.917C77.8899 100.804 77.835 100.675 77.8076 100.539" stroke="#263238" stroke-linecap="round" stroke-linejoin="round"/>
<path d="M80.6904 129.356C80.6904 129.356 80.2084 131.628 79.7795 132.828C79.3505 134.029 71.6578 136.231 68.3079 136.687C66.1011 136.971 63.8801 137.122 61.6562 137.139L61.8683 143.418C61.8683 143.418 68.3561 143.552 68.814 143.418C69.2719 143.284 80.194 138.26 80.194 138.26L84.9079 137.625C84.9079 137.625 86.889 137.129 86.9661 135.546C87.0432 133.964 85.2935 129.466 84.4982 128.766C83.7029 128.067 82.0256 126.212 81.0182 127.353C80.0108 128.493 80.6904 129.356 80.6904 129.356Z" fill="white" stroke="#263238" stroke-linecap="round" stroke-linejoin="round"/>
<path d="M66.2266 140.631C66.2266 137.918 66.9014 137.848 67.6726 136.772C65.6799 137.001 63.6769 137.124 61.6718 137.139L61.5127 142.903C61.5127 142.903 65.065 143.24 67.2292 143.399C67.0509 143.681 66.2266 142.377 66.2266 140.631Z" fill="#CBCBCB" stroke="#263238" stroke-linecap="round" stroke-linejoin="round"/>
<path d="M87.1741 152.832C84.6077 149.864 81.3453 147.622 77.698 146.32L69.2341 150.035C68.5768 148.374 67.7045 146.813 66.6409 145.392L65.06 143.408L66.077 137.719C66.077 137.719 72.1695 133.424 72.9551 131.564L72.984 131.504C74.2083 133.454 79.52 141.891 80.5177 142.709C81.6456 143.641 85.0292 143.756 86.4945 142.362C87.9598 140.968 88.6394 140.04 88.302 137.952C88.302 137.952 86.0463 132.958 84.8027 130.75C83.5591 128.543 80.8551 120.652 79.5007 118.211C78.5367 116.466 78.1366 115.235 77.4522 114.412C76.977 113.57 76.4164 112.782 75.7796 112.061C74.4252 110.573 70.6994 110.201 69.9089 109.854C69.1184 109.507 69.0075 109.388 64.496 107.999C59.9845 106.61 54.9042 105.792 51.294 108.693C51.294 108.693 46.4451 114.615 44.5461 124.367C42.647 134.118 42.512 143.989 42.2903 145.73C42.0686 147.471 40.1454 155.947 39.5815 160.823C39.0175 165.699 43.9628 170.594 47.0091 172.112C50.0553 173.63 63.1416 173.853 70.815 172.112C78.4885 170.371 90.6734 162.475 90.6734 162.475C90.6734 162.475 91.1217 157.594 87.1741 152.832Z" fill="#CBCBCB" stroke="#263238" stroke-linecap="round" stroke-linejoin="round"/>
<path d="M67.225 131.38L65.6777 131.326" stroke="#263238" stroke-linecap="round" stroke-linejoin="round"/>
<path d="M66.6416 128.846C68.809 129.598 70.9194 130.513 72.9558 131.584L68.9841 131.445" stroke="#263238" stroke-linecap="round" stroke-linejoin="round"/>
<path d="M87.6033 131.778C88.0485 132.497 88.3226 133.315 88.4034 134.164C88.4034 135.26 88.5818 136.728 88.1383 136.272C87.6949 135.815 87.5117 134.253 87.5117 134.253L87.6033 131.778Z" fill="white" stroke="#263238" stroke-linecap="round" stroke-linejoin="round"/>
<path d="M84.9326 130.497C84.9326 130.497 86.6003 129.565 87.3426 130.686C88.0849 131.807 87.8873 134.043 87.3426 135.15C86.798 136.256 86.1762 135.199 86.2533 134.217C86.3304 133.235 84.9326 130.497 84.9326 130.497Z" fill="white" stroke="#263238" stroke-linecap="round" stroke-linejoin="round"/>
<path d="M84.3057 129.307C84.3057 129.307 85.9782 128.375 86.7157 129.496C87.4531 130.617 87.2555 132.849 86.7157 133.96C86.1758 135.071 85.5492 134.009 85.6263 133.027C85.7035 132.045 84.3057 129.307 84.3057 129.307Z" fill="white" stroke="#263238" stroke-linecap="round" stroke-linejoin="round"/>
<path d="M83.54 128.023C83.54 128.023 85.2126 127.09 85.95 128.211C86.6875 129.332 86.4947 131.569 85.95 132.675C85.4054 133.782 84.7836 132.725 84.8607 131.743C84.9378 130.761 83.54 128.023 83.54 128.023Z" fill="white" stroke="#263238" stroke-linecap="round" stroke-linejoin="round"/>
<path d="M79.3082 83.1346C79.336 84.9171 78.8893 86.6736 78.0165 88.2136C75.5487 92.0973 73.2302 91.6459 72.2325 94.7856C71.2348 97.9253 69.7454 101.184 71.336 102.999C72.9266 104.815 74.228 103.743 74.228 103.743C74.228 103.743 75.245 106.432 72.6326 109.12C70.0201 111.808 65.5231 110.762 64.3614 110.315C63.6299 110.025 62.9457 109.622 62.3322 109.12C62.3322 109.12 61.6044 111.213 57.9942 111.213C54.384 111.213 50.2822 108.674 50.2822 104.041C50.2822 99.4083 52.7452 96.2786 53.3285 94.483C53.9117 92.6875 52.3114 87.167 54.7745 83.7347C57.2375 80.3024 61.0405 77.7827 63.9325 77.7827C66.8245 77.7827 72.4687 79.4146 72.4928 79.4245C72.8736 79.6378 75.3125 78.616 75.9728 78.6606C78.3973 78.7995 79.2793 80.848 79.3082 83.1346Z" fill="#263238" stroke="#263238" stroke-linecap="round" stroke-linejoin="round"/>
<path d="M69.8896 104.378C70.4159 104.451 70.9491 104.451 71.4754 104.378" stroke="#919191" stroke-linecap="round" stroke-linejoin="round"/>
<path d="M77.216 85.7388C76.9871 87.0683 76.5108 88.3399 75.8134 89.4836C73.5576 93.1292 70.9934 94.4436 67.923 97.9156C65.9517 100.162 66.3228 102.404 67.923 103.58" stroke="#919191" stroke-linecap="round" stroke-linejoin="round"/>
<path d="M77.2588 81.8647C77.3527 82.4117 77.3995 82.966 77.3986 83.5214" stroke="#919191" stroke-linecap="round" stroke-linejoin="round"/>
<path d="M74.2276 85.3418C74.2276 85.3418 73.7456 90.4754 71.6537 93.4563C69.5618 96.4373 65.3877 97.9203 65.5371 101.075" stroke="#919191" stroke-linecap="round" stroke-linejoin="round"/>
<path d="M93.652 171.273C93.652 171.273 96.6597 187.175 99.2336 194.903C101.807 202.63 104.381 209.698 105.018 210.363C105.654 211.028 107.379 213.453 107.379 213.453C106.582 214.109 105.607 214.495 104.589 214.559C103.085 214.559 101.157 212.575 99.436 211.464C97.7153 210.353 97.508 209.698 94.0714 208.374C90.6347 207.05 93.4303 203.518 94.2883 201.748C94.7844 200.792 95.0769 199.739 95.1462 198.658C93.7821 193.684 91.3639 189.083 88.0656 185.186C82.7106 179.006 81.6357 164.672 81.6357 164.672L91.9361 160.704L93.652 171.273Z" fill="white" stroke="#263238" stroke-linecap="round" stroke-linejoin="round"/>
<path d="M104.594 209.57L103.972 209.699C103.972 209.699 100.323 204.62 97.5371 202.854C96.5874 202.179 95.4705 201.797 94.3173 201.753C93.4545 203.519 90.6686 207.05 94.1004 208.374C97.5322 209.699 97.7491 210.358 99.465 211.465C101.181 212.571 103.114 214.56 104.618 214.56C105.636 214.495 106.611 214.109 107.408 213.454C107.408 213.454 105.688 211.023 105.047 210.363C104.864 210.119 104.712 209.853 104.594 209.57V209.57Z" fill="#CBCBCB" stroke="#263238" stroke-linecap="round" stroke-linejoin="round"/>
<path d="M102.863 213.93C101.167 212.725 99.6341 210.046 96.8722 208.375C94.361 206.857 93.0692 206.797 92.5342 206.911C92.6652 207.266 92.876 207.583 93.1491 207.837C93.4222 208.092 93.7499 208.276 94.1055 208.375C97.5422 209.699 97.7542 210.359 99.4702 211.465C100.555 212.179 101.75 213.28 102.863 213.93Z" fill="#CBCBCB" stroke="#263238" stroke-linecap="round" stroke-linejoin="round"/>
<path d="M104.593 214.559C104.484 214.555 104.374 214.544 104.266 214.525C104.374 214.546 104.483 214.557 104.593 214.559Z" fill="#CBCBCB" stroke="#263238" stroke-linecap="round" stroke-linejoin="round"/>
<path d="M74.5262 147.312C74.5262 147.312 84.841 143.552 85.805 146.032C86.769 148.512 91.1841 157.763 89.5743 161.562C87.9644 165.362 76.647 150.65 75.0371 150.333C73.4272 150.015 74.3382 148.423 74.5262 147.312Z" fill="white" stroke="#263238" stroke-linecap="round" stroke-linejoin="round"/>
<path d="M84.6348 152.158C84.6348 152.158 96.3619 151.166 98.6128 153.319C100.864 155.471 93.1517 181.258 88.9728 189.358C82.4224 202.026 84.4034 205.344 84.4034 205.344C84.4034 205.344 84.8854 207.328 88.1004 210.473C91.3153 213.617 92.2793 214.108 91.1514 214.604C90.0236 215.1 85.2084 214.604 84.7264 214.272C84.2444 213.94 80.7113 210.969 77.4964 209.977C74.2814 208.985 74.7634 208.32 76.2094 205.344C77.6554 202.368 77.4964 204.848 79.1014 199.724C81.0255 193.41 82.5454 186.973 83.6515 180.455C84.5047 175.143 85.8061 169.31 85.4397 163.908L84.6348 152.158Z" fill="white" stroke="#263238" stroke-linecap="round" stroke-linejoin="round"/>
<path d="M93.2235 160.233C91.9955 157.184 89.883 154.6 87.1744 152.832C82.046 149.464 77.6983 146.32 77.6983 146.32L69.2344 150.035C69.2344 150.035 71.2974 153.636 60.6934 155.456C52.5283 156.855 45.0332 154.826 40.9892 152.381C40.4253 155.263 39.8372 158.467 39.5432 160.813C38.9793 165.689 43.9439 170.564 46.9901 172.077C50.0363 173.59 74.5798 176.72 81.188 172.35C93.2235 164.429 93.2235 160.233 93.2235 160.233Z" fill="#263238" stroke="#263238" stroke-linecap="round" stroke-linejoin="round"/>
<path d="M68.2755 152.768C67.1428 153.725 64.9352 154.752 60.6936 155.461C52.5285 156.86 45.0334 154.832 40.9895 152.386C40.8449 153.125 40.7003 153.874 40.5557 154.643C43.3272 156.359 49.1497 159.266 55.7146 158.437C63.5471 157.45 67.0271 155.248 68.2755 152.768Z" fill="#CBCBCB" stroke="#263238" stroke-linecap="round" stroke-linejoin="round"/>
<path d="M62.019 163.392C61.6431 163.888 61.2527 164.384 60.8574 164.88" stroke="white" stroke-linecap="round" stroke-linejoin="round"/>
<path d="M67.9227 153.979C66.4394 156.785 64.7844 159.492 62.9678 162.083" stroke="white" stroke-linecap="round" stroke-linejoin="round"/>
<path d="M64.3913 157.118C64.3913 157.118 61.4993 161.086 58.4482 163.402" stroke="white" stroke-linecap="round" stroke-linejoin="round"/>
<path d="M88.1004 210.463C84.8854 207.328 84.4034 205.344 84.4034 205.344C84.2958 205.241 84.2104 205.116 84.1528 204.977C83.9359 205.21 83.2804 205.652 81.6753 205.017C80.2823 204.466 78.9617 203.529 77.5687 202.899C77.2361 203.509 76.9132 203.891 76.2094 205.344C74.7634 208.32 74.2814 208.985 77.4964 209.977C80.7113 210.969 84.2444 213.945 84.7264 214.272C85.2084 214.6 90.0284 215.101 91.1514 214.605C92.2745 214.109 91.3153 213.603 88.1004 210.463Z" fill="#CBCBCB" stroke="#263238" stroke-linecap="round" stroke-linejoin="round"/>
<path d="M91.0596 161.914L96.5255 158.442" stroke="#263238" stroke-linecap="round" stroke-linejoin="round"/>
<path d="M25.7627 130.477C25.7627 130.477 43.1725 128.236 54.2971 131.469L55.9889 175.023H29.8838C29.8838 175.023 31.566 151.627 25.7627 130.477Z" fill="#919191" stroke="#263238" stroke-linecap="round" stroke-linejoin="round"/>
<path d="M54.2971 131.469C43.1725 128.236 25.7627 130.477 25.7627 130.477C27.6258 137.526 28.8632 144.735 29.4596 152.014C39.181 157.009 48.0848 163.536 55.8491 171.358L54.2971 131.469Z" fill="#757575" stroke="#263238" stroke-linecap="round" stroke-linejoin="round"/>
<path d="M87.1254 215.76C86.9284 215.761 86.736 215.699 86.574 215.584C86.412 215.469 86.2882 215.305 86.2192 215.115C82.3633 204.421 81.3993 176.66 81.3414 175.485C81.3325 175.222 81.4255 174.966 81.5999 174.773C81.7744 174.581 82.016 174.467 82.2717 174.458C82.5273 174.449 82.7761 174.545 82.9632 174.724C83.1503 174.904 83.2605 175.152 83.2694 175.415C83.2694 175.703 84.272 204.03 88.0267 214.421C88.1155 214.667 88.1055 214.94 87.9988 215.179C87.8922 215.418 87.6976 215.604 87.458 215.695C87.3522 215.739 87.2392 215.761 87.1254 215.76Z" fill="white" stroke="#263238" stroke-linecap="round" stroke-linejoin="round"/>
<path d="M66.1362 215.76C65.94 215.76 65.7486 215.698 65.5876 215.582C65.4265 215.467 65.3035 215.304 65.2348 215.115C61.3788 204.421 60.4148 176.66 60.3522 175.485C60.3432 175.222 60.4362 174.966 60.6106 174.773C60.7851 174.581 61.0267 174.467 61.2824 174.458C61.5381 174.449 61.7868 174.545 61.974 174.724C62.1611 174.904 62.2712 175.152 62.2802 175.415C62.2802 175.703 63.2827 204.03 67.0423 214.421C67.1311 214.667 67.1211 214.94 67.0144 215.179C66.9078 215.418 66.7132 215.604 66.4736 215.695C66.3661 215.739 66.2516 215.761 66.1362 215.76V215.76Z" fill="white" stroke="#263238" stroke-linecap="round" stroke-linejoin="round"/>
<path d="M86.8657 175.004H29.4258V173.02H84.9474C85.4587 173.02 85.9491 173.229 86.3107 173.601C86.6722 173.973 86.8754 174.478 86.8754 175.004H86.8657Z" fill="#919191" stroke="#263238" stroke-linecap="round" stroke-linejoin="round"/>
<path d="M86.8609 174.523H29.4258V176.492H86.8609V174.523Z" fill="white" stroke="#263238" stroke-linecap="round" stroke-linejoin="round"/>
<path d="M53.8673 215.76C53.7223 215.763 53.5783 215.732 53.4463 215.67C53.3143 215.608 53.1977 215.517 53.105 215.402C53.0123 215.287 52.946 215.152 52.9111 215.007C52.8762 214.862 52.8736 214.711 52.9033 214.565C58.3547 187.989 53.3853 132.105 53.3179 131.544C53.3061 131.414 53.3195 131.282 53.3571 131.157C53.3947 131.032 53.4559 130.916 53.5371 130.816C53.6184 130.715 53.7181 130.632 53.8306 130.571C53.943 130.51 54.0661 130.472 54.1927 130.46C54.4483 130.436 54.7029 130.517 54.9004 130.686C55.098 130.855 55.2222 131.097 55.2459 131.361C55.2989 131.926 60.3068 188.103 54.7976 214.971C54.7527 215.192 54.6361 215.39 54.467 215.534C54.2979 215.677 54.0864 215.757 53.8673 215.76Z" fill="white" stroke="#263238" stroke-linecap="round" stroke-linejoin="round"/>
<path d="M23.9841 215.036C23.8943 215.037 23.8048 215.023 23.719 214.996C23.474 214.924 23.2664 214.756 23.1418 214.527C23.0172 214.298 22.9855 214.028 23.0538 213.776C35.5858 167.995 24.9481 131.132 24.8421 130.765C24.7813 130.518 24.8152 130.257 24.9366 130.035C25.058 129.813 25.2576 129.648 25.4943 129.573C25.7309 129.499 25.9863 129.521 26.2076 129.634C26.429 129.748 26.5993 129.945 26.6833 130.185C26.7942 130.557 37.6151 167.945 24.9095 214.311C24.8529 214.519 24.7319 214.703 24.5649 214.833C24.3978 214.964 24.1939 215.035 23.9841 215.036V215.036Z" fill="white" stroke="#263238" stroke-linecap="round" stroke-linejoin="round"/>
<path d="M200.212 133.251C200.212 133.251 194.289 129.863 193.85 137.541C193.412 145.219 192.317 195.122 192.317 195.122" stroke="#263238" stroke-width="2" stroke-linecap="round" stroke-linejoin="round"/>
<path d="M190.775 138.215C190.775 138.215 195.595 149.281 193.412 194.447" stroke="#263238" stroke-width="2" stroke-linecap="round" stroke-linejoin="round"/>
<path d="M195.523 134.798C195.523 134.798 193.253 136.286 191.966 134.579C190.679 132.873 192.838 129.739 190.934 128.399C189.03 127.06 185.738 129.104 185.738 129.104C185.738 129.104 188.269 129.867 188.187 131.291C188.105 132.715 186.885 133.25 186.741 132.63C186.596 132.01 185.367 128.875 183.314 130.18C182.72 130.54 182.204 131.02 181.797 131.591C181.389 132.162 181.098 132.813 180.942 133.503C180.942 133.503 185.729 132.977 186.018 134.827C186.307 136.678 184.056 134.505 182.08 134.386C180.104 134.267 178.301 134.565 178.431 135.795C178.475 136.883 178.412 137.973 178.243 139.048C179.325 138.124 180.693 137.628 182.099 137.65C184.273 137.784 184.191 139.207 182.215 139.088C180.239 138.969 178.542 140.903 178.542 140.903C178.542 140.903 180.345 144.073 182.634 145.64C184.924 147.208 185.748 146.632 186.008 145.437C186.268 144.242 185.661 141.132 187.044 141.216C188.428 141.3 184.755 146.583 186.519 146.895C188.283 147.208 189.705 146.682 190.168 145.487L190.65 144.291C190.65 144.291 190.033 141.191 190.303 139.986C190.573 138.781 190.896 140.021 191.209 141.474C191.522 142.927 191.72 146.399 192.322 146.231C192.925 146.062 194.858 143.532 195.311 142.535C195.764 141.538 192.766 138.508 192.8 137.898C192.833 137.288 195.147 138.448 195.508 139.083C195.771 139.565 196.008 140.062 196.217 140.571C196.217 140.571 197.663 139.639 197.624 136.782C197.586 133.925 195.523 134.798 195.523 134.798Z" fill="#CBCBCB"/>
<path opacity="0.3" d="M195.523 134.798C195.523 134.798 193.253 136.286 191.966 134.579C190.679 132.873 192.838 129.739 190.934 128.399C189.03 127.06 185.738 129.104 185.738 129.104C185.738 129.104 188.269 129.867 188.187 131.291C188.105 132.715 186.885 133.25 186.741 132.63C186.596 132.01 185.367 128.875 183.314 130.18C182.72 130.54 182.204 131.02 181.797 131.591C181.389 132.162 181.098 132.813 180.942 133.503C180.942 133.503 185.729 132.977 186.018 134.827C186.307 136.678 184.056 134.505 182.08 134.386C180.104 134.267 178.301 134.565 178.431 135.795C178.475 136.883 178.412 137.973 178.243 139.048C179.325 138.124 180.693 137.628 182.099 137.65C184.273 137.784 184.191 139.207 182.215 139.088C180.239 138.969 178.542 140.903 178.542 140.903C178.542 140.903 180.345 144.073 182.634 145.64C184.924 147.208 185.748 146.632 186.008 145.437C186.268 144.242 185.661 141.132 187.044 141.216C188.428 141.3 184.755 146.583 186.519 146.895C188.283 147.208 189.705 146.682 190.168 145.487L190.65 144.291C190.65 144.291 190.033 141.191 190.303 139.986C190.573 138.781 190.896 140.021 191.209 141.474C191.522 142.927 191.72 146.399 192.322 146.231C192.925 146.062 194.858 143.532 195.311 142.535C195.764 141.538 192.766 138.508 192.8 137.898C192.833 137.288 195.147 138.448 195.508 139.083C195.771 139.565 196.008 140.062 196.217 140.571C196.217 140.571 197.663 139.639 197.624 136.782C197.586 133.925 195.523 134.798 195.523 134.798Z" fill="#263238"/>
<path d="M184.031 141.498C185.511 139.619 187.685 137.074 189.512 135.859" stroke="#263238" stroke-linecap="round" stroke-linejoin="round"/>
<path d="M182.321 143.785C182.321 143.785 182.697 143.245 183.314 142.431" stroke="#263238" stroke-linecap="round" stroke-linejoin="round"/>
<path d="M190.477 136.326C190.477 136.326 192.675 139.52 193.079 142.808" stroke="#263238" stroke-linecap="round" stroke-linejoin="round"/>
<path d="M187.98 138.215C187.98 138.215 188.597 137.843 188.366 141.91" stroke="#263238" stroke-linecap="round" stroke-linejoin="round"/>
<path d="M189.595 134.416C189.595 134.416 190.853 133.27 190.188 130.984" stroke="#263238" stroke-linecap="round" stroke-linejoin="round"/>
<path d="M187.898 136.375L187.001 134.689" stroke="#263238" stroke-linecap="round" stroke-linejoin="round"/>
<path d="M186.013 138.096C186.013 138.096 183.169 135.884 181.391 135.775" stroke="#263238" stroke-linecap="round" stroke-linejoin="round"/>
<path d="M203.601 128.771C203.601 128.771 203.509 132.124 200.964 132.288C198.419 132.452 196.848 128.087 194.245 129.139C191.642 130.19 191.392 134.971 191.392 134.971C191.392 134.971 193.859 132.883 195.19 133.935C196.52 134.986 196.212 136.613 195.493 136.355C194.775 136.097 190.91 135.21 190.775 138.215C190.721 139.072 190.836 139.932 191.113 140.741C191.391 141.551 191.825 142.295 192.389 142.927C192.389 142.927 195.142 137.635 197.147 138.597C199.152 139.559 195.493 140.403 194.028 142.357C192.563 144.311 191.618 146.37 192.915 147.079C194.004 147.773 195.021 148.579 195.951 149.484C195.951 149.484 195.604 146.717 197.214 144.569C198.824 142.421 200.15 143.473 198.689 145.427C197.229 147.381 197.952 150.452 197.952 150.452C197.952 150.452 202.261 150.754 205.346 149.46C208.43 148.165 208.45 146.935 207.457 145.839C206.464 144.743 203.032 143.265 204.054 141.871C205.076 140.477 207.717 147.887 209.226 146.28C210.734 144.673 211.187 142.853 210.339 141.558L209.491 140.269C209.491 140.269 206.059 138.781 205.066 137.69C204.073 136.598 205.505 137.104 207.129 137.769C208.753 138.434 212.267 140.601 212.518 139.862C212.768 139.123 211.616 135.398 210.961 134.267C210.305 133.136 205.302 134.143 204.733 133.692C204.165 133.24 206.869 131.648 207.731 131.708C208.378 131.763 209.022 131.854 209.659 131.981C209.659 131.981 209.737 129.858 206.931 127.948C204.126 126.039 203.601 128.771 203.601 128.771Z" fill="#CBCBCB"/>
<path opacity="0.2" d="M203.601 128.771C203.601 128.771 203.509 132.124 200.964 132.288C198.419 132.452 196.848 128.087 194.245 129.139C191.642 130.19 191.392 134.971 191.392 134.971C191.392 134.971 193.859 132.883 195.19 133.935C196.52 134.986 196.212 136.613 195.493 136.355C194.775 136.097 190.91 135.21 190.775 138.215C190.721 139.072 190.836 139.932 191.113 140.741C191.391 141.551 191.825 142.295 192.389 142.927C192.389 142.927 195.142 137.635 197.147 138.597C199.152 139.559 195.493 140.403 194.028 142.357C192.563 144.311 191.618 146.37 192.915 147.079C194.004 147.773 195.021 148.579 195.951 149.484C195.951 149.484 195.604 146.717 197.214 144.569C198.824 142.421 200.15 143.473 198.689 145.427C197.229 147.381 197.952 150.452 197.952 150.452C197.952 150.452 202.261 150.754 205.346 149.46C208.43 148.165 208.45 146.935 207.457 145.839C206.464 144.743 203.032 143.265 204.054 141.871C205.076 140.477 207.717 147.887 209.226 146.28C210.734 144.673 211.187 142.853 210.339 141.558L209.491 140.269C209.491 140.269 206.059 138.781 205.066 137.69C204.073 136.598 205.505 137.104 207.129 137.769C208.753 138.434 212.267 140.601 212.518 139.862C212.768 139.123 211.616 135.398 210.961 134.267C210.305 133.136 205.302 134.143 204.733 133.692C204.165 133.24 206.869 131.648 207.731 131.708C208.378 131.763 209.022 131.854 209.659 131.981C209.659 131.981 209.737 129.858 206.931 127.948C204.126 126.039 203.601 128.771 203.601 128.771Z" fill="#263238"/>
<path d="M202.29 145.175C201.475 142.352 200.473 138.384 200.54 135.686" stroke="#263238" stroke-linecap="round" stroke-linejoin="round"/>
<path d="M203.346 148.503C203.346 148.503 203.076 147.739 202.705 146.553" stroke="#263238" stroke-linecap="round" stroke-linejoin="round"/>
<path d="M201.648 135.011C201.648 135.011 206.252 134.922 209.727 136.747" stroke="#263238" stroke-linecap="round" stroke-linejoin="round"/>
<path d="M201.793 138.88C201.793 138.88 201.851 137.993 205.649 141.003" stroke="#263238" stroke-linecap="round" stroke-linejoin="round"/>
<path d="M199.21 134.629C199.21 134.629 198.95 132.556 196.274 131.683" stroke="#263238" stroke-linecap="round" stroke-linejoin="round"/>
<path d="M199.937 137.7L197.687 137.472" stroke="#263238" stroke-linecap="round" stroke-linejoin="round"/>
<path d="M200.328 140.814C200.328 140.814 196.236 142.238 194.92 143.999" stroke="#263238" stroke-linecap="round" stroke-linejoin="round"/>
<path d="M176.296 151.091C176.296 151.091 189.242 159.895 189.026 193.995" stroke="#263238" stroke-width="2" stroke-linecap="round" stroke-linejoin="round"/>
<path d="M192.259 148.765C192.259 148.765 191.845 152.624 188.885 152.565C185.926 152.505 184.547 147.317 181.424 148.279C178.3 149.241 177.592 154.727 177.592 154.727C177.592 154.727 180.638 152.555 182.074 153.904C183.511 155.253 183.005 157.093 182.2 156.726C181.395 156.359 177.013 154.955 176.584 158.413C176.445 159.396 176.501 160.399 176.75 161.36C176.998 162.321 177.434 163.22 178.03 164.002C178.03 164.002 181.694 158.165 183.916 159.474C186.138 160.783 181.843 161.393 179.973 163.506C178.103 165.619 176.835 167.901 178.252 168.843C179.447 169.751 180.548 170.781 181.539 171.919C181.539 171.919 181.39 168.695 183.443 166.368C185.497 164.042 186.938 165.376 185.068 167.504C183.198 169.632 183.757 173.228 183.757 173.228C183.757 173.228 188.707 173.997 192.384 172.806C196.062 171.616 196.192 170.198 195.146 168.838C194.1 167.479 190.278 165.436 191.584 163.958C192.891 162.48 195.257 171.259 197.147 169.548C199.036 167.837 199.721 165.788 198.863 164.211L198.005 162.634C198.005 162.634 194.182 160.595 193.136 159.231C192.09 157.867 193.695 158.601 195.508 159.524C197.32 160.446 201.181 163.288 201.533 162.465C201.885 161.641 200.901 157.237 200.251 155.853C199.6 154.469 193.734 155.159 193.117 154.583C192.5 154.008 195.773 152.436 196.761 152.599C197.497 152.726 198.226 152.891 198.944 153.095C198.944 153.095 199.224 150.655 196.163 148.175C193.103 145.695 192.259 148.765 192.259 148.765Z" fill="#CBCBCB"/>
<path opacity="0.3" d="M192.259 148.765C192.259 148.765 191.845 152.624 188.885 152.565C185.926 152.505 184.547 147.317 181.424 148.279C178.3 149.241 177.592 154.727 177.592 154.727C177.592 154.727 180.638 152.555 182.074 153.904C183.511 155.253 183.005 157.093 182.2 156.726C181.395 156.359 177.013 154.955 176.584 158.413C176.445 159.396 176.501 160.399 176.75 161.36C176.998 162.321 177.434 163.22 178.03 164.002C178.03 164.002 181.694 158.165 183.916 159.474C186.138 160.783 181.843 161.393 179.973 163.506C178.103 165.619 176.835 167.901 178.252 168.843C179.447 169.751 180.548 170.781 181.539 171.919C181.539 171.919 181.39 168.695 183.443 166.368C185.497 164.042 186.938 165.376 185.068 167.504C183.198 169.632 183.757 173.228 183.757 173.228C183.757 173.228 188.707 173.997 192.384 172.806C196.062 171.616 196.192 170.198 195.146 168.838C194.1 167.479 190.278 165.436 191.584 163.958C192.891 162.48 195.257 171.259 197.147 169.548C199.036 167.837 199.721 165.788 198.863 164.211L198.005 162.634C198.005 162.634 194.182 160.595 193.136 159.231C192.09 157.867 193.695 158.601 195.508 159.524C197.32 160.446 201.181 163.288 201.533 162.465C201.885 161.641 200.901 157.237 200.251 155.853C199.6 154.469 193.734 155.159 193.117 154.583C192.5 154.008 195.773 152.436 196.761 152.599C197.497 152.726 198.226 152.891 198.944 153.095C198.944 153.095 199.224 150.655 196.163 148.175C193.103 145.695 192.259 148.765 192.259 148.765Z" fill="#263238"/>
<path d="M189.243 167.564C188.549 164.25 187.773 159.563 188.091 156.443" stroke="#263238" stroke-linecap="round" stroke-linejoin="round"/>
<path d="M190.159 171.507C190.159 171.507 189.918 170.599 189.595 169.195" stroke="#263238" stroke-linecap="round" stroke-linejoin="round"/>
<path d="M189.426 155.773C189.426 155.773 194.728 156.121 198.584 158.561" stroke="#263238" stroke-linecap="round" stroke-linejoin="round"/>
<path d="M189.247 160.208C189.247 160.208 189.396 159.191 193.503 163.035" stroke="#263238" stroke-linecap="round" stroke-linejoin="round"/>
<path d="M186.655 155.099C186.655 155.099 186.544 152.678 183.541 151.409" stroke="#263238" stroke-linecap="round" stroke-linejoin="round"/>
<path d="M187.214 158.71L184.64 158.229" stroke="#263238" stroke-linecap="round" stroke-linejoin="round"/>
<path d="M187.382 162.341C187.382 162.341 182.528 163.591 180.846 165.49" stroke="#263238" stroke-linecap="round" stroke-linejoin="round"/>
<path d="M181.343 177.96C181.343 177.96 189.681 184.507 190.559 194.219L188.804 161.696" stroke="#263238" stroke-width="2" stroke-linecap="round" stroke-linejoin="round"/>
<path d="M201.529 173.218C190.559 171.184 190.559 194.219 190.559 194.219" stroke="#263238" stroke-width="2" stroke-linecap="round" stroke-linejoin="round"/>
<path d="M191.874 193.995C191.874 193.995 185.512 146.35 203.924 146.35" stroke="#263238" stroke-width="2" stroke-linecap="round" stroke-linejoin="round"/>
<path d="M197.35 171.849C195.851 170.113 192.665 170.113 190.795 174.548C188.925 178.982 190.607 178.213 190.607 178.213C190.607 178.213 194.164 177.052 196.415 176.284C198.666 175.515 201.659 173.585 201.847 174.741C202.035 175.897 200.348 177.052 198.285 177.439C196.222 177.826 190.795 179.369 191.354 180.544C191.913 181.72 193.229 185.172 193.229 185.172C194.829 183.773 196.518 182.485 198.285 181.318C200.724 179.775 202.223 180.351 200.912 182.087C199.601 183.823 195.851 185.747 196.603 188.064C197.355 190.38 201.847 193.267 201.847 193.267C201.847 193.267 202.411 188.45 203.722 186.908C205.033 185.365 205.033 187.101 204.657 189.8C204.469 190.949 204.344 192.108 204.281 193.272L209.526 195.201C210.383 193.857 211.322 192.57 212.336 191.347L213.3 190.355C213.3 190.355 209.178 186.695 208.991 184.403C208.803 182.112 211.801 184.403 212.736 184.79C213.671 185.177 215.17 187.875 215.17 187.875C215.17 187.875 216.11 183.441 216.298 181.898L216.486 180.356C216.486 180.356 212.548 178.813 211.049 178.813C209.55 178.813 208.803 179.969 208.803 178.431C208.803 176.894 210.302 175.921 211.989 176.115C213.515 176.378 215.019 176.764 216.486 177.271C216.486 177.271 217.609 176.308 217.233 173.417C216.857 170.525 215.922 170.525 213.676 171.294C211.429 172.063 209.926 173.804 208.239 173.804C206.552 173.804 207.491 171.681 208.615 171.105C209.738 170.53 212.548 169.369 213.112 169.176C213.676 168.982 210.114 166.284 208.239 165.897C206.364 165.51 203.939 166.889 204.117 168.789C204.469 172.812 198.849 173.6 197.35 171.849Z" fill="#CBCBCB"/>
<path d="M209.409 191.699C209.467 192.278 209.506 192.858 209.525 193.44" stroke="#263238" stroke-linecap="round" stroke-linejoin="round"/>
<path d="M205.646 177.86C207.297 181.677 208.487 185.689 209.188 189.804" stroke="#263238" stroke-linecap="round" stroke-linejoin="round"/>
<path d="M204.97 176.313C204.045 174.26 203.346 173.005 203.346 173.005C204.368 172.51 205.218 171.703 205.78 170.694C206.218 169.78 206.861 168.986 207.655 168.377" stroke="#263238" stroke-linecap="round" stroke-linejoin="round"/>
<path d="M196.79 179.552C196.79 179.552 203.538 176.661 203.538 177.236" stroke="#263238" stroke-linecap="round" stroke-linejoin="round"/>
<path d="M207.259 175.897C207.259 175.897 210.257 174.354 212.879 174.354" stroke="#263238" stroke-linecap="round" stroke-linejoin="round"/>
<path d="M206.156 180.544C204.855 181.644 203.662 182.871 202.594 184.209C201.501 185.536 200.616 187.031 199.972 188.639" stroke="#263238" stroke-linecap="round" stroke-linejoin="round"/>
<path d="M208.223 181.298C208.223 181.298 212.161 180.137 214.219 182.067" stroke="#263238" stroke-linecap="round" stroke-linejoin="round"/>
<path d="M215.341 155.248C213.303 154.008 211.047 153.978 209.938 152.668C208.83 151.359 211.003 150.684 212.165 151.18C213.327 151.676 216.021 153.1 216.527 153.407C217.033 153.715 216.686 149.187 215.741 147.455C214.797 145.724 212.208 144.752 210.921 146.151C208.198 149.092 203.947 145.233 204.236 142.932C204.525 140.631 202.438 138.155 197.97 139.604C193.502 141.052 195.16 141.861 195.16 141.861C195.16 141.861 198.341 143.869 200.385 145.109C202.429 146.349 205.803 147.416 205.075 148.319C204.347 149.221 202.395 148.671 200.761 147.327C199.127 145.982 194.437 142.768 193.955 143.964C193.473 145.159 191.786 148.452 191.786 148.452C193.862 148.78 195.915 149.249 197.932 149.856C200.66 150.739 201.219 152.282 199.088 152.401C196.958 152.52 193.083 150.873 191.858 152.971C190.634 155.069 191.478 160.456 191.478 160.456C191.478 160.456 195.382 157.738 197.372 157.743C199.363 157.747 198.091 158.888 195.864 160.366C194.898 160.973 193.966 161.635 193.073 162.35L195.097 167.692C196.646 167.477 198.206 167.361 199.768 167.345L201.089 167.444C201.089 167.444 201.089 161.839 202.65 160.178C204.212 158.516 204.492 162.36 204.824 163.342C205.157 164.324 204.159 167.256 204.159 167.256C204.159 167.256 208.015 165.078 209.278 164.21L210.536 163.347C210.536 163.347 209.09 159.275 208.102 158.115C207.114 156.954 205.783 157.123 206.911 156.131C208.039 155.139 209.736 155.635 210.7 157.093C211.508 158.45 212.209 159.871 212.796 161.343C212.796 161.343 214.242 161.587 216.117 159.399C217.992 157.212 217.38 156.488 215.341 155.248ZM197.618 161.418C196.119 160.644 199.676 159.102 199.676 159.102C200.992 158.913 199.112 162.192 197.618 161.418ZM200.139 154.221C199.503 153.894 201.416 153.229 201.416 153.229C204.183 153.76 200.775 154.548 200.134 154.221H200.139Z" fill="#CBCBCB"/>
<path d="M197.571 165.347C197.186 165.768 196.781 166.18 196.371 166.577" stroke="#263238" stroke-linecap="round" stroke-linejoin="round"/>
<path d="M205.26 153.348C203.538 157.131 201.37 160.681 198.806 163.918" stroke="#263238" stroke-linecap="round" stroke-linejoin="round"/>
<path d="M205.954 151.81C206.855 149.742 207.313 148.378 207.313 148.378C208.349 148.846 209.5 148.977 210.61 148.755C211.567 148.495 212.57 148.473 213.536 148.69" stroke="#263238" stroke-linecap="round" stroke-linejoin="round"/>
<path d="M204.324 151.305C204.748 150.923 198.207 147.58 198.207 147.58" stroke="#263238" stroke-linecap="round" stroke-linejoin="round"/>
<path d="M207.77 153.329C207.77 153.329 210.869 154.648 212.59 156.687" stroke="#263238" stroke-linecap="round" stroke-linejoin="round"/>
<path d="M203.64 155.491C201.982 155.201 200.3 155.079 198.618 155.124C196.926 155.146 195.248 155.439 193.644 155.992" stroke="#263238" stroke-linecap="round" stroke-linejoin="round"/>
<path d="M204.426 157.599C204.426 157.599 207.853 159.896 207.8 162.762" stroke="#263238" stroke-linecap="round" stroke-linejoin="round"/>
<path d="M186.229 181.958C184.591 180.966 182.773 180.941 181.891 179.884C181.009 178.828 182.745 178.297 183.68 178.694C184.615 179.091 186.784 180.241 187.193 180.489C187.603 180.737 187.319 177.087 186.557 175.713C185.796 174.339 183.713 173.54 182.677 174.661C180.484 177.032 177.062 173.922 177.298 172.072C177.534 170.222 175.852 168.228 172.242 169.394C168.632 170.559 169.981 171.209 169.981 171.209C169.981 171.209 172.541 172.826 174.184 173.823C175.828 174.82 178.546 175.683 177.958 176.407C177.37 177.131 175.804 176.695 174.488 175.609C173.172 174.523 169.398 171.938 169.012 172.901C168.627 173.863 167.268 176.511 167.268 176.511C168.938 176.777 170.59 177.154 172.213 177.642C174.406 178.352 174.854 179.592 173.138 179.686C171.422 179.78 168.318 178.456 167.354 180.147C166.39 181.839 167.046 186.174 167.046 186.174C167.046 186.174 170.188 183.981 171.789 183.986C173.389 183.991 172.367 184.909 170.579 186.099C169.802 186.588 169.052 187.121 168.333 187.696L169.957 191.992C171.203 191.819 172.459 191.728 173.717 191.719L174.782 191.793C174.782 191.793 174.782 187.285 176.04 185.945C177.298 184.606 177.52 187.701 177.785 188.495C178.05 189.288 177.25 191.644 177.25 191.644C177.25 191.644 180.363 189.889 181.371 189.194L182.383 188.495C182.383 188.495 181.217 185.221 180.426 184.284C179.636 183.346 178.556 183.49 179.462 182.677C180.368 181.863 181.732 182.29 182.508 183.446C183.159 184.539 183.725 185.683 184.2 186.868C184.2 186.868 185.362 187.061 186.87 185.306C188.379 183.55 187.873 182.959 186.229 181.958ZM171.962 186.918C170.757 186.298 173.62 185.058 173.62 185.058C174.676 184.909 173.167 187.547 171.962 186.923V186.918ZM174.001 181.134C173.485 180.866 175.028 180.341 175.028 180.341C177.25 180.782 174.507 181.397 174.001 181.134Z" fill="#CBCBCB"/>
<path d="M171.934 190.087C171.62 190.424 171.297 190.757 170.97 191.079" stroke="#263238" stroke-linecap="round" stroke-linejoin="round"/>
<path d="M178.117 180.43C176.733 183.474 174.989 186.331 172.926 188.936" stroke="#263238" stroke-linecap="round" stroke-linejoin="round"/>
<path d="M178.677 179.19C179.4 177.528 179.771 176.432 179.771 176.432C180.604 176.807 181.529 176.913 182.422 176.735C183.191 176.525 183.997 176.508 184.774 176.685" stroke="#263238" stroke-linecap="round" stroke-linejoin="round"/>
<path d="M172.439 175.788C172.439 175.788 177.708 178.481 177.365 178.764" stroke="#263238" stroke-linecap="round" stroke-linejoin="round"/>
<path d="M180.138 180.415C180.138 180.415 182.63 181.476 183.994 183.118" stroke="#263238" stroke-linecap="round" stroke-linejoin="round"/>
<path d="M176.811 182.156C175.477 181.924 174.125 181.826 172.772 181.863C171.411 181.877 170.061 182.113 168.771 182.563" stroke="#263238" stroke-linecap="round" stroke-linejoin="round"/>
<path d="M177.447 183.852C177.447 183.852 180.204 185.702 180.151 188.004" stroke="#263238" stroke-linecap="round" stroke-linejoin="round"/>
<path d="M179.54 150.124C179.54 150.124 177.477 151.667 176.166 150.124C174.855 148.581 176.73 145.496 174.855 144.341C172.98 143.185 169.986 145.303 169.986 145.303C169.986 145.303 172.421 145.883 172.421 147.232C172.421 148.581 171.298 149.162 171.11 148.581C170.922 148.001 169.611 145.109 167.736 146.464C167.195 146.838 166.735 147.321 166.381 147.883C166.027 148.446 165.788 149.077 165.677 149.737C165.677 149.737 170.17 148.968 170.546 150.704C170.922 152.44 168.675 150.511 166.8 150.511C164.925 150.511 163.238 150.898 163.426 152.053C163.528 153.079 163.528 154.113 163.426 155.139C164.397 154.204 165.66 153.656 166.988 153.596C169.047 153.596 169.047 154.945 167.176 154.945C165.306 154.945 163.802 156.875 163.802 156.875C163.802 156.875 165.677 159.766 167.924 161.115C170.17 162.464 170.922 161.884 171.11 160.728C171.298 159.573 170.546 156.681 171.857 156.681C173.168 156.681 169.986 161.884 171.669 162.078C173.351 162.271 174.667 161.691 175.043 160.535L175.419 159.379C175.419 159.379 174.667 156.488 174.855 155.332C175.043 154.176 175.419 155.332 175.79 156.681C176.161 158.03 176.542 161.304 177.106 161.115C177.67 160.927 179.352 158.412 179.728 157.45C180.104 156.488 177.106 153.789 177.106 153.209C177.106 152.629 179.352 153.596 179.728 154.171C180.104 154.747 180.475 155.52 180.475 155.52C180.475 155.52 181.786 154.558 181.598 151.86C181.41 149.162 179.54 150.124 179.54 150.124Z" fill="#CBCBCB"/>
<path d="M169.043 157.118C170.34 155.258 172.263 152.729 173.921 151.474" stroke="#263238" stroke-linecap="round" stroke-linejoin="round"/>
<path d="M167.548 159.379C167.548 159.379 167.88 158.844 168.415 158.04" stroke="#263238" stroke-linecap="round" stroke-linejoin="round"/>
<path d="M174.855 151.86C174.855 151.86 177.106 154.752 177.666 157.837" stroke="#263238" stroke-linecap="round" stroke-linejoin="round"/>
<path d="M172.608 153.79C172.608 153.79 173.167 153.403 173.167 157.262" stroke="#263238" stroke-linecap="round" stroke-linejoin="round"/>
<path d="M173.919 150.124C173.919 150.124 175.042 148.969 174.295 146.846" stroke="#263238" stroke-linecap="round" stroke-linejoin="round"/>
<path d="M172.419 152.054L171.484 150.511" stroke="#263238" stroke-linecap="round" stroke-linejoin="round"/>
<path d="M170.733 153.79C170.733 153.79 167.923 151.86 166.236 151.86" stroke="#263238" stroke-linecap="round" stroke-linejoin="round"/>
<path d="M198.459 193.316H183.975V214.768H198.459V193.316Z" fill="#263238" stroke="#263238" stroke-width="2" stroke-linecap="round" stroke-linejoin="round"/>
</svg>
