<svg width="185" height="140" fill="none" xmlns="http://www.w3.org/2000/svg"><path d="M99.1612 60.5025C96.9008 58.7809 94.1919 57.9825 91.4792 58.2385C88.7664 58.4945 86.2109 59.7896 84.2319 61.9113C82.2529 64.033 80.9681 66.8553 80.5882 69.915C80.2083 72.9747 80.7559 76.0902 82.1412 78.7501" stroke="#263238" stroke-width="0.969642" stroke-linecap="round" stroke-linejoin="round"/><path d="M103.427 66.2815C103.193 65.6849 102.923 65.1076 102.618 64.554" stroke="#263238" stroke-width="0.969642" stroke-linecap="round" stroke-linejoin="round"/><path d="M102.404 79.4135C103.299 77.9023 103.919 76.2035 104.227 74.4167C104.535 72.63 104.526 70.7913 104.2 69.0087" stroke="#263238" stroke-width="0.969642" stroke-linecap="round" stroke-linejoin="round"/><path d="M80.5395 58.2736C79.7234 59.2031 78.992 60.2237 78.3564 61.32" stroke="#263238" stroke-width="0.969642" stroke-linecap="round" stroke-linejoin="round"/><path d="M105.776 83.5044C108.191 79.9609 109.434 75.5674 109.287 71.0903C109.14 66.6131 107.614 62.3365 104.974 59.0063C102.334 55.676 98.7472 53.5035 94.8403 52.8676C90.9334 52.2317 86.9539 53.1729 83.5957 55.5268" stroke="#263238" stroke-width="0.969642" stroke-linecap="round" stroke-linejoin="round"/><path d="M79.0999 83.5044C77.4339 81.0567 76.3143 78.1877 75.8367 75.1423C75.3591 72.097 75.5376 68.9657 76.357 66.0156" stroke="#263238" stroke-width="0.969642" stroke-linecap="round" stroke-linejoin="round"/><path d="M73.8203 88.3401C74.8686 89.8598 76.0578 91.2473 77.3674 92.4785" stroke="#263238" stroke-width="0.969642" stroke-linecap="round" stroke-linejoin="round"/><path d="M105.835 49.6524C101.612 46.3698 96.5658 44.7299 91.4525 44.9786C86.3391 45.2273 81.4346 47.3513 77.4746 51.0318C73.5147 54.7124 70.7127 59.7512 69.489 65.3924C68.2653 71.0336 68.6859 76.9731 70.6877 82.32" stroke="#263238" stroke-width="0.969642" stroke-linecap="round" stroke-linejoin="round"/><path d="M114.519 62.0984C113.883 60.238 113.066 58.464 112.084 56.8092" stroke="#263238" stroke-width="0.969642" stroke-linecap="round" stroke-linejoin="round"/><path d="M108.805 91.1988C111.116 88.6953 112.956 85.6846 114.212 82.3495C115.467 79.0144 116.112 75.4245 116.108 71.7976" stroke="#263238" stroke-width="0.969642" stroke-linecap="round" stroke-linejoin="round"/><path d="M59.3975 71.7976C59.3975 80.7077 62.1769 89.3299 67.2429 96.1358C72.3089 102.942 79.3342 107.492 87.0735 108.979" stroke="#263238" stroke-width="0.969642" stroke-linecap="round" stroke-linejoin="round"/><path d="M119.141 94.234C123.187 88.0186 125.454 80.5422 125.635 72.8163C125.815 65.0905 123.901 57.4882 120.15 51.038C116.399 44.5878 110.994 39.6011 104.665 36.7527C98.3353 33.9042 91.388 33.3315 84.7627 35.112" stroke="#263238" stroke-width="0.969642" stroke-linecap="round" stroke-linejoin="round"/><path d="M59.3975 71.7976C59.3977 63.3452 61.8993 55.1378 66.5007 48.4923C71.1021 41.8469 77.5367 37.1486 84.7721 35.1512" stroke="#263238" stroke-width="0.969642" stroke-linecap="round" stroke-linejoin="round"/><path d="M112.084 102.2C112.928 101.496 113.739 100.75 114.519 99.9601" stroke="#263238" stroke-width="0.969642" stroke-linecap="round" stroke-linejoin="round"/><path d="M97.9775 108.979C101.755 108.261 105.393 106.802 108.73 104.667" stroke="#263238" stroke-width="0.969642" stroke-linecap="round" stroke-linejoin="round"/><path d="M92.4532 105.602C89.0892 105.598 85.8641 104.079 83.4854 101.379C81.1067 98.6784 79.7686 95.0175 79.7646 91.1989V86.3493C79.7646 86.1414 79.8374 85.942 79.9669 85.7949C80.0965 85.6479 80.2721 85.5653 80.4553 85.5653H82.182C82.3652 85.5653 82.5408 85.6479 82.6704 85.7949C82.7999 85.942 82.8726 86.1414 82.8726 86.3493C82.8726 86.5572 82.7999 86.7567 82.6704 86.9037C82.5408 87.0507 82.3652 87.1333 82.182 87.1333H81.1534V91.1989C81.1534 94.603 82.3447 97.8677 84.4652 100.275C86.5857 102.682 89.4617 104.034 92.4606 104.034C95.4594 104.034 98.3355 102.682 100.456 100.275C102.576 97.8677 103.768 94.603 103.768 91.1989V87.1333H102.732C102.549 87.1333 102.373 87.0507 102.243 86.9037C102.114 86.7567 102.041 86.5572 102.041 86.3493C102.041 86.1414 102.114 85.942 102.243 85.7949C102.373 85.6479 102.549 85.5653 102.732 85.5653H104.458C104.642 85.5653 104.817 85.6479 104.947 85.7949C105.076 85.942 105.149 86.1414 105.149 86.3493V91.1989C105.145 95.019 103.806 98.6812 101.426 101.382C99.0455 104.082 95.8185 105.6 92.4532 105.602V105.602Z" fill="#263238"/><path d="M105.834 117.653V116.085C105.834 115.879 105.798 115.675 105.729 115.485C105.66 115.294 105.558 115.121 105.43 114.976C105.301 114.83 105.149 114.714 104.981 114.636C104.814 114.557 104.634 114.517 104.452 114.517H80.4565C80.275 114.517 80.0953 114.557 79.9275 114.636C79.7598 114.714 79.6074 114.83 79.4791 114.976C79.3507 115.121 79.249 115.294 79.1797 115.485C79.1104 115.675 79.0749 115.879 79.0752 116.085V117.653H105.834Z" fill="#263238"/><path d="M93.7994 116.427C93.8223 116.315 93.8339 116.2 93.834 116.085V104.818H91.0713V116.085C91.0714 116.2 91.083 116.315 91.1058 116.427H93.7994Z" fill="#263238"/><path d="M100.998 71.7976C101.017 70.5098 100.811 69.2306 100.39 68.0345C99.9689 66.8384 99.3425 65.7494 98.547 64.831C97.7516 63.9125 96.803 63.1831 95.7566 62.6852C94.7102 62.1872 93.5869 61.9308 92.4523 61.9308C91.3176 61.9308 90.1944 62.1872 89.148 62.6852C88.1016 63.1831 87.153 63.9125 86.3575 64.831C85.5621 65.7494 84.9357 66.8384 84.5148 68.0345C84.094 69.2306 83.8872 70.5098 83.9065 71.7976V91.1988C83.9446 93.743 84.8617 96.1684 86.4602 97.9524C88.0587 99.7363 90.2106 100.736 92.4523 100.736C94.6939 100.736 96.8459 99.7363 98.4444 97.9524C100.043 96.1684 100.96 93.743 100.998 91.1988V71.7976Z" stroke="#263238" stroke-width="0.969642" stroke-linecap="round" stroke-linejoin="round"/><path d="M100.998 71.7976C101.017 70.5098 100.811 69.2306 100.39 68.0345C99.9689 66.8384 99.3425 65.7494 98.547 64.831C97.7516 63.9125 96.803 63.1831 95.7566 62.6852C94.7102 62.1872 93.5869 61.9308 92.4523 61.9308C91.3176 61.9308 90.1944 62.1872 89.148 62.6852C88.1016 63.1831 87.153 63.9125 86.3575 64.831C85.5621 65.7494 84.9357 66.8384 84.5148 68.0345C84.094 69.2306 83.8872 70.5098 83.9065 71.7976V91.1988C83.9446 93.743 84.8617 96.1684 86.4602 97.9524C88.0587 99.7363 90.2106 100.736 92.4523 100.736C94.6939 100.736 96.8459 99.7363 98.4444 97.9524C100.043 96.1684 100.96 93.743 100.998 91.1988V71.7976Z" fill="#E8E8E8"/><path d="M88.9146 72.8196H83.9072V75.1716H88.9146C89.1893 75.1716 89.4528 75.0477 89.6471 74.8271C89.8414 74.6066 89.9506 74.3075 89.9506 73.9956C89.9506 73.6837 89.8414 73.3846 89.6471 73.164C89.4528 72.9435 89.1893 72.8196 88.9146 72.8196V72.8196Z" fill="white"/><path d="M100.999 72.8196H95.994C95.7192 72.8196 95.4557 72.9435 95.2614 73.164C95.0672 73.3846 94.958 73.6837 94.958 73.9956C94.958 74.3075 95.0672 74.6066 95.2614 74.8271C95.4557 75.0477 95.7192 75.1716 95.994 75.1716H100.999V72.8196Z" fill="white"/><path d="M92.454 72.8196C92.2491 72.8196 92.0488 72.8886 91.8784 73.0178C91.708 73.147 91.5752 73.3307 91.4968 73.5455C91.4184 73.7604 91.3979 73.9969 91.4379 74.225C91.4778 74.4531 91.5765 74.6627 91.7214 74.8271C91.8663 74.9916 92.0509 75.1036 92.2519 75.149C92.4528 75.1943 92.6611 75.1711 92.8504 75.0821C93.0397 74.993 93.2015 74.8423 93.3154 74.6489C93.4292 74.4555 93.49 74.2282 93.49 73.9956C93.49 73.6837 93.3808 73.3846 93.1865 73.164C92.9922 72.9435 92.7287 72.8196 92.454 72.8196V72.8196Z" fill="white"/><path d="M92.454 77.574C92.2491 77.574 92.0488 77.6429 91.8784 77.7722C91.708 77.9014 91.5752 78.0851 91.4968 78.2999C91.4184 78.5148 91.3979 78.7513 91.4379 78.9794C91.4778 79.2075 91.5765 79.4171 91.7214 79.5815C91.8663 79.746 92.0509 79.858 92.2519 79.9034C92.4528 79.9488 92.6611 79.9255 92.8504 79.8365C93.0397 79.7474 93.2015 79.5967 93.3154 79.4033C93.4292 79.2099 93.49 78.9826 93.49 78.75C93.49 78.4381 93.3808 78.139 93.1865 77.9184C92.9922 77.6979 92.7287 77.574 92.454 77.574V77.574Z" fill="white"/><path d="M92.454 82.3201C92.2491 82.3201 92.0488 82.389 91.8784 82.5183C91.708 82.6475 91.5752 82.8311 91.4968 83.046C91.4184 83.2609 91.3979 83.4974 91.4379 83.7255C91.4778 83.9536 91.5765 84.1632 91.7214 84.3276C91.8663 84.4921 92.0509 84.6041 92.2519 84.6495C92.4528 84.6948 92.6611 84.6716 92.8504 84.5825C93.0397 84.4935 93.2015 84.3428 93.3154 84.1494C93.4292 83.956 93.49 83.7287 93.49 83.4961C93.49 83.1842 93.3808 82.8851 93.1865 82.6645C92.9922 82.444 92.7287 82.3201 92.454 82.3201V82.3201Z" fill="white"/><path d="M88.9146 77.574H83.9072V79.926H88.9146C89.1893 79.926 89.4528 79.8021 89.6471 79.5815C89.8414 79.361 89.9506 79.0619 89.9506 78.75C89.9506 78.4381 89.8414 78.139 89.6471 77.9184C89.4528 77.6979 89.1893 77.574 88.9146 77.574V77.574Z" fill="white"/><path d="M100.999 77.5741H95.994C95.7192 77.5741 95.4557 77.698 95.2614 77.9185C95.0672 78.1391 94.958 78.4382 94.958 78.7501C94.958 79.062 95.0672 79.3611 95.2614 79.5816C95.4557 79.8022 95.7192 79.9261 95.994 79.9261H100.999V77.5741Z" fill="white"/><path d="M88.9146 82.3199H83.9072V84.6719H88.9146C89.1893 84.6719 89.4528 84.548 89.6471 84.3275C89.8414 84.107 89.9506 83.8078 89.9506 83.4959C89.9506 83.1841 89.8414 82.8849 89.6471 82.6644C89.4528 82.4438 89.1893 82.3199 88.9146 82.3199V82.3199Z" fill="white"/><path d="M100.999 82.3201H95.994C95.7192 82.3201 95.4557 82.444 95.2614 82.6645C95.0672 82.8851 94.958 83.1842 94.958 83.4961C94.958 83.808 95.0672 84.1071 95.2614 84.3276C95.4557 84.5482 95.7192 84.6721 95.994 84.6721H100.999V82.3201Z" fill="white"/><path d="M100.998 71.7976C101.017 70.5098 100.811 69.2306 100.39 68.0345C99.9689 66.8384 99.3425 65.7494 98.547 64.831C97.7516 63.9125 96.803 63.1831 95.7566 62.6852C94.7102 62.1872 93.5869 61.9308 92.4523 61.9308C91.3176 61.9308 90.1944 62.1872 89.148 62.6852C88.1016 63.1831 87.153 63.9125 86.3575 64.831C85.5621 65.7494 84.9357 66.8384 84.5148 68.0345C84.094 69.2306 83.8872 70.5098 83.9065 71.7976V91.1988C83.9446 93.743 84.8617 96.1684 86.4602 97.9524C88.0587 99.7363 90.2106 100.736 92.4523 100.736C94.6939 100.736 96.8459 99.7363 98.4444 97.9524C100.043 96.1684 100.96 93.743 100.998 91.1988V71.7976Z" stroke="#263238" stroke-width="0.969642" stroke-miterlimit="10"/><path d="M83.9072 91.1989C83.9453 93.7431 84.8624 96.1685 86.4609 97.9524C88.0594 99.7364 90.2113 100.736 92.453 100.736C94.6946 100.736 96.8466 99.7364 98.4451 97.9524C100.044 96.1685 100.961 93.7431 100.999 91.1989H83.9072Z" fill="#263238" stroke="#263238" stroke-width="0.969642" stroke-miterlimit="10"/><path d="M164.941 86.3122C175.613 74.1988 175.613 54.559 164.941 42.4456C154.27 30.3322 136.968 30.3322 126.297 42.4456C115.625 54.559 115.625 74.1988 126.297 86.3122C136.968 98.4257 154.27 98.4257 164.941 86.3122Z" fill="#E8E8E8"/><path d="M141.701 51.5454H122.612C121.65 51.5454 120.87 52.4305 120.87 53.5222V75.1914C120.87 76.2832 121.65 77.1682 122.612 77.1682H141.701C142.663 77.1682 143.443 76.2832 143.443 75.1914V53.5222C143.443 52.4305 142.663 51.5454 141.701 51.5454Z" fill="white"/><g opacity="0.1"><path opacity="0.1" d="M122.999 77.171H130.532L135.332 51.5454H127.493L122.7 77.143C122.799 77.1608 122.899 77.1701 122.999 77.171V77.171Z" fill="black"/><path opacity="0.1" d="M138.523 51.5454H136.638L131.841 77.171H133.725L138.523 51.5454Z" fill="black"/></g><path d="M141.313 77.8094H122.998C122.285 77.8079 121.602 77.4864 121.098 76.915C120.594 76.3437 120.309 75.569 120.307 74.7602V53.9618C120.308 53.1521 120.592 52.3759 121.096 51.8033C121.601 51.2308 122.284 50.9085 122.998 50.907H141.313C142.027 50.9077 142.711 51.2297 143.216 51.8024C143.721 52.375 144.005 53.1516 144.006 53.9618V74.7602C144.004 75.5694 143.719 76.3446 143.214 76.916C142.709 77.4874 142.026 77.8087 141.313 77.8094V77.8094ZM122.998 52.1866C122.583 52.1866 122.185 52.3735 121.891 52.7064C121.597 53.0392 121.432 53.4907 121.431 53.9618V74.7602C121.431 75.232 121.596 75.6845 121.89 76.0184C122.184 76.3523 122.582 76.5403 122.998 76.541H141.313C141.519 76.541 141.723 76.4949 141.913 76.4054C142.103 76.3159 142.276 76.1846 142.421 76.0192C142.567 75.8538 142.682 75.6575 142.761 75.4415C142.839 75.2254 142.879 74.9939 142.879 74.7602V53.9618C142.879 53.7284 142.839 53.4974 142.76 53.2818C142.681 53.0662 142.566 52.8704 142.42 52.7055C142.275 52.5407 142.102 52.41 141.912 52.3209C141.722 52.2319 141.518 52.1862 141.313 52.1866H122.998Z" fill="white" stroke="#263238" stroke-width="0.932567" stroke-miterlimit="10"/><path d="M168.249 51.5454H149.159C148.198 51.5454 147.418 52.4305 147.418 53.5222V75.1914C147.418 76.2832 148.198 77.1682 149.159 77.1682H168.249C169.211 77.1682 169.99 76.2832 169.99 75.1914V53.5222C169.99 52.4305 169.211 51.5454 168.249 51.5454Z" fill="white"/><g opacity="0.1"><path opacity="0.1" d="M151.518 77.171H159.051L163.849 51.5454H156.012L151.207 77.143C151.31 77.1614 151.414 77.1707 151.518 77.171V77.171Z" fill="black"/><path opacity="0.1" d="M167.043 51.5454H165.159L160.358 77.171H162.245L167.043 51.5454Z" fill="black"/></g><path d="M167.862 77.8093H149.547C148.834 77.8078 148.151 77.4862 147.647 76.9149C147.143 76.3435 146.858 75.5688 146.855 74.7601V53.9617C146.857 53.1519 147.141 52.3758 147.645 51.8032C148.15 51.2307 148.833 50.9083 149.547 50.9069H167.862C168.575 50.9076 169.26 51.2296 169.765 51.8022C170.27 52.3749 170.554 53.1514 170.555 53.9617V74.7601C170.553 75.5693 170.268 76.3444 169.763 76.9159C169.258 77.4873 168.574 77.8085 167.862 77.8093V77.8093ZM149.547 52.1865C149.132 52.1865 148.734 52.3734 148.44 52.7062C148.146 53.0391 147.981 53.4906 147.98 53.9617V74.7601C147.98 75.2319 148.145 75.6844 148.439 76.0183C148.733 76.3522 149.131 76.5401 149.547 76.5409H167.862C168.067 76.5409 168.271 76.4948 168.462 76.4053C168.652 76.3157 168.825 76.1845 168.97 76.0191C169.116 75.8537 169.231 75.6574 169.309 75.4413C169.388 75.2253 169.428 74.9938 169.428 74.7601V53.9617C169.428 53.7283 169.387 53.4972 169.309 53.2817C169.23 53.0661 169.114 52.8703 168.969 52.7054C168.824 52.5405 168.651 52.4098 168.461 52.3208C168.271 52.2317 168.067 52.1861 167.862 52.1865H149.547Z" fill="white" stroke="#263238" stroke-width="0.932567" stroke-miterlimit="10"/><path d="M146.358 124.172C153.146 124.172 158.649 123.253 158.649 122.119C158.649 120.986 153.146 120.067 146.358 120.067C139.569 120.067 134.066 120.986 134.066 122.119C134.066 123.253 139.569 124.172 146.358 124.172Z" fill="#E8E8E8"/><path d="M151.79 110.163C151.79 110.163 151.758 115.912 151.223 116.858C150.584 117.978 150.13 119.543 151.822 119.969C153.514 120.395 154.521 122.514 156.536 122.654C158.551 122.794 158.756 121.814 157.878 121.027C157 120.241 154.77 118.059 154.476 116.998C154.183 115.937 154.753 110.163 154.753 110.163H151.79Z" fill="white"/><path opacity="0.1" d="M154.483 113.501C154.591 111.807 154.751 110.163 154.751 110.163H151.791C151.791 110.163 151.791 111.633 151.705 113.21C152.622 113.394 153.551 113.491 154.483 113.501V113.501Z" fill="black"/><path d="M151.79 110.163C151.79 110.163 151.758 115.912 151.223 116.858C150.584 117.978 150.13 119.543 151.822 119.969C153.514 120.395 154.521 122.514 156.536 122.654C158.551 122.794 158.756 121.814 157.878 121.027C157 120.241 154.77 118.059 154.476 116.998C154.183 115.937 154.753 110.163 154.753 110.163H151.79Z" stroke="#263238" stroke-width="0.932567" stroke-linecap="round" stroke-linejoin="round"/><path d="M157.868 121.027C157.045 120.287 156.264 119.49 155.53 118.639C154.827 119.244 152.767 118.672 152.16 118.129C151.42 117.468 151.576 117.13 151.225 116.833L151.213 116.858C150.574 117.978 150.12 119.543 151.812 119.969C153.505 120.394 154.511 122.514 156.526 122.654C158.541 122.794 158.751 121.8 157.868 121.027Z" fill="#BFBFBF" stroke="#263238" stroke-width="0.932567" stroke-miterlimit="10"/><path d="M140.411 108.08C140.411 108.08 138.191 113.338 137.352 113.98C136.338 114.747 135.332 115.982 136.72 117.082C138.109 118.182 138.232 120.551 140.026 121.528C141.819 122.506 142.379 121.68 141.873 120.602C141.368 119.524 140.147 116.572 140.282 115.475C140.418 114.377 143.149 109.2 143.149 109.2L140.411 108.08Z" fill="white"/><path opacity="0.1" d="M140.412 108.08C140.412 108.08 139.617 109.967 138.801 111.616C139.46 112.358 140.219 112.976 141.05 113.445C141.901 111.574 143.15 109.208 143.15 109.208L140.412 108.08Z" fill="black"/><path d="M140.411 108.08C140.411 108.08 138.191 113.338 137.352 113.98C136.338 114.747 135.332 115.982 136.72 117.082C138.109 118.182 138.232 120.551 140.026 121.528C141.819 122.506 142.379 121.68 141.873 120.602C141.368 119.524 140.147 116.572 140.282 115.475C140.418 114.377 143.149 109.2 143.149 109.2L140.411 108.08Z" stroke="#263238" stroke-width="0.932567" stroke-linecap="round" stroke-linejoin="round"/><path d="M141.874 120.588C141.401 119.561 140.989 118.501 140.641 117.412C139.765 117.673 137.945 116.343 137.745 115.531C137.358 113.966 137.587 114.369 137.377 113.949L137.358 113.966C136.344 114.733 135.338 115.968 136.726 117.068C138.115 118.168 138.238 120.537 140.032 121.514C141.825 122.492 142.38 121.666 141.874 120.588Z" fill="#BFBFBF" stroke="#263238" stroke-width="0.932567" stroke-miterlimit="10"/><path d="M152.147 70.8708C152.147 70.8708 155.543 89.3509 155.77 95.3793C155.997 101.408 155.114 112.16 155.114 112.16L151.343 111.88C151.343 111.88 151.318 108.702 150.941 104.278C150.716 101.648 150.011 98.5797 150.09 95.4773C150.09 95.4773 146.506 83.4121 146.636 78.1172C146.767 72.8224 146.636 71.2992 146.636 71.2992L152.147 70.8708Z" fill="#263238" stroke="#263238" stroke-width="0.932567" stroke-linecap="round" stroke-linejoin="round"/><path d="M143.067 70.871C143.067 70.871 139.545 74.175 141.587 80.8362C142.392 83.4794 145.495 95.5698 145.495 95.5698C144.642 96.6764 143.921 97.9048 143.349 99.2238C141.933 102.399 140.902 107.344 139.155 110.18L141.74 112.16C141.74 112.16 150.088 100.282 150.62 96.5106C151.153 92.739 148.647 77.6582 148.647 77.6582L147.845 71.529L143.067 70.871Z" fill="#263238" stroke="#263238" stroke-width="0.932567" stroke-linecap="round" stroke-linejoin="round"/><path d="M158.688 58.3465C158.642 57.7206 158.456 57.1184 158.148 56.5965C158.407 56.2102 158.631 55.7956 158.817 55.3589C159.004 54.8465 158.755 54.1213 158.234 54.9893C157.714 55.8573 157.142 56.4901 157.349 57.5737C157.458 58.2733 157.346 58.994 157.033 59.6093L158.234 60.6761L160.63 58.5201L158.688 58.3465Z" fill="white" stroke="#263238" stroke-width="0.932567" stroke-linecap="round" stroke-linejoin="round"/><path d="M159.817 52.8078L157.803 53.4293C157.618 53.4865 157.509 53.7034 157.559 53.9138L158.706 58.7043C158.757 58.9147 158.948 59.0389 159.133 58.9817L161.147 58.3602C161.332 58.303 161.442 58.0861 161.391 57.8757L160.244 53.0852C160.194 52.8748 160.002 52.7506 159.817 52.8078Z" fill="#263238" stroke="#263238" stroke-width="0.932567" stroke-linecap="round" stroke-linejoin="round"/><path d="M160.258 53.1448L157.573 53.9734L158.693 58.6477L161.378 57.8191L160.258 53.1448Z" fill="#E8E8E8" stroke="#263238" stroke-width="0.932567" stroke-linecap="round" stroke-linejoin="round"/><path d="M159.719 54.7624C159.686 54.6183 159.604 54.4949 159.491 54.4193C159.379 54.3437 159.244 54.3221 159.117 54.3592C158.99 54.3963 158.881 54.4892 158.815 54.6173C158.748 54.7454 158.729 54.8983 158.762 55.0424C158.794 55.1824 158.954 55.8404 159.008 56.0728L159.965 55.7788C159.911 55.5632 159.748 54.88 159.719 54.7624Z" fill="#263238"/><path d="M159.631 56.5376C159.75 56.5012 159.852 56.4159 159.918 56.2984C159.984 56.1808 160.01 56.0395 159.989 55.902L159.039 56.182C159.08 56.3149 159.164 56.4254 159.274 56.4913C159.383 56.5572 159.511 56.5737 159.631 56.5376V56.5376Z" fill="#263238"/><path d="M160.524 57.1201L159.902 57.3133L159.774 56.7813C159.951 56.7032 160.096 56.5536 160.182 56.3613C160.267 56.1691 160.287 55.9477 160.238 55.7397L160.169 55.4597C160.168 55.4538 160.165 55.4481 160.162 55.4431C160.159 55.4382 160.155 55.434 160.15 55.4308C160.146 55.4277 160.141 55.4256 160.135 55.4248C160.13 55.424 160.125 55.4245 160.119 55.4261L160.016 55.4569C160.01 55.4585 160.005 55.4613 160.001 55.4652C159.997 55.4691 159.993 55.474 159.991 55.4795C159.988 55.4851 159.987 55.4911 159.986 55.4974C159.986 55.5036 159.987 55.5099 159.989 55.5157C159.99 55.5217 159.992 55.5274 159.995 55.5323C159.998 55.5373 160.002 55.5415 160.007 55.5446C160.011 55.5478 160.017 55.5498 160.022 55.5506C160.027 55.5514 160.033 55.551 160.038 55.5493L160.1 55.5297L160.156 55.7677C160.18 55.8665 160.186 55.9695 160.175 56.071C160.163 56.1725 160.134 56.2704 160.09 56.3592C160.045 56.448 159.985 56.5259 159.914 56.5885C159.843 56.6511 159.761 56.6971 159.674 56.7239C159.587 56.7508 159.496 56.7579 159.407 56.7449C159.318 56.7319 159.231 56.6991 159.153 56.6483C159.075 56.5974 159.006 56.5296 158.951 56.4487C158.896 56.3677 158.855 56.2753 158.832 56.1765L158.772 55.9385L158.834 55.9217C158.845 55.9179 158.853 55.9097 158.859 55.8988C158.864 55.8879 158.866 55.8752 158.864 55.8629C158.862 55.8568 158.86 55.8511 158.856 55.8462C158.853 55.8412 158.849 55.837 158.844 55.8339C158.839 55.8307 158.834 55.8287 158.828 55.8279C158.823 55.8272 158.817 55.8276 158.812 55.8293L158.711 55.8601C158.705 55.8618 158.7 55.8646 158.696 55.8684C158.692 55.8723 158.688 55.877 158.685 55.8825C158.682 55.888 158.681 55.894 158.68 55.9003C158.679 55.9065 158.68 55.9129 158.681 55.9189L158.75 56.1989C158.8 56.4066 158.916 56.5861 159.075 56.7029C159.235 56.8197 159.426 56.8655 159.614 56.8317L159.739 57.3637L159.118 57.5541C159.107 57.5574 159.097 57.563 159.088 57.5707C159.079 57.5784 159.072 57.588 159.067 57.5989C159.061 57.6098 159.058 57.6219 159.056 57.6344C159.055 57.6469 159.056 57.6596 159.059 57.6717L159.081 57.7641L160.65 57.2797L160.627 57.1873C160.625 57.1752 160.62 57.1637 160.613 57.1538C160.606 57.1438 160.598 57.1354 160.588 57.1292C160.578 57.1229 160.568 57.1189 160.557 57.1173C160.546 57.1158 160.535 57.1167 160.524 57.1201Z" fill="#263238"/><path d="M160.778 54.236C160.531 54.2668 160.327 54.7064 160.403 55.3252C160.479 55.944 160.98 55.272 161.01 55.076C161.039 54.88 161.249 54.1828 160.778 54.236Z" fill="white" stroke="#263238" stroke-width="0.932567" stroke-linecap="round" stroke-linejoin="round"/><path d="M161.32 55.16C161.254 55.1589 161.189 55.1745 161.129 55.2058C161.069 55.2371 161.017 55.2832 160.975 55.3407C160.933 55.3982 160.903 55.4657 160.887 55.5381C160.871 55.6105 160.87 55.6861 160.883 55.7592C160.93 56.3612 161.034 56.2212 161.034 56.2212C161.036 56.4693 161.08 56.7145 161.164 56.9436C161.288 57.2096 161.613 56.8064 161.613 56.5656C161.613 56.3248 161.579 55.0592 161.32 55.16Z" fill="white" stroke="#263238" stroke-width="0.932567" stroke-linecap="round" stroke-linejoin="round"/><path d="M161.037 56.2101C161.037 56.2101 161.464 56.0673 161.565 55.7145Z" fill="white"/><path d="M161.037 56.2101C161.037 56.2101 161.464 56.0673 161.565 55.7145" stroke="#263238" stroke-width="0.932567" stroke-linecap="round" stroke-linejoin="round"/><path d="M157.329 58.7554C157.411 58.3679 157.418 57.9646 157.348 57.5738C157.141 56.4902 157.711 55.8546 158.234 54.9894C158.757 54.1242 159.003 54.8466 158.816 55.359C158.63 55.7957 158.406 56.2103 158.148 56.5966C158.481 57.1035 158.67 57.7143 158.688 58.3466C158.688 58.551 158.688 59.1614 158.688 59.1614" fill="white"/><path d="M157.329 58.7554C157.411 58.3679 157.418 57.9646 157.348 57.5738C157.141 56.4902 157.711 55.8546 158.234 54.9894C158.757 54.1242 159.003 54.8466 158.816 55.359C158.63 55.7957 158.406 56.2103 158.148 56.5966C158.481 57.1035 158.67 57.7143 158.688 58.3466C158.688 58.551 158.688 59.1614 158.688 59.1614" stroke="#263238" stroke-width="0.932567" stroke-linecap="round" stroke-linejoin="round"/><path d="M150.713 51.9877C151.572 51.7833 151.836 51.5341 151.836 51.5341C151.192 48.5913 153.501 38.6933 146.224 38.2369C138.947 37.7805 143.017 51.8057 143.017 51.8057L143.809 51.9205L143.402 49.1009L144.349 51.9905C147.152 52.3349 148.947 52.2705 150.077 52.1081C149.924 50.8363 149.908 49.5481 150.03 48.2721C150.173 49.5289 150.401 50.7712 150.713 51.9877V51.9877Z" fill="#263238"/><path d="M146.222 38.4132C145.939 38.0947 145.57 37.8937 145.174 37.8429C144.778 37.7921 144.379 37.8944 144.041 38.1332" stroke="#263238" stroke-width="0.932567" stroke-linecap="round" stroke-linejoin="round"/><path d="M151.764 53.7821V53.693C151.749 53.732 151.735 53.7599 151.764 53.7821Z" fill="white" stroke="#263238" stroke-width="0.932567" stroke-linecap="round" stroke-linejoin="round"/><path d="M157.033 59.6093L153.58 63.2493L153.644 57.795C153.655 56.9712 153.483 56.1575 153.143 55.4296C152.804 54.7016 152.307 54.0831 151.7 53.6313L151.831 67.9869C155.223 68.2305 158.244 60.6761 158.244 60.6761C158.121 60.4105 157.949 60.1779 157.74 59.9939C157.532 59.8099 157.29 59.6787 157.033 59.6093V59.6093Z" fill="white"/><path opacity="0.1" d="M153.05 66.2257C152.536 66.2789 152.421 65.1645 152.428 64.0809C152.285 64.4886 152.189 64.916 152.144 65.3521C152.1 66.5869 152.1 67.8105 152.117 68.8577C155.98 66.8697 156.027 65.0973 157.018 63.2885C156.387 64.1985 154.039 66.1221 153.05 66.2257Z" fill="black"/><path d="M157.033 59.6093L153.58 63.2493L153.644 57.795C153.655 56.9712 153.483 56.1575 153.143 55.4296C152.804 54.7016 152.307 54.0831 151.7 53.6313L151.831 67.9869C155.223 68.2305 158.244 60.6761 158.244 60.6761C158.121 60.4105 157.949 60.1779 157.74 59.9939C157.532 59.8099 157.29 59.6787 157.033 59.6093V59.6093Z" stroke="#263238" stroke-width="0.932567" stroke-linecap="round" stroke-linejoin="round"/><path d="M156.301 60.0797L157.058 59.2649L158.718 60.5585L158.235 61.4713L156.301 60.0797Z" fill="#E8E8E8" stroke="#263238" stroke-width="0.932567" stroke-linecap="round" stroke-linejoin="round"/><path d="M153.065 60.48C151.673 67.48 152.364 72.0804 152.364 72.0804C152.364 72.0804 149.007 74.7824 141.95 72.492C141.95 72.492 143.233 68.8716 142.887 66.1108C142.678 64.4112 141.272 58.3016 141.272 58.3016C141.272 58.3016 140.606 55.6304 140.911 53.4744C141.501 53.0404 142.764 52.5168 144.996 52.332C145.033 52.1903 145.059 52.045 145.073 51.898C145.144 51.186 145.159 50.4683 145.12 49.7532C145.087 48.9132 145.026 48.244 145.026 48.244H147.719C147.719 48.244 147.754 49.0168 147.84 49.924C147.887 50.4588 147.954 51.044 148.038 51.548C148.079 51.8003 148.133 52.0499 148.198 52.2956C150.887 52.7548 151.898 53.55 152.093 54.2416C153.008 57.3608 153.361 58.9848 153.065 60.48Z" fill="white" stroke="#263238" stroke-width="0.932567" stroke-linecap="round" stroke-linejoin="round"/><path d="M147.847 50.4169C147.628 50.9769 147.354 51.4193 146.404 51.4137C145.699 51.4137 145.063 50.7053 144.991 50.4337C145.068 49.8205 144.991 49.5937 144.959 48.8993C145.866 48.8703 146.774 48.9302 147.672 49.0785C147.711 49.5278 147.769 49.9745 147.847 50.4169V50.4169Z" fill="#263238"/><path d="M149.639 44.4222C149.639 44.0078 149.639 43.753 149.639 43.753C149.439 42.6666 148.255 42.6106 147.71 42.6134C147.135 42.6345 146.562 42.5211 146.027 42.2802C146.202 42.7556 146.492 43.1652 146.864 43.4618C144.836 42.9494 144.678 41.7342 144.755 41.079C144.034 43.9378 143.099 44.0582 143.099 44.0582C143.099 44.0582 143.099 44.313 143.141 44.7246C142.899 44.7877 142.685 44.9479 142.539 45.1758C142.392 45.4037 142.323 45.6839 142.345 45.965C142.342 46.2677 142.444 46.5596 142.628 46.7783C142.812 46.997 143.065 47.1252 143.331 47.1354C143.384 47.1327 143.437 47.1242 143.489 47.1102C143.918 49.003 144.799 51.061 146.602 50.9798C148.405 50.8986 149.14 48.765 149.431 46.8386C149.485 46.8441 149.538 46.8441 149.592 46.8386C149.859 46.8081 150.105 46.6588 150.275 46.4232C150.446 46.1876 150.527 45.8849 150.502 45.5814C150.503 45.3032 150.416 45.0338 150.258 44.8214C150.1 44.6089 149.88 44.4674 149.639 44.4222V44.4222Z" fill="white" stroke="#263238" stroke-width="0.932567" stroke-linecap="round" stroke-linejoin="round"/><path d="M146.028 47.6281L146.339 47.8828C146.378 47.916 146.426 47.9339 146.475 47.9339C146.524 47.9339 146.571 47.916 146.61 47.8828L146.897 47.6336" stroke="#263238" stroke-width="0.932567" stroke-linecap="round" stroke-linejoin="round"/><path d="M147.212 46.0349C147.212 46.0349 147.597 45.4581 148.364 45.8641" stroke="#263238" stroke-width="0.932567" stroke-linecap="round" stroke-linejoin="round"/><path d="M145.534 46.0349C145.534 46.0349 145.151 45.4581 144.382 45.8641" stroke="#263238" stroke-width="0.932567" stroke-linecap="round" stroke-linejoin="round"/><path d="M147.226 48.6444C147.012 48.8366 146.75 48.947 146.478 48.9595C146.205 48.9721 145.936 48.8863 145.709 48.7144" stroke="#263238" stroke-width="0.932567" stroke-linecap="round" stroke-linejoin="round"/><path d="M150.486 97.1238C150.398 97.4311 150.295 97.733 150.18 98.0282" stroke="white" stroke-width="0.932567" stroke-linecap="round" stroke-linejoin="round"/><path d="M146.883 76.7201L147.687 77.5377C148.405 78.2669 148.876 79.2568 149.021 80.3377C149.71 85.3077 150.815 90.4177 150.679 95.8161" stroke="white" stroke-width="0.932567" stroke-linecap="round" stroke-linejoin="round"/><path d="M149.928 76.8655L148.652 78.9347L148.813 78.6799" stroke="white" stroke-width="0.932567" stroke-linecap="round" stroke-linejoin="round"/><path d="M144.888 68.5637L145.253 68.9893" stroke="#263238" stroke-width="0.932567" stroke-linecap="round" stroke-linejoin="round"/><path d="M142.246 62.6978C142.63 64.4839 143.313 66.1693 144.259 67.6622" stroke="#263238" stroke-width="0.932567" stroke-linecap="round" stroke-linejoin="round"/><path d="M142.317 43.7632L142.043 43.7756L142.082 44.8807L142.356 44.8683L142.317 43.7632Z" fill="white" stroke="#263238" stroke-width="0.932567" stroke-linecap="round" stroke-linejoin="round"/><path d="M150.666 43.3642L150.393 43.3767L150.432 44.4818L150.705 44.4693L150.666 43.3642Z" fill="white" stroke="#263238" stroke-width="0.932567" stroke-linecap="round" stroke-linejoin="round"/><path d="M146.183 38.7465C145.021 38.8001 143.923 39.3627 143.119 40.3161C142.315 41.2695 141.868 42.5395 141.871 43.8593C141.871 43.884 141.876 43.9085 141.885 43.9311C141.894 43.9538 141.906 43.9742 141.922 43.9912C141.938 44.0082 141.957 44.0214 141.977 44.03C141.998 44.0386 142.02 44.0424 142.041 44.0413H142.33C142.372 44.0391 142.412 44.0183 142.441 43.9833C142.47 43.9482 142.486 43.9018 142.485 43.8537C142.492 42.7214 142.883 41.6356 143.576 40.8218C144.27 40.0079 145.213 39.5286 146.21 39.4832C147.206 39.4378 148.18 39.8298 148.929 40.578C149.678 41.3261 150.144 42.3729 150.231 43.5009C150.233 43.5487 150.252 43.5934 150.284 43.6254C150.315 43.6573 150.356 43.674 150.398 43.6717H150.687C150.709 43.671 150.73 43.6653 150.75 43.655C150.769 43.6446 150.787 43.6298 150.802 43.6115C150.816 43.5932 150.827 43.5717 150.834 43.5483C150.841 43.525 150.844 43.5003 150.842 43.4757C150.759 42.1546 150.227 40.9222 149.357 40.0394C148.487 39.1566 147.349 38.6929 146.183 38.7465V38.7465Z" fill="#E8E8E8" stroke="#263238" stroke-width="0.932567" stroke-linecap="round" stroke-linejoin="round"/><path d="M142.821 44.4388H142.757C142.571 44.4475 142.388 44.4976 142.219 44.5864C142.05 44.6751 141.898 44.8008 141.772 44.9561C141.518 45.2699 141.383 45.6856 141.399 46.1118C141.414 46.5381 141.578 46.94 141.854 47.229C142.131 47.5181 142.497 47.6707 142.872 47.6532H142.934L142.821 44.4388Z" fill="#E8E8E8" stroke="#263238" stroke-width="0.932567" stroke-linecap="round" stroke-linejoin="round"/><path d="M143.203 46.0264C143.245 47.2192 143.319 47.9864 142.956 48.0116C142.594 48.0368 142.441 47.2584 142.399 46.0516C142.357 44.8448 142.453 44.0916 142.816 44.0636C143.178 44.0356 143.161 44.8336 143.203 46.0264Z" fill="white" stroke="#263238" stroke-width="0.932567" stroke-linecap="round" stroke-linejoin="round"/><path d="M149.95 44.1141H150.014C150.2 44.1056 150.386 44.1388 150.56 44.2118C150.735 44.2847 150.895 44.396 151.032 44.5393C151.169 44.6825 151.279 44.855 151.357 45.0467C151.435 45.2385 151.479 45.4458 151.487 45.6569C151.494 45.8679 151.465 46.0786 151.401 46.2768C151.337 46.4751 151.239 46.657 151.112 46.8122C150.986 46.9674 150.834 47.0929 150.665 47.1815C150.496 47.2701 150.314 47.32 150.128 47.3285H150.064L149.95 44.1141Z" fill="#E8E8E8" stroke="#263238" stroke-width="0.932567" stroke-linecap="round" stroke-linejoin="round"/><path d="M149.668 45.7325C149.71 46.9253 149.693 47.6925 150.056 47.6925C150.418 47.6925 150.514 46.8945 150.472 45.7017C150.431 44.5089 150.278 43.7417 149.917 43.7557C149.557 43.7697 149.626 44.5397 149.668 45.7325Z" fill="white" stroke="#263238" stroke-width="0.932567" stroke-linecap="round" stroke-linejoin="round"/><path d="M143.849 44.9765C143.849 44.9765 144.788 44.0945 145.679 44.8925" stroke="#263238" stroke-width="0.932567" stroke-linecap="round" stroke-linejoin="round"/><path d="M149.007 44.8001C149.007 44.8001 148.02 44.0077 147.177 44.8841" stroke="#263238" stroke-width="0.932567" stroke-linecap="round" stroke-linejoin="round"/><path d="M144.641 51.9429C144.641 51.9429 145.203 53.5445 147.29 53.9029C147.29 53.9029 146.457 55.8629 145.317 55.0929C143.953 54.1745 143.691 52.2677 143.691 52.2677L144.641 51.9429Z" fill="#E8E8E8" stroke="#263238" stroke-width="0.932567" stroke-linecap="round" stroke-linejoin="round"/><path d="M148.464 52.1416C148.472 52.568 148.347 52.9838 148.112 53.3161C147.876 53.6484 147.545 53.876 147.177 53.9588C147.177 53.9588 148.191 55.846 149.022 54.7988C149.853 53.7516 149.207 52.3264 149.207 52.3264L148.464 52.1416Z" fill="#E8E8E8" stroke="#263238" stroke-width="0.932567" stroke-linecap="round" stroke-linejoin="round"/><path d="M148.001 57.6998C148.001 57.7552 147.987 57.8093 147.96 57.8553C147.932 57.9014 147.894 57.9373 147.849 57.9585C147.804 57.9797 147.754 57.9852 147.706 57.9744C147.659 57.9636 147.615 57.9369 147.58 57.8978C147.546 57.8586 147.522 57.8087 147.513 57.7544C147.503 57.7001 147.508 57.6438 147.527 57.5926C147.545 57.5415 147.577 57.4978 147.617 57.467C147.658 57.4362 147.706 57.4198 147.754 57.4198C147.82 57.4198 147.883 57.4493 147.929 57.5018C147.975 57.5543 148.001 57.6255 148.001 57.6998Z" fill="#E8E8E8" stroke="#263238" stroke-width="0.932567" stroke-linecap="round" stroke-linejoin="round"/><path d="M148.336 63.213C148.336 63.2684 148.322 63.3225 148.295 63.3685C148.267 63.4146 148.229 63.4505 148.184 63.4717C148.139 63.4929 148.089 63.4984 148.041 63.4876C147.993 63.4768 147.95 63.4501 147.915 63.411C147.881 63.3718 147.857 63.3219 147.848 63.2676C147.838 63.2133 147.843 63.157 147.862 63.1058C147.88 63.0547 147.912 63.0109 147.952 62.9802C147.993 62.9494 148.041 62.933 148.089 62.933C148.155 62.933 148.218 62.9625 148.264 63.015C148.31 63.0675 148.336 63.1387 148.336 63.213Z" fill="#E8E8E8" stroke="#263238" stroke-width="0.932567" stroke-linecap="round" stroke-linejoin="round"/><path d="M148.652 68.8578C148.652 68.9131 148.637 68.9673 148.61 69.0133C148.583 69.0594 148.544 69.0953 148.499 69.1165C148.454 69.1376 148.405 69.1432 148.357 69.1324C148.309 69.1216 148.265 69.0949 148.23 69.0558C148.196 69.0166 148.172 68.9667 148.163 68.9124C148.153 68.8581 148.158 68.8018 148.177 68.7506C148.196 68.6994 148.227 68.6557 148.268 68.6249C148.308 68.5942 148.356 68.5778 148.405 68.5778C148.47 68.5778 148.533 68.6073 148.579 68.6598C148.626 68.7123 148.652 68.7835 148.652 68.8578Z" fill="#E8E8E8" stroke="#263238" stroke-width="0.932567" stroke-linecap="round" stroke-linejoin="round"/><path d="M170.387 31.3181H120.408C120.176 31.3181 119.988 31.5312 119.988 31.7941V32.8161C119.988 33.079 120.176 33.2921 120.408 33.2921H170.387C170.619 33.2921 170.807 33.079 170.807 32.8161V31.7941C170.807 31.5312 170.619 31.3181 170.387 31.3181Z" fill="white"/><path d="M170.304 33.292H120.492" stroke="#263238" stroke-width="0.932567" stroke-linecap="round" stroke-linejoin="round"/><path d="M120.492 31.3181H170.304" stroke="#263238" stroke-width="0.932567" stroke-linecap="round" stroke-linejoin="round"/><path d="M135.998 44.6013C135.998 44.6013 133.938 44.2737 133.827 44.9009C133.716 45.5281 133.778 46.5333 134.133 46.8609C134.804 47.4825 134.681 48.6445 134.681 48.6445L136.408 48.4541L136.452 47.4741C136.541 47.1544 136.699 46.8654 136.913 46.6341C137.535 45.9705 137.288 45.2341 137.182 44.3465C137.076 43.4589 136.56 43.8537 136.519 44.3129C136.506 44.7224 136.536 45.1321 136.607 45.5337L135.998 44.6013Z" fill="white" stroke="#263238" stroke-width="0.932567" stroke-linecap="round" stroke-linejoin="round"/><path d="M136.481 45.4637C136.481 45.4637 135.987 45.5785 135.598 46.3709Z" fill="white"/><path d="M136.481 45.4637C136.481 45.4637 135.987 45.5785 135.598 46.3709" stroke="#263238" stroke-width="0.932567" stroke-linecap="round" stroke-linejoin="round"/><path d="M136.482 45.671H133.985C133.812 45.6769 133.64 45.6358 133.484 45.5511C133.328 45.4663 133.192 45.3404 133.087 45.1838C132.998 45.0415 132.95 44.8712 132.95 44.6966C132.95 44.5219 132.998 44.3516 133.087 44.2094V44.2094L134.336 42.129C134.443 41.9745 134.581 41.8497 134.737 41.7639C134.893 41.6781 135.065 41.6335 135.238 41.6335C135.412 41.6335 135.583 41.6781 135.74 41.7639C135.896 41.8497 136.033 41.9745 136.141 42.129L137.392 44.2094C137.481 44.3516 137.529 44.5219 137.529 44.6966C137.529 44.8712 137.481 45.0415 137.392 45.1838C137.286 45.3427 137.148 45.4701 136.99 45.555C136.831 45.6399 136.657 45.6797 136.482 45.671V45.671ZM133.522 44.439C133.475 44.5132 133.449 44.6024 133.449 44.6938C133.449 44.7852 133.475 44.8743 133.522 44.9486C133.576 45.0296 133.647 45.0948 133.728 45.1386C133.809 45.1824 133.898 45.2037 133.988 45.2006H136.482C136.571 45.2039 136.66 45.1828 136.742 45.1389C136.823 45.0951 136.893 45.0298 136.948 44.9486C136.995 44.8745 137.021 44.7853 137.021 44.6938C137.021 44.6023 136.995 44.5131 136.948 44.439L135.7 42.3614C135.645 42.2783 135.574 42.2115 135.492 42.1666C135.41 42.1218 135.319 42.1002 135.228 42.1038C135.138 42.0999 135.048 42.1214 134.966 42.1663C134.884 42.2112 134.813 42.2782 134.76 42.3614L133.509 44.4418L133.522 44.439Z" fill="#263238"/><path d="M134.485 44.6293C134.614 45.3685 134.535 45.6317 134.239 45.5925C133.943 45.5533 133.644 44.6461 134.054 44.4389C134.463 44.2317 134.794 44.0721 134.794 44.0721C134.925 43.9916 135.071 43.9469 135.22 43.9416C135.369 43.9362 135.517 43.9704 135.652 44.0413C136.239 43.8089 136.343 44.2933 136.343 44.2933C136.343 44.2933 136.767 45.6933 136.414 45.7409C136.062 45.7885 135.771 44.5733 135.771 44.5733C135.771 44.5733 136.212 45.9061 135.808 45.9285C135.403 45.9509 135.169 44.6349 135.169 44.6349C135.169 44.6349 135.433 45.7913 135.05 45.8305C134.668 45.8697 134.485 44.6293 134.485 44.6293Z" fill="white" stroke="#263238" stroke-width="0.932567" stroke-linecap="round" stroke-linejoin="round"/><path d="M135.418 32.7629H135.014V41.9553H135.418V32.7629Z" fill="white" stroke="#263238" stroke-width="0.932567" stroke-linecap="round" stroke-linejoin="round"/><path d="M135.642 41.8124L135.378 42.252C135.36 42.277 135.338 42.2972 135.313 42.3112C135.288 42.3251 135.26 42.3323 135.232 42.3323C135.204 42.3323 135.176 42.3251 135.151 42.3112C135.126 42.2972 135.104 42.277 135.087 42.252L134.825 41.8124C134.761 41.7088 134.842 41.58 134.968 41.58H135.496C135.624 41.58 135.703 41.72 135.642 41.8124Z" fill="white" stroke="#263238" stroke-width="0.932567" stroke-linecap="round" stroke-linejoin="round"/><path d="M135.45 38.7268H135.018C134.9 38.7268 134.804 38.8359 134.804 38.9704V41.0088C134.804 41.1433 134.9 41.2524 135.018 41.2524H135.45C135.568 41.2524 135.665 41.1433 135.665 41.0088V38.9704C135.665 38.8359 135.568 38.7268 135.45 38.7268Z" fill="white" stroke="#263238" stroke-width="0.932567" stroke-linecap="round" stroke-linejoin="round"/><path d="M135.45 31.0016H135.018C134.9 31.0016 134.804 31.1106 134.804 31.2452V33.2836C134.804 33.4181 134.9 33.5272 135.018 33.5272H135.45C135.568 33.5272 135.665 33.4181 135.665 33.2836V31.2452C135.665 31.1106 135.568 31.0016 135.45 31.0016Z" fill="white" stroke="#263238" stroke-width="0.932567" stroke-linecap="round" stroke-linejoin="round"/><path d="M130.613 45.6709H128.117C127.944 45.6769 127.772 45.6358 127.616 45.551C127.46 45.4663 127.324 45.3403 127.219 45.1837C127.13 45.0415 127.082 44.8712 127.082 44.6965C127.082 44.5219 127.13 44.3516 127.219 44.2093V44.2093L128.467 42.1289C128.575 41.9744 128.713 41.8496 128.869 41.7638C129.026 41.678 129.198 41.6334 129.371 41.6334C129.545 41.6334 129.717 41.678 129.873 41.7638C130.03 41.8496 130.167 41.9744 130.275 42.1289L131.524 44.2093C131.613 44.3516 131.661 44.5219 131.661 44.6965C131.661 44.8712 131.613 45.0415 131.524 45.1837C131.418 45.3427 131.28 45.4701 131.121 45.555C130.963 45.6398 130.789 45.6796 130.613 45.6709V45.6709ZM127.653 44.4389C127.606 44.5132 127.581 44.6023 127.581 44.6937C127.581 44.7851 127.606 44.8743 127.653 44.9485C127.708 45.0296 127.779 45.0947 127.86 45.1385C127.941 45.1823 128.03 45.2036 128.12 45.2005H130.616C130.706 45.2036 130.795 45.1824 130.877 45.1385C130.958 45.0947 131.029 45.0296 131.084 44.9485C131.131 44.8743 131.157 44.7851 131.157 44.6937C131.157 44.6023 131.131 44.5132 131.084 44.4389L129.836 42.3613C129.782 42.2783 129.711 42.2115 129.629 42.1666C129.547 42.1217 129.456 42.1001 129.365 42.1037C129.274 42.0999 129.184 42.1213 129.103 42.1663C129.021 42.2112 128.95 42.2781 128.897 42.3613L127.646 44.4417L127.653 44.4389Z" fill="#263238"/><path d="M129.55 32.7629H129.146V41.9553H129.55V32.7629Z" fill="white" stroke="#263238" stroke-width="0.932567" stroke-linecap="round" stroke-linejoin="round"/><path d="M129.774 41.8125L129.501 42.2521C129.483 42.2771 129.461 42.2974 129.436 42.3113C129.411 42.3252 129.383 42.3324 129.355 42.3324C129.327 42.3324 129.299 42.3252 129.274 42.3113C129.249 42.2974 129.227 42.2771 129.21 42.2521L128.948 41.8125C128.884 41.7089 128.965 41.5801 129.091 41.5801H129.619C129.747 41.5801 129.836 41.7201 129.774 41.8125Z" fill="white" stroke="#263238" stroke-width="0.932567" stroke-linecap="round" stroke-linejoin="round"/><path d="M129.582 38.7268H129.15C129.032 38.7268 128.936 38.8359 128.936 38.9704V41.0088C128.936 41.1433 129.032 41.2524 129.15 41.2524H129.582C129.7 41.2524 129.796 41.1433 129.796 41.0088V38.9704C129.796 38.8359 129.7 38.7268 129.582 38.7268Z" fill="white" stroke="#263238" stroke-width="0.932567" stroke-linecap="round" stroke-linejoin="round"/><path d="M129.582 31.0016H129.15C129.032 31.0016 128.936 31.1106 128.936 31.2452V33.2836C128.936 33.4181 129.032 33.5272 129.15 33.5272H129.582C129.7 33.5272 129.796 33.4181 129.796 33.2836V31.2452C129.796 31.1106 129.7 31.0016 129.582 31.0016Z" fill="white" stroke="#263238" stroke-width="0.932567" stroke-linecap="round" stroke-linejoin="round"/><path d="M156.044 45.671H153.548C153.375 45.6774 153.203 45.6365 153.046 45.5517C152.89 45.4669 152.754 45.3407 152.65 45.1838C152.561 45.0415 152.513 44.8712 152.513 44.6966C152.513 44.5219 152.561 44.3517 152.65 44.2094V44.2094L153.898 42.129C154.006 41.9745 154.143 41.8497 154.299 41.7639C154.456 41.6781 154.627 41.6335 154.801 41.6335C154.974 41.6335 155.146 41.6781 155.302 41.7639C155.459 41.8497 155.596 41.9745 155.704 42.129L156.952 44.2094C157.041 44.3517 157.089 44.5219 157.089 44.6966C157.089 44.8712 157.041 45.0415 156.952 45.1838C156.846 45.3423 156.709 45.4695 156.551 45.5544C156.393 45.6392 156.219 45.6792 156.044 45.671V45.671ZM153.084 44.439C153.037 44.5131 153.011 44.6023 153.011 44.6938C153.011 44.7853 153.037 44.8745 153.084 44.9486C153.138 45.0298 153.209 45.0951 153.29 45.1389C153.371 45.1828 153.46 45.2039 153.55 45.2006H156.046C156.136 45.2039 156.225 45.1828 156.307 45.1389C156.388 45.0951 156.458 45.0298 156.513 44.9486C156.56 44.8745 156.586 44.7853 156.586 44.6938C156.586 44.6023 156.56 44.5131 156.513 44.439L155.265 42.3614C155.208 42.2809 155.137 42.2159 155.055 42.1712C154.973 42.1265 154.884 42.1033 154.793 42.1033C154.703 42.1033 154.613 42.1265 154.532 42.1712C154.45 42.2159 154.379 42.2809 154.322 42.3614L153.074 44.4418L153.084 44.439Z" fill="#263238"/><path d="M154.979 32.7629H154.574V41.9553H154.979V32.7629Z" fill="white" stroke="#263238" stroke-width="0.932567" stroke-linecap="round" stroke-linejoin="round"/><path d="M155.203 41.8124L154.941 42.252C154.924 42.277 154.902 42.2972 154.877 42.3112C154.851 42.3251 154.824 42.3323 154.796 42.3323C154.768 42.3323 154.74 42.3251 154.715 42.3112C154.69 42.2972 154.667 42.277 154.65 42.252L154.389 41.8124C154.325 41.7088 154.406 41.58 154.532 41.58H155.06C155.185 41.58 155.267 41.72 155.203 41.8124Z" fill="white" stroke="#263238" stroke-width="0.932567" stroke-linecap="round" stroke-linejoin="round"/><path d="M155.012 38.7268H154.581C154.462 38.7268 154.366 38.8359 154.366 38.9704V41.0088C154.366 41.1433 154.462 41.2524 154.581 41.2524H155.012C155.131 41.2524 155.227 41.1433 155.227 41.0088V38.9704C155.227 38.8359 155.131 38.7268 155.012 38.7268Z" fill="white" stroke="#263238" stroke-width="0.932567" stroke-linecap="round" stroke-linejoin="round"/><path d="M155.012 31.0016H154.581C154.462 31.0016 154.366 31.1106 154.366 31.2452V33.2836C154.366 33.4181 154.462 33.5272 154.581 33.5272H155.012C155.131 33.5272 155.227 33.4181 155.227 33.2836V31.2452C155.227 31.1106 155.131 31.0016 155.012 31.0016Z" fill="white" stroke="#263238" stroke-width="0.932567" stroke-linecap="round" stroke-linejoin="round"/><path d="M161.636 45.6708H159.14C158.966 45.6768 158.795 45.6357 158.639 45.5509C158.482 45.4661 158.346 45.3402 158.242 45.1836C158.152 45.0413 158.104 44.871 158.104 44.6964C158.104 44.5218 158.152 44.3515 158.242 44.2092V44.2092L159.49 42.1288C159.598 41.9743 159.735 41.8495 159.892 41.7637C160.048 41.6779 160.22 41.6333 160.394 41.6333C160.568 41.6333 160.739 41.6779 160.896 41.7637C161.052 41.8495 161.19 41.9743 161.298 42.1288L162.546 44.2092C162.635 44.3515 162.683 44.5218 162.683 44.6964C162.683 44.871 162.635 45.0413 162.546 45.1836C162.441 45.3425 162.303 45.47 162.144 45.5548C161.985 45.6397 161.811 45.6795 161.636 45.6708V45.6708ZM158.676 44.4388C158.629 44.5131 158.604 44.6022 158.604 44.6936C158.604 44.785 158.629 44.8741 158.676 44.9484C158.73 45.0294 158.801 45.0946 158.882 45.1384C158.963 45.1822 159.052 45.2035 159.142 45.2004H161.638C161.728 45.2035 161.818 45.1822 161.899 45.1384C161.981 45.0946 162.052 45.0295 162.107 44.9484C162.154 44.8741 162.179 44.785 162.179 44.6936C162.179 44.6022 162.154 44.5131 162.107 44.4388L160.859 42.3612C160.805 42.2782 160.733 42.2113 160.651 42.1665C160.569 42.1216 160.479 42.1 160.388 42.1036C160.297 42.0998 160.207 42.1212 160.125 42.1661C160.043 42.211 159.973 42.278 159.919 42.3612L158.668 44.4416L158.676 44.4388Z" fill="#263238"/><path d="M160.573 32.7629H160.169V41.9553H160.573V32.7629Z" fill="white" stroke="#263238" stroke-width="0.932567" stroke-linecap="round" stroke-linejoin="round"/><path d="M160.798 41.8124L160.534 42.252C160.517 42.277 160.495 42.2972 160.469 42.3112C160.444 42.3251 160.416 42.3323 160.388 42.3323C160.36 42.3323 160.333 42.3251 160.308 42.3112C160.282 42.2972 160.26 42.277 160.243 42.252L159.981 41.8124C159.917 41.7088 159.999 41.58 160.124 41.58H160.652C160.781 41.58 160.86 41.72 160.798 41.8124Z" fill="white" stroke="#263238" stroke-width="0.932567" stroke-linecap="round" stroke-linejoin="round"/><path d="M160.605 38.7268H160.174C160.055 38.7268 159.959 38.8359 159.959 38.9704V41.0088C159.959 41.1433 160.055 41.2524 160.174 41.2524H160.605C160.724 41.2524 160.82 41.1433 160.82 41.0088V38.9704C160.82 38.8359 160.724 38.7268 160.605 38.7268Z" fill="white" stroke="#263238" stroke-width="0.932567" stroke-linecap="round" stroke-linejoin="round"/><path d="M160.605 31.0016H160.174C160.055 31.0016 159.959 31.1106 159.959 31.2452V33.2836C159.959 33.4181 160.055 33.5272 160.174 33.5272H160.605C160.724 33.5272 160.82 33.4181 160.82 33.2836V31.2452C160.82 31.1106 160.724 31.0016 160.605 31.0016Z" fill="white" stroke="#263238" stroke-width="0.932567" stroke-linecap="round" stroke-linejoin="round"/><path d="M136.674 48.0117L136.805 49.2073L134.121 49.3501L134.346 48.1517L136.674 48.0117Z" fill="#E8E8E8" stroke="#263238" stroke-width="0.932567" stroke-linecap="round" stroke-linejoin="round"/><path d="M141.225 58.061C141.225 58.061 136.566 62.9246 135.49 63.0002C135.226 63.0198 134.997 63.2074 134.775 63.0366C134.282 62.6558 133.569 61.8494 133.672 58.5734C133.727 56.7814 134.681 49.3139 134.681 49.3139L136.408 49.2271L136.827 57.627C138.307 55.8854 140.88 53.4718 140.882 53.4718C141.686 56.3894 141.225 58.061 141.225 58.061Z" fill="white" stroke="#263238" stroke-width="0.932567" stroke-linecap="round" stroke-linejoin="round"/><path d="M152.976 64.8228C153.092 64.242 153.313 63.6947 153.624 63.2156Z" fill="white"/><path d="M152.976 64.8228C153.092 64.242 153.313 63.6947 153.624 63.2156" stroke="#263238" stroke-width="0.932567" stroke-linecap="round" stroke-linejoin="round"/><path d="M136.298 59.6035C136.478 59.5111 136.907 58.6011 136.818 57.0471" stroke="#263238" stroke-width="0.932567" stroke-linecap="round" stroke-linejoin="round"/><path d="M137.953 39.6565V36.3105C137.954 36.1488 138.011 35.994 138.111 35.8797C138.212 35.7654 138.348 35.7008 138.491 35.7001H143.118C143.261 35.7008 143.397 35.7654 143.498 35.8797C143.599 35.994 143.655 36.1488 143.656 36.3105V39.6565C143.656 39.8184 143.599 39.9736 143.499 40.0881C143.398 40.2026 143.261 40.2669 143.118 40.2669H141.508L141.636 41.5409H140.805V42.7449L139.818 40.7849H140.625L140.541 40.2697H138.488C138.418 40.2693 138.348 40.2532 138.283 40.2221C138.218 40.1911 138.159 40.1459 138.109 40.0889C138.059 40.032 138.02 39.9645 137.993 39.8903C137.966 39.8161 137.953 39.7366 137.953 39.6565Z" fill="white" stroke="#263238" stroke-width="0.932567" stroke-linecap="round" stroke-linejoin="round"/><path d="M141.964 36.8452H138.836" stroke="#263238" stroke-width="0.932567" stroke-linecap="round" stroke-linejoin="round"/><path d="M142.773 37.7946H138.836" stroke="#263238" stroke-width="0.932567" stroke-linecap="round" stroke-linejoin="round"/><path d="M142.166 38.741H138.836" stroke="#263238" stroke-width="0.932567" stroke-linecap="round" stroke-linejoin="round"/><path d="M35.0364 122.472C41.397 122.472 46.5533 121.611 46.5533 120.548C46.5533 119.486 41.397 118.625 35.0364 118.625C28.6758 118.625 23.5195 119.486 23.5195 120.548C23.5195 121.611 28.6758 122.472 35.0364 122.472Z" fill="#E8E8E8"/><path d="M34.0281 89.894C45.105 89.894 54.0846 79.7009 54.0846 67.1272C54.0846 54.5534 45.105 44.3604 34.0281 44.3604C22.9513 44.3604 13.9717 54.5534 13.9717 67.1272C13.9717 79.7009 22.9513 89.894 34.0281 89.894Z" fill="#E8E8E8"/><path d="M24.7781 82.0149C24.7781 82.0149 25.2887 85.3749 23.5645 89.1521H45.1256C45.1256 89.1521 44.1389 87.3909 43.1054 82.0149H24.7781Z" fill="white" stroke="#263238" stroke-width="0.87381" stroke-linecap="round" stroke-linejoin="round"/><path d="M29.694 82.7905C28.5139 82.8978 27.3827 83.3729 26.4251 84.1634C25.4676 84.9539 24.7209 86.0291 24.2674 87.2705C24.0355 87.9089 23.7938 88.5557 23.5644 89.1605C22.2521 92.6073 23.4928 97.6221 26.8475 97.6221H42.2296C45.271 97.6221 46.1023 93.2514 45.3746 89.9586C44.906 87.8418 43.9612 85.7166 42.348 84.227C40.1922 82.225 33.8923 82.4097 29.694 82.7905Z" fill="#263238" stroke="#263238" stroke-width="0.87381" stroke-linecap="round" stroke-linejoin="round"/><path d="M15.0082 79.0916C15.0082 79.0916 12.2504 80.9844 12.1592 82.0148H15.541L16.8853 80.92L16.4314 82.0204H17.46C17.46 82.0204 18.5528 81.0572 18.612 79.9904L18.501 79.0916L16.5276 78.0948L15.0082 79.0916Z" fill="white" stroke="#263238" stroke-width="0.87381" stroke-linecap="round" stroke-linejoin="round"/><path d="M47.3112 72.1393C47.3112 72.1393 46.8697 68.8437 45.9003 64.0977C44.9309 59.3517 43.0365 58.9793 43.0365 58.9793H43.0192C40.5525 57.7753 34.1392 57.1257 34.1392 57.1257H33.8432C33.8432 57.1257 27.4151 57.7753 24.9632 58.9793H24.9459C24.9459 58.9793 23.0343 59.3601 22.0649 64.0977C21.0955 68.8353 20.6515 72.1393 20.6515 72.1393C20.6515 72.1393 18.9001 72.6769 15.7477 77.1793C15.2528 77.8933 14.8315 78.6693 14.4922 79.4921V79.4921C14.4922 79.4921 16.9145 78.5877 18.6115 79.9737C18.6115 79.9737 24.1714 77.2969 24.4501 74.4745C24.4501 74.3737 24.4723 74.2617 24.4847 74.1413C24.6425 78.4253 24.7782 82.0037 24.7782 82.0037H43.1845C43.1845 82.0037 43.3226 78.4253 43.4805 74.1413C43.4805 74.2617 43.5027 74.3737 43.5125 74.4745C43.7937 77.2969 49.9481 80.4609 49.9481 80.4609C51.6353 77.5153 54.0847 79.1421 54.0847 79.1421L47.3112 72.1393Z" fill="white"/><path opacity="0.3" d="M24.4509 74.4801C24.4509 74.3961 24.4706 74.3009 24.4805 74.2001L24.0784 64.2853C24.0784 64.2853 22.9684 64.5429 23.2866 67.5865C23.6048 70.6301 24.2733 70.1065 23.9008 71.2797C23.5284 72.4529 22.0829 71.1089 21.6044 72.1197C21.1258 73.1305 24.2782 72.9149 22.9758 75.5189C21.6734 78.1229 18.6123 79.9989 18.6123 79.9989C18.6123 79.9989 24.1746 77.3081 24.4509 74.4801Z" fill="black"/><g opacity="0.3"><path opacity="0.3" d="M43.5996 74.4801C43.5996 74.3961 44.3248 74.5417 43.5996 74.4801L43.8191 65.9933C43.8191 65.9933 43.7649 70.0981 44.1521 71.2797C44.5394 72.4613 45.9701 71.1089 46.4461 72.1197C46.9222 73.1305 43.7723 72.9149 45.0771 75.5189C46.382 78.1229 49.4382 79.9989 49.4382 79.9989C49.4382 79.9989 43.8808 77.3081 43.5996 74.4801Z" fill="black"/></g><path opacity="0.3" d="M43.3176 76.4121C43.1968 79.6237 43.1055 82.0121 43.1055 82.0121H26.5566C37.6566 82.0121 43.33 76.4121 43.33 76.4121H43.3176Z" fill="black"/><path d="M47.3112 72.1393C47.3112 72.1393 46.8697 68.8437 45.9003 64.0977C44.9309 59.3517 43.0365 58.9793 43.0365 58.9793H43.0192C40.5525 57.7753 34.1392 57.1257 34.1392 57.1257H33.8432C33.8432 57.1257 27.4151 57.7753 24.9632 58.9793H24.9459C24.9459 58.9793 23.0343 59.3601 22.0649 64.0977C21.0955 68.8353 20.6515 72.1393 20.6515 72.1393C20.6515 72.1393 18.9001 72.6769 15.7477 77.1793C15.2528 77.8933 14.8315 78.6693 14.4922 79.4921V79.4921C14.4922 79.4921 16.9145 78.5877 18.6115 79.9737C18.6115 79.9737 24.1714 77.2969 24.4501 74.4745C24.4501 74.3737 24.4723 74.2617 24.4847 74.1413C24.6425 78.4253 24.7782 82.0037 24.7782 82.0037H43.1845C43.1845 82.0037 43.3226 78.4253 43.4805 74.1413C43.4805 74.2617 43.5027 74.3737 43.5125 74.4745C43.7937 77.2969 49.9481 80.4609 49.9481 80.4609C51.6353 77.5153 54.0847 79.1421 54.0847 79.1421L47.3112 72.1393Z" stroke="#263238" stroke-width="0.87381" stroke-linecap="round" stroke-linejoin="round"/><path d="M21.2402 72.1199C22.1278 72.0693 22.9978 72.4138 23.665 73.0803" stroke="#263238" stroke-width="0.87381" stroke-linecap="round" stroke-linejoin="round"/><path d="M22.9746 64.5821C22.9746 64.5821 24.1142 64.8621 24.3757 71.1509L24.0328 62.8965" stroke="#263238" stroke-width="0.87381" stroke-linecap="round" stroke-linejoin="round"/><path d="M24.3906 72.0247L24.4428 73.2986" stroke="#263238" stroke-width="0.87381" stroke-linecap="round" stroke-linejoin="round"/><path d="M46.7236 72.1197C45.8377 72.0652 44.9679 72.4047 44.2988 73.0661" stroke="#263238" stroke-width="0.87381" stroke-linecap="round" stroke-linejoin="round"/><path d="M43.8633 64.5821C43.8848 64.0221 43.908 63.4621 43.9328 62.9021" stroke="#263238" stroke-width="0.87381" stroke-linecap="round" stroke-linejoin="round"/><path d="M37.4366 57.5792C37.1382 59.276 35.6927 59.8892 33.9512 59.8892C32.2098 59.8892 30.7692 59.2788 30.4658 57.5876H30.5349C30.7153 57.5597 30.884 57.4704 31.0187 57.3314C31.1535 57.1925 31.248 57.0104 31.2897 56.8092C31.3139 56.729 31.3264 56.6448 31.3267 56.56V54.5692H36.6547V56.56C36.6541 56.6845 36.6741 56.808 36.7139 56.924C36.7713 57.0969 36.8688 57.249 36.996 57.3643C37.1232 57.4796 37.2754 57.5539 37.4366 57.5792V57.5792Z" fill="white"/><path d="M36.6106 56.059C35.7275 57.0446 34.7434 57.6578 33.7937 57.7054C32.807 57.7558 31.6625 56.8374 31.1963 55.9358C31.2156 55.8574 31.2247 55.7763 31.2234 55.695V55.0846L36.5514 55.149V55.695C36.5514 55.8238 36.6871 55.975 36.6106 56.059Z" fill="#263238"/><path d="M37.4366 57.5792C37.1382 59.276 35.6927 59.8892 33.9512 59.8892C32.2098 59.8892 30.7692 59.2788 30.4658 57.5876H30.5349C30.7153 57.5597 30.884 57.4704 31.0187 57.3314C31.1535 57.1925 31.248 57.0104 31.2897 56.8092C31.3139 56.729 31.3264 56.6448 31.3267 56.56V54.5692H36.6547V56.56C36.6541 56.6845 36.6741 56.808 36.7139 56.924C36.7713 57.0969 36.8688 57.249 36.996 57.3643C37.1232 57.4796 37.2754 57.5539 37.4366 57.5792V57.5792Z" stroke="#263238" stroke-width="0.87381" stroke-linecap="round" stroke-linejoin="round"/><path d="M30.0593 50.2937C30.0593 50.2937 28.2117 47.9221 28.4534 44.6545C28.6952 41.3869 31.0583 41.3869 31.0583 41.3869C31.0583 41.3869 33.9073 38.5337 37.0868 40.3201C40.2663 42.1065 40.0468 48.3001 37.6936 49.8401L30.0593 50.2937Z" fill="#263238"/><path d="M38.2042 48.6977C38.2289 48.1545 38.2264 47.8185 38.2264 47.8185C38.0143 46.3737 36.4578 46.2281 35.7425 46.2029C32.7455 46.0881 31.9562 44.0021 31.9562 44.0021C30.1382 43.3833 29.6227 47.8185 29.6227 47.8185C29.6227 47.8185 29.6227 48.1545 29.6473 48.6977C29.3262 48.7673 29.0379 48.9657 28.835 49.2566C28.6321 49.5476 28.5282 49.9117 28.5423 50.2825C28.5423 51.1673 29.1047 51.8813 29.8003 51.8813C29.8706 51.8809 29.9408 51.8734 30.0099 51.8589L30.3355 53.9421C30.3972 54.4097 30.7845 55.5157 31.1323 55.7789C31.8723 56.3389 33.044 57.1369 33.9246 57.1369C34.6843 57.1369 35.7499 56.4257 36.5368 55.9413C36.9758 55.6613 37.4593 54.5889 37.5012 54.0261L37.706 51.9205C37.8216 51.9142 37.9368 51.9011 38.0513 51.8813C38.7444 51.8813 39.3093 51.1673 39.3093 50.2825C39.3234 49.9117 39.2195 49.5476 39.0166 49.2566C38.8137 48.9657 38.5253 48.7673 38.2042 48.6977V48.6977Z" fill="white" stroke="#263238" stroke-width="0.87381" stroke-linecap="round" stroke-linejoin="round"/><path d="M29.0248 47.3538H28.6992V48.6698H29.0248V47.3538Z" fill="white" stroke="#263238" stroke-width="0.87381" stroke-linecap="round" stroke-linejoin="round"/><path d="M38.974 47.3538H38.6484V48.6697H38.974V47.3538Z" fill="white" stroke="#263238" stroke-width="0.87381" stroke-linecap="round" stroke-linejoin="round"/><path d="M33.8347 41.6053C32.4499 41.605 31.119 42.2145 30.1221 43.3054C29.1251 44.3963 28.5399 45.8837 28.4894 47.4545C28.4884 47.4838 28.4926 47.513 28.5019 47.5403C28.5111 47.5676 28.5252 47.5925 28.5432 47.6135C28.5612 47.6344 28.5828 47.651 28.6066 47.6622C28.6304 47.6734 28.656 47.6789 28.6818 47.6785H29.0271C29.0773 47.6786 29.1255 47.6563 29.1615 47.6166C29.1974 47.5768 29.2182 47.5227 29.2195 47.4657C29.2744 46.1182 29.7847 44.8466 30.6441 43.915C31.5036 42.9834 32.6463 42.4636 33.8347 42.4636C35.023 42.4636 36.1657 42.9834 37.0252 43.915C37.8847 44.8466 38.3949 46.1182 38.4498 47.4657C38.4517 47.5229 38.4731 47.5771 38.5094 47.6168C38.5458 47.6564 38.5942 47.6786 38.6447 47.6785H38.9875C39.0134 47.6789 39.0391 47.6734 39.0631 47.6622C39.087 47.6511 39.1088 47.6345 39.127 47.6136C39.1452 47.5927 39.1595 47.5678 39.169 47.5405C39.1785 47.5132 39.1831 47.4839 39.1824 47.4545C39.1313 45.8835 38.5455 44.3961 37.5482 43.3052C36.5508 42.2143 35.2197 41.605 33.8347 41.6053Z" fill="white" stroke="#263238" stroke-width="0.87381" stroke-linecap="round" stroke-linejoin="round"/><path d="M29.581 48.1967H29.507C29.0703 48.2156 28.6571 48.4258 28.3541 48.7832C28.0511 49.1405 27.8818 49.6173 27.8818 50.1133C27.8818 50.6093 28.0511 51.086 28.3541 51.4433C28.6571 51.8007 29.0703 52.0109 29.507 52.0299H29.581V48.1967Z" fill="#263238" stroke="#263238" stroke-width="0.87381" stroke-miterlimit="10"/><path d="M29.9825 50.1203C29.9825 51.5399 30.0367 52.4639 29.6051 52.4639C29.1734 52.4639 29.0254 51.5399 29.0254 50.1203C29.0254 48.7007 29.1734 47.7739 29.6051 47.7739C30.0367 47.7739 29.9825 48.6867 29.9825 50.1203Z" fill="white" stroke="#263238" stroke-width="0.87381" stroke-linecap="round" stroke-linejoin="round"/><path d="M38.0928 48.1967H38.1668C38.6034 48.2156 39.0166 48.4258 39.3196 48.7832C39.6226 49.1405 39.7919 49.6173 39.7919 50.1133C39.7919 50.6093 39.6226 51.086 39.3196 51.4433C39.0166 51.8007 38.6034 52.0109 38.1668 52.0299H38.0928V48.1967Z" fill="#263238" stroke="#263238" stroke-width="0.87381" stroke-miterlimit="10"/><path d="M37.6885 50.1203C37.6885 51.5399 37.6367 52.4639 38.0683 52.4639C38.5 52.4639 38.648 51.5399 38.648 50.1203C38.648 48.7007 38.5 47.7739 38.0683 47.7739C37.6367 47.7739 37.6885 48.6867 37.6885 50.1203Z" fill="white" stroke="#263238" stroke-width="0.87381" stroke-linecap="round" stroke-linejoin="round"/><path d="M30.9502 50.4645C30.9502 50.4645 31.6532 51.4473 32.9704 50.6717" stroke="#263238" stroke-width="0.87381" stroke-linecap="round" stroke-linejoin="round"/><path d="M32.9688 54.2865C33.2595 54.5262 33.6096 54.6553 33.969 54.6553C34.3283 54.6553 34.6785 54.5262 34.9692 54.2865" stroke="#263238" stroke-width="0.75" stroke-linecap="round" stroke-linejoin="round"/><path d="M30.7539 49.1457C30.7539 49.1457 32.0292 48.0425 33.1639 49.1457" stroke="#263238" stroke-width="0.87381" stroke-linecap="round" stroke-linejoin="round"/><path d="M37.0174 49.1822C37.0174 49.1822 35.7421 48.0622 34.6074 49.1822" stroke="#263238" stroke-width="0.87381" stroke-linecap="round" stroke-linejoin="round"/><path d="M34.896 52.741C34.896 52.741 35.0095 53.4578 33.8526 53.441C33.5689 53.441 33.0534 53.2114 33.0361 52.741" stroke="#263238" stroke-width="0.75" stroke-linecap="round" stroke-linejoin="round"/><path d="M31.2256 50.725C31.3317 50.963 31.5709 51.2374 32.1062 51.2514C32.6415 51.2654 32.7352 51.0246 32.7451 50.7894C32.5065 50.9208 32.2432 50.9836 31.9782 50.9724C31.7133 50.9611 31.4548 50.8762 31.2256 50.725V50.725Z" fill="#263238"/><path d="M36.8327 50.4646C36.8327 50.4646 36.1297 51.4474 34.8125 50.6718" stroke="#263238" stroke-width="0.87381" stroke-linecap="round" stroke-linejoin="round"/><path d="M36.5556 50.725C36.4495 50.963 36.2103 51.2374 35.675 51.2514C35.1397 51.2654 35.046 51.0246 35.0361 50.7894C35.2746 50.921 35.538 50.984 35.803 50.9727C36.0679 50.9615 36.3264 50.8764 36.5556 50.725V50.725Z" fill="#263238"/><path d="M31.6642 40.0233C31.6642 40.0233 31.0155 40.4349 31.087 41.6053C31.087 41.6053 30.8601 40.8157 30.0264 41.1601" stroke="#263238" stroke-width="0.87381" stroke-linecap="round" stroke-linejoin="round"/><path d="M33.9807 60.7602C34.8308 60.76 35.6602 60.4615 36.3552 59.9057C37.0502 59.3498 37.5769 58.5637 37.8632 57.655C37.6387 57.6158 37.4167 57.5822 37.2021 57.5486C36.8641 58.1734 36.3906 58.6895 35.8268 59.0475C35.2631 59.4055 34.6279 59.5935 33.9819 59.5935C33.3359 59.5935 32.7007 59.4055 32.137 59.0475C31.5732 58.6895 31.0997 58.1734 30.7617 57.5486C30.5471 57.5822 30.3251 57.6158 30.1006 57.655C30.3867 58.5633 30.913 59.349 31.6076 59.9049C32.3021 60.4607 33.1309 60.7594 33.9807 60.7602Z" fill="#263238" stroke="#263238" stroke-width="0.87381" stroke-linecap="round" stroke-linejoin="round"/><path d="M43.4795 74.1527C43.588 71.4236 43.6974 68.6936 43.8076 65.9626" stroke="#263238" stroke-width="0.87381" stroke-linecap="round" stroke-linejoin="round"/><path d="M43.5615 46.2589V43.2433C43.5615 43.0948 43.5095 42.9524 43.417 42.8474C43.3245 42.7423 43.199 42.6833 43.0682 42.6833H38.9093C38.7785 42.6833 38.653 42.7423 38.5605 42.8474C38.468 42.9524 38.416 43.0948 38.416 43.2433V46.2589C38.416 46.4075 38.468 46.5499 38.5605 46.6549C38.653 46.7599 38.7785 46.8189 38.9093 46.8189H40.3597L40.2438 47.9669H40.9838V49.0505L41.8694 47.2837H41.1417L41.2182 46.8189H43.0657C43.1307 46.8193 43.1951 46.8051 43.2552 46.7771C43.3154 46.7491 43.37 46.708 43.4161 46.6559C43.4622 46.6039 43.4987 46.542 43.5237 46.4739C43.5486 46.4058 43.5615 46.3327 43.5615 46.2589V46.2589Z" fill="white" stroke="#263238" stroke-width="0.87381" stroke-linecap="round" stroke-linejoin="round"/><path d="M39.2197 43.7277H42.0391" stroke="#263238" stroke-width="0.87381" stroke-linecap="round" stroke-linejoin="round"/><path d="M39.2197 44.5817H42.7643" stroke="#263238" stroke-width="0.87381" stroke-linecap="round" stroke-linejoin="round"/><path d="M39.2197 45.4357H42.2192" stroke="#263238" stroke-width="0.87381" stroke-linecap="round" stroke-linejoin="round"/><path d="M56.3385 80.5562C56.3385 81.4465 55.1052 82.0037 53.5906 82.0037C52.0761 82.0037 50.8428 81.4437 50.8428 80.5562C50.8428 79.6686 52.0761 78.9406 53.5906 78.9406C55.1052 78.9406 56.3385 79.663 56.3385 80.5562Z" fill="white" stroke="#263238" stroke-width="0.87381" stroke-linecap="round" stroke-linejoin="round"/><path d="M51.8121 81.6817C51.8861 81.6621 51.9453 81.1917 51.2768 80.8417C50.8131 80.6009 50.8008 80.3461 51.0672 80.0325C51.3336 79.7189 51.7874 79.4557 52.1377 79.5705C52.7075 79.7553 53.0849 81.1021 53.339 80.8109C53.7213 80.6989 53.26 79.4641 52.5768 79.0581C53.8101 79.4053 53.8693 81.0181 54.4366 80.8893C54.8708 80.7941 54.1209 79.1925 53.4722 78.7193C53.8879 78.9392 54.2515 79.2685 54.5328 79.6797C54.9448 80.3601 54.9916 80.5897 55.2728 80.4917C55.6379 80.3601 54.7672 78.8649 54.6586 78.7025C55.2062 78.9489 55.3098 79.4697 55.4776 79.6797C55.6453 79.8897 55.7242 80.2397 55.9561 80.1025C56.188 79.9653 55.9733 79.4781 55.8179 79.1925C55.078 77.8345 53.8446 77.6077 52.6705 77.7757C51.743 77.9101 50.6774 78.3525 50.1126 79.1925C49.9688 79.4018 49.8844 79.6557 49.8703 79.9206C49.8562 80.1855 49.9131 80.4491 50.0336 80.6765C50.231 81.1497 50.9364 81.9057 51.8121 81.6817Z" fill="white" stroke="#263238" stroke-width="0.87381" stroke-linecap="round" stroke-linejoin="round"/><path d="M57.0592 82.0149H11.6651C11.5302 82.0149 11.4209 82.139 11.4209 82.2921V82.7373C11.4209 82.8904 11.5302 83.0145 11.6651 83.0145H57.0592C57.194 83.0145 57.3034 82.8904 57.3034 82.7373V82.2921C57.3034 82.139 57.194 82.0149 57.0592 82.0149Z" fill="#BFBFBF" stroke="#263238" stroke-width="0.87381" stroke-miterlimit="10"/><path d="M12.9971 82.0149L9.6572 70.4929C9.64462 70.4481 9.64135 70.4005 9.64766 70.3539C9.65397 70.3074 9.66968 70.2631 9.69357 70.2246C9.71746 70.1861 9.74888 70.1544 9.78536 70.132C9.82184 70.1095 9.86241 70.097 9.90387 70.0953H20.4538L24.2105 82.0149H12.9971Z" fill="#263238"/><path d="M20.7417 70.0953L24.1951 81.3457H33.4451V81.7405C33.4451 81.8148 33.4191 81.886 33.3728 81.9385C33.3266 81.991 33.2638 82.0205 33.1984 82.0205H23.6031L20.2805 70.5601C20.2657 70.5087 20.2619 70.454 20.2693 70.4005C20.2766 70.3471 20.295 70.2963 20.3229 70.2524C20.3507 70.2085 20.3873 70.1727 20.4297 70.1478C20.472 70.1229 20.5189 70.1098 20.5666 70.1093L20.7417 70.0953Z" fill="white" stroke="#263238" stroke-width="0.87381" stroke-linecap="round" stroke-linejoin="round"/><path d="M15.8432 76.0564C15.8106 75.8607 15.7303 75.6793 15.6113 75.5328C15.663 75.4636 15.7277 75.4084 15.8008 75.3716C15.8738 75.3347 15.9532 75.3171 16.0331 75.32C16.2196 75.329 16.3983 75.4069 16.5421 75.5419C16.686 75.6768 16.787 75.8614 16.8299 76.0676C16.8527 76.1569 16.8564 76.2511 16.8408 76.3423C16.8251 76.4336 16.7906 76.5193 16.7399 76.5923C16.6893 76.6654 16.6241 76.7237 16.5496 76.7625C16.4752 76.8012 16.3937 76.8193 16.3119 76.8152C16.1227 76.8102 15.9411 76.73 15.7988 76.5884C15.8699 76.423 15.8857 76.234 15.8432 76.0564V76.0564Z" fill="white"/><path d="M37.2166 82.0149H40.5886C41.0378 81.6416 41.4018 81.1517 41.6502 80.5862C41.8987 80.0207 42.0244 79.3959 42.0168 78.7641V76.9637C42.0168 76.8953 42.0049 76.8276 41.9819 76.7644C41.9588 76.7012 41.925 76.6438 41.8824 76.5954C41.8398 76.547 41.7892 76.5087 41.7336 76.4825C41.6779 76.4563 41.6182 76.4429 41.558 76.4429H36.2596C36.1994 76.4429 36.1399 76.4564 36.0844 76.4826C36.0288 76.5088 35.9784 76.5472 35.936 76.5956C35.8936 76.644 35.8601 76.7014 35.8373 76.7646C35.8145 76.8277 35.8029 76.8954 35.8032 76.9637V78.7641C35.7938 79.3945 35.9171 80.0184 36.1629 80.5839C36.4088 81.1493 36.77 81.6399 37.2166 82.0149V82.0149Z" fill="white" stroke="#263238" stroke-width="0.87381" stroke-linecap="round" stroke-linejoin="round"/><path d="M42.9739 77.2101C42.8318 77.1086 42.669 77.0505 42.5012 77.0417C42.3335 77.0329 42.1666 77.0735 42.0168 77.1597V77.8093C42.163 77.7815 42.313 77.8154 42.4386 77.9045C42.9147 78.2181 42.8136 78.8593 42.4806 79.5117C42.3283 79.8815 42.0664 80.1788 41.7406 80.3517C41.6432 80.6211 41.52 80.8774 41.373 81.1161C42.007 81.2729 42.5866 80.6625 43.0405 79.7721C43.5733 78.7249 43.7336 77.7085 42.9739 77.2101Z" fill="white" stroke="#263238" stroke-width="0.87381" stroke-linecap="round" stroke-linejoin="round"/><path d="M38.9731 73.6065C39.0957 73.153 39.1564 72.6809 39.1532 72.2065C39.1532 69.5745 36.9727 69.2637 36.9727 66.2733" stroke="#263238" stroke-width="0.87381" stroke-linecap="round" stroke-linejoin="round"/><path d="M37.4268 75.9279C37.8217 75.6486 38.1631 75.282 38.4307 74.8499" stroke="#263238" stroke-width="0.87381" stroke-linecap="round" stroke-linejoin="round"/><path d="M38.7855 68.7821C38.6628 68.5251 38.6117 68.2324 38.639 67.9421" stroke="#263238" stroke-width="0.87381" stroke-linecap="round" stroke-linejoin="round"/><path d="M40.4828 72.4781C40.3718 71.6549 39.9549 70.8821 39.543 70.1793" stroke="#263238" stroke-width="0.87381" stroke-linecap="round" stroke-linejoin="round"/><path d="M39.2197 75.9586C39.2197 75.9586 39.94 75.6142 40.3347 74.0602" stroke="#263238" stroke-width="0.87381" stroke-linecap="round" stroke-linejoin="round"/><path d="M43.6253 97.6138H25.1549C23.8062 97.6138 22.7129 98.8548 22.7129 100.386V114.246C22.7129 115.777 23.8062 117.018 25.1549 117.018H43.6253C44.974 117.018 46.0673 115.777 46.0673 114.246V100.386C46.0673 98.8548 44.974 97.6138 43.6253 97.6138Z" fill="white" stroke="#263238" stroke-width="0.87381" stroke-miterlimit="10"/><path d="M28.5518 110.964L28.8305 116.5L28.8626 116.547C29.0833 116.884 29.3709 117.156 29.702 117.342C30.0331 117.528 30.3982 117.623 30.7676 117.618C31.137 117.613 31.5003 117.51 31.8276 117.315C32.155 117.121 32.4373 116.841 32.6514 116.5V116.5L32.755 110.964H28.5518Z" fill="white" stroke="#263238" stroke-width="0.87381" stroke-linecap="round" stroke-linejoin="round"/><path d="M33.6772 121.909C31.8061 122.282 29.8922 122.282 28.0211 121.909V121.909C27.8464 121.713 27.6962 121.491 27.5746 121.249C27.3855 120.866 27.2787 120.439 27.2628 120.001C27.2469 119.563 27.3225 119.127 27.4834 118.729L28.6106 116.447L33.0778 116.503L34.0842 118.586C34.3257 119.08 34.4297 119.646 34.3826 120.209C34.3355 120.771 34.1395 121.305 33.8202 121.739C33.7752 121.798 33.7274 121.855 33.6772 121.909V121.909Z" fill="#BFBFBF" stroke="#263238" stroke-width="0.87381" stroke-miterlimit="10"/><path d="M32.5801 119.036C32.8564 119.175 33.12 119.343 33.3669 119.54Z" fill="#BFBFBF"/><path d="M32.5801 119.036C32.8564 119.175 33.12 119.343 33.3669 119.54" stroke="#263238" stroke-width="0.87381" stroke-miterlimit="10"/><path d="M28.3672 119.54C28.8575 119.159 29.4095 118.893 29.9913 118.756C30.5731 118.619 31.1731 118.614 31.7564 118.742" fill="#BFBFBF"/><path d="M28.3672 119.54C28.8575 119.159 29.4095 118.893 29.9913 118.756C30.5731 118.619 31.1731 118.614 31.7564 118.742" stroke="#263238" stroke-width="0.87381" stroke-miterlimit="10"/><path d="M26.1461 88.1189L28.1194 113.789H33.2229C33.2229 113.789 33.7286 98.1093 34.0493 87.9285C34.0702 87.3246 33.9833 86.7221 33.7938 86.1573C33.6042 85.5924 33.3159 85.077 32.9463 84.642C32.5767 84.2069 32.1333 83.8613 31.6429 83.6259C31.1525 83.3905 30.6252 83.2701 30.0927 83.2721V83.2721C29.5461 83.27 29.005 83.3969 28.5039 83.6446C28.0027 83.8923 27.5523 84.2555 27.1813 84.7112C26.8102 85.1669 26.5266 85.705 26.3484 86.2917C26.1702 86.8783 26.1013 87.5005 26.1461 88.1189Z" fill="#263238"/><path d="M31.2249 83.4541C30.8533 83.3302 30.4677 83.2689 30.0804 83.2721V83.2721C29.5348 83.2719 28.9951 83.4002 28.4954 83.6488C27.9957 83.8974 27.5468 84.2609 27.1771 84.7163C26.8074 85.1718 26.5249 85.7093 26.3474 86.2949C26.17 86.8806 26.1014 87.5016 26.1461 88.1189L26.8466 97.6137" stroke="white" stroke-width="0.87381" stroke-linecap="round" stroke-linejoin="round"/><path d="M33.3566 85.2041C33.1544 84.8781 32.9165 84.5827 32.6486 84.3249C32.6486 84.3249 32.3403 84.0449 32.2021 83.9553" stroke="white" stroke-width="0.87381" stroke-linecap="round" stroke-linejoin="round"/><path d="M33.7119 97.6138C33.813 94.4358 33.9709 90.7174 34.0573 87.9286C34.0808 87.2363 33.9626 86.5471 33.7119 85.9154" stroke="white" stroke-width="0.87381" stroke-linecap="round" stroke-linejoin="round"/><path d="M36.8535 110.964L37.1322 116.5L37.1643 116.547C37.385 116.884 37.6727 117.156 38.0037 117.342C38.3348 117.528 38.7 117.623 39.0694 117.618C39.4388 117.613 39.802 117.51 40.1294 117.315C40.4567 117.121 40.739 116.841 40.9531 116.5V116.5L41.0567 110.964H36.8535Z" fill="white" stroke="#263238" stroke-width="0.87381" stroke-linecap="round" stroke-linejoin="round"/><path d="M41.9807 121.909C40.1096 122.282 38.1957 122.282 36.3246 121.909C36.1503 121.714 36.0009 121.491 35.8806 121.249C35.6905 120.867 35.5829 120.44 35.5666 120.001C35.5503 119.563 35.6258 119.127 35.7869 118.729L36.9166 116.447L41.3813 116.503L42.3877 118.586C42.6292 119.08 42.7332 119.646 42.6861 120.209C42.639 120.771 42.443 121.305 42.1238 121.739C42.0787 121.798 42.031 121.855 41.9807 121.909Z" fill="#BFBFBF" stroke="#263238" stroke-width="0.87381" stroke-miterlimit="10"/><path d="M40.8828 119.037C41.1594 119.174 41.4231 119.343 41.6697 119.541Z" fill="#BFBFBF"/><path d="M40.8828 119.037C41.1594 119.174 41.4231 119.343 41.6697 119.541" stroke="#263238" stroke-width="0.87381" stroke-miterlimit="10"/><path d="M36.6748 119.541C37.1652 119.16 37.7172 118.893 38.299 118.756C38.8807 118.619 39.4807 118.614 40.064 118.743" fill="#BFBFBF"/><path d="M36.6748 119.541C37.1652 119.16 37.7172 118.893 38.299 118.756C38.8807 118.619 39.4807 118.614 40.064 118.743" stroke="#263238" stroke-width="0.87381" stroke-miterlimit="10"/><path d="M34.4566 88.1189L36.4299 113.789H41.5335C41.5335 113.789 42.0391 98.1093 42.3623 87.9286C42.3816 87.3232 42.2929 86.7197 42.1015 86.1543C41.9101 85.5888 41.62 85.0732 41.2485 84.6382C40.8771 84.2033 40.4321 83.8581 39.9402 83.6233C39.4483 83.3886 38.9196 83.2691 38.386 83.2722C37.8408 83.2728 37.3017 83.4016 36.8025 83.6505C36.3034 83.8995 35.8551 84.2631 35.486 84.7184C35.1168 85.1738 34.8347 85.7111 34.6576 86.2963C34.4804 86.8816 34.412 87.5022 34.4566 88.1189V88.1189Z" fill="#263238"/><path d="M40.014 83.6586C39.5017 83.4 38.9467 83.2682 38.386 83.2722C37.8408 83.2728 37.3017 83.4017 36.8025 83.6506C36.3034 83.8995 35.8551 84.2631 35.486 84.7185C35.1168 85.1738 34.8347 85.7111 34.6576 86.2964C34.4804 86.8816 34.412 87.5022 34.4566 88.119L35.1966 97.6138" stroke="white" stroke-width="0.87381" stroke-linecap="round" stroke-linejoin="round"/><path d="M41.6601 85.2042C41.4592 84.877 41.2212 84.5814 40.9521 84.325" stroke="white" stroke-width="0.87381" stroke-linecap="round" stroke-linejoin="round"/><path d="M42.2289 97.6136C42.33 94.4356 42.2733 90.7171 42.3621 87.9283C42.3821 87.3157 42.2914 86.7049 42.0957 86.1335" stroke="white" stroke-width="0.87381" stroke-linecap="round" stroke-linejoin="round"/><path d="M102.675 44.4275V32.4799C102.675 31.9022 102.473 31.3481 102.113 30.9396C101.753 30.531 101.265 30.3015 100.756 30.3015H84.2443C83.7353 30.3015 83.2472 30.531 82.8873 30.9396C82.5274 31.3481 82.3252 31.9022 82.3252 32.4799V44.4275C82.3252 45.0053 82.5274 45.5593 82.8873 45.9679C83.2472 46.3764 83.7353 46.6059 84.2443 46.6059H89.9941L89.5402 51.1531H92.5002V55.4399L96.0127 48.4399H93.1317L93.4351 46.6031H100.756C101.265 46.6031 101.752 46.374 102.112 45.9661C102.472 45.5581 102.675 45.0048 102.675 44.4275V44.4275Z" fill="white" stroke="#263238" stroke-width="1.02547" stroke-linecap="round" stroke-linejoin="round"/><path d="M85.4766 34.3895H96.6407" stroke="#263238" stroke-width="1.02547" stroke-linecap="round" stroke-linejoin="round"/><path d="M85.4766 37.7747H99.5218" stroke="#263238" stroke-width="1.02547" stroke-linecap="round" stroke-linejoin="round"/><path d="M85.4766 41.16H97.361" stroke="#263238" stroke-width="1.02547" stroke-linecap="round" stroke-linejoin="round"/><path d="M115.286 95.5863L125.261 99.3607L122.787 102.172L127.405 107.413L117.43 103.639L119.904 100.828L115.286 95.5863Z" fill="#E8E8E8" stroke="#263238" stroke-width="1.02547" stroke-linecap="round" stroke-linejoin="round"/><path d="M69.7125 95.5863L59.7373 99.3607L62.2114 102.172L57.5938 107.414L67.569 103.639L65.0949 100.828L69.7125 95.5863Z" fill="#E8E8E8" stroke="#263238" stroke-width="1.02547" stroke-linecap="round" stroke-linejoin="round"/><path d="M92.2215 8.99915L87.5176 19.6783H91.0203V27.0927L95.7217 16.4135H92.2215V8.99915Z" fill="#E8E8E8" stroke="#263238" stroke-width="1.02547" stroke-linecap="round" stroke-linejoin="round"/></svg>