<svg width="185" height="140" fill="none" xmlns="http://www.w3.org/2000/svg"><path d="M148.893 85.8591C148.893 85.8591 145.862 83.9467 145.637 88.2783C145.413 92.6099 144.851 120.786 144.851 120.786" stroke="#263238" stroke-width="2" stroke-linecap="round" stroke-linejoin="round"/><path d="M144.054 88.662C144.054 88.662 146.52 94.9088 145.403 120.403" stroke="#263238" stroke-width="2" stroke-linecap="round" stroke-linejoin="round"/><path d="M146.493 86.7299C146.493 86.7299 145.332 87.5699 144.673 86.6095C144.014 85.6491 145.119 83.8739 144.145 83.1179C143.171 82.3619 141.486 83.5155 141.486 83.5155C141.486 83.5155 142.781 83.9467 142.739 84.7503C142.697 85.5539 142.073 85.8703 141.999 85.5063C141.925 85.1423 141.296 83.3867 140.243 84.1231C139.94 84.3269 139.676 84.5982 139.468 84.9206C139.26 85.243 139.112 85.6099 139.032 85.9991C139.032 85.9991 141.481 85.7023 141.629 86.7495C141.777 87.7967 140.625 86.5675 139.614 86.5003C138.603 86.4331 137.68 86.6011 137.747 87.2955C137.769 87.9099 137.737 88.5253 137.65 89.1323C138.203 88.609 138.904 88.3288 139.624 88.3427C140.736 88.4155 140.694 89.2191 139.683 89.1519C138.672 89.0847 137.803 90.1767 137.803 90.1767C137.803 90.1767 138.726 91.9659 139.898 92.8507C141.069 93.7355 141.491 93.4107 141.624 92.7359C141.757 92.0611 141.447 90.3055 142.155 90.3531C142.862 90.4007 140.983 93.3855 141.886 93.5619C142.788 93.7383 143.516 93.4387 143.753 92.7639L144 92.0891C144 92.0891 143.684 90.3419 143.822 89.6587C143.96 88.9755 144.125 89.6783 144.286 90.4987C144.446 91.3191 144.547 93.2819 144.856 93.1867C145.164 93.0915 146.153 91.6607 146.385 91.1007C146.617 90.5407 145.082 88.8243 145.1 88.4799C145.117 88.1355 146.301 88.7907 146.486 89.1491C146.62 89.4216 146.741 89.702 146.849 89.9891C146.849 89.9891 147.589 89.4627 147.569 87.8499C147.549 86.2371 146.493 86.7299 146.493 86.7299Z" fill="white"/><path opacity="0.3" d="M146.493 86.7299C146.493 86.7299 145.332 87.5699 144.673 86.6095C144.014 85.6491 145.119 83.8739 144.145 83.1179C143.171 82.3619 141.486 83.5155 141.486 83.5155C141.486 83.5155 142.781 83.9467 142.739 84.7503C142.697 85.5539 142.073 85.8703 141.999 85.5063C141.925 85.1423 141.296 83.3867 140.243 84.1231C139.94 84.3269 139.676 84.5982 139.468 84.9206C139.26 85.243 139.112 85.6099 139.032 85.9991C139.032 85.9991 141.481 85.7023 141.629 86.7495C141.777 87.7967 140.625 86.5675 139.614 86.5003C138.603 86.4331 137.68 86.6011 137.747 87.2955C137.769 87.9099 137.737 88.5253 137.65 89.1323C138.203 88.609 138.904 88.3288 139.624 88.3427C140.736 88.4155 140.694 89.2191 139.683 89.1519C138.672 89.0847 137.803 90.1767 137.803 90.1767C137.803 90.1767 138.726 91.9659 139.898 92.8507C141.069 93.7355 141.491 93.4107 141.624 92.7359C141.757 92.0611 141.447 90.3055 142.155 90.3531C142.862 90.4007 140.983 93.3855 141.886 93.5619C142.788 93.7383 143.516 93.4387 143.753 92.7639L144 92.0891C144 92.0891 143.684 90.3419 143.822 89.6587C143.96 88.9755 144.125 89.6783 144.286 90.4987C144.446 91.3191 144.547 93.2819 144.856 93.1867C145.164 93.0915 146.153 91.6607 146.385 91.1007C146.617 90.5407 145.082 88.8243 145.1 88.4799C145.117 88.1355 146.301 88.7907 146.486 89.1491C146.62 89.4216 146.741 89.702 146.849 89.9891C146.849 89.9891 147.589 89.4627 147.569 87.8499C147.549 86.2371 146.493 86.7299 146.493 86.7299Z" fill="#263238"/><path d="M140.612 90.5128C141.37 89.4516 142.482 88.0152 143.417 87.3292" stroke="#263238" stroke-linecap="round" stroke-linejoin="round"/><path d="M139.735 91.8065C139.735 91.8065 139.93 91.4985 140.246 91.0393" stroke="#263238" stroke-linecap="round" stroke-linejoin="round"/><path d="M143.91 87.5923C143.91 87.5923 145.035 89.3955 145.242 91.2519" stroke="#263238" stroke-linecap="round" stroke-linejoin="round"/><path d="M142.638 88.6592C142.638 88.6592 142.953 88.4519 142.835 90.7451" stroke="#263238" stroke-linecap="round" stroke-linejoin="round"/><path d="M143.459 86.5199C143.459 86.5199 144.1 85.8703 143.762 84.5823" stroke="#263238" stroke-linecap="round" stroke-linejoin="round"/><path d="M142.591 87.6203L142.132 86.6683" stroke="#263238" stroke-linecap="round" stroke-linejoin="round"/><path d="M141.626 88.592C141.626 88.592 140.171 87.3432 139.261 87.2816" stroke="#263238" stroke-linecap="round" stroke-linejoin="round"/><path d="M150.627 83.328C150.627 83.328 150.58 85.2208 149.278 85.3132C147.975 85.4056 147.171 82.9444 145.839 83.5352C144.507 84.126 144.379 86.828 144.379 86.828C144.379 86.828 145.642 85.6492 146.323 86.2456C147.004 86.842 146.846 87.7576 146.478 87.612C146.111 87.4664 144.13 86.9652 144.063 88.662C144.036 89.1453 144.095 89.6299 144.237 90.0866C144.379 90.5433 144.601 90.9626 144.89 91.3192C144.89 91.3192 146.298 88.3344 147.324 88.8776C148.35 89.4208 146.478 89.894 145.728 90.9972C144.978 92.1004 144.495 93.2624 145.158 93.6628C145.715 94.056 146.236 94.5119 146.712 95.0236C146.712 95.0236 146.535 93.4612 147.359 92.2488C148.183 91.0364 148.861 91.63 148.114 92.7332C147.366 93.8364 147.736 95.5668 147.736 95.5668C147.736 95.5668 149.941 95.7404 151.52 95.0068C153.099 94.2732 153.109 93.5816 152.6 92.96C152.092 92.3384 150.336 91.5068 150.859 90.734C151.382 89.9612 152.734 94.1332 153.506 93.226C154.278 92.3188 154.507 91.2912 154.075 90.5604L153.641 89.8296C153.641 89.8296 151.885 88.9896 151.377 88.3764C150.869 87.7632 151.601 88.0432 152.433 88.4184C153.264 88.7936 155.062 90.0172 155.19 89.6028C155.319 89.1884 154.729 87.0828 154.394 86.4444C154.058 85.806 151.498 86.3716 151.207 86.1168C150.916 85.862 152.299 84.9632 152.741 84.9968C153.183 85.0304 153.728 85.1508 153.728 85.1508C153.728 85.1508 153.767 83.9552 152.332 82.8744C150.896 81.7936 150.627 83.328 150.627 83.328Z" fill="white"/><path opacity="0.2" d="M150.627 83.328C150.627 83.328 150.58 85.2208 149.278 85.3132C147.975 85.4056 147.171 82.9444 145.839 83.5352C144.507 84.126 144.379 86.828 144.379 86.828C144.379 86.828 145.642 85.6492 146.323 86.2456C147.004 86.842 146.846 87.7576 146.478 87.612C146.111 87.4664 144.13 86.9652 144.063 88.662C144.036 89.1453 144.095 89.6299 144.237 90.0866C144.379 90.5433 144.601 90.9626 144.89 91.3192C144.89 91.3192 146.298 88.3344 147.324 88.8776C148.35 89.4208 146.478 89.894 145.728 90.9972C144.978 92.1004 144.495 93.2624 145.158 93.6628C145.715 94.056 146.236 94.5119 146.712 95.0236C146.712 95.0236 146.535 93.4612 147.359 92.2488C148.183 91.0364 148.861 91.63 148.114 92.7332C147.366 93.8364 147.736 95.5668 147.736 95.5668C147.736 95.5668 149.941 95.7404 151.52 95.0068C153.099 94.2732 153.109 93.5816 152.6 92.96C152.092 92.3384 150.336 91.5068 150.859 90.734C151.382 89.9612 152.734 94.1332 153.506 93.226C154.278 92.3188 154.507 91.2912 154.075 90.5604L153.641 89.8296C153.641 89.8296 151.885 88.9896 151.377 88.3764C150.869 87.7632 151.601 88.0432 152.433 88.4184C153.264 88.7936 155.062 90.0172 155.19 89.6028C155.319 89.1884 154.729 87.0828 154.394 86.4444C154.058 85.806 151.498 86.3716 151.207 86.1168C150.916 85.862 152.299 84.9632 152.741 84.9968C153.183 85.0304 153.728 85.1508 153.728 85.1508C153.728 85.1508 153.767 83.9552 152.332 82.8744C150.896 81.7936 150.627 83.328 150.627 83.328Z" fill="#263238"/><path d="M149.954 92.5904C149.535 91.0056 149.027 88.76 149.061 87.2312" stroke="#263238" stroke-linecap="round" stroke-linejoin="round"/><path d="M150.496 94.4664C150.496 94.4664 150.358 94.038 150.168 93.366" stroke="#263238" stroke-linecap="round" stroke-linejoin="round"/><path d="M149.628 86.8504C149.628 86.8504 151.984 86.8028 153.762 87.8304" stroke="#263238" stroke-linecap="round" stroke-linejoin="round"/><path d="M149.702 89.0232C149.702 89.0232 149.732 88.5248 151.675 90.2244" stroke="#263238" stroke-linecap="round" stroke-linejoin="round"/><path d="M148.38 86.6376C148.38 86.6376 148.247 85.4644 146.878 84.9716" stroke="#263238" stroke-linecap="round" stroke-linejoin="round"/><path d="M148.753 88.3707L147.601 88.2419" stroke="#263238" stroke-linecap="round" stroke-linejoin="round"/><path d="M148.952 90.1263C148.952 90.1263 146.858 90.9327 146.185 91.9239" stroke="#263238" stroke-linecap="round" stroke-linejoin="round"/><path d="M136.653 95.928C136.653 95.928 143.279 100.901 143.165 120.148" stroke="#263238" stroke-width="2" stroke-linecap="round" stroke-linejoin="round"/><path d="M144.823 94.6147C144.823 94.6147 144.61 96.7931 143.096 96.7623C141.581 96.7315 140.861 93.7999 139.277 94.3403C137.694 94.8807 137.316 97.9803 137.316 97.9803C137.316 97.9803 138.873 96.7567 139.61 97.5155C140.348 98.2743 140.087 99.3159 139.675 99.1087C139.263 98.9015 137.02 98.1119 136.801 100.064C136.73 100.619 136.758 101.185 136.886 101.728C137.013 102.27 137.236 102.777 137.541 103.219C137.541 103.219 139.416 99.9235 140.553 100.66C141.69 101.396 139.492 101.744 138.535 102.936C137.578 104.129 136.929 105.42 137.654 105.952C138.266 106.464 138.829 107.046 139.337 107.688C139.337 107.688 139.26 105.865 140.323 104.555C141.386 103.244 142.109 103.995 141.155 105.193C140.2 106.392 140.484 108.424 140.484 108.424C140.484 108.424 143.017 108.861 144.899 108.189C146.781 107.517 146.848 106.716 146.312 105.949C145.777 105.182 143.821 104.028 144.49 103.194C145.158 102.36 146.369 107.315 147.336 106.352C148.303 105.389 148.653 104.227 148.214 103.337L147.753 102.446C147.753 102.446 145.797 101.296 145.262 100.526C144.726 99.7555 145.548 100.167 146.475 100.688C147.403 101.209 149.378 102.816 149.559 102.348C149.739 101.881 149.233 99.3999 148.91 98.6187C148.587 97.8375 145.575 98.2267 145.259 97.9019C144.943 97.5771 146.618 96.6867 147.124 96.7819C147.5 96.8531 147.873 96.9466 148.241 97.0619C148.241 97.0619 148.384 95.6843 146.818 94.2843C145.252 92.8843 144.823 94.6147 144.823 94.6147Z" fill="white"/><path opacity="0.3" d="M144.823 94.6147C144.823 94.6147 144.61 96.7931 143.096 96.7623C141.581 96.7315 140.861 93.7999 139.277 94.3403C137.694 94.8807 137.316 97.9803 137.316 97.9803C137.316 97.9803 138.873 96.7567 139.61 97.5155C140.348 98.2743 140.087 99.3159 139.675 99.1087C139.263 98.9015 137.02 98.1119 136.801 100.064C136.73 100.619 136.758 101.185 136.886 101.728C137.013 102.27 137.236 102.777 137.541 103.219C137.541 103.219 139.416 99.9235 140.553 100.66C141.69 101.396 139.492 101.744 138.535 102.936C137.578 104.129 136.929 105.42 137.654 105.952C138.266 106.464 138.829 107.046 139.337 107.688C139.337 107.688 139.26 105.865 140.323 104.555C141.386 103.244 142.109 103.995 141.155 105.193C140.2 106.392 140.484 108.424 140.484 108.424C140.484 108.424 143.017 108.861 144.899 108.189C146.781 107.517 146.848 106.716 146.312 105.949C145.777 105.182 143.821 104.028 144.49 103.194C145.158 102.36 146.369 107.315 147.336 106.352C148.303 105.389 148.653 104.227 148.214 103.337L147.753 102.446C147.753 102.446 145.797 101.296 145.262 100.526C144.726 99.7555 145.548 100.167 146.475 100.688C147.403 101.209 149.378 102.816 149.559 102.348C149.739 101.881 149.233 99.3999 148.91 98.6187C148.587 97.8375 145.575 98.2267 145.259 97.9019C144.943 97.5771 146.618 96.6867 147.124 96.7819C147.5 96.8531 147.873 96.9466 148.241 97.0619C148.241 97.0619 148.384 95.6843 146.818 94.2843C145.252 92.8843 144.823 94.6147 144.823 94.6147Z" fill="#263238"/><path d="M143.279 105.23C142.924 103.359 142.527 100.713 142.69 98.952" stroke="#263238" stroke-linecap="round" stroke-linejoin="round"/><path d="M143.748 107.453C143.748 107.453 143.624 106.943 143.459 106.148" stroke="#263238" stroke-linecap="round" stroke-linejoin="round"/><path d="M143.377 98.5599C143.377 98.5599 146.09 98.7587 148.064 100.136" stroke="#263238" stroke-linecap="round" stroke-linejoin="round"/><path d="M143.281 101.08C143.281 101.08 143.358 100.52 145.459 102.676" stroke="#263238" stroke-linecap="round" stroke-linejoin="round"/><path d="M141.954 98.1932C141.954 98.1932 141.897 96.8268 140.36 96.11" stroke="#263238" stroke-linecap="round" stroke-linejoin="round"/><path d="M142.24 100.232L140.923 99.9601" stroke="#263238" stroke-linecap="round" stroke-linejoin="round"/><path d="M142.327 102.281C142.327 102.281 139.843 102.984 138.982 104.056" stroke="#263238" stroke-linecap="round" stroke-linejoin="round"/><path d="M139.236 111.098C139.236 111.098 143.504 114.794 143.953 120.277L143.067 101.92" stroke="#263238" stroke-width="2" stroke-linecap="round" stroke-linejoin="round"/><path d="M149.566 108.422C143.952 107.274 143.952 120.277 143.952 120.277" stroke="#263238" stroke-width="2" stroke-linecap="round" stroke-linejoin="round"/><path d="M144.626 120.148C144.626 120.148 141.37 93.2511 150.792 93.2511" stroke="#263238" stroke-width="2" stroke-linecap="round" stroke-linejoin="round"/><path d="M147.429 107.646C146.661 106.669 145.031 106.669 144.074 109.172C143.117 111.675 143.978 111.238 143.978 111.238C143.978 111.238 145.798 110.586 146.938 110.149C148.077 109.712 149.621 108.626 149.718 109.281C149.814 109.936 148.95 110.586 147.895 110.804C146.839 111.023 144.062 111.891 144.348 112.546C144.634 113.201 145.307 115.156 145.307 115.156C146.127 114.367 146.991 113.64 147.895 112.98C149.143 112.109 149.91 112.437 149.239 113.414C148.568 114.391 146.649 115.483 147.034 116.788C147.419 118.093 149.727 119.728 149.727 119.728C149.727 119.728 150.014 117.006 150.687 116.136C151.36 115.265 151.358 116.245 151.166 117.768C151.069 118.417 151.005 119.071 150.973 119.728L153.657 120.814C154.096 120.056 154.576 119.329 155.095 118.639L155.588 118.096C155.588 118.096 153.479 116.026 153.383 114.736C153.287 113.445 154.821 114.736 155.3 114.954C155.778 115.172 156.545 116.693 156.545 116.693C156.545 116.693 157.026 114.192 157.123 113.333L157.219 112.462C157.219 112.462 155.203 111.591 154.436 111.591C153.669 111.591 153.287 112.244 153.287 111.373C153.287 110.502 154.054 109.959 154.917 110.068C155.699 110.215 156.468 110.433 157.219 110.72C157.219 110.72 157.793 110.174 157.601 108.542C157.409 106.91 156.93 106.91 155.781 107.346C154.631 107.783 153.862 108.746 152.998 108.746C152.135 108.746 152.616 107.551 153.191 107.223C153.765 106.896 155.203 106.243 155.492 106.134C155.781 106.025 153.958 104.502 152.998 104.286C152.039 104.07 150.798 104.846 150.889 105.918C151.072 108.192 148.196 108.64 147.429 107.646Z" fill="white"/><path d="M153.6 118.852C153.629 119.179 153.649 119.51 153.659 119.837" stroke="#263238" stroke-linecap="round" stroke-linejoin="round"/><path d="M151.673 111.04C152.515 113.196 153.122 115.461 153.478 117.785" stroke="#263238" stroke-linecap="round" stroke-linejoin="round"/><path d="M151.327 110.166C150.854 109.007 150.496 108.301 150.496 108.301C151.015 108.017 151.445 107.561 151.729 106.994C151.954 106.479 152.283 106.032 152.689 105.689" stroke="#263238" stroke-linecap="round" stroke-linejoin="round"/><path d="M147.139 112C147.139 112 150.592 110.367 150.592 110.695" stroke="#263238" stroke-linecap="round" stroke-linejoin="round"/><path d="M152.51 109.934C152.51 109.934 154.044 109.063 155.386 109.063" stroke="#263238" stroke-linecap="round" stroke-linejoin="round"/><path d="M151.947 112.56C151.282 113.18 150.671 113.872 150.124 114.626C149.564 115.376 149.112 116.221 148.782 117.13" stroke="#263238" stroke-linecap="round" stroke-linejoin="round"/><path d="M152.987 112.98C152.987 112.98 155.003 112.327 156.056 113.414" stroke="#263238" stroke-linecap="round" stroke-linejoin="round"/><path d="M156.633 98.28C155.589 97.58 154.435 97.5632 153.868 96.824C153.3 96.0848 154.413 95.704 155.007 95.984C155.602 96.264 156.981 97.0676 157.24 97.244C157.499 97.4204 157.321 94.8584 156.837 93.884C156.354 92.9096 155.029 92.358 154.371 93.1448C152.977 94.808 150.802 92.6268 150.95 91.3276C151.098 90.0284 150.03 88.6312 147.743 89.4516C145.456 90.272 146.305 90.7228 146.305 90.7228C146.305 90.7228 147.933 91.8568 148.979 92.5596C150.025 93.2624 151.751 93.8616 151.379 94.3712C151.006 94.8808 150.007 94.57 149.171 93.8112C148.335 93.0524 145.935 91.238 145.688 91.9128C145.442 92.5876 144.578 94.4328 144.578 94.4328C145.641 94.6177 146.691 94.8824 147.723 95.2252C149.119 95.7208 149.405 96.5916 148.315 96.6588C147.225 96.726 145.242 95.7964 144.615 96.9808C143.989 98.1652 144.42 101.209 144.42 101.209C144.42 101.209 146.418 99.6716 147.437 99.6772C148.456 99.6828 147.805 100.324 146.665 101.158C146.171 101.502 145.695 101.876 145.237 102.278L146.273 105.294C147.065 105.172 147.863 105.108 148.663 105.101L149.339 105.154C149.339 105.154 149.339 101.99 150.138 101.052C150.937 100.114 151.08 102.284 151.251 102.838C151.421 103.393 150.91 105.048 150.91 105.048C150.91 105.048 152.883 103.818 153.53 103.331L154.174 102.841C154.174 102.841 153.434 100.545 152.94 99.8872C152.447 99.2292 151.754 99.3272 152.331 98.7672C152.908 98.2072 153.776 98.4872 154.27 99.3076C154.683 100.074 155.042 100.876 155.343 101.707C155.343 101.707 156.083 101.844 157.042 100.61C158.002 99.3748 157.679 98.9772 156.633 98.28ZM147.56 101.763C146.793 101.329 148.614 100.458 148.614 100.458C149.287 100.344 148.328 102.2 147.563 101.758L147.56 101.763ZM148.85 97.7004C148.525 97.5156 149.504 97.1404 149.504 97.1404C150.925 97.44 149.181 97.8824 148.853 97.6948L148.85 97.7004Z" fill="white"/><path d="M147.541 103.975C147.342 104.216 147.137 104.448 146.927 104.672" stroke="#263238" stroke-linecap="round" stroke-linejoin="round"/><path d="M151.477 97.202C150.596 99.3382 149.486 101.343 148.174 103.172" stroke="#263238" stroke-linecap="round" stroke-linejoin="round"/><path d="M151.831 96.334C152.292 95.1664 152.527 94.3964 152.527 94.3964C153.057 94.6618 153.646 94.7361 154.214 94.6092C154.704 94.464 155.217 94.4525 155.711 94.5756" stroke="#263238" stroke-linecap="round" stroke-linejoin="round"/><path d="M150.997 96.0399C151.214 95.8271 147.867 93.9371 147.867 93.9371" stroke="#263238" stroke-linecap="round" stroke-linejoin="round"/><path d="M152.761 97.1936C152.761 97.1936 154.347 97.9384 155.227 99.0892" stroke="#263238" stroke-linecap="round" stroke-linejoin="round"/><path d="M150.647 98.4115C149.798 98.25 148.937 98.1815 148.076 98.2071C147.211 98.2181 146.353 98.3834 145.533 98.6971" stroke="#263238" stroke-linecap="round" stroke-linejoin="round"/><path d="M151.05 99.6016C151.05 99.6016 152.804 100.901 152.776 102.516" stroke="#263238" stroke-linecap="round" stroke-linejoin="round"/><path d="M141.737 113.355C140.898 112.795 139.968 112.778 139.517 112.182C139.065 111.586 139.953 111.286 140.432 111.513C140.91 111.74 142.018 112.384 142.23 112.524C142.442 112.664 142.294 110.606 141.905 109.83C141.515 109.054 140.449 108.601 139.931 109.236C138.809 110.572 137.057 108.819 137.178 107.772C137.299 106.725 136.438 105.602 134.591 106.263C132.743 106.924 133.434 107.288 133.434 107.288C133.434 107.288 134.744 108.2 135.585 108.763C136.426 109.326 137.805 109.81 137.516 110.222C137.228 110.634 136.414 110.382 135.74 109.768C135.067 109.155 133.135 107.696 132.936 108.24C132.736 108.783 132.045 110.281 132.045 110.281C132.9 110.429 133.746 110.641 134.576 110.916C135.698 111.317 135.928 112.02 135.05 112.073C134.171 112.126 132.583 111.378 132.09 112.33C131.596 113.282 131.934 115.732 131.934 115.732C131.934 115.732 133.542 114.498 134.361 114.5C135.18 114.503 134.657 115.021 133.742 115.693C133.344 115.968 132.959 116.268 132.59 116.592L133.424 119.02C134.062 118.921 134.704 118.869 135.348 118.863L135.893 118.908C135.893 118.908 135.893 116.36 136.537 115.606C137.181 114.853 137.294 116.598 137.43 117.043C137.566 117.488 137.156 118.821 137.156 118.821C137.156 118.821 138.75 117.832 139.265 117.438L139.783 117.046C139.783 117.046 139.186 115.198 138.782 114.668C138.377 114.139 137.825 114.218 138.288 113.758C138.752 113.299 139.45 113.543 139.847 114.195C140.18 114.812 140.47 115.458 140.713 116.127C140.713 116.127 141.308 116.236 142.08 115.242C142.852 114.248 142.573 113.918 141.737 113.355ZM134.435 116.155C133.819 115.805 135.284 115.105 135.284 115.105C135.824 115.018 135.052 116.508 134.433 116.158L134.435 116.155ZM135.476 112.885C135.212 112.736 136.002 112.437 136.002 112.437C137.146 112.689 135.738 113.039 135.476 112.888V112.885Z" fill="white"/><path d="M134.434 117.942C134.273 118.135 134.108 118.322 133.94 118.502" stroke="#263238" stroke-linecap="round" stroke-linejoin="round"/><path d="M137.586 112.493C136.876 114.211 135.983 115.823 134.927 117.295" stroke="#263238" stroke-linecap="round" stroke-linejoin="round"/><path d="M137.872 111.793C138.242 110.855 138.432 110.233 138.432 110.233C138.858 110.447 139.332 110.506 139.789 110.404C140.182 110.287 140.595 110.278 140.992 110.376" stroke="#263238" stroke-linecap="round" stroke-linejoin="round"/><path d="M134.679 109.872C134.679 109.872 137.375 111.392 137.2 111.552" stroke="#263238" stroke-linecap="round" stroke-linejoin="round"/><path d="M138.626 112.484C138.626 112.484 139.901 113.083 140.599 114.007" stroke="#263238" stroke-linecap="round" stroke-linejoin="round"/><path d="M136.917 113.464C136.234 113.333 135.542 113.278 134.85 113.299C134.154 113.308 133.463 113.442 132.803 113.694" stroke="#263238" stroke-linecap="round" stroke-linejoin="round"/><path d="M137.24 114.422C137.24 114.422 138.654 115.466 138.627 116.768" stroke="#263238" stroke-linecap="round" stroke-linejoin="round"/><path d="M138.313 95.3847C138.313 95.3847 137.258 96.2555 136.587 95.3847C135.916 94.5139 136.875 92.7723 135.913 92.1199C134.951 91.4675 133.422 92.6631 133.422 92.6631C133.422 92.6631 134.668 92.9907 134.668 93.7523C134.668 94.5139 134.093 94.8387 133.997 94.5139C133.901 94.1891 133.23 92.5539 132.27 93.3155C131.993 93.5271 131.757 93.8003 131.576 94.1184C131.395 94.4365 131.273 94.793 131.217 95.1663C131.217 95.1663 133.516 94.7295 133.708 95.7095C133.901 96.6895 132.749 95.6003 131.792 95.6003C130.835 95.6003 129.969 95.8187 130.065 96.4711C130.117 97.0502 130.117 97.6337 130.065 98.2127C130.562 97.6849 131.208 97.3761 131.888 97.3419C132.941 97.3419 132.941 98.1035 131.984 98.1035C131.027 98.1035 130.257 99.1927 130.257 99.1927C130.257 99.1927 131.217 100.825 132.366 101.587C133.516 102.348 133.901 102.024 133.997 101.368C134.093 100.713 133.708 99.0835 134.379 99.0835C135.05 99.0835 133.422 102.024 134.283 102.13C135.144 102.236 135.817 101.914 136.01 101.259L136.202 100.607C136.202 100.607 135.817 98.9743 135.913 98.3219C136.01 97.6695 136.202 98.3219 136.392 99.0835C136.582 99.8451 136.777 101.696 137.063 101.587C137.349 101.478 138.215 100.064 138.407 99.5203C138.6 98.9771 137.063 97.4511 137.063 97.1263C137.063 96.8015 138.215 97.3419 138.407 97.6695C138.546 97.9159 138.674 98.1701 138.79 98.4311C138.79 98.4311 139.46 97.8879 139.364 96.3619C139.268 94.8359 138.313 95.3847 138.313 95.3847Z" fill="white"/><path d="M132.953 99.33C133.617 98.28 134.598 96.852 135.449 96.1464" stroke="#263238" stroke-linecap="round" stroke-linejoin="round"/><path d="M132.176 100.607C132.176 100.607 132.346 100.304 132.62 99.8508" stroke="#263238" stroke-linecap="round" stroke-linejoin="round"/><path d="M135.914 96.3619C135.914 96.3619 137.064 97.9943 137.352 99.7359" stroke="#263238" stroke-linecap="round" stroke-linejoin="round"/><path d="M134.767 97.4399C134.767 97.4399 135.053 97.2215 135.053 99.3999" stroke="#263238" stroke-linecap="round" stroke-linejoin="round"/><path d="M135.438 95.3847C135.438 95.3847 136.012 94.7295 135.627 93.5339" stroke="#263238" stroke-linecap="round" stroke-linejoin="round"/><path d="M134.67 96.4711L134.189 95.6003" stroke="#263238" stroke-linecap="round" stroke-linejoin="round"/><path d="M133.807 97.4399C133.807 97.4399 132.369 96.3507 131.506 96.3507" stroke="#263238" stroke-linecap="round" stroke-linejoin="round"/><path d="M147.995 119.764H140.583V131.874H147.995V119.764Z" fill="#263238" stroke="#263238" stroke-width="2" stroke-linecap="round" stroke-linejoin="round"/><path d="M81.2319 26.7063C81.2319 26.7063 81.3209 23.1279 81.2096 20.0507C81.0983 16.9735 81.3234 10.3767 81.3234 10.3767" stroke="#263238" stroke-miterlimit="10"/><path d="M81.2709 14.2575L80.04 13.1571" stroke="#263238" stroke-miterlimit="10"/><path d="M81.2559 15.0136L81.6949 14.21" stroke="#263238" stroke-miterlimit="10"/><path d="M81.1582 18.1972L82.2509 17.1696" stroke="#263238" stroke-miterlimit="10"/><path d="M81.3223 11.7291L80.7451 11.1327" stroke="#263238" stroke-miterlimit="10"/><path d="M81.1475 18.7543L80.4248 17.8751" stroke="#263238" stroke-miterlimit="10"/><path d="M81.2092 22.2095L79.707 20.6527" stroke="#263238" stroke-miterlimit="10"/><path d="M81.248 24.1275C81.6309 23.959 82.0033 23.7617 82.363 23.5367" stroke="#263238" stroke-miterlimit="10"/><path d="M80.4121 14.8091C79.8078 14.2799 77.7802 14.3723 77.3904 15.4727C77.0007 16.5731 78.2414 18.3679 79.4254 18.2419C79.8916 18.1915 80.0939 18.1551 80.2764 17.8583L78.6114 16.0103L80.4146 17.6567C80.4652 17.5496 80.5065 17.437 80.5379 17.3207C80.5576 17.2395 80.5774 17.1499 80.5922 17.0575C80.718 16.3995 80.9819 15.3047 80.4121 14.8091Z" fill="white"/><path d="M84.3374 13.5323V13.5715C84.1746 14.3919 83.3507 14.8567 82.6526 14.7867C82.5558 14.7774 82.46 14.7577 82.3665 14.7279C82.2034 15.0211 82.1024 15.3532 82.0716 15.6982C82.0408 16.0432 82.0809 16.3916 82.1889 16.7159C82.218 16.8087 82.257 16.8971 82.3048 16.9791C82.5096 16.7887 84.7 14.6663 84.7 14.6663L82.4257 17.1527C83.1114 17.9927 84.7197 17.8723 85.2796 16.3295C85.8396 14.7867 85.1267 13.7535 84.3374 13.5323Z" fill="white"/><path d="M83.2221 10.6622C82.043 10.3822 80.9873 10.9758 81.0021 12.373C81.0086 12.681 81.0706 12.9843 81.1843 13.2641C81.298 13.5438 81.461 13.7942 81.6632 13.9998L82.8792 12.1182L81.858 14.1706C82.0869 14.3478 82.3518 14.4557 82.6276 14.4842C83.3232 14.5514 84.1496 14.0866 84.3124 13.2662C84.4826 12.3506 84.4012 10.9562 83.2221 10.6622Z" fill="white"/><path d="M81.8454 5.80432C81.8454 5.80432 81.7246 5.84632 80.9698 6.26352C80.5279 6.54011 80.2004 7.00405 80.0589 7.55392C79.9175 8.10379 79.9736 8.69486 80.215 9.19792C80.424 9.66792 80.7858 10.0273 81.2238 10.2003L81.5272 6.87112L81.399 10.2451C81.4564 10.2518 81.5142 10.2518 81.5716 10.2451C82.065 10.1891 82.837 9.52272 82.911 8.15912C82.985 6.79552 81.8454 5.80432 81.8454 5.80432Z" fill="white"/><path d="M78.4 8.83108L80.6768 10.8975C80.6993 10.8065 80.7068 10.7116 80.699 10.6175C80.5929 9.43588 79.5545 8.74988 78.8687 8.50348C78.183 8.25708 77.7069 8.69668 78.1484 9.82788C78.59 10.9591 79.7469 11.5079 80.2624 11.3371C80.3849 11.3028 80.4952 11.2266 80.5781 11.1187L78.4 8.83108Z" fill="white"/><path d="M79.966 11.4799C79.6169 11.4513 79.2781 11.3331 78.9752 11.1343C78.6722 10.9354 78.413 10.661 78.2171 10.3319C77.9753 10.3058 77.7341 10.3882 77.5451 10.5614C77.3561 10.7346 77.2343 10.9849 77.2058 11.2587C76.9739 12.4907 77.7583 13.7787 78.8905 13.6219C79.2461 13.6008 79.5835 13.4371 79.8426 13.1599L77.82 11.0627L79.9857 12.9359C80.0281 12.8494 80.055 12.7542 80.0646 12.6559C80.1346 12.2614 80.1003 11.8523 79.966 11.4799V11.4799Z" fill="white"/><path d="M79.9537 18.3315C79.7698 18.4209 79.5737 18.4739 79.374 18.4883C78.634 18.5667 77.8792 17.9087 77.5043 17.1359C77.2841 17.1528 77.0752 17.253 76.9111 17.4205C76.747 17.588 76.6371 17.8131 76.599 18.0599C76.3746 19.5019 77.5512 21.4031 78.7401 21.1007C79.0492 21.0324 79.3354 20.8675 79.5664 20.6247L76.9715 17.7911L79.7169 20.4399C79.8738 20.2114 79.9751 19.94 80.0104 19.6531C80.1405 19.2204 80.1202 18.7477 79.9537 18.3315Z" fill="white"/><path d="M85.1751 21.28C84.3019 20.132 83.2634 21.1596 83.2634 21.1596C83.2634 21.1596 82.627 21.3976 82.3853 22.4224C82.3112 22.7333 82.3224 23.0625 82.4173 23.366L85.0419 21.63L82.4815 23.5284C82.7281 24.0436 83.2412 24.3684 83.9615 24.1304C85.1109 23.772 86.0458 22.4364 85.1751 21.28Z" fill="white"/><path d="M82.9996 25.6256H79.3662V31.7324H82.9996V25.6256Z" fill="#263238"/><path d="M123.104 31.682H75.1816V132.266H123.104V31.682Z" fill="white" stroke="#263238" stroke-miterlimit="10"/><path d="M116.345 32.9559H76.1777V130.735H116.345V32.9559Z" fill="#263238" stroke="#263238" stroke-linecap="round" stroke-linejoin="round"/><path d="M116.345 48.1207H76.1777V49.5627H116.345V48.1207Z" fill="white" stroke="#263238" stroke-miterlimit="10"/><path d="M116.345 64.792H76.1777V66.234H116.345V64.792Z" fill="white" stroke="#263238" stroke-miterlimit="10"/><path d="M103.4 32.9728H102.547V48.118H103.4V32.9728Z" fill="white" stroke="#263238" stroke-miterlimit="10"/><path d="M89.7451 32.9728H88.8916V48.118H89.7451V32.9728Z" fill="white" stroke="#263238" stroke-miterlimit="10"/><path d="M103.4 66.2507H102.547V81.3959H103.4V66.2507Z" fill="white" stroke="#263238" stroke-miterlimit="10"/><path d="M89.7451 66.2507H88.8916V81.3959H89.7451V66.2507Z" fill="white" stroke="#263238" stroke-miterlimit="10"/><path d="M96.5058 49.6439H95.6523V64.7891H96.5058V49.6439Z" fill="white" stroke="#263238" stroke-miterlimit="10"/><path d="M116.345 81.3987H76.1777V82.8407H116.345V81.3987Z" fill="white" stroke="#263238" stroke-miterlimit="10"/><path d="M116.345 98.014H76.1777V131.244H116.345V98.014Z" fill="white" stroke="#263238" stroke-miterlimit="10"/><path d="M96.5058 82.866H95.6523V98.0112H96.5058V82.866Z" fill="white" stroke="#263238" stroke-miterlimit="10"/><path d="M117.33 31.6736V132.244L123.107 132.266V31.6736H117.33Z" fill="#263238" stroke="#263238" stroke-linecap="round" stroke-linejoin="round"/><path d="M106.054 34.1488H103.992V48.0844H106.054V34.1488Z" fill="white" stroke="#263238" stroke-miterlimit="10"/><path d="M106.054 45.0912H103.992V46.2336H106.054V45.0912Z" fill="white" stroke="#263238" stroke-miterlimit="10"/><path d="M106.054 35.5629H103.992V36.7053H106.054V35.5629Z" fill="white" stroke="#263238" stroke-miterlimit="10"/><path d="M108.163 34.1488H106.101V48.0844H108.163V34.1488Z" fill="white" stroke="#263238" stroke-miterlimit="10"/><path d="M108.163 45.0912H106.101V46.2336H108.163V45.0912Z" fill="white" stroke="#263238" stroke-miterlimit="10"/><path d="M108.163 35.5629H106.101V36.7053H108.163V35.5629Z" fill="white" stroke="#263238" stroke-miterlimit="10"/><path d="M110.275 34.1488H108.213V48.0844H110.275V34.1488Z" fill="white" stroke="#263238" stroke-miterlimit="10"/><path d="M110.275 45.0912H108.213V46.2336H110.275V45.0912Z" fill="white" stroke="#263238" stroke-miterlimit="10"/><path d="M110.275 35.5627H108.213V36.7051H110.275V35.5627Z" fill="white" stroke="#263238" stroke-miterlimit="10"/><path d="M112.383 34.1488H110.321V48.0844H112.383V34.1488Z" fill="white" stroke="#263238" stroke-miterlimit="10"/><path d="M115.82 34.1488H112.366V48.0844H115.82V34.1488Z" fill="white" stroke="#263238" stroke-miterlimit="10"/><path d="M112.383 45.0912H110.321V46.2336H112.383V45.0912Z" fill="white" stroke="#263238" stroke-miterlimit="10"/><path d="M112.383 35.5627H110.321V36.7051H112.383V35.5627Z" fill="white" stroke="#263238" stroke-miterlimit="10"/><path d="M92.2584 34.1488H90.1963V48.0844H92.2584V34.1488Z" fill="white" stroke="#263238" stroke-miterlimit="10"/><path d="M92.2584 45.0912H90.1963V46.2336H92.2584V45.0912Z" fill="white" stroke="#263238" stroke-miterlimit="10"/><path d="M92.2584 35.5627H90.1963V36.7051H92.2584V35.5627Z" fill="white" stroke="#263238" stroke-miterlimit="10"/><path d="M94.3678 34.1488H92.3057V48.0844H94.3678V34.1488Z" fill="white" stroke="#263238" stroke-miterlimit="10"/><path d="M94.3678 45.0912H92.3057V46.2336H94.3678V45.0912Z" fill="white" stroke="#263238" stroke-miterlimit="10"/><path d="M94.3678 35.5627H92.3057V36.7051H94.3678V35.5627Z" fill="white" stroke="#263238" stroke-miterlimit="10"/><path d="M96.4791 34.1488H94.417V48.0844H96.4791V34.1488Z" fill="white" stroke="#263238" stroke-miterlimit="10"/><path d="M96.4791 45.0912H94.417V46.2336H96.4791V45.0912Z" fill="white" stroke="#263238" stroke-miterlimit="10"/><path d="M96.4791 35.5629H94.417V36.7053H96.4791V35.5629Z" fill="white" stroke="#263238" stroke-miterlimit="10"/><path d="M98.5875 34.1488H96.5254V48.0844H98.5875V34.1488Z" fill="white" stroke="#263238" stroke-miterlimit="10"/><path d="M102.025 34.1488H98.5713V48.0844H102.025V34.1488Z" fill="white" stroke="#263238" stroke-miterlimit="10"/><path d="M98.5875 45.0912H96.5254V46.2336H98.5875V45.0912Z" fill="white" stroke="#263238" stroke-miterlimit="10"/><path d="M98.5875 35.5629H96.5254V36.7053H98.5875V35.5629Z" fill="white" stroke="#263238" stroke-miterlimit="10"/><path d="M92.2584 67.4772H90.1963V81.4128H92.2584V67.4772Z" fill="white" stroke="#263238" stroke-miterlimit="10"/><path d="M92.2584 78.4196H90.1963V79.562H92.2584V78.4196Z" fill="white" stroke="#263238" stroke-miterlimit="10"/><path d="M92.2584 68.894H90.1963V70.0365H92.2584V68.894Z" fill="white" stroke="#263238" stroke-miterlimit="10"/><path d="M94.3678 67.4772H92.3057V81.4128H94.3678V67.4772Z" fill="white" stroke="#263238" stroke-miterlimit="10"/><path d="M94.3678 78.4196H92.3057V79.562H94.3678V78.4196Z" fill="white" stroke="#263238" stroke-miterlimit="10"/><path d="M94.3678 68.894H92.3057V70.0365H94.3678V68.894Z" fill="white" stroke="#263238" stroke-miterlimit="10"/><path d="M96.4791 67.4772H94.417V81.4128H96.4791V67.4772Z" fill="white" stroke="#263238" stroke-miterlimit="10"/><path d="M96.4791 78.4197H94.417V79.5621H96.4791V78.4197Z" fill="white" stroke="#263238" stroke-miterlimit="10"/><path d="M96.4791 68.8939H94.417V70.0363H96.4791V68.8939Z" fill="white" stroke="#263238" stroke-miterlimit="10"/><path d="M98.5875 67.4772H96.5254V81.4128H98.5875V67.4772Z" fill="white" stroke="#263238" stroke-miterlimit="10"/><path d="M102.025 67.4772H98.5713V81.4128H102.025V67.4772Z" fill="white" stroke="#263238" stroke-miterlimit="10"/><path d="M98.5875 78.4197H96.5254V79.5621H98.5875V78.4197Z" fill="white" stroke="#263238" stroke-miterlimit="10"/><path d="M98.5875 68.8939H96.5254V70.0363H98.5875V68.8939Z" fill="white" stroke="#263238" stroke-miterlimit="10"/><path d="M105.878 67.4772H103.815V81.4128H105.878V67.4772Z" fill="white" stroke="#263238" stroke-miterlimit="10"/><path d="M105.878 78.4197H103.815V79.5621H105.878V78.4197Z" fill="white" stroke="#263238" stroke-miterlimit="10"/><path d="M105.878 68.8939H103.815V70.0363H105.878V68.8939Z" fill="white" stroke="#263238" stroke-miterlimit="10"/><path d="M107.989 67.4772H105.927V81.4128H107.989V67.4772Z" fill="white" stroke="#263238" stroke-miterlimit="10"/><path d="M107.989 78.4197H105.927V79.5621H107.989V78.4197Z" fill="white" stroke="#263238" stroke-miterlimit="10"/><path d="M107.989 68.8939H105.927V70.0363H107.989V68.8939Z" fill="white" stroke="#263238" stroke-miterlimit="10"/><path d="M110.097 67.4772H108.035V81.4128H110.097V67.4772Z" fill="white" stroke="#263238" stroke-miterlimit="10"/><path d="M110.097 78.4197H108.035V79.5621H110.097V78.4197Z" fill="white" stroke="#263238" stroke-miterlimit="10"/><path d="M110.097 68.8939H108.035V70.0363H110.097V68.8939Z" fill="white" stroke="#263238" stroke-miterlimit="10"/><path d="M112.209 67.4772H110.146V81.4128H112.209V67.4772Z" fill="white" stroke="#263238" stroke-miterlimit="10"/><path d="M115.642 67.4772H112.188V81.4128H115.642V67.4772Z" fill="white" stroke="#263238" stroke-miterlimit="10"/><path d="M112.209 78.4197H110.146V79.5621H112.209V78.4197Z" fill="white" stroke="#263238" stroke-miterlimit="10"/><path d="M112.209 68.8939H110.146V70.0363H112.209V68.8939Z" fill="white" stroke="#263238" stroke-miterlimit="10"/><path d="M78.7252 67.4772H76.6631V81.4128H78.7252V67.4772Z" fill="white" stroke="#263238" stroke-miterlimit="10"/><path d="M78.7252 78.4197H76.6631V79.5621H78.7252V78.4197Z" fill="white" stroke="#263238" stroke-miterlimit="10"/><path d="M78.7252 68.8939H76.6631V70.0363H78.7252V68.8939Z" fill="white" stroke="#263238" stroke-miterlimit="10"/><path d="M80.8375 67.4772H78.7754V81.4128H80.8375V67.4772Z" fill="white" stroke="#263238" stroke-miterlimit="10"/><path d="M80.8375 78.4196H78.7754V79.562H80.8375V78.4196Z" fill="white" stroke="#263238" stroke-miterlimit="10"/><path d="M80.8375 68.8939H78.7754V70.0363H80.8375V68.8939Z" fill="white" stroke="#263238" stroke-miterlimit="10"/><path d="M82.9479 67.4772H80.8857V81.4128H82.9479V67.4772Z" fill="white" stroke="#263238" stroke-miterlimit="10"/><path d="M82.9479 78.4197H80.8857V79.5621H82.9479V78.4197Z" fill="white" stroke="#263238" stroke-miterlimit="10"/><path d="M82.9479 68.8939H80.8857V70.0363H82.9479V68.8939Z" fill="white" stroke="#263238" stroke-miterlimit="10"/><path d="M85.0582 67.4772H82.9961V81.4128H85.0582V67.4772Z" fill="white" stroke="#263238" stroke-miterlimit="10"/><path d="M88.4924 67.4772H85.0391V81.4128H88.4924V67.4772Z" fill="white" stroke="#263238" stroke-miterlimit="10"/><path d="M85.0582 78.4197H82.9961V79.5621H85.0582V78.4197Z" fill="white" stroke="#263238" stroke-miterlimit="10"/><path d="M85.0582 68.8939H82.9961V70.0363H85.0582V68.8939Z" fill="white" stroke="#263238" stroke-miterlimit="10"/><path d="M78.4625 34.1488H76.4004V48.0844H78.4625V34.1488Z" fill="white" stroke="#263238" stroke-miterlimit="10"/><path d="M78.4625 45.0912H76.4004V46.2336H78.4625V45.0912Z" fill="white" stroke="#263238" stroke-miterlimit="10"/><path d="M78.4625 35.5629H76.4004V36.7053H78.4625V35.5629Z" fill="white" stroke="#263238" stroke-miterlimit="10"/><path d="M80.5719 34.1488H78.5098V48.0844H80.5719V34.1488Z" fill="white" stroke="#263238" stroke-miterlimit="10"/><path d="M80.5719 45.0912H78.5098V46.2336H80.5719V45.0912Z" fill="white" stroke="#263238" stroke-miterlimit="10"/><path d="M80.5719 35.5629H78.5098V36.7053H80.5719V35.5629Z" fill="white" stroke="#263238" stroke-miterlimit="10"/><path d="M82.6832 34.1488H80.6211V48.0844H82.6832V34.1488Z" fill="white" stroke="#263238" stroke-miterlimit="10"/><path d="M82.6832 45.0912H80.6211V46.2336H82.6832V45.0912Z" fill="white" stroke="#263238" stroke-miterlimit="10"/><path d="M82.6832 35.5627H80.6211V36.7051H82.6832V35.5627Z" fill="white" stroke="#263238" stroke-miterlimit="10"/><path d="M84.7916 34.1488H82.7295V48.0844H84.7916V34.1488Z" fill="white" stroke="#263238" stroke-miterlimit="10"/><path d="M88.2278 34.1488H84.7744V48.0844H88.2278V34.1488Z" fill="white" stroke="#263238" stroke-miterlimit="10"/><path d="M84.7916 45.0912H82.7295V46.2336H84.7916V45.0912Z" fill="white" stroke="#263238" stroke-miterlimit="10"/><path d="M84.7916 35.5627H82.7295V36.7051H84.7916V35.5627Z" fill="white" stroke="#263238" stroke-miterlimit="10"/><path d="M84.5641 50.7556H82.502V64.6912H84.5641V50.7556Z" fill="white" stroke="#263238" stroke-miterlimit="10"/><path d="M84.5641 61.698H82.502V62.8404H84.5641V61.698Z" fill="white" stroke="#263238" stroke-miterlimit="10"/><path d="M84.5641 52.1724H82.502V53.3148H84.5641V52.1724Z" fill="white" stroke="#263238" stroke-miterlimit="10"/><path d="M82.5299 50.7556H80.4678V64.6912H82.5299V50.7556Z" fill="white" stroke="#263238" stroke-miterlimit="10"/><path d="M82.5299 61.698H80.4678V62.8404H82.5299V61.698Z" fill="white" stroke="#263238" stroke-miterlimit="10"/><path d="M82.5299 52.1724H80.4678V53.3148H82.5299V52.1724Z" fill="white" stroke="#263238" stroke-miterlimit="10"/><path d="M80.4947 50.7556H78.4326V64.6912H80.4947V50.7556Z" fill="white" stroke="#263238" stroke-miterlimit="10"/><path d="M80.4947 61.698H78.4326V62.8404H80.4947V61.698Z" fill="white" stroke="#263238" stroke-miterlimit="10"/><path d="M80.4947 52.1724H78.4326V53.3148H80.4947V52.1724Z" fill="white" stroke="#263238" stroke-miterlimit="10"/><path d="M78.4625 50.7556H76.4004V64.6912H78.4625V50.7556Z" fill="white" stroke="#263238" stroke-miterlimit="10"/><path d="M78.4625 61.698H76.4004V62.8404H78.4625V61.698Z" fill="white" stroke="#263238" stroke-miterlimit="10"/><path d="M78.4625 52.1724H76.4004V53.3148H78.4625V52.1724Z" fill="white" stroke="#263238" stroke-miterlimit="10"/><path d="M86.6735 50.7556H84.6113V64.6912H86.6735V50.7556Z" fill="white" stroke="#263238" stroke-miterlimit="10"/><path d="M86.6735 61.698H84.6113V62.8404H86.6735V61.698Z" fill="white" stroke="#263238" stroke-miterlimit="10"/><path d="M86.6735 52.1724H84.6113V53.3148H86.6735V52.1724Z" fill="white" stroke="#263238" stroke-miterlimit="10"/><path d="M88.7828 50.7556H86.7207V64.6912H88.7828V50.7556Z" fill="white" stroke="#263238" stroke-miterlimit="10"/><path d="M88.7828 61.698H86.7207V62.8404H88.7828V61.698Z" fill="white" stroke="#263238" stroke-miterlimit="10"/><path d="M88.7828 52.1724H86.7207V53.3148H88.7828V52.1724Z" fill="white" stroke="#263238" stroke-miterlimit="10"/><path d="M90.8942 50.7556H88.832V64.6912H90.8942V50.7556Z" fill="white" stroke="#263238" stroke-miterlimit="10"/><path d="M94.3303 50.7556H90.877V64.6912H94.3303V50.7556Z" fill="white" stroke="#263238" stroke-miterlimit="10"/><path d="M90.8942 61.698H88.832V62.8404H90.8942V61.698Z" fill="white" stroke="#263238" stroke-miterlimit="10"/><path d="M90.8942 52.1724H88.832V53.3148H90.8942V52.1724Z" fill="white" stroke="#263238" stroke-miterlimit="10"/><path d="M99.2272 50.7556H97.165V64.6912H99.2272V50.7556Z" fill="white" stroke="#263238" stroke-miterlimit="10"/><path d="M99.2272 61.698H97.165V62.8404H99.2272V61.698Z" fill="white" stroke="#263238" stroke-miterlimit="10"/><path d="M99.2272 52.1724H97.165V53.3148H99.2272V52.1724Z" fill="white" stroke="#263238" stroke-miterlimit="10"/><path d="M101.338 50.7556H99.2754V64.6912H101.338V50.7556Z" fill="white" stroke="#263238" stroke-miterlimit="10"/><path d="M101.338 61.698H99.2754V62.8404H101.338V61.698Z" fill="white" stroke="#263238" stroke-miterlimit="10"/><path d="M101.338 52.1724H99.2754V53.3148H101.338V52.1724Z" fill="white" stroke="#263238" stroke-miterlimit="10"/><path d="M105.559 50.7522L103.637 51.6736L108.471 64.6717L110.394 63.7504L105.559 50.7522Z" fill="white" stroke="#263238" stroke-miterlimit="10"/><path d="M109.357 60.9573L107.435 61.8787L107.831 62.944L109.753 62.0226L109.357 60.9573Z" fill="white" stroke="#263238" stroke-miterlimit="10"/><path d="M106.052 52.0731L104.13 52.9945L104.526 54.0598L106.449 53.1385L106.052 52.0731Z" fill="white" stroke="#263238" stroke-miterlimit="10"/><path d="M108.474 64.6661H112.778L114.714 63.7505L110.395 63.7449L108.474 64.6661Z" fill="white" stroke="#263238" stroke-miterlimit="10"/><path d="M105.562 50.7472H109.604L114.715 63.7504L110.396 63.7448L105.562 50.7472Z" fill="white" stroke="#263238" stroke-miterlimit="10"/><path d="M103.374 50.7556H101.312V64.6912H103.374V50.7556Z" fill="white" stroke="#263238" stroke-miterlimit="10"/><path d="M103.374 61.698H101.312V62.8404H103.374V61.698Z" fill="white" stroke="#263238" stroke-miterlimit="10"/><path d="M103.374 52.1724H101.312V53.3148H103.374V52.1724Z" fill="white" stroke="#263238" stroke-miterlimit="10"/><path d="M103.373 50.7556H105.561L103.637 51.6684L108.474 64.666H103.373V50.7556Z" fill="white" stroke="#263238" stroke-miterlimit="10"/><path d="M84.5641 84.0253H82.502V97.9609H84.5641V84.0253Z" fill="white" stroke="#263238" stroke-miterlimit="10"/><path d="M84.5641 94.9677H82.502V96.11H84.5641V94.9677Z" fill="white" stroke="#263238" stroke-miterlimit="10"/><path d="M84.5641 85.4391H82.502V86.5815H84.5641V85.4391Z" fill="white" stroke="#263238" stroke-miterlimit="10"/><path d="M82.5299 84.0253H80.4678V97.9609H82.5299V84.0253Z" fill="white" stroke="#263238" stroke-miterlimit="10"/><path d="M82.5299 94.9677H80.4678V96.11H82.5299V94.9677Z" fill="white" stroke="#263238" stroke-miterlimit="10"/><path d="M82.5299 85.4391H80.4678V86.5815H82.5299V85.4391Z" fill="white" stroke="#263238" stroke-miterlimit="10"/><path d="M80.4947 84.0253H78.4326V97.9609H80.4947V84.0253Z" fill="white" stroke="#263238" stroke-miterlimit="10"/><path d="M80.4947 94.9677H78.4326V96.11H80.4947V94.9677Z" fill="white" stroke="#263238" stroke-miterlimit="10"/><path d="M80.4947 85.4392H78.4326V86.5816H80.4947V85.4392Z" fill="white" stroke="#263238" stroke-miterlimit="10"/><path d="M78.4625 84.0253H76.4004V97.9609H78.4625V84.0253Z" fill="white" stroke="#263238" stroke-miterlimit="10"/><path d="M78.4625 94.9677H76.4004V96.11H78.4625V94.9677Z" fill="white" stroke="#263238" stroke-miterlimit="10"/><path d="M78.4625 85.4391H76.4004V86.5815H78.4625V85.4391Z" fill="white" stroke="#263238" stroke-miterlimit="10"/><path d="M86.6735 84.0253H84.6113V97.9609H86.6735V84.0253Z" fill="white" stroke="#263238" stroke-miterlimit="10"/><path d="M86.6735 94.9677H84.6113V96.11H86.6735V94.9677Z" fill="white" stroke="#263238" stroke-miterlimit="10"/><path d="M86.6735 85.4391H84.6113V86.5815H86.6735V85.4391Z" fill="white" stroke="#263238" stroke-miterlimit="10"/><path d="M88.7828 84.0253H86.7207V97.9609H88.7828V84.0253Z" fill="white" stroke="#263238" stroke-miterlimit="10"/><path d="M88.7828 94.9677H86.7207V96.11H88.7828V94.9677Z" fill="white" stroke="#263238" stroke-miterlimit="10"/><path d="M88.7828 85.4391H86.7207V86.5815H88.7828V85.4391Z" fill="white" stroke="#263238" stroke-miterlimit="10"/><path d="M90.8942 84.0253H88.832V97.9609H90.8942V84.0253Z" fill="white" stroke="#263238" stroke-miterlimit="10"/><path d="M94.3303 84.0253H90.877V97.9609H94.3303V84.0253Z" fill="white" stroke="#263238" stroke-miterlimit="10"/><path d="M90.8942 94.9677H88.832V96.11H90.8942V94.9677Z" fill="white" stroke="#263238" stroke-miterlimit="10"/><path d="M90.8942 85.4392H88.832V86.5816H90.8942V85.4392Z" fill="white" stroke="#263238" stroke-miterlimit="10"/><path d="M99.2272 84.0253H97.165V97.9609H99.2272V84.0253Z" fill="white" stroke="#263238" stroke-miterlimit="10"/><path d="M99.2272 94.9677H97.165V96.11H99.2272V94.9677Z" fill="white" stroke="#263238" stroke-miterlimit="10"/><path d="M99.2272 85.4391H97.165V86.5815H99.2272V85.4391Z" fill="white" stroke="#263238" stroke-miterlimit="10"/><path d="M101.338 84.0253H99.2754V97.9609H101.338V84.0253Z" fill="white" stroke="#263238" stroke-miterlimit="10"/><path d="M101.338 94.9677H99.2754V96.11H101.338V94.9677Z" fill="white" stroke="#263238" stroke-miterlimit="10"/><path d="M101.338 85.4391H99.2754V86.5815H101.338V85.4391Z" fill="white" stroke="#263238" stroke-miterlimit="10"/><path d="M105.558 84.02L103.636 84.9414L108.47 97.9396L110.393 97.0182L105.558 84.02Z" fill="white" stroke="#263238" stroke-miterlimit="10"/><path d="M109.307 93.9777L107.387 94.9015L107.784 95.9654L109.704 95.0415L109.307 93.9777Z" fill="white" stroke="#263238" stroke-width="0.99925" stroke-miterlimit="10"/><path d="M106.05 85.3411L104.128 86.2625L104.524 87.3278L106.447 86.4064L106.05 85.3411Z" fill="white" stroke="#263238" stroke-miterlimit="10"/><path d="M108.474 97.9356H112.778L114.714 97.02L110.395 97.0116L108.474 97.9356Z" fill="white" stroke="#263238" stroke-miterlimit="10"/><path d="M105.562 84.0139H109.604L114.715 97.0199L110.396 97.0115L105.562 84.0139Z" fill="white" stroke="#263238" stroke-miterlimit="10"/><path d="M103.374 84.0253H101.312V97.9609H103.374V84.0253Z" fill="white" stroke="#263238" stroke-miterlimit="10"/><path d="M103.374 94.9677H101.312V96.11H103.374V94.9677Z" fill="white" stroke="#263238" stroke-miterlimit="10"/><path d="M103.374 85.4391H101.312V86.5815H103.374V85.4391Z" fill="white" stroke="#263238" stroke-miterlimit="10"/><path d="M103.373 84.0253H105.561L103.637 84.9353L108.474 97.9357H103.373V84.0253Z" fill="white" stroke="#263238" stroke-miterlimit="10"/><path d="M95.6523 98.0112V130.687" stroke="#263238" stroke-miterlimit="10"/><path d="M76.5029 102.057H116.335" stroke="#263238" stroke-miterlimit="10"/><path d="M84.6787 104.821V110.746" stroke="#263238" stroke-width="2" stroke-miterlimit="10"/><path d="M86.418 104.821V110.746" stroke="#263238" stroke-width="2" stroke-miterlimit="10"/><path d="M104.683 104.821V110.746" stroke="#263238" stroke-width="2" stroke-miterlimit="10"/><path d="M106.422 104.821V110.746" stroke="#263238" stroke-width="2" stroke-miterlimit="10"/><path d="M127.438 32.2028V22.1564H140.31" stroke="#263238" stroke-miterlimit="10"/><path d="M141.257 22.1564H146.678V47.0764H127.438V33.726" stroke="#263238" stroke-miterlimit="10"/><path d="M139.678 43.7164H130.031V25.5164H144.084V43.7164H140.783" stroke="#263238" stroke-miterlimit="10"/><path d="M139.759 31.1163H134.354V38.1163H139.759V31.1163Z" stroke="#263238" stroke-miterlimit="10"/><path d="M148.389 43.8171V37.5507H156.418" stroke="#263238" stroke-miterlimit="10"/><path d="M157.007 37.5507H160.389V53.0935H148.389V44.7663" stroke="#263238" stroke-miterlimit="10"/><path d="M156.022 50.9993H150.006V39.6453H158.77V50.9993H156.71" stroke="#263238" stroke-miterlimit="10"/><path d="M156.074 43.1396H152.702V47.5049H156.074V43.1396Z" stroke="#263238" stroke-miterlimit="10"/><path d="M21.1641 132.266H160.284" stroke="#263238" stroke-linecap="round" stroke-linejoin="round"/><path d="M31.0312 93.0664C31.0312 93.0664 29.5512 70.6664 30.2912 68.1464C31.0312 65.6264 35.5945 65.7664 36.4579 65.7664C37.3212 65.7664 55.3279 65.7664 57.9179 67.1664C60.5079 68.5664 60.8779 103.006 60.8779 103.006H32.2645L31.0312 93.0664Z" fill="#263238" stroke="#263238" stroke-miterlimit="10"/><path d="M61.8619 91.2463C61.8619 91.2463 58.9019 91.2463 58.3099 94.6063C57.7179 97.9663 60.0489 111.826 60.2216 115.746C60.3943 119.666 61.0011 125.126 61.0011 125.126H71.4844L73.8277 91.2463H61.8619Z" fill="#263238" stroke="#263238" stroke-miterlimit="10"/><path d="M73.8277 91.2463C73.8277 91.2463 70.8677 91.2463 70.1277 94.6063C69.3877 97.9663 71.1144 111.826 71.1144 115.746C71.1144 119.666 71.4844 125.126 71.4844 125.126H75.1844C75.1844 125.126 75.5544 115.046 75.5544 113.646C75.5544 112.246 77.0344 97.6863 76.2944 94.7463C75.5544 91.8063 74.9377 91.5263 73.8277 91.2463Z" fill="#636363" stroke="#263238" stroke-miterlimit="10"/><path d="M42.5638 67.2363C42.5638 67.2363 32.7588 71.7863 32.7588 72.2763C32.7588 72.7663 36.0888 85.9263 37.3221 87.9563C38.5555 89.9863 39.4188 92.2263 39.7888 93.0663C40.1588 93.9063 41.7621 96.0063 43.0571 96.0063C44.3521 96.0063 45.8938 94.2563 50.0255 93.5563C54.1571 92.8563 57.8571 92.9263 58.5971 92.2963C59.3371 91.6663 58.4121 89.9863 58.2888 89.6363C58.1655 89.2863 57.6721 88.0263 57.6721 88.0263C57.6721 88.0263 61.6804 91.8063 63.2838 91.9463C64.8871 92.0863 66.0588 91.1763 66.3054 89.9863C66.5521 88.7963 65.6271 85.9263 65.0104 84.3863C64.3938 82.8463 61.4955 80.3963 60.2005 78.5063C58.9055 76.6163 57.2405 74.3763 56.0688 72.8363C55.0478 71.4807 53.7872 70.3836 52.3688 69.6163C51.2588 69.0563 48.4221 67.6563 46.6338 67.4463C44.8455 67.2363 42.5638 67.2363 42.5638 67.2363Z" fill="white" stroke="#263238" stroke-miterlimit="10"/><path d="M61.7808 83.6388C61.7808 83.6388 60.3847 88.0264 60.878 89.1464C61.3713 90.2664 62.6861 90.6388 62.6861 90.6388" stroke="#263238" stroke-miterlimit="10"/><path d="M41.083 68.7063L49.223 77.6663L50.4563 70.9463" stroke="#263238" stroke-miterlimit="10"/><path d="M62.1731 84.1763C62.1731 84.1763 64.1464 85.7863 64.8247 85.2263C65.5031 84.6663 65.3181 83.6163 64.8864 82.4963C64.4547 81.3763 63.0364 80.7463 62.4814 81.2363C61.9264 81.7263 61.7414 83.6863 62.1731 84.1763Z" fill="white" stroke="#263238" stroke-miterlimit="10"/><path d="M41.9463 64.2964L42.2546 68.4964L48.7913 75.7764L49.778 70.5964L50.2096 68.4264C50.2096 68.4264 45.9546 67.5864 44.598 66.5364C43.2413 65.4864 41.9463 64.2964 41.9463 64.2964Z" fill="white" stroke="#263238" stroke-miterlimit="10"/><path d="M50.2096 68.4264C50.2096 68.4264 45.9546 67.5864 44.598 66.5364C43.2413 65.4864 41.9463 64.2964 41.9463 64.2964L42.2546 68.4964L43.9073 70.336C45.1924 70.7476 46.4726 70.9464 47.3434 70.5656C48.3095 70.1668 49.233 69.6455 50.0962 69.0116L50.2096 68.4264Z" fill="#263238" stroke="#263238" stroke-miterlimit="10"/><path d="M39.9928 61.054C39.9928 61.054 38.8408 55.0788 38.8408 54.054C38.8408 53.0292 41.9661 47.7988 46.2408 48.6388C50.5156 49.4788 52.9008 52.2788 53.0661 53.1188C53.2314 53.9588 52.5728 55.6388 52.5728 55.6388C52.7029 56.1254 52.7856 56.6268 52.8194 57.134C52.8194 57.694 52.0794 60.1188 52.0794 60.1188L51.8328 57.5988C51.8328 57.5988 49.778 58.254 48.6261 58.254C47.4742 58.254 45.5008 57.414 45.5008 57.414C45.5008 57.414 45.9128 58.9064 45.5008 59.654C45.0889 60.4016 43.858 61.054 43.858 61.054C43.858 61.054 43.6928 62.5464 43.1994 62.5464C42.5908 62.5113 41.986 62.4177 41.3914 62.2664C41.0608 62.174 39.9928 61.054 39.9928 61.054Z" fill="#263238" stroke="#263238" stroke-miterlimit="10"/><path d="M41.8845 61.7063C41.8845 61.7063 41.7193 59.4663 40.074 60.0263C38.4287 60.5863 39.4993 62.6387 40.4045 63.6663C41.3098 64.6939 41.554 63.9463 41.554 63.9463C41.554 63.9463 41.8007 66.0939 43.034 67.3063C44.2673 68.5187 46.1593 70.7587 48.1326 70.4787C50.1059 70.1987 51.5045 67.3987 51.7512 65.3463C51.9979 63.2939 52.1607 58.4387 52.1607 57.8787C52.1012 57.2471 51.9914 56.623 51.8326 56.0139C51.8326 56.0139 50.1059 57.4139 48.5445 57.0387C46.9831 56.6635 45.3379 55.9187 44.5979 55.9187C43.8579 55.9187 44.0207 57.1339 44.2673 57.5063C44.514 57.8787 45.1726 58.6263 44.4326 59.0939C43.6926 59.5615 42.7059 60.0263 42.7059 60.0263V61.9863L41.8845 61.7063Z" fill="white" stroke="#263238" stroke-miterlimit="10"/><path d="M49.751 60.6873L49.3464 65.7469L47.3213 65.0805" stroke="#263238" stroke-miterlimit="10"/><path d="M48.0407 65.4891C48.0407 65.4891 47.054 65.4891 46.5113 65.5423C46.1854 65.6035 45.8542 65.6205 45.5247 65.5927C45.3002 65.5423 45.0313 65.3379 45.4803 65.8475C45.9292 66.3571 47.2809 66.9675 48.0012 67.0739C48.7215 67.1803 49.2173 66.9199 49.755 66.5139C50.2927 66.1079 50.7417 65.6963 50.4753 65.5955C50.1041 65.5206 49.7275 65.4859 49.3505 65.4919V65.7495L48.0407 65.4891Z" fill="#263238" stroke="#263238" stroke-miterlimit="10"/><path d="M46.6236 62.4231C46.7857 62.4231 46.9171 62.1147 46.9171 61.7343C46.9171 61.3539 46.7857 61.0455 46.6236 61.0455C46.4615 61.0455 46.3301 61.3539 46.3301 61.7343C46.3301 62.1147 46.4615 62.4231 46.6236 62.4231Z" fill="#263238"/><path d="M51.0104 61.6336C51.0104 62.0144 50.8796 62.3224 50.7193 62.3224C50.559 62.3224 50.4258 62.0144 50.4258 61.6336C50.4258 61.2528 50.5565 60.942 50.7193 60.942C50.8821 60.942 51.0104 61.2528 51.0104 61.6336Z" fill="#263238"/><path d="M45.5195 60.6871C45.5195 60.6871 46.7356 59.7155 47.7247 60.1271" stroke="#263238" stroke-miterlimit="10"/><path d="M49.9775 60.1776C49.9775 60.1776 51.238 59.5112 51.7782 60.1244" stroke="#263238" stroke-miterlimit="10"/><path d="M47.4119 63C47.4119 63 47.1406 63.3584 46.2402 63.6636" stroke="#263238" stroke-miterlimit="10"/><path d="M49.8867 62.7815C50.1531 62.9903 50.4404 63.1623 50.7427 63.2939" stroke="#263238" stroke-miterlimit="10"/><path d="M53.7246 76.0564L54.1563 74.7964C54.1563 74.7964 54.7113 75.4264 56.1913 75.4264C57.6713 75.4264 60.0763 76.6164 60.0763 76.6164L60.2613 76.9664C60.2613 76.9664 60.6929 75.4964 61.4946 75.2164C62.2963 74.9364 63.5913 73.9564 63.7763 73.6764L63.9613 73.3964L64.8246 74.2364L61.0013 79.9764L53.8479 76.8264L53.7246 76.0564Z" fill="white" stroke="#263238" stroke-miterlimit="10"/><path d="M53.7865 75.5664L51.9365 86.6964L58.3499 88.3764L60.6932 77.5964L53.7865 75.5664Z" fill="white" stroke="#263238" stroke-miterlimit="10"/><path d="M60.6929 77.5963L64.8246 74.2363L62.3579 85.0163L58.3496 88.3763L60.6929 77.5963Z" fill="white" stroke="#263238" stroke-miterlimit="10"/><path d="M45.8311 84.6663L48.6258 83.3587C48.6258 83.3587 51.0925 80.3739 51.3391 80.0939C51.5858 79.8139 54.0524 79.5339 54.0524 79.5339L56.7658 81.5863C56.7658 81.5863 57.2591 82.0539 56.7658 82.2387C56.2724 82.4235 55.2044 81.8663 55.2044 81.8663L54.1338 81.1187L53.4777 81.4939L54.8738 82.7987C54.8738 82.7987 55.2858 84.0139 55.2858 84.6663C55.2782 85.0855 55.1942 85.4983 55.0391 85.8787L54.2177 87.1863L51.7511 85.7863C51.7511 85.7863 50.2711 86.9987 49.9405 87.1863C49.61 87.3739 46.4872 87.0939 46.4872 87.0939L45.8311 84.6663Z" fill="white" stroke="#263238" stroke-miterlimit="10"/><path d="M51.7295 81.396L52.6027 81.2084L53.3526 81.4436" stroke="#263238" stroke-miterlimit="10"/><path d="M50.8975 83.2384C50.8975 83.2384 52.8511 82.6224 52.9769 82.6224C53.1027 82.6224 54.558 84.322 54.558 84.322L54.7233 86.1645" stroke="#263238" stroke-miterlimit="10"/><path d="M50.9814 84.4171L52.5601 84.4647L54.0154 85.5511C54.1631 86.0795 54.2315 86.6322 54.2177 87.1863" stroke="#263238" stroke-miterlimit="10"/><path d="M34.4837 70.9463C34.4837 70.9463 32.6731 71.2263 32.4265 72.9987C32.1798 74.7711 30.537 89.7063 31.0303 91.3863C31.5237 93.0663 40.6503 90.1739 40.9784 89.9863C41.3065 89.7987 46.4865 88.0263 46.5703 87.6539C46.6542 87.2815 46.817 84.1987 46.077 84.0139C45.337 83.8291 38.2651 84.1063 38.2651 84.1063L37.2784 74.3987" fill="white"/><path d="M34.4837 70.9463C34.4837 70.9463 32.6731 71.2263 32.4265 72.9987C32.1798 74.7711 30.537 89.7063 31.0303 91.3863C31.5237 93.0663 40.6503 90.1739 40.9784 89.9863C41.3065 89.7987 46.4865 88.0263 46.5703 87.6539C46.6542 87.2815 46.817 84.1987 46.077 84.0139C45.337 83.8291 38.2651 84.1063 38.2651 84.1063L37.2784 74.3987" stroke="#263238" stroke-miterlimit="10"/><path d="M38.2658 84.1063L33.9072 84.9463" stroke="#263238" stroke-miterlimit="10"/><path d="M33.0859 83.8263L36.8673 84.3863" stroke="#263238" stroke-miterlimit="10"/><path d="M63.7144 78.8564C63.7144 78.8564 62.0494 80.8164 62.111 81.3064C62.1727 81.7964 63.0361 81.0264 63.2211 80.8164C63.4061 80.6064 64.2694 80.0464 64.2694 79.4864C64.2694 78.9264 64.0844 78.2964 63.7144 78.8564Z" fill="white" stroke="#263238" stroke-miterlimit="10"/><path d="M63.8999 80.0464C63.8999 80.0464 64.3932 80.6064 64.3932 81.0964C64.3932 81.5864 63.3449 83.1964 62.8516 83.1964C62.3582 83.1964 62.7282 82.0764 62.9749 81.5864C63.2216 81.0964 63.8999 80.0464 63.8999 80.0464Z" fill="white" stroke="#263238" stroke-miterlimit="10"/><path d="M64.3924 81.0963C64.3924 81.0963 65.0091 81.3063 65.0091 81.9363C65.0091 82.5663 63.8374 83.6163 63.5291 83.6863C63.2207 83.7563 63.2824 83.1263 63.5291 82.6363C63.7757 82.1463 64.3924 81.0963 64.3924 81.0963Z" fill="white" stroke="#263238" stroke-miterlimit="10"/><path d="M65.0093 81.9364C65.1356 82.2912 65.1781 82.6772 65.1326 83.0564C65.071 83.7564 64.146 84.1764 63.8376 84.1764C63.5293 84.1764 63.5293 83.6864 63.5293 83.6864C64.0512 83.1351 64.5453 82.5508 65.0093 81.9364V81.9364Z" fill="white" stroke="#263238" stroke-miterlimit="10"/><path d="M45.6147 132.266H44.443L43.8584 123.446H46.2017L45.6147 132.266Z" fill="white" stroke="#263238" stroke-miterlimit="10"/><path d="M34.8842 132.266H33.7125L33.1279 123.446H35.4713L34.8842 132.266Z" fill="white" stroke="#263238" stroke-miterlimit="10"/><path d="M73.6108 132.266H72.4391L71.8545 123.446H74.1978L73.6108 132.266Z" fill="white" stroke="#263238" stroke-miterlimit="10"/><path d="M62.8803 132.266H61.7086L61.124 123.446H63.4674L62.8803 132.266Z" fill="white" stroke="#263238" stroke-miterlimit="10"/><path d="M71.9781 106.571H43.9814V125.051H71.9781V106.571Z" fill="#263238" stroke="#263238" stroke-miterlimit="10"/><path d="M92.2855 103.614C92.2855 103.614 95.2455 102.214 95.9041 101.654C96.5627 101.094 97.4655 102.306 97.0536 103.614C96.6416 104.922 95.5736 107.254 93.9308 108.374C92.288 109.494 90.9708 110.426 90.6402 110.799C90.3097 111.171 90.3936 112.574 88.9974 113.134C87.6013 113.694 85.8722 112.574 84.8855 110.799C83.8988 109.024 83.2402 107.814 83.2402 107.814C83.2402 107.814 83.3241 106.506 84.9669 105.854C86.6097 105.202 89.4069 104.919 89.4069 104.919L92.2855 103.614Z" fill="white" stroke="#263238" stroke-miterlimit="10"/><path d="M58.5962 92.2964C58.5962 92.2964 60.5474 91.7588 61.0407 92.0388C61.534 92.3188 63.1793 94.094 63.1793 94.094C63.1793 94.094 73.1274 94.2788 73.8674 94.654C74.6074 95.0292 82.254 101.654 83.8993 102.586C85.5446 103.519 86.9407 104.359 86.9407 104.359L85.7074 110.519V111.079L85.7912 112.014C85.7912 112.014 81.514 110.519 80.446 110.239C79.3779 109.959 74.9379 107.346 74.526 107.346C74.114 107.346 70.7446 106.226 70.7446 106.226C70.7446 106.226 70.2512 105.854 64.906 105.294C59.5607 104.734 53.5593 104.079 51.4207 103.986C49.2821 103.894 46.4874 103.706 45.4193 103.239C44.3512 102.771 42.4593 99.5064 42.1312 97.5464C41.8032 95.5864 45.254 93.9064 46.734 93.1588C48.214 92.4112 53.7246 91.4788 54.7112 91.4788C55.6979 91.4788 58.5962 92.2964 58.5962 92.2964Z" fill="white" stroke="#263238" stroke-miterlimit="10"/><path d="M60.4656 95.0264L58.8203 97.734L61.0403 96.054" fill="white"/><path d="M60.4656 95.0264L58.8203 97.734L61.0403 96.054" stroke="#263238" stroke-miterlimit="10"/><path d="M85.7066 103.146C85.7066 103.146 88.0918 100.999 88.5852 100.346C89.0785 99.694 90.7238 96.1464 91.0518 95.0264C91.3799 93.9064 92.2038 93.3464 92.7785 94.1864C93.3532 95.0264 93.7652 96.7064 94.0932 97.454C94.4213 98.2016 93.9304 101.839 92.9438 103.054C91.9571 104.269 90.593 107.212 90.3118 107.814C89.5718 109.399 88.4199 109.586 87.6799 109.679C86.9399 109.771 85.1318 107.534 85.1318 107.534L85.7066 103.146Z" fill="white" stroke="#263238" stroke-miterlimit="10"/><path d="M49.1188 96.8939C49.1188 96.8939 51.5855 96.3339 53.8055 96.6139C56.0255 96.8939 60.5469 98.4787 62.4388 99.0387C64.3308 99.5987 67.7002 99.8787 69.2641 100.534C70.8279 101.189 74.9374 102.026 78.0602 102.026C81.183 102.026 85.9535 102.494 85.9535 102.494C85.9535 102.494 85.2974 107.906 85.4602 108.934C85.6224 109.761 85.8427 110.572 86.1188 111.359C86.1188 111.359 79.7869 111.919 77.9788 112.199C76.1708 112.479 68.8522 111.174 67.6188 110.799C66.3855 110.424 64.5774 109.866 63.4255 109.866C62.2736 109.866 60.0536 110.426 56.8469 110.799C53.6402 111.171 49.1188 109.586 48.5441 109.494C47.9694 109.402 45.9122 108.559 45.4188 108.186C44.9255 107.814 42.0469 102.026 43.0336 99.5987C44.0202 97.1711 45.2536 96.7987 45.2536 96.7987" fill="white"/><path d="M49.1188 96.8939C49.1188 96.8939 51.5855 96.3339 53.8055 96.6139C56.0255 96.8939 60.5469 98.4787 62.4388 99.0387C64.3308 99.5987 67.7002 99.8787 69.2641 100.534C70.8279 101.189 74.9374 102.026 78.0602 102.026C81.183 102.026 85.9535 102.494 85.9535 102.494C85.9535 102.494 85.2974 107.906 85.4602 108.934C85.6224 109.761 85.8427 110.572 86.1188 111.359C86.1188 111.359 79.7869 111.919 77.9788 112.199C76.1708 112.479 68.8522 111.174 67.6188 110.799C66.3855 110.424 64.5774 109.866 63.4255 109.866C62.2736 109.866 60.0536 110.426 56.8469 110.799C53.6402 111.171 49.1188 109.586 48.5441 109.494C47.9694 109.402 45.9122 108.559 45.4188 108.186C44.9255 107.814 42.0469 102.026 43.0336 99.5987C44.0202 97.1711 45.2536 96.7987 45.2536 96.7987" stroke="#263238" stroke-miterlimit="10"/><path d="M64.2451 106.31C65.8312 106.669 67.511 107.761 69.7828 108.772C72.8143 110.118 78.8823 109.995 79.6643 110.118C80.4462 110.242 82.4319 110.118 82.4319 110.118" fill="white"/><path d="M64.2451 106.31C65.8312 106.669 67.511 107.761 69.7828 108.772C72.8143 110.118 78.8823 109.995 79.6643 110.118C80.4462 110.242 82.4319 110.118 82.4319 110.118" stroke="#263238" stroke-miterlimit="10"/><path d="M52.0156 107.576L52.9209 107.724C55.5553 108.172 60.5676 106.529 62.6692 106.229" fill="white"/><path d="M52.0156 107.576L52.9209 107.724C55.5553 108.172 60.5676 106.529 62.6692 106.229" stroke="#263238" stroke-miterlimit="10"/><path d="M49.3633 107.276C49.3633 107.276 49.8369 107.276 51.0727 107.442Z" fill="white"/><path d="M49.3633 107.276C49.3633 107.276 49.8369 107.276 51.0727 107.442" stroke="#263238" stroke-miterlimit="10"/><path d="M33.3721 91.2463C33.3721 91.2463 30.4121 91.2463 29.8201 94.6063C29.2281 97.9663 31.5468 111.826 31.7318 115.746C31.9168 119.666 32.5112 125.126 32.5112 125.126H42.9946L45.3379 91.2463H33.3721Z" fill="#263238" stroke="#263238" stroke-miterlimit="10"/><path d="M45.3375 91.2463C45.3375 91.2463 42.3775 91.2463 41.6375 94.6063C40.8975 97.9663 42.6242 111.826 42.6242 115.746C42.6242 119.666 42.9942 125.126 42.9942 125.126H46.6942C46.6942 125.126 47.0642 115.046 47.0642 113.646C47.0642 112.246 48.5442 97.6863 47.8042 94.7463C47.0642 91.8063 46.4475 91.5263 45.3375 91.2463Z" fill="#636363" stroke="#263238" stroke-miterlimit="10"/><path d="M69.4174 132.266H68.2457L67.6611 123.446H70.0045L69.4174 132.266Z" fill="white" stroke="#263238" stroke-miterlimit="10"/><path d="M79.4067 132.266H78.235L77.6504 123.446H79.9937L79.4067 132.266Z" fill="white" stroke="#263238" stroke-miterlimit="10"/><path d="M84.0942 132.266H82.9225L82.3379 123.446H84.6812L84.0942 132.266Z" fill="white" stroke="#263238" stroke-miterlimit="10"/><path d="M93.9604 132.266H92.7887L92.2041 123.446H94.5474L93.9604 132.266Z" fill="white" stroke="#263238" stroke-miterlimit="10"/><path d="M67.9686 111.966H93.733C94.2073 111.966 94.6621 112.18 94.9975 112.561C95.3329 112.942 95.5213 113.458 95.5213 113.996V128.346H66.168V113.996C66.168 113.729 66.2146 113.463 66.3053 113.216C66.3959 112.969 66.5287 112.745 66.6961 112.556C66.8635 112.367 67.0621 112.218 67.2805 112.117C67.4989 112.016 67.7327 111.965 67.9686 111.966V111.966Z" fill="#263238" stroke="#263238" stroke-miterlimit="10"/><path d="M93.7456 111.966H84.3723C83.898 111.966 83.4432 112.18 83.1078 112.561C82.7724 112.942 82.584 113.458 82.584 113.996V128.346H95.534V113.996C95.5333 113.458 95.3447 112.942 95.0095 112.562C94.6742 112.181 94.2197 111.967 93.7456 111.966V111.966Z" fill="#636363" stroke="#263238" stroke-miterlimit="10"/></svg>