<svg width="241" height="248" fill="none" xmlns="http://www.w3.org/2000/svg"><path d="M193.62 215.393C201.331 209.794 207.647 202.397 212.051 193.807C239.602 140.69 233.38 62.3671 180.321 28.7731C155.797 13.2483 120.5 3.4225 93.9902 19.3689C72.493 32.2996 59.3151 56.6483 48.4123 78.7996C41.563 92.7521 35.9188 107.726 27.4742 120.761C16.5231 137.665 4.46832 160.243 16.6388 179.884C33.2244 206.639 64.5496 218.855 92.9539 226.9C123.773 235.625 158.429 236.865 186.896 219.842C189.2 218.463 191.441 216.98 193.62 215.393Z" fill="#C8C8C8"/><path opacity="0.7" d="M193.62 215.393C201.331 209.794 207.647 202.397 212.051 193.807C239.602 140.69 233.38 62.3671 180.321 28.7731C155.797 13.2483 120.5 3.4225 93.9902 19.3689C72.493 32.2996 59.3151 56.6483 48.4123 78.7996C41.563 92.7521 35.9188 107.726 27.4742 120.761C16.5231 137.665 4.46832 160.243 16.6388 179.884C33.2244 206.639 64.5496 218.855 92.9539 226.9C123.773 235.625 158.429 236.865 186.896 219.842C189.2 218.463 191.441 216.98 193.62 215.393Z" fill="white"/><g opacity="0.3"><path opacity="0.3" d="M217.864 39.9131H168.218V107.007H217.864V39.9131Z" stroke="black" stroke-miterlimit="10"/><path opacity="0.3" d="M208.754 52.2236H177.327V94.6961H208.754V52.2236Z" stroke="black" stroke-miterlimit="10"/></g><path d="M156.587 32.3936H25.1455V152.793H156.587V32.3936Z" fill="#263238" stroke="#263238" stroke-miterlimit="10"/><path d="M154.095 29.4624H22.6533V149.861H154.095V29.4624Z" fill="white" stroke="#263238" stroke-linecap="round" stroke-linejoin="round"/><path d="M128.5 78.0508H135.036V71.325H128.5V78.0508Z" fill="white" stroke="#263238" stroke-linecap="round" stroke-linejoin="round"/><path d="M137.056 78.0508H143.592V71.325H137.056V78.0508Z" fill="white" stroke="#263238" stroke-linecap="round" stroke-linejoin="round"/><path d="M125.888 75.0947H92.6826" stroke="#263238" stroke-linecap="round" stroke-linejoin="round"/><path d="M128.5 93.9272H135.036V87.2015H128.5V93.9272Z" fill="white" stroke="#263238" stroke-linecap="round" stroke-linejoin="round"/><path d="M137.056 93.9272H143.592V87.2015H137.056V93.9272Z" fill="white" stroke="#263238" stroke-linecap="round" stroke-linejoin="round"/><path d="M125.888 90.9663H92.6826" stroke="#263238" stroke-linecap="round" stroke-linejoin="round"/><path d="M128.5 109.804H135.036V103.078H128.5V109.804Z" fill="white" stroke="#263238" stroke-linecap="round" stroke-linejoin="round"/><path d="M137.056 109.804H143.592V103.078H137.056V109.804Z" fill="white" stroke="#263238" stroke-linecap="round" stroke-linejoin="round"/><path d="M125.888 106.843H92.6826" stroke="#263238" stroke-linecap="round" stroke-linejoin="round"/><path d="M66.0139 78.0508H72.5498V71.325H66.0139V78.0508Z" fill="white" stroke="#263238" stroke-linecap="round" stroke-linejoin="round"/><path d="M74.5744 78.0508H81.1104V71.325H74.5744V78.0508Z" fill="white" stroke="#263238" stroke-linecap="round" stroke-linejoin="round"/><path d="M63.4013 75.0942H30.1963" stroke="#263238" stroke-linecap="round" stroke-linejoin="round"/><path d="M66.0139 93.9272H72.5498V87.2015H66.0139V93.9272Z" fill="white" stroke="#263238" stroke-linecap="round" stroke-linejoin="round"/><path d="M74.5744 93.9272H81.1104V87.2015H74.5744V93.9272Z" fill="white" stroke="#263238" stroke-linecap="round" stroke-linejoin="round"/><path d="M63.4013 90.9663H30.1963" stroke="#263238" stroke-linecap="round" stroke-linejoin="round"/><path d="M66.0139 109.804H72.5498V103.078H66.0139V109.804Z" fill="white" stroke="#263238" stroke-linecap="round" stroke-linejoin="round"/><path d="M74.5744 109.804H81.1104V103.078H74.5744V109.804Z" fill="white" stroke="#263238" stroke-linecap="round" stroke-linejoin="round"/><path d="M63.4013 106.843H30.1963" stroke="#263238" stroke-linecap="round" stroke-linejoin="round"/><path d="M39.4608 132.928H32.2598V140.339H39.4608V132.928Z" fill="white" stroke="#263238" stroke-linecap="round" stroke-linejoin="round"/><path d="M68.8475 132.928H61.6465V140.339H68.8475V132.928Z" fill="white" stroke="#263238" stroke-linecap="round" stroke-linejoin="round"/><path d="M99.4032 132.928H92.2021V140.338H99.4032V132.928Z" fill="white" stroke="#263238" stroke-linecap="round" stroke-linejoin="round"/><path d="M76.7188 73.5764L77.8322 75.8779L83.2257 70.5161" stroke="#263238" stroke-width="2" stroke-linecap="round" stroke-linejoin="round"/><path d="M76.7188 89.2752L77.8322 91.5717L83.2257 86.21" stroke="#263238" stroke-width="2" stroke-linecap="round" stroke-linejoin="round"/><path d="M67.417 105.737L68.5352 108.034L73.9288 102.672" stroke="#263238" stroke-width="2" stroke-linecap="round" stroke-linejoin="round"/><path d="M138.844 73.3885L139.957 75.685L145.351 70.3232" stroke="#263238" stroke-width="2" stroke-linecap="round" stroke-linejoin="round"/><path d="M129.841 89.4636L130.954 91.7601L136.348 86.4033" stroke="#263238" stroke-width="2" stroke-linecap="round" stroke-linejoin="round"/><path d="M129.841 105.594L130.954 107.89L136.348 102.533" stroke="#263238" stroke-width="2" stroke-linecap="round" stroke-linejoin="round"/><path d="M154.095 29.4624H22.6533V48.2707H154.095V29.4624Z" fill="white" stroke="#263238" stroke-linecap="round" stroke-linejoin="round"/><path d="M154.095 29.4624H149.145V149.861H154.095V29.4624Z" fill="#DBDBDB" stroke="#263238" stroke-linecap="round" stroke-linejoin="round"/><path d="M154.095 47.5566H149.145V70.7943H154.095V47.5566Z" fill="#949494" stroke="#263238" stroke-linecap="round" stroke-linejoin="round"/><path d="M154.095 29.4624H22.6533V38.6086H154.095V29.4624Z" fill="#DBDBDB" stroke="#263238" stroke-linecap="round" stroke-linejoin="round"/><path d="M81.1526 32.126H29.3184V35.9353H81.1526V32.126Z" fill="white" stroke="#263238" stroke-linecap="round" stroke-linejoin="round"/><path d="M146.335 32.3042H150.885" stroke="#263238" stroke-linecap="round" stroke-linejoin="round"/><path d="M146.335 34.2837H150.885" stroke="#263238" stroke-linecap="round" stroke-linejoin="round"/><path d="M146.335 36.2676H150.885" stroke="#263238" stroke-linecap="round" stroke-linejoin="round"/><path d="M68.5684 55.8793C68.5684 54.7038 69.1709 54.0342 70.2698 54.0342C71.3688 54.0342 71.9664 54.7038 71.9664 55.8793V59.6886C71.9664 60.8591 71.3688 61.5287 70.2698 61.5287C69.1709 61.5287 68.5684 60.8591 68.5684 59.6886V55.8793ZM69.6914 59.763C69.6914 60.2838 69.9131 60.4822 70.2698 60.4822C70.6265 60.4822 70.8482 60.2838 70.8482 59.763V55.795C70.8482 55.2692 70.6265 55.0708 70.2698 55.0708C69.9131 55.0708 69.6914 55.2692 69.6914 55.795V59.763Z" fill="#263238"/><path d="M73.688 56.1423V61.4446H72.6807V54.1187H74.0833L75.2353 58.5033V54.1187H76.233V61.4446H75.081L73.688 56.1423Z" fill="#263238"/><path d="M77.0322 54.1187H78.1553V60.398H80.011V61.4446H77.0467L77.0322 54.1187Z" fill="#263238"/><path d="M80.4941 54.1187H81.6124V61.4446H80.4941V54.1187Z" fill="#263238"/><path d="M83.4148 56.1423V61.4446H82.4219V54.1187H83.8245L84.9765 58.5033V54.1187H85.9694V61.4446H84.8319L83.4148 56.1423Z" fill="#263238"/><path d="M87.878 57.2087H89.4156V58.2553H87.878V60.398H89.806V61.4446H86.7598V54.1187H89.8108V55.1652H87.8828L87.878 57.2087Z" fill="#263238"/><path d="M91.7568 54.1187H95.2128V55.1652H94.0415V61.4446H92.9233V55.1652H91.7568V54.1187Z" fill="#263238"/><path d="M96.8233 57.2087H98.356V58.2553H96.8233V60.398H98.7512V61.4446H95.7002V54.1187H98.7512V55.1652H96.8233V57.2087Z" fill="#263238"/><path d="M100.95 54.0342C102.039 54.0342 102.598 54.7038 102.598 55.8793V56.1075H101.543V55.8049C101.543 55.2791 101.34 55.0807 100.984 55.0807C100.627 55.0807 100.425 55.2791 100.425 55.8049C100.425 57.2929 102.608 57.5955 102.608 59.6886C102.608 60.8591 102.039 61.5287 100.94 61.5287C99.8415 61.5287 99.292 60.8591 99.292 59.6886V59.2372H100.352V59.763C100.352 60.2838 100.574 60.4723 100.931 60.4723C101.287 60.4723 101.509 60.2838 101.509 59.763C101.509 58.275 99.3257 57.9724 99.3257 55.8793C99.292 54.7038 99.8656 54.0342 100.95 54.0342Z" fill="#263238"/><path d="M102.926 54.1187H106.382V55.1652H105.215V61.4446H104.112V55.1652H102.94L102.926 54.1187Z" fill="#263238"/><path d="M37.8659 131.142H36.7332L36.5404 129.813H35.186L34.9932 131.142H33.9473L35.0848 123.816H36.7236L37.8659 131.142ZM35.3113 128.816H36.391L35.8512 125.111L35.3113 128.816Z" fill="#263238"/><path d="M66.7796 125.488V125.746C66.7796 126.5 66.5579 126.981 66.0566 127.234C66.6591 127.472 66.8905 128.027 66.8905 128.801V129.401C66.8905 130.532 66.3121 131.137 65.1939 131.137H63.4346V123.816H65.1216C66.2832 123.816 66.7796 124.372 66.7796 125.488ZM64.5528 124.848V126.782H64.9914C65.4059 126.782 65.6614 126.594 65.6614 126.009V125.602C65.6614 125.076 65.4879 124.848 65.0926 124.848H64.5528ZM64.5528 127.824V130.076H65.1939C65.5698 130.076 65.7723 129.897 65.7723 129.352V128.717C65.7723 128.032 65.5602 127.824 65.0541 127.824H64.5528Z" fill="#263238"/><path d="M97.6235 128.409V129.401C97.6235 130.577 97.0548 131.246 95.9558 131.246C94.8568 131.246 94.2881 130.577 94.2881 129.401V125.592C94.2881 124.422 94.8568 123.752 95.9558 123.752C97.0548 123.752 97.6235 124.422 97.6235 125.592V126.306H96.568V125.488C96.568 124.962 96.3414 124.764 95.9847 124.764C95.628 124.764 95.4063 124.962 95.4063 125.488V129.456C95.4063 129.982 95.6329 130.17 95.9847 130.17C96.3366 130.17 96.568 129.982 96.568 129.456V128.409H97.6235Z" fill="#263238"/><path d="M30.7021 119.913H116.137" stroke="#263238" stroke-linecap="round" stroke-linejoin="round"/><path opacity="0.3" d="M171.028 30.0527H180.461V20.346H171.028V30.0527Z" stroke="black" stroke-linecap="round" stroke-linejoin="round"/><path opacity="0.3" d="M183.382 30.0527H192.814V20.346H183.382V30.0527Z" stroke="black" stroke-linecap="round" stroke-linejoin="round"/><path opacity="0.3" d="M173.058 24.1847L174.667 27.498L179.401 22.1362" stroke="black" stroke-width="2" stroke-linecap="round" stroke-linejoin="round"/><path opacity="0.3" d="M28.2352 172.464H37.668V162.758H28.2352V172.464Z" stroke="black" stroke-linecap="round" stroke-linejoin="round"/><path opacity="0.3" d="M40.5839 172.464H50.0166V162.758H40.5839V172.464Z" stroke="black" stroke-linecap="round" stroke-linejoin="round"/><path opacity="0.3" d="M30.2549 166.596L31.8648 169.91L36.598 164.548" stroke="black" stroke-width="2" stroke-linecap="round" stroke-linejoin="round"/><path opacity="0.3" d="M72.9217 172.464H82.3545V162.758H72.9217V172.464Z" stroke="black" stroke-linecap="round" stroke-linejoin="round"/><path opacity="0.3" d="M85.2753 172.464H94.708V162.758H85.2753V172.464Z" stroke="black" stroke-linecap="round" stroke-linejoin="round"/><path opacity="0.3" d="M74.9463 166.596L76.5562 169.91L81.2894 164.548" stroke="black" stroke-width="2" stroke-linecap="round" stroke-linejoin="round"/><g opacity="0.3"><path opacity="0.3" d="M87.5506 25.2011C90.8513 24.6522 93.0946 21.4538 92.5612 18.0572C92.0277 14.6607 88.9196 12.3522 85.619 12.9011C82.3183 13.45 80.075 16.6485 80.6084 20.045C81.1418 23.4415 84.2499 25.75 87.5506 25.2011Z" stroke="black" stroke-linecap="round" stroke-linejoin="round"/><path opacity="0.3" d="M88.2777 21.3031L86.5859 19.0513V15.5049" stroke="black" stroke-linecap="round" stroke-linejoin="round"/></g><g opacity="0.3"><path opacity="0.3" d="M199.586 138.543H198.689L198.535 137.492H197.445L197.291 138.543H196.477L197.383 132.735H198.679L199.586 138.543ZM197.561 136.703H198.414L197.985 133.762L197.561 136.703Z" fill="black"/><path opacity="0.3" d="M212.21 134.069V134.277C212.244 134.509 212.207 134.746 212.105 134.955C212.004 135.165 211.841 135.337 211.641 135.448C211.867 135.554 212.054 135.733 212.173 135.957C212.292 136.182 212.337 136.44 212.301 136.693V137.189C212.323 137.376 212.304 137.566 212.243 137.744C212.183 137.922 212.084 138.084 211.954 138.217C211.824 138.349 211.666 138.449 211.492 138.509C211.318 138.569 211.133 138.588 210.952 138.563H209.559V132.735H210.899C211.814 132.735 212.21 133.171 212.21 134.069ZM210.445 133.573V135.111H210.792C211.12 135.111 211.323 134.962 211.323 134.496V134.173C211.323 133.757 211.188 133.573 210.87 133.573H210.445ZM210.445 135.939V137.725H210.952C211.25 137.725 211.434 137.586 211.434 137.154V136.658C211.434 136.123 211.26 135.954 210.86 135.954L210.445 135.939Z" fill="black"/><path opacity="0.3" d="M224.992 136.4V137.169C224.992 138.101 224.544 138.632 223.671 138.632C222.799 138.632 222.346 138.101 222.346 137.169V134.148C222.346 133.216 222.799 132.685 223.671 132.685C224.544 132.685 224.992 133.216 224.992 134.148V134.714H224.153V134.069C224.153 133.652 223.975 133.498 223.695 133.498C223.416 133.498 223.213 133.652 223.213 134.069V137.209C223.213 137.625 223.392 137.774 223.695 137.774C223.999 137.774 224.153 137.625 224.153 137.209V136.4H224.992Z" fill="black"/><path opacity="0.3" d="M201.35 141.712H194.491V148.77H201.35V141.712Z" stroke="black" stroke-miterlimit="10"/><path opacity="0.3" d="M214.109 141.712H207.25V148.77H214.109V141.712Z" stroke="black" stroke-miterlimit="10"/><path opacity="0.3" d="M226.868 141.712H220.009V148.77H226.868V141.712Z" stroke="black" stroke-miterlimit="10"/></g><path d="M38.7718 223.478H24.2588" stroke="#263238" stroke-miterlimit="10"/><path d="M228.145 223.478H43.5" stroke="#263238" stroke-miterlimit="10"/><path d="M172.382 223.309L175.486 174.8L177.771 151.736L171.505 144.54L168.362 142.188C168.362 142.188 163.938 146.156 160.8 147.034C157.662 147.912 154.645 148.8 154.645 148.8C154.645 148.8 143.939 169.513 143.077 178.912C142.214 188.311 140.792 223.131 140.792 223.131L141.983 223.309H172.382Z" fill="#9E9E9E" stroke="#263238" stroke-miterlimit="10"/><path d="M157.668 183.317C157.668 183.317 157.133 183.034 158.203 180.197" stroke="#263238" stroke-miterlimit="10"/><path d="M156.41 148.304C156.942 152.223 157.237 156.172 157.292 160.129C157.292 160.129 160.507 158.805 163.076 154.177C164.495 151.693 165.717 149.096 166.73 146.41L156.41 148.304Z" fill="#263238" stroke="#263238" stroke-miterlimit="10"/><path d="M172.382 223.309L175.173 179.696C172.435 181.134 167.032 183.51 161.07 183.614C153.927 183.738 145.082 178.029 145.082 178.029L143.091 178.833C143.091 178.858 143.091 178.887 143.091 178.912C142.233 188.336 140.807 223.131 140.807 223.131L141.997 223.309H172.382Z" fill="white" stroke="#263238" stroke-miterlimit="10"/><path d="M167.736 198.896C167.736 210.131 168.112 220.939 168.218 223.3H189.258C189.547 219.798 191.359 198.004 192.289 190.192C193.306 181.655 199.977 168.948 199.977 164.4C199.977 159.851 201.332 160.57 195.239 157.262C189.147 153.954 175.709 146.811 173.848 145.938C171.988 145.065 169.954 142.962 169.954 142.962C169.954 142.962 170.628 147.317 170.436 159.157C170.243 170.996 167.736 186.194 167.736 198.896Z" fill="white"/><g opacity="0.2"><path opacity="0.2" d="M169.952 143.007C170.203 145.067 170.348 147.14 170.386 149.217V143.428C170.116 143.175 169.952 143.007 169.952 143.007Z" fill="black"/><path opacity="0.2" d="M197.619 171.353V172.841C197.783 172.39 197.947 171.954 198.101 171.522V171.343H198.164C198.227 171.18 198.285 171.011 198.342 170.847H198.101V164.672H199.967C199.967 164.598 199.967 164.519 199.967 164.444C199.967 164.37 199.967 164.266 199.967 164.176H198.101V158.889C197.952 158.795 197.793 158.705 197.619 158.606V164.176H192.558V157.976H196.472L195.566 157.48H192.558V155.843L192.076 155.581V157.465H187.015V152.872L186.533 152.615V157.465H181.472V151.28H183.993L183.058 150.784H181.472V149.946L180.99 149.688V150.784H175.929V147.04C175.761 146.95 175.602 146.866 175.447 146.792V150.784H170.435C170.435 150.948 170.435 151.112 170.435 151.28H175.447V157.48H170.478C170.478 157.644 170.478 157.808 170.478 157.976H175.447V164.176H170.386V161.82C170.29 164.241 170.116 166.78 169.904 169.364V170.852H169.779L169.736 171.348H169.904V177.568H169.181L169.133 178.064H169.928V184.264H168.56L168.516 184.76H169.928V190.96H168.049L168.02 191.456H169.948V197.656H167.812C167.812 197.825 167.812 197.989 167.812 198.152H169.953V204.352H167.827C167.827 204.521 167.827 204.685 167.827 204.848H169.948V211.048H167.923C167.923 211.217 167.923 211.381 167.923 211.544H169.938V223.324H170.42V211.529H175.447V223.309H175.929V211.529H180.99V223.309H181.472V211.529H186.533V223.309H187.015V211.529H190.259C190.259 211.366 190.259 211.202 190.303 211.033H187.015V204.848H190.871C190.871 204.685 190.905 204.521 190.92 204.352H187.015V198.152H191.469C191.469 197.984 191.498 197.825 191.517 197.656H187.015V191.456H192.076V192.116L192.288 190.216C192.356 189.661 192.448 189.085 192.558 188.495V184.76H193.46L193.604 184.264H192.558V178.064H195.691C195.754 177.901 195.812 177.732 195.875 177.568H192.558V171.368L197.619 171.353ZM192.558 164.672H197.619V170.872H192.558V164.672ZM175.447 211.033H170.386V204.848H175.447V211.033ZM175.447 204.337H170.386V198.137H175.447V204.337ZM175.447 197.641H170.386V191.456H175.447V197.641ZM175.447 190.945H170.386V184.745H175.447V190.945ZM175.447 184.249H170.386V178.064H175.447V184.249ZM175.447 177.553H170.386V171.353H175.447V177.553ZM175.447 170.857H170.386V164.672H175.447V170.857ZM180.99 211.033H175.929V204.848H180.99V211.033ZM180.99 204.337H175.929V198.137H180.99V204.337ZM180.99 197.641H175.929V191.456H180.99V197.641ZM180.99 190.945H175.929V184.745H180.99V190.945ZM180.99 184.249H175.929V178.064H180.99V184.249ZM180.99 177.553H175.929V171.353H180.99V177.553ZM180.99 170.857H175.929V164.672H180.99V170.857ZM180.99 164.161H175.929V157.961H180.99V164.161ZM180.99 157.465H175.929V151.28H180.99V157.465ZM186.533 211.033H181.472V204.848H186.533V211.033ZM186.533 204.337H181.472V198.137H186.533V204.337ZM186.533 197.641H181.472V191.456H186.533V197.641ZM186.533 190.945H181.472V184.745H186.533V190.945ZM186.533 184.249H181.472V178.064H186.533V184.249ZM186.533 177.553H181.472V171.353H186.533V177.553ZM186.533 170.857H181.472V164.672H186.533V170.857ZM186.533 164.161H181.472V157.961H186.533V164.161ZM192.076 190.945H187.015V184.745H192.076V190.945ZM192.076 184.249H187.015V178.064H192.076V184.249ZM192.076 177.553H187.015V171.353H192.076V177.553ZM192.076 170.857H187.015V164.672H192.076V170.857ZM192.076 164.161H187.015V157.961H192.076V164.161Z" fill="black"/></g><path d="M167.736 198.896C167.736 210.131 168.112 220.939 168.218 223.3H189.258C189.547 219.798 191.359 198.004 192.289 190.192C193.306 181.655 199.977 168.948 199.977 164.4C199.977 159.851 201.332 160.57 195.239 157.262C189.147 153.954 175.709 146.811 173.848 145.938C171.988 145.065 169.954 142.962 169.954 142.962C169.954 142.962 170.628 147.317 170.436 159.157C170.243 170.996 167.736 186.194 167.736 198.896Z" stroke="#263238" stroke-miterlimit="10"/><path d="M169.953 143.007C169.953 143.007 170.628 147.362 170.435 159.201C170.397 162.177 170.199 165.391 169.953 168.705C170.532 167.886 172.397 165.272 172.845 165.123C173.351 164.95 176.06 167.564 178.258 167.911C180.456 168.258 181.304 168.258 178.938 165.644C176.571 163.03 175.564 155.372 174.706 149.623C174.542 148.393 174.28 147.178 173.92 145.993H173.862C171.982 145.1 169.953 143.007 169.953 143.007Z" fill="#263238" stroke="#263238" stroke-miterlimit="10"/><path d="M183.84 196.872C185.397 196.143 186.621 195.513 186.621 195.513L187.195 200.066C187.195 200.066 178.769 203.886 174.06 204.178C169.351 204.471 168.922 204.62 168.922 204.62L169.062 200.215" stroke="#263238" stroke-miterlimit="10"/><path d="M179.622 198.653C180.485 198.355 181.497 197.934 182.485 197.492" stroke="#263238" stroke-miterlimit="10"/><path d="M170.629 199.774C173.093 199.71 175.55 199.479 177.984 199.084" stroke="#263238" stroke-miterlimit="10"/><path d="M187.194 200.067L187.479 203.593" stroke="#263238" stroke-miterlimit="10"/><path d="M122.616 223.309H146.291C146.344 221.4 147.029 197.13 147.492 184.745C147.974 171.849 156.476 152.287 156.476 152.287C156.476 152.287 157.614 149.529 156.409 148.289C155.204 147.049 152.312 147.545 150.143 149.281C147.974 151.017 127.971 159.945 126.766 161.185C125.561 162.425 125.802 166.641 125.32 171.601C124.838 176.561 116.885 210.785 116.885 210.785C116.885 210.785 114.716 211.281 113.993 211.777C113.27 212.273 113.27 213.761 113.27 213.761C113.27 213.761 114.234 214.009 117.126 215.497C119.786 216.866 122.24 222.422 122.616 223.309Z" fill="white"/><path opacity="0.2" d="M153.277 157.961V160.496C153.441 160.04 153.6 159.598 153.759 159.172V157.961H154.212L154.4 157.465H153.759V151.28H156.795C156.829 151.127 156.868 150.958 156.892 150.784H153.759V147.669C153.6 147.694 153.441 147.719 153.277 147.759V150.784H148.216V150.447L147.734 150.7V150.784H147.57L146.606 151.28H147.734V157.48H142.673V153.215L142.191 153.448V157.465H137.13V155.883L136.648 156.116V157.465H133.847L132.825 157.961H136.648V164.176H131.587V158.572L131.105 158.81V164.176H126.044V162.926C125.773 164.733 125.612 166.555 125.562 168.382V170.862H125.388L125.345 171.358H125.562V177.568H124.265L124.164 178.064H125.562V184.264H122.858C122.824 184.428 122.785 184.597 122.752 184.76H125.562V190.96H121.392C121.354 191.129 121.32 191.293 121.281 191.456H125.562V197.656H120.501V194.928L120.019 197.071V197.632H119.893L119.782 198.128H120.019V204.352H118.37L118.255 204.848H120.019V211.048H115.926C115.435 211.184 114.952 211.349 114.48 211.544V211.544V214.243C114.625 214.302 114.784 214.371 114.962 214.456V211.544H120.019V218.488C120.187 218.736 120.346 218.984 120.501 219.237V211.549H125.562V223.329H126.044V211.529H131.105V223.309H131.587V211.529H136.648V223.309H137.13V211.529H142.191V223.309H142.673V211.529H146.63V211.033H142.673V204.848H146.832V204.352H142.673V198.152H147.04V197.656H142.673V191.456H147.256C147.256 191.293 147.256 191.124 147.256 190.96H142.673V184.76H147.493C147.493 184.597 147.493 184.433 147.517 184.264H142.673V178.064H147.734V181.73C147.859 180.673 148.018 179.587 148.216 178.486V178.064H148.293C148.322 177.901 148.355 177.737 148.384 177.568H148.216V171.368H149.83C149.874 171.205 149.922 171.041 149.965 170.872H148.216V164.672H151.831C151.888 164.509 151.941 164.34 151.995 164.176H148.216V157.976L153.277 157.961ZM148.216 151.28H153.277V157.48H148.216V151.28ZM125.562 211.048H120.501V204.848H125.562V211.048ZM125.562 204.352H120.501V198.152H125.562V204.352ZM131.105 211.048H126.044V204.848H131.105V211.048ZM131.105 204.352H126.044V198.152H131.105V204.352ZM131.105 197.656H126.044V191.456H131.105V197.656ZM131.105 190.96H126.044V184.76H131.105V190.96ZM131.105 184.264H126.044V178.064H131.105V184.264ZM131.105 177.568H126.044V171.368H131.105V177.568ZM131.105 170.872H126.044V164.672H131.105V170.872ZM136.648 211.048H131.587V204.848H136.648V211.048ZM136.648 204.352H131.587V198.152H136.648V204.352ZM136.648 197.656H131.587V191.456H136.648V197.656ZM136.648 190.96H131.587V184.76H136.648V190.96ZM136.648 184.264H131.587V178.064H136.648V184.264ZM136.648 177.568H131.587V171.368H136.648V177.568ZM136.648 170.872H131.587V164.672H136.648V170.872ZM142.191 211.048H137.13V204.848H142.191V211.048ZM142.191 204.352H137.13V198.152H142.191V204.352ZM142.191 197.656H137.13V191.456H142.191V197.656ZM142.191 190.96H137.13V184.76H142.191V190.96ZM142.191 184.264H137.13V178.064H142.191V184.264ZM142.191 177.568H137.13V171.368H142.191V177.568ZM142.191 170.872H137.13V164.672H142.191V170.872ZM142.191 164.176H137.13V157.976H142.191V164.176ZM147.734 177.568H142.673V171.368H147.734V177.568ZM147.734 170.872H142.673V164.672H147.734V170.872ZM147.734 164.176H142.673V157.976H147.734V164.176Z" fill="black"/><path d="M122.616 223.309H146.291C146.344 221.4 147.029 197.13 147.492 184.745C147.974 171.849 156.476 152.287 156.476 152.287C156.476 152.287 157.614 149.529 156.409 148.289C155.204 147.049 152.312 147.545 150.143 149.281C147.974 151.017 127.971 159.945 126.766 161.185C125.561 162.425 125.802 166.641 125.32 171.601C124.838 176.561 116.885 210.785 116.885 210.785C116.885 210.785 114.716 211.281 113.993 211.777C113.27 212.273 113.27 213.761 113.27 213.761C113.27 213.761 114.234 214.009 117.126 215.497C119.786 216.866 122.24 222.422 122.616 223.309Z" stroke="#263238" stroke-miterlimit="10"/><path d="M113.27 213.776C113.27 213.776 114.234 214.024 117.126 215.512C120.018 217 122.669 223.448 122.669 223.448H127.339C127.633 222.545 128.351 219.262 125.079 215.264C121.223 210.552 116.885 210.8 116.885 210.8C116.885 210.8 114.716 211.296 113.993 211.792C113.27 212.288 113.27 213.776 113.27 213.776Z" fill="#263238" stroke="#263238" stroke-miterlimit="10"/><path d="M153.498 147.699C152.462 150.521 150.009 156.905 147.975 159.945C145.324 163.913 140.504 167.137 142.191 168.625C143.878 170.113 148.698 165.401 148.698 165.401C148.698 165.401 149.903 168.873 150.144 169.865C150.157 169.91 150.178 169.952 150.206 169.989C151.946 163.964 154.039 158.052 156.472 152.287C156.472 152.287 157.61 149.529 156.405 148.289C155.783 147.644 154.723 147.476 153.498 147.699Z" fill="#263238" stroke="#263238" stroke-miterlimit="10"/><path d="M135.896 171.641C136.034 170.724 136.124 169.8 136.165 168.874" stroke="#263238" stroke-miterlimit="10"/><path d="M132.068 223.929C132.068 223.929 132.791 208.057 132.791 198.881C132.791 192.269 134.541 181.149 135.524 174.339" stroke="#263238" stroke-miterlimit="10"/><path d="M133.273 195.424C133.273 195.424 137.129 196.664 139.057 196.912L144.841 197.656L144.402 203.276C144.402 203.276 144.118 203.112 139.78 201.624C135.442 200.136 132.791 198.896 132.791 198.896" stroke="#263238" stroke-miterlimit="10"/><path d="M144.403 203.261C144.403 203.261 144.118 214.272 144.118 215.76C144.118 217.248 139.78 216.256 139.78 216.256" stroke="#263238" stroke-miterlimit="10"/><path d="M147.864 142.461C147.864 142.461 152.409 149.187 156.477 152.287C160.545 155.387 164.016 151.047 166.729 146.395C169.443 141.742 171.25 138.33 172.605 134.297C173.959 130.265 172.605 123.598 167.182 118.326C161.76 113.053 149.093 105.296 145.931 109.328C142.769 113.361 139.752 122.224 141.858 129.798C143.116 134.352 145.15 138.639 147.864 142.461V142.461Z" fill="#9E9E9E" stroke="#263238" stroke-miterlimit="10"/><path d="M145.95 127.993C147.665 127.464 149.494 127.464 151.209 127.993" stroke="#263238" stroke-width="2" stroke-miterlimit="10" stroke-linecap="round"/><path d="M149.839 132.144C149.983 132.948 149.8 133.657 149.429 133.727C149.058 133.796 148.648 133.201 148.504 132.392C148.359 131.584 148.542 130.88 148.913 130.81C149.284 130.741 149.694 131.336 149.839 132.144Z" fill="#263238"/><path d="M163.248 132.358C163.388 133.161 163.204 133.846 162.838 133.94C162.472 134.034 162.057 133.414 161.913 132.606C161.768 131.797 161.951 131.093 162.322 131.024C162.694 130.954 163.103 131.549 163.248 132.358Z" fill="#263238"/><path d="M153.315 143.295C155.057 143.912 156.899 144.175 158.738 144.068C161.905 143.915 164.618 141.588 164.618 141.588" stroke="#263238" stroke-miterlimit="10"/><path d="M146.397 112.756C146.397 112.756 153.092 128.469 153.931 128.901C154.77 129.332 156.442 124.164 156.442 124.164C156.442 124.164 158.741 128.464 161.469 129.759C164.198 131.053 165.027 128.901 165.027 128.901C166.393 129.693 167.721 130.555 169.003 131.485L170.049 132.343L171.095 136.217C171.095 136.217 167.957 146.767 169.003 148.061C170.049 149.356 175.905 147.63 175.905 147.63C175.905 147.63 174.459 149.782 176.325 149.782C178.19 149.782 181.554 150.214 186.365 143.538C191.175 136.861 191.594 126.103 191.594 126.103C191.594 126.103 193.894 128.682 194.106 125.453C194.318 122.224 191.387 116.843 191.387 116.843C191.387 116.843 195.985 121.58 195.571 116.63C195.156 111.68 192.433 106.08 191.387 104.79C190.341 103.5 184.061 99.8301 184.061 99.8301C184.061 99.8301 186.572 99.3986 184.692 96.3829C182.812 93.3672 175.905 92.5091 173.394 92.5091C170.883 92.5091 165.653 93.3722 165.653 93.3722C165.653 93.3722 169.003 86.696 165.446 86.2645C161.889 85.833 155.613 92.9407 155.613 92.9407C155.613 92.9407 149.347 87.7723 147.453 88.8487C145.559 89.925 146.826 91.4328 146.826 91.4328C146.826 91.4328 138.671 92.0776 136.367 95.7381C134.063 99.3986 136.786 101.551 136.786 101.551C136.786 101.551 122.143 111.883 124.442 115.757C126.741 119.63 130.93 115.975 130.93 115.975C130.93 115.975 125.069 131.475 125.907 132.551C126.746 133.628 130.727 132.12 130.727 132.12C130.727 132.12 130.52 144.604 133.658 145.899C136.796 147.193 137.422 144.822 137.422 144.822C137.422 144.822 139.095 146.543 142.864 146.757C146.633 146.97 147.882 142.451 147.882 142.451C147.882 142.451 143.698 132.333 143.91 123.941C144.122 115.548 146.397 112.756 146.397 112.756Z" fill="#263238" stroke="#263238" stroke-miterlimit="10"/><path d="M154.823 130.885C154.823 130.885 153.315 138.95 154.519 140.656C155.724 142.362 159.947 140.656 160.246 139.728" fill="#9E9E9E"/><path d="M154.823 130.885C154.823 130.885 153.315 138.95 154.519 140.656C155.724 142.362 159.947 140.656 160.246 139.728" stroke="#263238" stroke-miterlimit="10"/><path d="M148.566 135.85C151.854 135.85 154.519 133.835 154.519 131.351C154.519 128.866 151.854 126.852 148.566 126.852C145.278 126.852 142.613 128.866 142.613 131.351C142.613 133.835 145.278 135.85 148.566 135.85Z" stroke="#263238" stroke-miterlimit="10"/><path d="M162.881 135.542C166.169 135.542 168.834 133.528 168.834 131.043C168.834 128.559 166.169 126.544 162.881 126.544C159.594 126.544 156.929 128.559 156.929 131.043C156.929 133.528 159.594 135.542 162.881 135.542Z" stroke="#263238" stroke-miterlimit="10"/><path d="M154.823 130.885C154.823 130.885 156.028 129.957 156.93 131.043" stroke="#263238" stroke-miterlimit="10"/><path d="M105.225 216.707C105.225 216.707 112.792 214.51 115.12 214.113C117.448 213.716 122.109 218.106 122.885 220.502C123.661 222.897 122.668 223.433 122.668 223.433L107.162 222.902L105.225 216.707Z" fill="#9E9E9E" stroke="#263238" stroke-miterlimit="10"/><path d="M107.968 215.934C107.968 215.934 113.68 218.136 115.106 219.019C116.533 219.902 116.104 221.663 115.251 222.54C114.222 223.426 112.994 224.033 111.679 224.306C110.349 224.384 109.014 224.384 107.684 224.306C105.973 224.157 104.401 224.455 102.974 224.455C101.548 224.455 97.2628 224.014 97.2628 224.014L95.9758 223.131C95.9758 223.131 93.5659 223.865 91.6957 224.619C89.8255 225.373 90.4088 223.736 91.8355 222.56C93.2622 221.385 96.8338 218.448 97.4074 218.156C97.981 217.863 105.259 215.676 105.259 215.676L107.968 215.934Z" fill="#9E9E9E" stroke="#263238" stroke-miterlimit="10"/><path d="M110.107 216.519C110.107 216.519 106.391 214.758 105.393 214.758C104.396 214.758 97.2571 217.238 96.2594 217.987C95.2616 218.736 94.2591 225.774 94.9724 226.216C95.6858 226.657 96.2594 225.333 96.4184 224.455C96.5775 223.577 98.5633 218.87 98.5633 218.87L97.1173 226.365C97.1173 226.365 97.6909 227.535 98.2597 226.509C98.8284 225.482 102.4 218.429 102.684 217.987C103.059 217.578 103.493 217.231 103.971 216.961C103.971 216.961 103.258 220.194 102.684 223.28C102.111 226.365 102.545 227.248 103.403 227.391C104.261 227.535 104.685 225.482 105.114 224.455C105.543 223.428 107.398 217.546 107.398 217.546" fill="#9E9E9E"/><path d="M110.107 216.519C110.107 216.519 106.391 214.758 105.393 214.758C104.396 214.758 97.2571 217.238 96.2594 217.987C95.2616 218.736 94.2591 225.774 94.9724 226.216C95.6858 226.657 96.2594 225.333 96.4184 224.455C96.5775 223.577 98.5633 218.87 98.5633 218.87L97.1173 226.365C97.1173 226.365 97.6909 227.535 98.2597 226.509C98.8284 225.482 102.4 218.429 102.684 217.987C103.059 217.578 103.493 217.231 103.971 216.961C103.971 216.961 103.258 220.194 102.684 223.28C102.111 226.365 102.545 227.248 103.403 227.391C104.261 227.535 104.685 225.482 105.114 224.455C105.543 223.428 107.398 217.546 107.398 217.546" stroke="#263238" stroke-miterlimit="10"/><path d="M114.234 219.46C114.234 219.46 109.954 224.013 109.38 225.04C108.807 226.067 108.812 226.216 110.383 226.216C111.954 226.216 116.808 222.982 117.232 222.54C117.656 222.099 117.521 220.779 116.519 219.896C116.2 219.641 115.826 219.468 115.428 219.392C115.031 219.316 114.621 219.34 114.234 219.46V219.46Z" fill="#9E9E9E" stroke="#263238" stroke-miterlimit="10"/><path d="M140.965 218.954C140.965 218.954 135.254 220.854 133.851 221.93C132.449 223.006 130.424 224.192 130.863 224.554C131.301 224.916 132.709 224.554 133.147 224.192C133.586 223.83 135.606 223.468 135.606 223.468C135.606 223.468 137.977 222.019 139.823 220.849C141.669 219.678 143.072 218.409 140.965 218.954Z" fill="#9E9E9E" stroke="#263238" stroke-miterlimit="10"/><path d="M172.494 209.004C172.494 209.004 156.588 211.98 150.833 214.059C145.078 216.137 142.788 217.585 139.911 219.678C137.033 221.771 131.201 225.725 132.069 226.419C132.936 227.113 135.958 224.678 136.469 224.157C136.98 223.636 140.696 222.069 140.696 222.069L143.183 220.76C143.183 220.76 139.438 225.506 138.089 226.712C136.739 227.917 137.65 228.671 138.667 228.324C139.684 227.976 141.602 225.898 141.602 225.898L147.787 221.712C147.787 221.712 145.246 225.372 144.061 226.414C142.875 227.456 145.415 228.334 145.926 227.461C146.437 226.588 148.972 224.326 148.972 224.326C148.972 224.326 153.199 222.064 154.216 221.191C155.233 220.318 157.769 217.883 157.769 217.883L176.721 219.45C176.721 219.45 177.907 218.756 177.232 214.748C176.557 210.74 172.494 209.004 172.494 209.004Z" fill="#9E9E9E" stroke="#263238" stroke-miterlimit="10"/><path d="M185.353 178.183L194.66 201.872L179.598 207.269L183.83 219.981C183.83 219.981 194.646 220.011 203.11 219.485C211.574 218.959 217.512 213.707 216.157 207.442C214.803 201.178 209.728 192.116 205.664 181.318C201.601 170.52 202.859 164.082 200.998 160.773C199.138 157.465 193.889 156.592 193.889 156.592L190.997 156.096" fill="white"/><path opacity="0.2" d="M214.731 214.029V211.549H215.989C216.042 211.386 216.086 211.222 216.124 211.053H214.731V204.848H215.454C215.401 204.69 215.344 204.521 215.291 204.352H214.731V202.84C214.577 202.428 214.418 202.006 214.249 201.585V204.352H209.188V198.152H212.823C212.75 197.989 212.683 197.825 212.611 197.656H209.188V191.456H209.863C209.786 191.293 209.714 191.129 209.641 190.96H209.188V189.924C209.029 189.557 208.865 189.19 208.706 188.818V190.96H203.645V184.76H207.019C206.952 184.597 206.884 184.433 206.822 184.264H203.645V178.064H204.547C204.494 177.901 204.445 177.732 204.397 177.568H203.645V174.741C203.462 173.957 203.303 173.209 203.163 172.489V177.568H198.102V171.368H202.961L202.874 170.872H198.102V164.672H202.06L201.987 164.176H198.102V158.095C197.68 157.862 197.245 157.652 196.801 157.465H192.559V156.354L192.077 156.265V157.465H190.655L190.525 157.961H192.077V164.176H188.944L188.819 164.672H192.082V170.872H187.228L187.098 171.368H192.077V177.568H187.016V171.686L186.534 173.566V177.534H185.513L185.387 178.03H186.534V181.169L187.016 182.394V178.064H192.077V184.264H187.739L187.932 184.76H192.077V190.96H190.39L190.588 191.456H192.101V195.31L192.583 196.535V191.456H197.62V197.656H192.998L193.196 198.152H197.62V204.352H192.559V202.636L192.077 202.81V204.352H187.768L186.38 204.848H186.534V211.048H181.473V206.584L180.991 206.758V211.024H180.852L181.473 212.888V211.52H186.534V219.952H187.016V211.52H192.077V219.887H192.559V211.529H197.62V219.728H198.102V211.529H203.163V219.465L203.645 219.426V211.529H208.706V218.335L209.188 218.146V211.529H214.249V214.644C214.418 214.441 214.582 214.238 214.731 214.029ZM192.077 211.053H187.016V204.848H192.077V211.053ZM197.62 211.053H192.559V204.848H197.62V211.053ZM197.62 190.965H192.559V184.765H197.62V190.965ZM197.62 184.269H192.559V178.064H197.62V184.269ZM197.62 177.573H192.559V171.373H197.62V177.573ZM197.62 170.877H192.559V164.672H197.62V170.877ZM197.62 164.181H192.559V157.981H197.62V164.181ZM203.163 211.053H198.102V204.848H203.163V211.053ZM203.163 204.357H198.102V198.157H203.163V204.357ZM203.163 197.661H198.102V191.456H203.163V197.661ZM203.163 190.965H198.102V184.765H203.163V190.965ZM203.163 184.269H198.102V178.064H203.163V184.269ZM208.706 211.053H203.645V204.848H208.706V211.053ZM208.706 204.357H203.645V198.157H208.706V204.357ZM208.706 197.661H203.645V191.456H208.706V197.661ZM209.188 211.053V204.848H214.249V211.048L209.188 211.053Z" fill="#263238"/><path d="M185.353 178.183L194.66 201.872L179.598 207.269L183.83 219.981C183.83 219.981 194.646 220.011 203.11 219.485C211.574 218.959 217.512 213.707 216.157 207.442C214.803 201.178 209.728 192.116 205.664 181.318C201.601 170.52 202.859 164.082 200.998 160.773C199.138 157.465 193.889 156.592 193.889 156.592L190.997 156.096" stroke="#263238" stroke-miterlimit="10"/><path d="M203.722 199.462C200.651 200.047 197.623 200.85 194.66 201.867C194.66 201.867 201.09 197.512 204.642 197.165" stroke="#263238" stroke-miterlimit="10"/><path d="M208.031 199.253C207.364 199.155 206.689 199.132 206.017 199.184" stroke="#263238" stroke-miterlimit="10"/><path d="M183.999 205.344C183.999 205.344 187.421 208.712 188.433 211.321C189.445 213.93 189.074 221.018 188.399 221.712C187.724 222.406 175.13 222.322 173.057 219.658C172.517 218.964 176.214 217.362 174.354 213.528C172.493 209.694 171.645 209.352 171.645 209.352C171.645 209.352 170.122 208.479 172.999 206.564C175.877 204.65 182.475 203.261 183.999 205.344Z" fill="#263238" stroke="#263238" stroke-miterlimit="10"/><path d="M214.003 232.197H201.51L199.948 206.782H215.565L214.003 232.197Z" fill="#263238" stroke="#263238" stroke-linejoin="round"/><path d="M216.259 206.822H199.259V210.522H216.259V206.822Z" fill="white" stroke="#263238" stroke-linejoin="round"/><path d="M216.259 206.961H199.259L200.955 204.769H214.557L216.259 206.961Z" fill="white" stroke="#263238" stroke-linejoin="round"/><path d="M214.461 224.742L215.083 214.619H200.43L201.051 224.742H214.461Z" fill="white" stroke="#263238" stroke-linejoin="round"/><path d="M142.006 233.889L157.401 229.703V231.845L142.006 236.285V233.889Z" fill="#263238" stroke="#263238" stroke-linejoin="round"/><path d="M157.402 229.703H76.9125L61.3535 233.889H142.007L157.402 229.703Z" fill="white" stroke="#263238" stroke-linejoin="round"/><path d="M142.007 186.025H61.3535V236.285H142.007V186.025Z" fill="white" stroke="#263238" stroke-linejoin="round"/><path d="M142.007 193.296C124.462 194.154 114.012 210.795 98.487 221.945C84.3355 232.113 66.8582 233.849 61.373 234.122V236.285H142.007V193.296Z" fill="#263238" stroke="#263238" stroke-linejoin="round"/><path d="M142.007 233.889H61.3535V236.284H142.007V233.889Z" fill="white" stroke="#263238" stroke-miterlimit="10"/><path d="M37.4761 217.307C37.4761 217.307 30.757 206.247 36.1506 200.022C41.5442 193.797 50.2588 196.793 52.0566 202.556C53.8545 208.32 50.0419 218.002 50.0419 218.002L37.4761 217.307Z" fill="white" stroke="#263238" stroke-linecap="round" stroke-linejoin="round"/><path d="M37.6975 204.63C36.5793 204.63 32.3232 203.018 30.9784 200.944C29.6336 198.871 29.4023 194.258 33.2197 194.258C37.0372 194.258 38.3723 201.173 38.3723 201.173L38.594 203.707" fill="white"/><path d="M37.6975 204.63C36.5793 204.63 32.3232 203.018 30.9784 200.944C29.6336 198.871 29.4023 194.258 33.2197 194.258C37.0372 194.258 38.3723 201.173 38.3723 201.173L38.594 203.707" stroke="#263238" stroke-linecap="round" stroke-linejoin="round"/><path d="M41.1444 200.324C40.1419 199.828 37.033 196.416 36.7293 193.941C36.4257 191.466 38.2283 187.24 41.6361 188.981C45.0438 190.722 43.246 197.537 43.246 197.537L42.3446 199.908" fill="white"/><path d="M41.1444 200.324C40.1419 199.828 37.033 196.416 36.7293 193.941C36.4257 191.466 38.2283 187.24 41.6361 188.981C45.0438 190.722 43.246 197.537 43.246 197.537L42.3446 199.908" stroke="#263238" stroke-linecap="round" stroke-linejoin="round"/><path d="M45.2118 201.485C44.6526 200.493 43.9007 195.885 44.9804 193.653C46.0601 191.421 49.8389 188.931 51.7284 192.334C53.6178 195.736 48.4556 200.369 48.4556 200.369L46.4264 201.827" fill="white"/><path d="M45.2118 201.485C44.6526 200.493 43.9007 195.885 44.9804 193.653C46.0601 191.421 49.8389 188.931 51.7284 192.334C53.6178 195.736 48.4556 200.369 48.4556 200.369L46.4264 201.827" stroke="#263238" stroke-linecap="round" stroke-linejoin="round"/><path d="M46.5462 209.749C46.363 208.608 47.2017 204.025 48.9562 202.309C50.7107 200.592 55.1017 199.605 55.7331 203.469C56.3645 207.333 49.9491 209.848 49.9491 209.848L47.5391 210.493" fill="white"/><path d="M46.5462 209.749C46.363 208.608 47.2017 204.025 48.9562 202.309C50.7107 200.592 55.1017 199.605 55.7331 203.469C56.3645 207.333 49.9491 209.848 49.9491 209.848L47.5391 210.493" stroke="#263238" stroke-linecap="round" stroke-linejoin="round"/><path d="M31.4707 198.162L32.2274 199.387" stroke="white" stroke-linecap="round" stroke-linejoin="round"/><path d="M33.6338 201.167L34.8195 202.164" stroke="white" stroke-linecap="round" stroke-linejoin="round"/><path d="M32.3379 195.826L33.5236 197.606" stroke="white" stroke-linecap="round" stroke-linejoin="round"/><path d="M35.1475 199.055L36.444 201.5" stroke="white" stroke-linecap="round" stroke-linejoin="round"/><path d="M38.1699 193.157L38.6037 194.491" stroke="white" stroke-linecap="round" stroke-linejoin="round"/><path d="M39.6836 196.937L40.4403 198.053" stroke="white" stroke-linecap="round" stroke-linejoin="round"/><path d="M39.3604 190.489L40.334 192.711" stroke="white" stroke-linecap="round" stroke-linejoin="round"/><path d="M35.5771 206.172L35.9049 208.171" stroke="white" stroke-linecap="round" stroke-linejoin="round"/><path d="M36.5498 210.061L36.9836 211.733" stroke="white" stroke-linecap="round" stroke-linejoin="round"/><path d="M37.6299 206.282L38.0637 208.504" stroke="white" stroke-linecap="round" stroke-linejoin="round"/><path d="M39.0371 210.061L39.36 211.733" stroke="white" stroke-linecap="round" stroke-linejoin="round"/><path d="M39.7939 203.39L40.4398 206.505" stroke="white" stroke-linecap="round" stroke-linejoin="round"/><path d="M41.3066 209.505L41.4127 210.954" stroke="white" stroke-linecap="round" stroke-linejoin="round"/><path d="M42.4932 202.388L43.033 205.279" stroke="white" stroke-linecap="round" stroke-linejoin="round"/><path d="M43.0332 208.285L43.2501 211.286" stroke="white" stroke-linecap="round" stroke-linejoin="round"/><path d="M45.6309 203.499V205.949" stroke="white" stroke-linecap="round" stroke-linejoin="round"/><path d="M45.3037 209.064L45.4146 210.954" stroke="white" stroke-linecap="round" stroke-linejoin="round"/><path d="M48.3309 191.932L47.791 193.271" stroke="white" stroke-linecap="round" stroke-linejoin="round"/><path d="M47.573 194.824L47.0332 196.718" stroke="white" stroke-linecap="round" stroke-linejoin="round"/><path d="M50.7065 194.492L49.8438 196.272" stroke="white" stroke-linecap="round" stroke-linejoin="round"/><path d="M48.0069 198.276L47.0332 199.387" stroke="white" stroke-linecap="round" stroke-linejoin="round"/><path d="M45.9538 194.382L45.6309 195.826" stroke="white" stroke-linecap="round" stroke-linejoin="round"/><path d="M50.7062 202.388L49.5205 204.392" stroke="white" stroke-linecap="round" stroke-linejoin="round"/><path d="M48.764 205.612L48.1133 207.392" stroke="white" stroke-linecap="round" stroke-linejoin="round"/><path d="M49.7383 208.285L51.6807 207.169" stroke="white" stroke-linecap="round" stroke-linejoin="round"/><path d="M52.8701 202.388L51.8965 204.059" stroke="white" stroke-linecap="round" stroke-linejoin="round"/><path d="M53.8444 204.278L52.5479 205.28" stroke="white" stroke-linecap="round" stroke-linejoin="round"/><path d="M52.4461 213.449H34.0723V232.356H52.4461V213.449Z" fill="#263238" stroke="#263238" stroke-linecap="round" stroke-linejoin="round"/></svg>