<svg width="185" height="140" fill="none" xmlns="http://www.w3.org/2000/svg"><path d="M162.181 46.8579H129.133V103.592H162.181V46.8579Z" stroke="#263238" stroke-width="0.75" stroke-linecap="round" stroke-linejoin="round"/><path d="M159.281 49.0531H132.034V101.396H159.281V49.0531Z" stroke="#263238" stroke-width="0.75" stroke-linecap="round" stroke-linejoin="round"/><path d="M135.131 72.1643L134.388 73.1415" stroke="#263238" stroke-width="0.75" stroke-linecap="round" stroke-linejoin="round"/><path d="M142.953 61.9163L135.989 71.0443" stroke="#263238" stroke-width="0.75" stroke-linecap="round" stroke-linejoin="round"/><path d="M149.343 53.5387L144.066 60.4547" stroke="#263238" stroke-width="0.75" stroke-linecap="round" stroke-linejoin="round"/><path d="M150.46 52.077L149.897 52.8106" stroke="#263238" stroke-width="0.75" stroke-linecap="round" stroke-linejoin="round"/><path d="M137.347 97.0422L136.714 97.871" stroke="#263238" stroke-width="0.75" stroke-linecap="round" stroke-linejoin="round"/><path d="M138.812 95.1215L138.143 96.0035" stroke="#263238" stroke-width="0.75" stroke-linecap="round" stroke-linejoin="round"/><path d="M147.748 83.4091L140.248 93.2427" stroke="#263238" stroke-width="0.75" stroke-linecap="round" stroke-linejoin="round"/><path d="M154.389 74.7039L148.518 82.4039" stroke="#263238" stroke-width="0.75" stroke-linecap="round" stroke-linejoin="round"/><path d="M155.844 72.7999L155.263 73.5615" stroke="#263238" stroke-width="0.75" stroke-linecap="round" stroke-linejoin="round"/><path d="M145.657 90.7787L140.248 97.8711" stroke="#263238" stroke-width="0.75" stroke-linecap="round" stroke-linejoin="round"/><path d="M152.576 81.7096L146.445 89.7456" stroke="#263238" stroke-width="0.75" stroke-linecap="round" stroke-linejoin="round"/><path d="M154.016 79.8252L153.291 80.7744" stroke="#263238" stroke-width="0.75" stroke-linecap="round" stroke-linejoin="round"/><path d="M134.388 79.5059L133.566 80.5839" stroke="#263238" stroke-width="0.75" stroke-linecap="round" stroke-linejoin="round"/><path d="M141.576 70.084L135.046 78.6436" stroke="#263238" stroke-width="0.75" stroke-linecap="round" stroke-linejoin="round"/><path d="M150.549 58.3239L142.346 69.073" stroke="#263238" stroke-width="0.75" stroke-linecap="round" stroke-linejoin="round"/><path d="M155.94 51.2567L151.182 57.4951" stroke="#263238" stroke-width="0.75" stroke-linecap="round" stroke-linejoin="round"/><path d="M55.8658 46.8579H22.8174V103.592H55.8658V46.8579Z" stroke="#263238" stroke-width="0.75" stroke-linecap="round" stroke-linejoin="round"/><path d="M52.9646 49.0531H25.7178V101.396H52.9646V49.0531Z" stroke="#263238" stroke-width="0.75" stroke-linecap="round" stroke-linejoin="round"/><path d="M28.816 72.1643L28.0723 73.1415" stroke="#263238" stroke-width="0.75" stroke-linecap="round" stroke-linejoin="round"/><path d="M36.6333 61.9163L29.6699 71.0443" stroke="#263238" stroke-width="0.75" stroke-linecap="round" stroke-linejoin="round"/><path d="M43.0272 53.5387L37.751 60.4547" stroke="#263238" stroke-width="0.75" stroke-linecap="round" stroke-linejoin="round"/><path d="M44.1407 52.0771L43.582 52.8107" stroke="#263238" stroke-width="0.75" stroke-linecap="round" stroke-linejoin="round"/><path d="M31.0311 97.0424L30.3984 97.8712" stroke="#263238" stroke-width="0.75" stroke-linecap="round" stroke-linejoin="round"/><path d="M32.4957 95.1216L31.8223 96.0036" stroke="#263238" stroke-width="0.75" stroke-linecap="round" stroke-linejoin="round"/><path d="M41.4323 83.4091L33.9287 93.2427" stroke="#263238" stroke-width="0.75" stroke-linecap="round" stroke-linejoin="round"/><path d="M48.0738 74.7039L42.1982 82.4039" stroke="#263238" stroke-width="0.75" stroke-linecap="round" stroke-linejoin="round"/><path d="M49.527 72.7999L48.9424 73.5615" stroke="#263238" stroke-width="0.75" stroke-linecap="round" stroke-linejoin="round"/><path d="M39.3418 90.7787L33.9287 97.8711" stroke="#263238" stroke-width="0.75" stroke-linecap="round" stroke-linejoin="round"/><path d="M46.2608 81.7096L40.1299 89.7456" stroke="#263238" stroke-width="0.75" stroke-linecap="round" stroke-linejoin="round"/><path d="M47.6961 79.8252L46.9746 80.7744" stroke="#263238" stroke-width="0.75" stroke-linecap="round" stroke-linejoin="round"/><path d="M28.0712 79.506L27.2461 80.584" stroke="#263238" stroke-width="0.75" stroke-linecap="round" stroke-linejoin="round"/><path d="M35.2571 70.084L28.7266 78.6436" stroke="#263238" stroke-width="0.75" stroke-linecap="round" stroke-linejoin="round"/><path d="M44.2295 58.324L36.0303 69.0732" stroke="#263238" stroke-width="0.75" stroke-linecap="round" stroke-linejoin="round"/><path d="M49.6195 51.2567L44.8613 57.4951" stroke="#263238" stroke-width="0.75" stroke-linecap="round" stroke-linejoin="round"/><path d="M10.915 127.24H174.085" stroke="#263238" stroke-linecap="round" stroke-linejoin="round"/><path d="M67.5952 105.059H64.7646V112.342H67.5952V105.059Z" fill="white"/><path opacity="0.2" d="M67.5952 105.059H64.7646V112.342H67.5952V105.059Z" fill="black"/><path d="M70.4291 105.86H67.5986V112.342H70.4291V105.86Z" fill="white"/><path d="M73.9628 105.86H71.9648V112.342H73.9628V105.86Z" fill="white"/><path opacity="0.9" d="M73.9628 105.86H71.9648V112.342H73.9628V105.86Z" fill="white"/><path d="M71.9683 105.176H70.1553V112.344H71.9683V105.176Z" fill="white"/><path opacity="0.1" d="M71.9683 105.176H70.1553V112.344H71.9683V105.176Z" fill="black"/><path d="M76.7973 105.059H73.9668V112.342H76.7973V105.059Z" fill="white"/><path d="M79.6274 105.86H76.7969V112.342H79.6274V105.86Z" fill="white"/><path opacity="0.2" d="M79.6274 105.86H76.7969V112.342H79.6274V105.86Z" fill="#263238"/><path d="M83.165 105.86H81.167V112.342H83.165V105.86Z" fill="white"/><path opacity="0.8" d="M83.165 105.86H81.167V112.342H83.165V105.86Z" fill="white"/><path d="M81.1665 105.176H79.3535V112.344H81.1665V105.176Z" fill="white"/><path opacity="0.1" d="M81.1665 105.176H79.3535V112.344H81.1665V105.176Z" fill="black"/><path d="M96.6695 112.344H99.5V105.062H96.6695V112.344Z" fill="white"/><path opacity="0.2" d="M96.6695 112.344H99.5V105.062H96.6695V112.344Z" fill="black"/><path d="M93.8355 112.344H96.666V105.862H93.8355V112.344Z" fill="white"/><path d="M90.3018 112.344H92.2998V105.862H90.3018V112.344Z" fill="white"/><path opacity="0.9" d="M90.3018 112.344H92.2998V105.862H90.3018V112.344Z" fill="white"/><path d="M92.2964 112.342H94.1094V105.174H92.2964V112.342Z" fill="white"/><path opacity="0.1" d="M92.2964 112.342H94.1094V105.174H92.2964V112.342Z" fill="black"/><path d="M87.4683 112.344H90.2988V105.062H87.4683V112.344Z" fill="white"/><path d="M84.6373 112.344H87.4678V105.862H84.6373V112.344Z" fill="white"/><path opacity="0.2" d="M84.6373 112.344H87.4678V105.862H84.6373V112.344Z" fill="#263238"/><path d="M83.0981 112.342H84.9111V105.174H83.0981V112.342Z" fill="white"/><path opacity="0.1" d="M83.0981 112.342H84.9111V105.174H83.0981V112.342Z" fill="black"/><path d="M112.987 112.344H115.817V105.062H112.987V112.344Z" fill="white"/><path opacity="0.2" d="M112.987 112.344H115.817V105.062H112.987V112.344Z" fill="black"/><path d="M110.153 112.344H112.983V105.862H110.153V112.344Z" fill="white"/><path d="M106.619 112.344H108.617V105.862H106.619V112.344Z" fill="white"/><path opacity="0.9" d="M106.619 112.344H108.617V105.862H106.619V112.344Z" fill="white"/><path d="M108.614 112.342H110.427V105.174H108.614V112.342Z" fill="white"/><path opacity="0.1" d="M108.614 112.342H110.427V105.174H108.614V112.342Z" fill="black"/><path d="M103.785 112.344H106.615V105.062H103.785V112.344Z" fill="white"/><path d="M117.659 112.087L119.519 111.71L117.016 104.646L115.157 105.023L117.659 112.087Z" fill="white"/><path d="M100.955 112.344H103.785V105.862H100.955V112.344Z" fill="white"/><path opacity="0.2" d="M100.955 112.344H103.785V105.862H100.955V112.344Z" fill="#263238"/><path d="M99.4155 112.342H101.229V105.174H99.4155V112.342Z" fill="white"/><path opacity="0.1" d="M99.4155 112.342H101.229V105.174H99.4155V112.342Z" fill="black"/><path d="M118.607 121.805L120.509 121.419L118.018 114.385L116.117 114.77L118.607 121.805Z" fill="white"/><path opacity="0.2" d="M118.607 121.805L120.509 121.419L118.018 114.385L116.117 114.77L118.607 121.805Z" fill="black"/><path d="M113.723 121.733H116.554V115.251H113.723V121.733Z" fill="white"/><path d="M110.182 121.733H112.18V115.251H110.182V121.733Z" fill="white"/><path opacity="0.9" d="M110.182 121.733H112.18V115.251H110.182V121.733Z" fill="white"/><path d="M112.18 121.736H113.993V114.568H112.18V121.736Z" fill="white"/><path opacity="0.1" d="M112.18 121.736H113.993V114.568H112.18V121.736Z" fill="black"/><path d="M107.355 121.736H110.186V114.453H107.355V121.736Z" fill="white"/><path d="M104.521 121.733H107.352V115.251H104.521V121.733Z" fill="white"/><path opacity="0.2" d="M104.521 121.733H107.352V115.251H104.521V121.733Z" fill="#263238"/><path d="M100.987 121.733H102.985V115.251H100.987V121.733Z" fill="white"/><path opacity="0.8" d="M100.987 121.733H102.985V115.251H100.987V121.733Z" fill="white"/><path d="M102.982 121.736H104.795V114.568H102.982V121.736Z" fill="white"/><path opacity="0.1" d="M102.982 121.736H104.795V114.568H102.982V121.736Z" fill="black"/><path d="M87.4828 114.453H84.6523V121.736H87.4828V114.453Z" fill="white"/><path opacity="0.2" d="M87.4828 114.453H84.6523V121.736H87.4828V114.453Z" fill="black"/><path d="M90.3139 115.254H87.4834V121.736H90.3139V115.254Z" fill="white"/><path d="M93.8505 115.254H91.8525V121.736H93.8505V115.254Z" fill="white"/><path opacity="0.9" d="M93.8505 115.254H91.8525V121.736H93.8505V115.254Z" fill="white"/><path d="M91.8521 114.568H90.0391V121.736H91.8521V114.568Z" fill="white"/><path opacity="0.1" d="M91.8521 114.568H90.0391V121.736H91.8521V114.568Z" fill="black"/><path d="M96.6801 114.453H93.8496V121.736H96.6801V114.453Z" fill="white"/><path d="M99.5112 115.254H96.6807V121.736H99.5112V115.254Z" fill="white"/><path opacity="0.2" d="M99.5112 115.254H96.6807V121.736H99.5112V115.254Z" fill="#263238"/><path d="M101.05 114.568H99.2373V121.736H101.05V114.568Z" fill="white"/><path opacity="0.1" d="M101.05 114.568H99.2373V121.736H101.05V114.568Z" fill="black"/><path d="M71.1655 114.453H68.335V121.736H71.1655V114.453Z" fill="white"/><path opacity="0.2" d="M71.1655 114.453H68.335V121.736H71.1655V114.453Z" fill="black"/><path d="M73.9965 115.254H71.166V121.736H73.9965V115.254Z" fill="white"/><path d="M77.5331 115.254H75.5352V121.736H77.5331V115.254Z" fill="white"/><path opacity="0.9" d="M77.5331 115.254H75.5352V121.736H77.5331V115.254Z" fill="white"/><path d="M75.5357 114.568H73.7227V121.736H75.5357V114.568Z" fill="white"/><path opacity="0.1" d="M75.5357 114.568H73.7227V121.736H75.5357V114.568Z" fill="black"/><path d="M80.3647 114.453H77.5342V121.736H80.3647V114.453Z" fill="white"/><path d="M68.3298 114.764L66.4785 114.389L63.9877 121.423L65.839 121.799L68.3298 114.764Z" fill="white"/><path d="M83.1947 115.254H80.3643V121.736H83.1947V115.254Z" fill="white"/><path opacity="0.2" d="M83.1947 115.254H80.3643V121.736H83.1947V115.254Z" fill="#263238"/><path d="M84.7339 114.568H82.9209V121.736H84.7339V114.568Z" fill="white"/><path opacity="0.1" d="M84.7339 114.568H82.9209V121.736H84.7339V114.568Z" fill="black"/><path d="M66.9407 127.24H64.1102L63.7217 123.096H67.3292L66.9407 127.24Z" fill="#263238"/><path d="M120.89 127.24H118.059L117.671 123.096H121.278L120.89 127.24Z" fill="#263238"/><path d="M124.009 102.309H60.9907C60.6306 102.309 60.2852 102.417 60.0305 102.61C59.7759 102.803 59.6328 103.064 59.6328 103.337V122.819C59.6328 123.092 59.7759 123.353 60.0305 123.546C60.2852 123.739 60.6306 123.847 60.9907 123.847H124.009C124.369 123.847 124.715 123.739 124.969 123.546C125.224 123.353 125.367 123.092 125.367 122.819V103.337C125.367 103.064 125.224 102.803 124.969 102.61C124.715 102.417 124.369 102.309 124.009 102.309V102.309ZM122.648 104.367V112.344H62.3375V104.367H122.648ZM62.3523 121.8V113.814H122.662V121.8H62.3523Z" fill="white" stroke="#263238" stroke-width="0.75" stroke-linecap="round" stroke-linejoin="round"/><path d="M114.693 61.3873H71.088C69.6862 61.3873 68.5498 62.2473 68.5498 63.3081V70.3921C68.5498 71.453 69.6862 72.3129 71.088 72.3129H114.693C116.094 72.3129 117.231 71.453 117.231 70.3921V63.3081C117.231 62.2473 116.094 61.3873 114.693 61.3873Z" fill="#263238" stroke="#263238" stroke-linecap="round" stroke-linejoin="round"/><path d="M113.916 60.7993H70.3116C68.9098 60.7993 67.7734 61.6593 67.7734 62.7201V69.8041C67.7734 70.8649 68.9098 71.7249 70.3116 71.7249H113.916C115.318 71.7249 116.454 70.8649 116.454 69.8041V62.7201C116.454 61.6593 115.318 60.7993 113.916 60.7993Z" fill="white" stroke="#263238" stroke-linecap="round" stroke-linejoin="round"/><path d="M113.916 60.7993H70.3116C68.9098 60.7993 67.7734 61.6593 67.7734 62.7201V69.8041C67.7734 70.8649 68.9098 71.7249 70.3116 71.7249H113.916C115.318 71.7249 116.454 70.8649 116.454 69.8041V62.7201C116.454 61.6593 115.318 60.7993 113.916 60.7993Z" stroke="#263238" stroke-linecap="round" stroke-linejoin="round"/><path d="M78.5518 69.4877H72.1396V63.3501H76.4132L78.5518 64.9685V69.4877Z" fill="white"/><path opacity="0.5" d="M78.5518 69.4877H72.1396V63.3501H76.4132L78.5518 64.9685V69.4877Z" fill="white"/><path d="M78.5518 69.4877H72.1396V63.3501H76.4132L78.5518 64.9685V69.4877Z" stroke="#263238" stroke-linecap="round" stroke-linejoin="round"/><path d="M76.4131 64.9685H78.5517L76.4131 63.3501V64.9685Z" fill="white" stroke="#263238" stroke-linecap="round" stroke-linejoin="round"/><path d="M73.5636 66.6065C73.4628 66.5992 73.3692 66.5637 73.3011 66.507C73.233 66.4504 73.1953 66.3765 73.1953 66.2999C73.1953 66.2233 73.233 66.1494 73.3011 66.0927C73.3692 66.036 73.4628 66.0006 73.5636 65.9933H77.1266C77.2274 66.0006 77.321 66.036 77.3891 66.0927C77.4572 66.1494 77.4949 66.2233 77.4949 66.2999C77.4949 66.3765 77.4572 66.4504 77.3891 66.507C77.321 66.5637 77.2274 66.5992 77.1266 66.6065H73.5636Z" fill="#858585" stroke="#263238" stroke-width="0.75" stroke-linecap="round" stroke-linejoin="round"/><path d="M73.5636 67.8974C73.4628 67.8901 73.3692 67.8546 73.3011 67.7979C73.233 67.7413 73.1953 67.6674 73.1953 67.5908C73.1953 67.5142 73.233 67.4403 73.3011 67.3836C73.3692 67.3269 73.4628 67.2915 73.5636 67.2842H76.3497C76.4504 67.2915 76.544 67.3269 76.6121 67.3836C76.6802 67.4403 76.7179 67.5142 76.7179 67.5908C76.7179 67.6674 76.6802 67.7413 76.6121 67.7979C76.544 67.8546 76.4504 67.8901 76.3497 67.8974H73.5636Z" fill="#858585" stroke="#263238" stroke-width="0.75" stroke-linecap="round" stroke-linejoin="round"/><path d="M94.7606 66.9594H82.8281C82.6155 66.97 82.4162 67.0415 82.2706 67.1593C82.125 67.277 82.0439 67.4323 82.0439 67.5936C82.0439 67.7548 82.125 67.9101 82.2706 68.0278C82.4162 68.1456 82.6155 68.2171 82.8281 68.2278H94.7606V66.9594Z" fill="white"/><path d="M82.8281 68.2277C82.6155 68.217 82.4162 68.1455 82.2706 68.0278C82.125 67.91 82.0439 67.7548 82.0439 67.5935C82.0439 67.4322 82.125 67.277 82.2706 67.1592C82.4162 67.0415 82.6155 66.97 82.8281 66.9593H111.244C111.359 66.9535 111.474 66.9656 111.582 66.9949C111.691 67.0242 111.79 67.0699 111.874 67.1294C111.958 67.1888 112.025 67.2607 112.07 67.3405C112.116 67.4204 112.14 67.5065 112.14 67.5935C112.14 67.6805 112.116 67.7666 112.07 67.8464C112.025 67.9263 111.958 67.9981 111.874 68.0576C111.79 68.117 111.691 68.1628 111.582 68.1921C111.474 68.2213 111.359 68.2335 111.244 68.2277H82.8281Z" stroke="#263238" stroke-linecap="round" stroke-linejoin="round"/><path d="M95.0309 65.2401H94.1318V64.9181L94.9865 63.3865H95.5008V64.9181H95.7228V65.2401H95.5008V65.6517H95.0309V65.2401ZM95.0309 64.9181V64.0361L94.5684 64.9209L95.0309 64.9181Z" fill="#263238"/><path d="M95.9414 65.1169V64.9405H96.3854V65.1421C96.3854 65.3045 96.4779 65.3633 96.6296 65.3633C96.7813 65.3633 96.8738 65.3045 96.8738 65.1421V64.6353C96.8738 64.4729 96.7776 64.4113 96.6296 64.4113C96.4816 64.4113 96.3854 64.4729 96.3854 64.6353V64.6549H95.9414L96.0265 63.3893H97.266V63.7141H96.4446L96.4076 64.2545C96.4489 64.2013 96.5087 64.1578 96.5805 64.1287C96.6523 64.0995 96.7333 64.0859 96.8146 64.0893C97.1587 64.0893 97.3363 64.2741 97.3363 64.6073V65.1169C97.3363 65.4809 97.0958 65.6769 96.6333 65.6769C96.1708 65.6769 95.9414 65.4809 95.9414 65.1169Z" fill="#263238"/><path d="M97.6356 64.2853V63.7253C97.6299 63.6776 97.6374 63.6296 97.6576 63.5843C97.6778 63.5389 97.7103 63.4973 97.7529 63.462C97.7955 63.4266 97.8474 63.3984 97.9053 63.3791C97.9631 63.3598 98.0257 63.3499 98.0889 63.3499C98.1521 63.3499 98.2146 63.3598 98.2725 63.3791C98.3303 63.3984 98.3822 63.4266 98.4249 63.462C98.4675 63.4973 98.5 63.5389 98.5202 63.5843C98.5403 63.6296 98.5478 63.6776 98.5421 63.7253V64.2853C98.5478 64.3329 98.5403 64.3809 98.5202 64.4263C98.5 64.4716 98.4675 64.5133 98.4249 64.5486C98.3822 64.5839 98.3303 64.6121 98.2725 64.6314C98.2146 64.6507 98.1521 64.6607 98.0889 64.6607C98.0257 64.6607 97.9631 64.6507 97.9053 64.6314C97.8474 64.6121 97.7955 64.5839 97.7529 64.5486C97.7103 64.5133 97.6778 64.4716 97.6576 64.4263C97.6374 64.3809 97.6299 64.3329 97.6356 64.2853V64.2853ZM98.2424 64.3021V63.7029C98.2424 63.6049 98.1832 63.5629 98.0907 63.5629C97.9982 63.5629 97.9353 63.6049 97.9353 63.7029V64.3021C97.9353 64.4029 97.9908 64.4449 98.0907 64.4449C98.1906 64.4449 98.2424 64.4001 98.2424 64.3021ZM99.1748 63.3893H99.4745L98.3164 65.6545H98.0167L99.1748 63.3893ZM98.9491 65.3241V64.7641C98.9434 64.7164 98.9509 64.6684 98.9711 64.6231C98.9913 64.5777 99.0237 64.5361 99.0664 64.5008C99.109 64.4654 99.1609 64.4372 99.2188 64.4179C99.2766 64.3986 99.3392 64.3887 99.4024 64.3887C99.4656 64.3887 99.5281 64.3986 99.586 64.4179C99.6438 64.4372 99.6957 64.4654 99.7384 64.5008C99.781 64.5361 99.8134 64.5777 99.8336 64.6231C99.8538 64.6684 99.8613 64.7164 99.8556 64.7641V65.3241C99.8613 65.3717 99.8538 65.4197 99.8336 65.4651C99.8134 65.5104 99.781 65.5521 99.7384 65.5874C99.6957 65.6227 99.6438 65.6509 99.586 65.6702C99.5281 65.6895 99.4656 65.6995 99.4024 65.6995C99.3392 65.6995 99.2766 65.6895 99.2188 65.6702C99.1609 65.6509 99.109 65.6227 99.0664 65.5874C99.0237 65.5521 98.9913 65.5104 98.9711 65.4651C98.9509 65.4197 98.9434 65.3717 98.9491 65.3241ZM99.5559 65.3409V64.7417C99.5559 64.6409 99.4967 64.5989 99.4005 64.5989C99.3043 64.5989 99.2488 64.6409 99.2488 64.7417V65.3409C99.2488 65.4417 99.3043 65.4837 99.4005 65.4837C99.4967 65.4837 99.5559 65.4417 99.5559 65.3409V65.3409Z" fill="#263238"/><path d="M114.693 74.0657H71.088C69.6862 74.0657 68.5498 74.9256 68.5498 75.9865V83.0705C68.5498 84.1313 69.6862 84.9913 71.088 84.9913H114.693C116.094 84.9913 117.231 84.1313 117.231 83.0705V75.9865C117.231 74.9256 116.094 74.0657 114.693 74.0657Z" fill="#263238" stroke="#263238" stroke-linecap="round" stroke-linejoin="round"/><path d="M113.916 73.4777H70.3116C68.9098 73.4777 67.7734 74.3376 67.7734 75.3985V82.4825C67.7734 83.5433 68.9098 84.4033 70.3116 84.4033H113.916C115.318 84.4033 116.454 83.5433 116.454 82.4825V75.3985C116.454 74.3376 115.318 73.4777 113.916 73.4777Z" fill="white" stroke="#263238" stroke-linecap="round" stroke-linejoin="round"/><path d="M104.173 79.5593H82.8281C82.6155 79.57 82.4162 79.6415 82.2706 79.7593C82.125 79.877 82.0439 80.0322 82.0439 80.1935C82.0439 80.3548 82.125 80.51 82.2706 80.6278C82.4162 80.7456 82.6155 80.817 82.8281 80.8277H104.173V79.5593Z" fill="white"/><path d="M82.8281 80.8277C82.6155 80.817 82.4162 80.7455 82.2706 80.6277C82.125 80.51 82.0439 80.3547 82.0439 80.1935C82.0439 80.0322 82.125 79.8769 82.2706 79.7592C82.4162 79.6414 82.6155 79.57 82.8281 79.5593H111.244C111.359 79.5535 111.474 79.5656 111.582 79.5949C111.691 79.6241 111.79 79.6699 111.874 79.7294C111.958 79.7888 112.025 79.8607 112.07 79.9405C112.116 80.0203 112.14 80.1064 112.14 80.1935C112.14 80.2805 112.116 80.3666 112.07 80.4464C112.025 80.5262 111.958 80.5981 111.874 80.6576C111.79 80.717 111.691 80.7628 111.582 80.7921C111.474 80.8213 111.359 80.8334 111.244 80.8277H82.8281Z" stroke="#263238" stroke-linecap="round" stroke-linejoin="round"/><path d="M94.1871 77.7281V77.5264C94.1726 77.4351 94.1939 77.3426 94.2486 77.2604C94.3032 77.1782 94.3886 77.1101 94.4942 77.0645V77.0645C94.3935 77.02 94.3124 76.954 94.2611 76.8748C94.2097 76.7956 94.1904 76.7067 94.2056 76.6192V76.5268C94.2056 76.3828 94.2812 76.2446 94.4158 76.1427C94.5504 76.0409 94.733 75.9836 94.9234 75.9836C95.1138 75.9836 95.2963 76.0409 95.4309 76.1427C95.5656 76.2446 95.6412 76.3828 95.6412 76.5268V76.6192C95.6545 76.7069 95.634 76.7956 95.5822 76.8746C95.5303 76.9536 95.4493 77.0196 95.3489 77.0645C95.4551 77.1097 95.5413 77.1777 95.5966 77.2599C95.6519 77.3421 95.6739 77.4348 95.6597 77.5264V77.7281C95.6597 77.8766 95.5817 78.019 95.443 78.124C95.3042 78.2291 95.116 78.2881 94.9197 78.2881C94.7234 78.2881 94.5352 78.2291 94.3964 78.124C94.2577 78.019 94.1797 77.8766 94.1797 77.7281H94.1871ZM95.1898 77.7084V77.49C95.1898 77.3192 95.0973 77.2352 94.9234 77.2352C94.7495 77.2352 94.657 77.3192 94.657 77.49V77.7084C94.657 77.8792 94.7495 77.9633 94.9234 77.9633C95.0973 77.9633 95.1898 77.8792 95.1898 77.7084V77.7084ZM95.1898 76.6864V76.5072C95.1898 76.3588 95.1047 76.2804 94.9419 76.2804C94.7791 76.2804 94.694 76.3588 94.694 76.5072V76.6864C94.694 76.8348 94.7791 76.9132 94.9419 76.9132C95.1047 76.9132 95.1713 76.8348 95.1713 76.6864H95.1898Z" fill="#263238"/><path d="M95.9419 77.7168V77.5404H96.3859V77.742C96.3859 77.9044 96.4784 77.9632 96.6301 77.9632C96.7818 77.9632 96.8743 77.9044 96.8743 77.742V77.2352C96.8743 77.0728 96.7781 77.0113 96.6301 77.0113C96.4821 77.0113 96.3859 77.0728 96.3859 77.2352V77.2549H95.9419L96.027 75.9893H97.2665V76.314H96.4451L96.4081 76.8545C96.4494 76.8013 96.5092 76.7578 96.581 76.7287C96.6527 76.6995 96.7337 76.6859 96.8151 76.6893C97.1592 76.6893 97.3368 76.874 97.3368 77.2072V77.7168C97.3438 77.7898 97.3308 77.863 97.2988 77.932C97.2667 78.0009 97.2162 78.0642 97.1504 78.1177C97.0846 78.1712 97.005 78.2139 96.9164 78.2431C96.8278 78.2723 96.7322 78.2874 96.6356 78.2874C96.539 78.2874 96.4434 78.2723 96.3549 78.2431C96.2663 78.2139 96.1866 78.1712 96.1208 78.1177C96.055 78.0642 96.0045 78.0009 95.9725 77.932C95.9404 77.863 95.9275 77.7898 95.9345 77.7168H95.9419Z" fill="#263238"/><path d="M97.6356 76.8852V76.3252C97.6299 76.2776 97.6374 76.2296 97.6576 76.1842C97.6778 76.1389 97.7103 76.0972 97.7529 76.0619C97.7955 76.0266 97.8474 75.9984 97.9053 75.9791C97.9631 75.9598 98.0257 75.9498 98.0889 75.9498C98.1521 75.9498 98.2146 75.9598 98.2725 75.9791C98.3303 75.9984 98.3822 76.0266 98.4249 76.0619C98.4675 76.0972 98.5 76.1389 98.5202 76.1842C98.5403 76.2296 98.5478 76.2776 98.5421 76.3252V76.8852C98.5478 76.9329 98.5403 76.9809 98.5202 77.0263C98.5 77.0716 98.4675 77.1132 98.4249 77.1486C98.3822 77.1839 98.3303 77.2121 98.2725 77.2314C98.2146 77.2507 98.1521 77.2607 98.0889 77.2607C98.0257 77.2607 97.9631 77.2507 97.9053 77.2314C97.8474 77.2121 97.7955 77.1839 97.7529 77.1486C97.7103 77.1132 97.6778 77.0716 97.6576 77.0263C97.6374 76.9809 97.6299 76.9329 97.6356 76.8852V76.8852ZM98.2424 76.902V76.3029C98.2424 76.2049 98.1832 76.1601 98.0907 76.1601C97.9982 76.1601 97.9353 76.2049 97.9353 76.3029V76.902C97.9353 77.0028 97.9908 77.0448 98.0907 77.0448C98.1906 77.0448 98.2424 77 98.2424 76.902ZM99.1748 75.9893H99.4745L98.3164 78.2544H98.0167L99.1748 75.9893ZM98.9491 77.924V77.364C98.9434 77.3164 98.9509 77.2684 98.9711 77.223C98.9913 77.1777 99.0237 77.136 99.0664 77.1007C99.109 77.0654 99.1609 77.0372 99.2188 77.0179C99.2766 76.9986 99.3392 76.9886 99.4024 76.9886C99.4656 76.9886 99.5281 76.9986 99.586 77.0179C99.6438 77.0372 99.6957 77.0654 99.7384 77.1007C99.781 77.136 99.8134 77.1777 99.8336 77.223C99.8538 77.2684 99.8613 77.3164 99.8556 77.364V77.924C99.8613 77.9717 99.8538 78.0197 99.8336 78.065C99.8134 78.1104 99.781 78.152 99.7384 78.1874C99.6957 78.2227 99.6438 78.2509 99.586 78.2702C99.5281 78.2895 99.4656 78.2995 99.4024 78.2995C99.3392 78.2995 99.2766 78.2895 99.2188 78.2702C99.1609 78.2509 99.109 78.2227 99.0664 78.1874C99.0237 78.152 98.9913 78.1104 98.9711 78.065C98.9509 78.0197 98.9434 77.9717 98.9491 77.924ZM99.5559 77.9408V77.3416C99.5559 77.2408 99.4967 77.1988 99.4005 77.1988C99.3043 77.1988 99.2488 77.2408 99.2488 77.3416V77.9408C99.2488 78.0416 99.3043 78.0836 99.4005 78.0836C99.4967 78.0836 99.5559 78.0416 99.5559 77.9408V77.9408Z" fill="#263238"/><path d="M78.5518 82.0877H72.1396V75.9501H76.4132L78.5518 77.5685V82.0877Z" fill="white"/><path opacity="0.5" d="M78.5518 82.0877H72.1396V75.9501H76.4132L78.5518 77.5685V82.0877Z" fill="white" stroke="#263238" stroke-linecap="round" stroke-linejoin="round"/><path d="M78.5518 82.0877H72.1396V75.9501H76.4132L78.5518 77.5685V82.0877Z" stroke="#263238" stroke-linecap="round" stroke-linejoin="round"/><path d="M73.5636 79.2065C73.4628 79.1992 73.3692 79.1637 73.3011 79.107C73.233 79.0503 73.1953 78.9765 73.1953 78.8999C73.1953 78.8232 73.233 78.7494 73.3011 78.6927C73.3692 78.636 73.4628 78.6006 73.5636 78.5933H77.1266C77.2274 78.6006 77.321 78.636 77.3891 78.6927C77.4572 78.7494 77.4949 78.8232 77.4949 78.8999C77.4949 78.9765 77.4572 79.0503 77.3891 79.107C77.321 79.1637 77.2274 79.1992 77.1266 79.2065H73.5636Z" fill="#858585" stroke="#263238" stroke-width="0.75" stroke-linecap="round" stroke-linejoin="round"/><path d="M73.5636 80.4972C73.4628 80.4899 73.3692 80.4545 73.3011 80.3978C73.233 80.3411 73.1953 80.2672 73.1953 80.1906C73.1953 80.114 73.233 80.0402 73.3011 79.9835C73.3692 79.9268 73.4628 79.8913 73.5636 79.884H76.3497C76.4504 79.8913 76.544 79.9268 76.6121 79.9835C76.6802 80.0402 76.7179 80.114 76.7179 80.1906C76.7179 80.2672 76.6802 80.3411 76.6121 80.3978C76.544 80.4545 76.4504 80.4899 76.3497 80.4972H73.5636Z" fill="#858585" stroke="#263238" stroke-width="0.75" stroke-linecap="round" stroke-linejoin="round"/><path d="M76.4131 77.5685H78.5517L76.4131 75.9501V77.5685Z" fill="white" stroke="#263238" stroke-linecap="round" stroke-linejoin="round"/><path d="M120.654 44.4585H65.1241C63.7223 44.4585 62.5859 45.3185 62.5859 46.3793V56.1429C62.5859 57.2037 63.7223 58.0637 65.1241 58.0637H120.654C122.056 58.0637 123.192 57.2037 123.192 56.1429V46.3793C123.192 45.3185 122.056 44.4585 120.654 44.4585Z" fill="#263238" stroke="#263238" stroke-linecap="round" stroke-linejoin="round"/><path d="M119.876 43.8705H64.3468C62.945 43.8705 61.8086 44.7305 61.8086 45.7913V55.5549C61.8086 56.6157 62.945 57.4757 64.3468 57.4757H119.876C121.278 57.4757 122.415 56.6157 122.415 55.5549V45.7913C122.415 44.7305 121.278 43.8705 119.876 43.8705Z" fill="white" stroke="#263238" stroke-linecap="round" stroke-linejoin="round"/><path d="M82.9612 56.3557H71.0879V44.9905H79.0022L82.9612 47.9837V56.3557Z" fill="white"/><path opacity="0.7" d="M82.9612 56.3557H71.0879V44.9905H79.0022L82.9612 47.9837V56.3557Z" fill="white"/><path d="M82.9612 56.3557H71.0879V44.9905H79.0022L82.9612 47.9837V56.3557Z" stroke="#263238" stroke-linecap="round" stroke-linejoin="round"/><path d="M79.0029 47.9837H82.9619L79.0029 44.9905V47.9837Z" fill="white" stroke="#263238" stroke-linecap="round" stroke-linejoin="round"/><path d="M74.5917 49.3837H72.2607V51.1477H74.5917V49.3837Z" stroke="white" stroke-width="0.75" stroke-linecap="round" stroke-linejoin="round"/><path d="M76.9892 49.3837H74.6582V51.1477H76.9892V49.3837Z" stroke="white" stroke-width="0.75" stroke-linecap="round" stroke-linejoin="round"/><path d="M79.3906 49.3837H77.0596V51.1477H79.3906V49.3837Z" stroke="white" stroke-width="0.75" stroke-linecap="round" stroke-linejoin="round"/><path d="M81.789 49.3837H79.458V51.1477H81.789V49.3837Z" stroke="white" stroke-width="0.75" stroke-linecap="round" stroke-linejoin="round"/><path d="M74.5917 51.1477H72.2607V52.9117H74.5917V51.1477Z" stroke="white" stroke-width="0.75" stroke-linecap="round" stroke-linejoin="round"/><path d="M76.9892 51.1477H74.6582V52.9117H76.9892V51.1477Z" stroke="white" stroke-width="0.75" stroke-linecap="round" stroke-linejoin="round"/><path d="M79.3906 51.1477H77.0596V52.9117H79.3906V51.1477Z" stroke="white" stroke-width="0.75" stroke-linecap="round" stroke-linejoin="round"/><path d="M81.789 51.1477H79.458V52.9117H81.789V51.1477Z" stroke="white" stroke-width="0.75" stroke-linecap="round" stroke-linejoin="round"/><path d="M74.5917 52.9116H72.2607V54.6756H74.5917V52.9116Z" stroke="white" stroke-width="0.75" stroke-linecap="round" stroke-linejoin="round"/><path d="M76.9892 52.9116H74.6582V54.6756H76.9892V52.9116Z" stroke="white" stroke-width="0.75" stroke-linecap="round" stroke-linejoin="round"/><path d="M79.3906 52.9117H77.0596V54.6757H79.3906V52.9117Z" stroke="white" stroke-width="0.75" stroke-linecap="round" stroke-linejoin="round"/><path d="M81.789 52.9117H79.458V54.6757H81.789V52.9117Z" stroke="white" stroke-width="0.75" stroke-linecap="round" stroke-linejoin="round"/><path d="M72.3057 54.5049L74.6589 52.8697L75.8244 52.9117L77.0972 51.1729L78.2257 52.0297L79.4911 51.0245L80.6233 49.3837" stroke="white" stroke-width="2" stroke-linecap="round" stroke-linejoin="round"/><path d="M79.2871 49.8961L80.6228 49.3837L80.8929 50.4869" stroke="white" stroke-width="2" stroke-linecap="round" stroke-linejoin="round"/><path d="M87.631 50.3105H86.9502V49.9689C87.4904 49.9689 87.6902 49.8793 87.8308 49.5797H88.26V52.6597H87.6199L87.631 50.3105Z" fill="#263238"/><path d="M89.0176 51.9345V50.3105C89.0176 50.1152 89.1201 49.9279 89.3026 49.7898C89.4851 49.6517 89.7326 49.5741 89.9907 49.5741C90.2488 49.5741 90.4963 49.6517 90.6788 49.7898C90.8613 49.9279 90.9638 50.1152 90.9638 50.3105V51.9345C90.9638 52.1298 90.8613 52.3171 90.6788 52.4552C90.4963 52.5933 90.2488 52.6709 89.9907 52.6709C89.7326 52.6709 89.4851 52.5933 89.3026 52.4552C89.1201 52.3171 89.0176 52.1298 89.0176 51.9345V51.9345ZM90.3237 51.9653V50.2853C90.3237 50.0669 90.1942 49.9829 89.9907 49.9829C89.7872 49.9829 89.6577 50.0669 89.6577 50.2853V51.9653C89.6577 52.1865 89.7872 52.2705 89.9907 52.2705C90.1942 52.2705 90.3237 52.1865 90.3237 51.9653Z" fill="#263238"/><path d="M91.3496 51.9345V50.3105C91.3496 50.1152 91.4521 49.9279 91.6346 49.7898C91.8171 49.6517 92.0646 49.5741 92.3227 49.5741C92.5808 49.5741 92.8283 49.6517 93.0108 49.7898C93.1933 49.9279 93.2958 50.1152 93.2958 50.3105V51.9345C93.2958 52.1298 93.1933 52.3171 93.0108 52.4552C92.8283 52.5933 92.5808 52.6709 92.3227 52.6709C92.0646 52.6709 91.8171 52.5933 91.6346 52.4552C91.4521 52.3171 91.3496 52.1298 91.3496 51.9345V51.9345ZM92.6557 51.9653V50.2853C92.6557 50.0669 92.5262 49.9829 92.3227 49.9829C92.1192 49.9829 91.9897 50.0669 91.9897 50.2853V51.9653C91.9897 52.1865 92.1192 52.2705 92.3227 52.2705C92.5262 52.2705 92.6557 52.1865 92.6557 51.9653Z" fill="#263238"/><path d="M93.6914 50.8005V50.0305C93.6914 49.9065 93.7565 49.7875 93.8724 49.6998C93.9883 49.6121 94.1454 49.5629 94.3093 49.5629C94.4732 49.5629 94.6303 49.6121 94.7462 49.6998C94.8621 49.7875 94.9272 49.9065 94.9272 50.0305V50.8005C94.9272 50.9245 94.8621 51.0434 94.7462 51.1311C94.6303 51.2188 94.4732 51.2681 94.3093 51.2681C94.1454 51.2681 93.9883 51.2188 93.8724 51.1311C93.7565 51.0434 93.6914 50.9245 93.6914 50.8005V50.8005ZM94.5202 50.8229V50.0081C94.5202 49.8709 94.4388 49.8121 94.3093 49.8121C94.1798 49.8121 94.0984 49.8709 94.0984 50.0081V50.8229C94.0984 50.9601 94.1761 51.0161 94.3093 51.0161C94.4425 51.0161 94.5202 50.9601 94.5202 50.8229V50.8229ZM95.7893 49.5797H96.2L94.6201 52.6597H94.2131L95.7893 49.5797ZM95.4785 52.2173V51.4445C95.4785 51.3831 95.4945 51.3223 95.5255 51.2655C95.5566 51.2088 95.6021 51.1572 95.6595 51.1138C95.7168 51.0704 95.785 51.036 95.8599 51.0125C95.9349 50.989 96.0152 50.9769 96.0964 50.9769C96.1775 50.9769 96.2579 50.989 96.3328 51.0125C96.4078 51.036 96.4759 51.0704 96.5333 51.1138C96.5907 51.1572 96.6362 51.2088 96.6672 51.2655C96.6983 51.3223 96.7143 51.3831 96.7143 51.4445V52.2173C96.7143 52.2787 96.6983 52.3395 96.6672 52.3962C96.6362 52.4529 96.5907 52.5045 96.5333 52.5479C96.4759 52.5913 96.4078 52.6258 96.3328 52.6493C96.2579 52.6728 96.1775 52.6849 96.0964 52.6849C96.0152 52.6849 95.9349 52.6728 95.8599 52.6493C95.785 52.6258 95.7168 52.5913 95.6595 52.5479C95.6021 52.5045 95.5566 52.4529 95.5255 52.3962C95.4945 52.3395 95.4785 52.2787 95.4785 52.2173ZM96.3073 52.2397V51.4221C96.3073 51.2849 96.2259 51.2289 96.0964 51.2289C95.9669 51.2289 95.8892 51.2849 95.8892 51.4221V52.2397C95.8892 52.3741 95.9632 52.4329 96.0964 52.4329C96.2296 52.4329 96.3073 52.3741 96.3073 52.2397V52.2397Z" fill="#263238"/><path d="M97.751 51.702V50.4841C97.751 50.3452 97.8239 50.212 97.9536 50.1138C98.0834 50.0156 98.2594 49.9604 98.4429 49.9604C98.6264 49.9604 98.8024 50.0156 98.9321 50.1138C99.0619 50.212 99.1348 50.3452 99.1348 50.4841V50.7249H98.6908V50.4617C98.6908 50.3133 98.5946 50.2517 98.454 50.2517C98.3134 50.2517 98.2209 50.3133 98.2209 50.4617V51.7273C98.2209 51.8757 98.3134 51.9344 98.454 51.9344C98.5946 51.9344 98.6908 51.8757 98.6908 51.7273V51.38H99.1348V51.702C99.1348 51.8409 99.0619 51.9741 98.9321 52.0723C98.8024 52.1705 98.6264 52.2257 98.4429 52.2257C98.2594 52.2257 98.0834 52.1705 97.9536 52.0723C97.8239 51.9741 97.751 51.8409 97.751 51.702Z" fill="#263238"/><path d="M99.3896 51.688V50.498C99.3896 50.3547 99.4649 50.2173 99.5988 50.1159C99.7327 50.0146 99.9144 49.9576 100.104 49.9576C100.293 49.9576 100.475 50.0146 100.609 50.1159C100.743 50.2173 100.818 50.3547 100.818 50.498V51.688C100.818 51.8314 100.743 51.9688 100.609 52.0702C100.475 52.1715 100.293 52.2284 100.104 52.2284C99.9144 52.2284 99.7327 52.1715 99.5988 52.0702C99.4649 51.9688 99.3896 51.8314 99.3896 51.688V51.688ZM100.348 51.7104V50.4756C100.348 50.3132 100.255 50.2516 100.104 50.2516C99.9521 50.2516 99.8596 50.3132 99.8596 50.4756V51.7104C99.8596 51.8728 99.9558 51.9344 100.104 51.9344C100.252 51.9344 100.348 51.8728 100.348 51.7104Z" fill="#263238"/><path d="M101.133 49.9604H101.806L102.106 51.5817L102.406 49.9604H103.075V52.2257H102.631V50.5121L102.287 52.2257H101.895L101.555 50.5121V52.2257H101.144L101.133 49.9604Z" fill="#263238"/><path d="M103.434 49.9604H104.125C104.595 49.9604 104.825 50.1592 104.825 50.5205V50.7445C104.825 51.1057 104.595 51.3045 104.125 51.3045H103.903V52.2257H103.434V49.9604ZM104.125 50.9797C104.273 50.9797 104.355 50.9293 104.355 50.7669V50.4869C104.355 50.3245 104.273 50.2741 104.125 50.2741H103.903V50.9685L104.125 50.9797Z" fill="#263238"/><path d="M105.08 49.9604H105.55V51.9009H106.323V52.2257H105.08V49.9604Z" fill="#263238"/><path d="M106.561 49.9604H107.841V50.2852H107.03V50.8817H107.671V51.2065H107.027V51.9008H107.837V52.2257H106.561V49.9604Z" fill="#263238"/><path d="M108.469 50.2853H107.98V49.9604H109.431V50.2853H108.939V52.2257H108.469V50.2853Z" fill="#263238"/><path d="M109.661 49.9604H110.941V50.2852H110.131V50.8817H110.775V51.2065H110.131V51.9008H110.941V52.2257H109.661V49.9604Z" fill="#263238"/><path d="M111.211 49.9604H111.929C112.399 49.9604 112.628 50.1592 112.628 50.5205V51.6657C112.628 52.0269 112.399 52.2257 111.929 52.2257H111.211V49.9604ZM111.918 51.9009C112.069 51.9009 112.158 51.8421 112.158 51.6825V50.5037C112.158 50.3441 112.069 50.2853 111.918 50.2853H111.681V51.9009H111.918Z" fill="#263238"/><path d="M114.693 86.7468H71.088C69.6862 86.7468 68.5498 87.6068 68.5498 88.6676V95.7516C68.5498 96.8125 69.6862 97.6724 71.088 97.6724H114.693C116.094 97.6724 117.231 96.8125 117.231 95.7516V88.6676C117.231 87.6068 116.094 86.7468 114.693 86.7468Z" fill="#263238" stroke="#263238" stroke-linecap="round" stroke-linejoin="round"/><path d="M113.916 86.1589H70.3116C68.9098 86.1589 67.7734 87.0189 67.7734 88.0797V95.1637C67.7734 96.2246 68.9098 97.0845 70.3116 97.0845H113.916C115.318 97.0845 116.454 96.2246 116.454 95.1637V88.0797C116.454 87.0189 115.318 86.1589 113.916 86.1589Z" fill="white" stroke="#263238" stroke-linecap="round" stroke-linejoin="round"/><path d="M102.668 92.162H82.8284C82.6066 92.162 82.3939 92.2287 82.2371 92.3473C82.0803 92.466 81.9922 92.627 81.9922 92.7948C81.9922 92.9626 82.0803 93.1236 82.2371 93.2422C82.3939 93.3609 82.6066 93.4276 82.8284 93.4276H102.668V92.162Z" fill="white"/><path d="M82.8284 93.4276C82.6066 93.4276 82.3939 93.3609 82.2371 93.2422C82.0803 93.1236 81.9922 92.9626 81.9922 92.7948C81.9922 92.627 82.0803 92.466 82.2371 92.3473C82.3939 92.2287 82.6066 92.162 82.8284 92.162H111.244C111.354 92.162 111.463 92.1784 111.564 92.2102C111.666 92.242 111.758 92.2886 111.836 92.3473C111.913 92.4061 111.975 92.4758 112.017 92.5526C112.059 92.6294 112.081 92.7117 112.081 92.7948C112.081 92.8779 112.059 92.9602 112.017 93.0369C111.975 93.1137 111.913 93.1835 111.836 93.2422C111.758 93.301 111.666 93.3476 111.564 93.3794C111.463 93.4112 111.354 93.4276 111.244 93.4276H82.8284Z" stroke="#263238" stroke-linecap="round" stroke-linejoin="round"/><path d="M78.5518 94.6905H72.1396V88.5529H76.4132L78.5518 90.1685V94.6905Z" fill="white"/><path opacity="0.5" d="M78.5518 94.6905H72.1396V88.5529H76.4132L78.5518 90.1685V94.6905Z" fill="white"/><path d="M78.5518 94.6905H72.1396V88.5529H76.4132L78.5518 90.1685V94.6905Z" stroke="#263238" stroke-linecap="round" stroke-linejoin="round"/><path d="M73.5636 91.8092C73.4628 91.8019 73.3692 91.7665 73.3011 91.7098C73.233 91.6531 73.1953 91.5793 73.1953 91.5026C73.1953 91.426 73.233 91.3522 73.3011 91.2955C73.3692 91.2388 73.4628 91.2033 73.5636 91.196H77.1266C77.2274 91.2033 77.321 91.2388 77.3891 91.2955C77.4572 91.3522 77.4949 91.426 77.4949 91.5026C77.4949 91.5793 77.4572 91.6531 77.3891 91.7098C77.321 91.7665 77.2274 91.8019 77.1266 91.8092H73.5636Z" fill="#858585" stroke="#263238" stroke-width="0.75" stroke-linecap="round" stroke-linejoin="round"/><path d="M73.5635 93.0972C73.4565 93.0972 73.3539 93.0651 73.2783 93.0078C73.2026 92.9506 73.1602 92.873 73.1602 92.792C73.1602 92.7111 73.2026 92.6334 73.2783 92.5762C73.3539 92.519 73.4565 92.4868 73.5635 92.4868H76.3496C76.4565 92.4868 76.5591 92.519 76.6347 92.5762C76.7104 92.6334 76.7529 92.7111 76.7529 92.792C76.7529 92.873 76.7104 92.9506 76.6347 93.0078C76.5591 93.0651 76.4565 93.0972 76.3496 93.0972H73.5635Z" fill="#858585" stroke="#263238" stroke-width="0.75" stroke-linecap="round" stroke-linejoin="round"/><path d="M76.4131 90.1685H78.5517L76.4131 88.5529V90.1685Z" fill="white" stroke="#263238" stroke-linecap="round" stroke-linejoin="round"/><path d="M95.1638 88.9142H94.2129V88.5922H95.6226V88.903L94.8826 90.863H94.4016L95.1638 88.9142Z" fill="#263238"/><path d="M95.9189 90.3196V89.1296C95.9189 88.9863 95.9942 88.8489 96.1281 88.7475C96.262 88.6462 96.4437 88.5892 96.6331 88.5892C96.8224 88.5892 97.0041 88.6462 97.138 88.7475C97.2719 88.8489 97.3472 88.9863 97.3472 89.1296V90.3196C97.3472 90.463 97.2719 90.6004 97.138 90.7018C97.0041 90.8031 96.8224 90.86 96.6331 90.86C96.4437 90.86 96.262 90.8031 96.1281 90.7018C95.9942 90.6004 95.9189 90.463 95.9189 90.3196ZM96.8772 90.342V89.1072C96.8772 88.9448 96.7811 88.8832 96.6331 88.8832C96.4851 88.8832 96.3889 88.9448 96.3889 89.1072V90.342C96.3889 90.5044 96.4851 90.5632 96.6331 90.5632C96.7811 90.5632 96.8772 90.5044 96.8772 90.342Z" fill="#263238"/><path d="M97.6356 89.488V88.928C97.6299 88.8804 97.6374 88.8324 97.6576 88.787C97.6778 88.7417 97.7103 88.7 97.7529 88.6647C97.7955 88.6294 97.8474 88.6012 97.9053 88.5819C97.9631 88.5626 98.0257 88.5526 98.0889 88.5526C98.1521 88.5526 98.2146 88.5626 98.2725 88.5819C98.3303 88.6012 98.3822 88.6294 98.4249 88.6647C98.4675 88.7 98.5 88.7417 98.5202 88.787C98.5403 88.8324 98.5478 88.8804 98.5421 88.928V89.488C98.5478 89.5357 98.5403 89.5837 98.5202 89.629C98.5 89.6744 98.4675 89.716 98.4249 89.7514C98.3822 89.7867 98.3303 89.8149 98.2725 89.8342C98.2146 89.8535 98.1521 89.8635 98.0889 89.8635C98.0257 89.8635 97.9631 89.8535 97.9053 89.8342C97.8474 89.8149 97.7955 89.7867 97.7529 89.7514C97.7103 89.716 97.6778 89.6744 97.6576 89.629C97.6374 89.5837 97.6299 89.5357 97.6356 89.488V89.488ZM98.2424 89.5048V88.9056C98.2424 88.8048 98.1832 88.7628 98.0907 88.7628C97.9982 88.7628 97.9353 88.8048 97.9353 88.9056V89.5048C97.9353 89.6028 97.9908 89.6448 98.0907 89.6448C98.1906 89.6448 98.2424 89.6 98.2424 89.5048ZM99.16 88.592H99.4597L98.3016 90.8544H98.0019L99.16 88.592ZM98.9343 90.5268V89.9668C98.9286 89.9192 98.9361 89.8712 98.9563 89.8258C98.9765 89.7805 99.009 89.7388 99.0516 89.7035C99.0942 89.6682 99.1461 89.64 99.204 89.6207C99.2618 89.6014 99.3243 89.5914 99.3876 89.5914C99.4508 89.5914 99.5133 89.6014 99.5712 89.6207C99.629 89.64 99.6809 89.6682 99.7236 89.7035C99.7662 89.7388 99.7986 89.7805 99.8188 89.8258C99.839 89.8712 99.8465 89.9192 99.8408 89.9668V90.5268C99.8465 90.5745 99.839 90.6225 99.8188 90.6678C99.7986 90.7132 99.7662 90.7548 99.7236 90.7902C99.6809 90.8255 99.629 90.8537 99.5712 90.873C99.5133 90.8923 99.4508 90.9023 99.3876 90.9023C99.3243 90.9023 99.2618 90.8923 99.204 90.873C99.1461 90.8537 99.0942 90.8255 99.0516 90.7902C99.009 90.7548 98.9765 90.7132 98.9563 90.6678C98.9361 90.6225 98.9286 90.5745 98.9343 90.5268V90.5268ZM99.5411 90.5408V89.9444C99.5411 89.8436 99.4819 89.8016 99.3857 89.8016C99.2895 89.8016 99.234 89.8436 99.234 89.9444V90.5408C99.234 90.6416 99.2895 90.6836 99.3857 90.6836C99.4819 90.6836 99.5559 90.6416 99.5559 90.5408H99.5411Z" fill="#263238"/><path d="M43.8232 30.856L53.5875 25.144L63.3518 30.856H43.8232Z" fill="#263238" stroke="#263238" stroke-linecap="round" stroke-linejoin="round"/><path d="M56.1402 24.6959H51.0342V27.9999H56.1402V24.6959Z" fill="#263238" stroke="#263238" stroke-linecap="round" stroke-linejoin="round"/><path d="M53.5879 16.4863V27.9999" stroke="#263238" stroke-width="0.75" stroke-linecap="round" stroke-linejoin="round"/><path d="M121.646 30.856L131.414 25.144L141.178 30.856H121.646Z" fill="#263238" stroke="#263238" stroke-linecap="round" stroke-linejoin="round"/><path d="M133.966 24.696H128.86V28H133.966V24.696Z" fill="#263238" stroke="#263238" stroke-linecap="round" stroke-linejoin="round"/><path d="M131.413 15.9264V28" stroke="#263238" stroke-width="0.75" stroke-linecap="round" stroke-linejoin="round"/><path d="M135.224 120.005L135.017 124.625L138.176 124.74L139.327 120.005H135.224Z" fill="white" stroke="#263238" stroke-linecap="round" stroke-linejoin="round"/><path d="M129.041 126.042C130.106 125.762 131.949 125.286 132.641 124.958C133.196 124.695 133.969 123.838 134.543 123.598C134.663 123.558 134.793 123.538 134.924 123.538C135.055 123.538 135.184 123.558 135.305 123.598C135.398 123.676 135.458 123.773 135.479 123.878C135.495 123.923 135.528 123.963 135.574 123.994C135.62 124.026 135.677 124.046 135.738 124.052C135.8 124.059 135.862 124.052 135.918 124.031C135.974 124.011 136.02 123.979 136.052 123.939C136.141 123.808 136.267 123.693 136.422 123.603C136.911 123.396 138.231 123.337 138.664 123.603C139.382 124.048 139.641 125.583 139.774 126.274C139.808 126.426 139.774 127.266 139.774 127.266H128.245V126.882C128.244 126.696 128.32 126.515 128.463 126.364C128.605 126.213 128.808 126.101 129.041 126.042V126.042Z" fill="white" stroke="#263238" stroke-linecap="round" stroke-linejoin="round"/><path d="M139.782 127.26H128.245V126.877C128.245 126.781 128.266 126.687 128.308 126.597H139.797C139.797 126.891 139.782 127.26 139.782 127.26Z" fill="#858585" stroke="#263238" stroke-linecap="round" stroke-linejoin="round"/><path d="M137.217 84.1876L134.794 121.764L139.234 122.324C139.234 122.324 142.031 111.448 142.372 107.887C142.453 107.047 142.372 104.513 142.372 104.513L145.513 92.8116C145.513 92.8116 147.581 91.3668 147.822 84.4872L137.217 84.1876Z" fill="#263238" stroke="#263238" stroke-linecap="round" stroke-linejoin="round"/><path opacity="0.7" d="M143.79 98.7309C143.96 98.1877 144.16 97.6529 144.4 97.1209C144.437 97.0453 144.482 96.9753 144.526 96.9053C144.636 96.1101 144.805 95.3202 145.033 94.5393C145.111 94.2476 145.319 93.9849 145.621 93.7945C145.707 93.6469 145.836 93.5157 145.998 93.4105C146.16 93.3054 146.351 93.229 146.557 93.1869C146.421 92.464 146.213 91.7498 145.936 91.0505C145.654 90.3169 145.196 89.6141 145.059 88.8553C145.022 88.6593 144.874 88.4549 144.922 88.4325C144.604 88.3387 144.293 88.2322 143.989 88.1133L143.934 88.0797C143.65 91.626 143.602 95.1809 143.79 98.7309V98.7309Z" fill="black"/><path d="M137.007 105.68C137.793 105.543 138.514 105.245 139.094 104.821" stroke="#7F7F7F" stroke-width="0.75" stroke-linecap="round" stroke-linejoin="round"/><path d="M134.209 122.478L139.578 122.811L139.977 121.495L134.209 121.153V122.478Z" fill="white" stroke="#263238" stroke-linecap="round" stroke-linejoin="round"/><path d="M149.713 119.437L150.856 124.838L153.779 124.665L153.683 119.135L149.713 119.437Z" fill="white" stroke="#263238" stroke-linecap="round" stroke-linejoin="round"/><path d="M144.817 126.042C145.886 125.762 147.729 125.286 148.417 124.958C148.972 124.695 149.749 123.838 150.319 123.598C150.44 123.558 150.57 123.538 150.702 123.538C150.834 123.538 150.964 123.558 151.085 123.598C151.152 123.65 151.199 123.715 151.222 123.785C151.242 123.839 151.282 123.887 151.338 123.923C151.394 123.959 151.463 123.982 151.536 123.988C151.609 123.994 151.683 123.984 151.748 123.958C151.814 123.933 151.867 123.893 151.903 123.844C151.978 123.747 152.079 123.664 152.199 123.598C152.687 123.39 154.008 123.332 154.441 123.598C155.159 124.043 155.418 125.577 155.551 126.269C155.58 126.42 155.551 127.26 155.551 127.26H144.025V126.876C144.025 126.692 144.101 126.512 144.244 126.363C144.386 126.213 144.586 126.101 144.817 126.042V126.042Z" fill="white" stroke="#263238" stroke-linecap="round" stroke-linejoin="round"/><path d="M155.562 127.26H144.025V126.876C144.024 126.781 144.044 126.687 144.085 126.596H155.573C155.573 126.89 155.562 127.26 155.562 127.26Z" fill="#858585" stroke="#263238" stroke-linecap="round" stroke-linejoin="round"/><path d="M143.396 85.3216C143.396 85.3216 144.506 90.1852 145.528 94.2648C146.223 97.0312 146.268 105.204 146.268 105.204L149.812 122.08L154.182 121.635C154.182 121.635 154.234 111.247 153.742 107.915C153.631 107.173 153.449 104.969 153.449 104.969C153.449 104.969 153.616 96.1548 154.515 93.2092C155.159 91.1092 156.439 88.9028 154.885 84.5992L143.396 85.3216Z" fill="#263238" stroke="#263238" stroke-linecap="round" stroke-linejoin="round"/><path d="M147.227 105.68C147.671 106.146 148.332 106.467 149.077 106.579" stroke="#7F7F7F" stroke-width="0.75" stroke-linecap="round" stroke-linejoin="round"/><path d="M149.08 121.321L149.332 122.559L154.748 122.119L154.711 120.786L149.08 121.321Z" fill="white" stroke="#263238" stroke-linecap="round" stroke-linejoin="round"/><path d="M122.777 62.8236L121.581 61.3032C121.581 61.3032 121.293 58.8196 120.627 58.3352C119.961 57.8508 118.481 56.4256 118.27 56.7056C117.937 57.1536 119.169 57.9516 119.169 57.9516L119.395 58.8756C119.395 58.8756 117.4 57.7892 116.838 57.7892C116.838 57.7892 115.247 56.364 114.685 56.3612C114.122 56.3584 114.914 57.3468 114.914 57.3468C114.914 57.3468 114.378 57.036 114.274 57.2292C114.17 57.4224 114.966 58.0832 114.966 58.0832C114.966 58.0832 114.659 58.3352 115.121 58.8756C115.057 59.0502 115.058 59.2347 115.123 59.409C115.188 59.5834 115.316 59.7407 115.491 59.864C116.105 60.2336 119.406 61.6476 119.406 61.6476L120.516 63.6244L122.777 62.8236Z" fill="#858585" stroke="#263238" stroke-linecap="round" stroke-linejoin="round"/><path d="M115.402 58.1224C115.402 58.1224 115.839 58.2568 115.658 58.7412C115.832 58.9286 115.93 59.1506 115.939 59.3796C115.983 59.8052 118.832 59.5952 119.602 60.4996" stroke="#263238" stroke-width="0.75" stroke-linecap="round" stroke-linejoin="round"/><path d="M115.402 57.5988L116.564 58.5283" stroke="#263238" stroke-width="0.75" stroke-linecap="round" stroke-linejoin="round"/><path d="M135.112 62.44L127.486 66.9368L122.262 61.5496L119.602 62.5576C119.602 62.5576 123.783 71.2992 126.946 71.2992C130.309 71.2992 136.703 67.2112 136.703 67.2112C136.703 67.2112 137.106 66.43 135.112 62.44Z" fill="white" stroke="#263238" stroke-linecap="round" stroke-linejoin="round"/><path d="M127.774 67.3652C127.953 67.652 128.086 67.9537 128.17 68.264" stroke="#263238" stroke-width="0.75" stroke-linecap="round" stroke-linejoin="round"/><path d="M135.112 62.4401L136.737 78.7109V85.4701C136.737 85.4701 146.094 86.3101 155.325 85.2909L155.007 78.3329L155.943 62.8237C155.943 62.8237 151.659 60.4801 145.08 60.4801C138.501 60.4801 135.112 62.4401 135.112 62.4401Z" fill="white" stroke="#263238" stroke-linecap="round" stroke-linejoin="round"/><path opacity="0.2" d="M155.326 85.2909L155.03 79.0553C154.87 82.0597 150.49 80.9313 149.498 80.7913C148.436 80.6401 147.215 83.2889 147.215 83.2889C147.215 83.2889 143.145 83.8181 139.959 83.6305C136.774 83.4429 136.726 81.2421 136.726 81.2421V85.4701C136.726 85.4701 146.094 86.3213 155.326 85.2909Z" fill="black"/><path d="M141.121 78.554C145.045 78.2347 148.811 77.2083 152.103 75.5608Z" fill="white"/><path d="M141.121 78.554C145.045 78.2347 148.811 77.2083 152.103 75.5608" stroke="#263238" stroke-width="0.75" stroke-linecap="round" stroke-linejoin="round"/><path d="M139.489 78.639C139.489 78.639 139.804 78.639 140.359 78.6073Z" fill="white"/><path d="M139.489 78.639C139.489 78.639 139.804 78.639 140.359 78.6073" stroke="#263238" stroke-width="0.75" stroke-linecap="round" stroke-linejoin="round"/><path d="M142.656 63.224L141.036 62.7788L139.489 63.91L140.621 60.41L141.987 59.598L142.682 59.9312L145.79 59.8416L148.206 59.99L149.357 59.7212L150.586 60.6508L147.851 64.6072L146.704 63.1092L144.173 63.3472L142.656 63.224Z" fill="white"/><path opacity="0.5" d="M142.656 63.224L141.036 62.7788L139.489 63.91L140.621 60.41L141.987 59.598L142.682 59.9312L145.79 59.8416L148.206 59.99L149.357 59.7212L150.586 60.6508L147.851 64.6072L146.704 63.1092L144.173 63.3472L142.656 63.224Z" fill="white"/><path d="M142.656 63.224L141.036 62.7788L139.489 63.91L140.621 60.41L141.987 59.598L142.682 59.9312L145.79 59.8416L148.206 59.99L149.357 59.7212L150.586 60.6508L147.851 64.6072L146.704 63.1092L144.173 63.3472L142.656 63.224Z" stroke="#263238" stroke-linecap="round" stroke-linejoin="round"/><path d="M148.04 60.6396L147.67 56.3612L144.096 56.84L143.356 58.8504L142.616 60.592L142.265 60.62L143.238 64.6184L148.396 60.6984L148.04 60.6396Z" fill="#858585"/><path d="M139.253 56.6581C139.253 57.7445 139.475 60.1749 141.447 60.4577C143.489 60.7517 145.832 58.9933 146.671 58.2905C146.882 58.1159 147.046 57.9125 147.156 57.6913L147.604 56.7925C147.896 56.8094 148.189 56.7628 148.447 56.6581H139.253Z" fill="#263238" stroke="#263238" stroke-width="0.5" stroke-linecap="round" stroke-linejoin="round"/><path d="M148.04 60.6396L147.67 56.3612L144.096 56.84L143.356 58.8504L142.616 60.592L142.265 60.62L143.238 64.6184L148.396 60.6984L148.04 60.6396Z" stroke="#263238" stroke-linecap="round" stroke-linejoin="round"/><path d="M141.636 51.1644C141.636 51.1644 139.945 50.19 140.774 49.4228C141.206 49.0252 141.769 49.5489 141.769 49.5489C141.769 49.5489 141.469 48.3281 142.672 48.1489C143.782 47.9921 143.737 48.9552 143.737 48.9552C143.737 48.9552 144.311 48.1292 145.313 48.314C146.113 48.4596 145.806 49.3165 145.806 49.3165C145.806 49.3165 146.871 48.3141 147.974 48.7565C148.925 49.1345 148.14 50.0416 148.14 50.0416C148.14 50.0416 149.272 49.7392 149.905 50.2208C150.538 50.7024 149.905 51.3408 149.905 51.3408C149.905 51.3408 151.152 51.3409 151.208 52.0465C151.263 52.752 150.242 52.8864 150.242 52.8864C150.242 52.8864 151.685 53.2392 151.696 54.096C151.707 54.9528 150.741 54.6784 150.741 54.6784C150.741 54.6784 151.341 55.4848 150.841 55.9132C150.785 55.9706 150.712 56.0172 150.628 56.0492C150.544 56.0813 150.451 56.0981 150.357 56.0981C150.262 56.0981 150.169 56.0813 150.085 56.0492C150.001 56.0172 149.928 55.9706 149.872 55.9132C149.872 55.9132 150.497 56.9296 149.705 57.2264C149.139 57.4364 148.806 56.9212 148.806 56.9212C148.806 56.9212 148.329 57.8004 147.752 57.2628C147.175 56.7252 144.311 52.584 144.311 52.584L141.636 51.1644Z" fill="#263238" stroke="#263238" stroke-width="0.75" stroke-linecap="round" stroke-linejoin="round"/><path d="M141.147 51.2036L140.082 52.8836C139.972 53.0588 139.916 53.25 139.915 53.4436V53.97L139.327 55.09C139.297 55.1484 139.272 55.2083 139.253 55.2692C139.064 55.8656 138.165 59.0688 140.363 59.7212C142.302 60.298 145.032 58.9064 146.035 58.3352C146.285 58.1928 146.496 58.015 146.657 57.8116L147.323 56.994C147.605 57.058 147.908 57.0526 148.186 56.9787C148.464 56.9047 148.705 56.766 148.873 56.5824C149.469 55.9356 150.157 55.5856 149.339 55.0032C148.521 54.4208 147.767 55.3532 147.767 55.3532L147.878 53.7096L146.93 52.4496L146.882 51.6572C146.882 51.6572 143.782 51.3968 141.702 50.5372L141.147 51.2036Z" fill="white" stroke="#263238" stroke-width="0.75" stroke-linecap="round" stroke-linejoin="round"/><path d="M141.147 51.2036L140.082 52.8836C139.972 53.0588 139.916 53.25 139.915 53.4436V53.97L139.327 55.09C139.297 55.1484 139.272 55.2083 139.253 55.2692C139.064 55.8656 138.165 59.0688 140.363 59.7212C142.302 60.298 145.032 58.9064 146.035 58.3352C146.285 58.1928 146.496 58.015 146.657 57.8116L147.323 56.994C147.605 57.058 147.908 57.0526 148.186 56.9787C148.464 56.9047 148.705 56.766 148.873 56.5824C149.469 55.9356 150.157 55.5856 149.339 55.0032C148.521 54.4208 147.767 55.3532 147.767 55.3532L147.878 53.7096L146.93 52.4496L146.882 51.6572C146.882 51.6572 143.782 51.3968 141.702 50.5372L141.147 51.2036Z" fill="#858585" stroke="#263238" stroke-linecap="round" stroke-linejoin="round"/><path d="M143.034 56.9408C142.435 57.8172 141.621 57.6716 141.11 57.4532" stroke="#263238" stroke-width="0.75" stroke-linecap="round" stroke-linejoin="round"/><path d="M143.045 54.95C142.963 55.1488 142.797 55.286 142.675 55.258C142.552 55.23 142.512 55.0424 142.593 54.8436C142.675 54.6448 142.841 54.5048 142.963 54.5356C143.085 54.5664 143.126 54.7512 143.045 54.95Z" fill="#263238"/><path d="M140.574 54.3704C140.492 54.572 140.326 54.7092 140.204 54.6784C140.082 54.6476 140.041 54.4628 140.122 54.264C140.204 54.0652 140.374 53.928 140.492 53.9588C140.611 53.9896 140.655 54.1716 140.574 54.3704Z" fill="#263238"/><path d="M140.396 53.0768C140.494 53.056 140.596 53.0508 140.697 53.0614C140.798 53.072 140.895 53.0982 140.981 53.1384C141.068 53.1786 141.143 53.2319 141.202 53.295C141.26 53.3581 141.3 53.4297 141.321 53.5052" stroke="#263238" stroke-width="0.75" stroke-linecap="round" stroke-linejoin="round"/><path d="M142.523 53.8413C142.523 53.8413 143.386 53.1553 143.966 53.8833" stroke="#263238" stroke-width="0.75" stroke-linecap="round" stroke-linejoin="round"/><path d="M141.34 54.5469C141.262 54.8144 141.096 55.0625 140.856 55.2678C140.617 55.4731 140.312 55.6288 139.971 55.7201L140.644 56.5293" stroke="#263238" stroke-width="0.75" stroke-linecap="round" stroke-linejoin="round"/><path d="M145.636 86.6489L145.447 87.5141C145.42 87.657 145.467 87.8023 145.578 87.9196C145.689 88.037 145.855 88.1174 146.043 88.1441L157.909 89.6169C158.097 89.6375 158.289 89.602 158.444 89.518C158.6 89.434 158.706 89.308 158.741 89.1661L158.926 88.3009L145.636 86.6489Z" fill="white" stroke="#263238" stroke-width="0.75" stroke-linecap="round" stroke-linejoin="round"/><path d="M159.457 82.849L147.456 81.3585C147.099 81.3141 146.762 81.4972 146.704 81.7673L145.514 87.2519C145.456 87.522 145.697 87.7769 146.054 87.8212L158.056 89.3117C158.413 89.356 158.749 89.173 158.808 88.9029L159.997 83.4183C160.056 83.1482 159.814 82.8933 159.457 82.849Z" fill="white"/><path opacity="0.5" d="M159.457 82.8488L147.456 81.3583C147.099 81.314 146.762 81.497 146.704 81.7671L145.514 87.2518C145.456 87.5219 145.697 87.7768 146.054 87.8211L158.056 89.3116C158.413 89.3559 158.749 89.1729 158.808 88.9028L159.997 83.4182C160.056 83.1481 159.814 82.8932 159.457 82.8488Z" fill="white"/><path d="M159.457 82.849L147.456 81.3585C147.099 81.3141 146.762 81.4972 146.704 81.7673L145.514 87.2519C145.456 87.522 145.697 87.7769 146.054 87.8212L158.056 89.3117C158.413 89.356 158.749 89.173 158.808 88.9029L159.997 83.4183C160.056 83.1482 159.814 82.8933 159.457 82.849Z" stroke="#263238" stroke-linecap="round" stroke-linejoin="round"/><path d="M154.826 83.8712L154.171 85.5512L151.951 86.7524C151.637 87.4877 151.267 88.2086 150.841 88.9112C150.813 88.9504 150.799 88.9943 150.799 89.0389C150.799 89.0836 150.814 89.1274 150.843 89.1663C150.872 89.2052 150.914 89.238 150.964 89.2614C151.014 89.2849 151.071 89.2983 151.13 89.3004C151.437 89.3004 151.796 89.1912 151.992 88.7404C151.992 88.7404 152.077 89.6252 152.799 89.0848C152.799 89.0848 153.239 89.9416 153.927 89.2668C153.927 89.2668 155.522 89.446 155.777 88.5752C156.033 87.7044 156.41 86.17 156.41 86.17L157.424 84.3696L154.826 83.8712Z" fill="#858585" stroke="#263238" stroke-linecap="round" stroke-linejoin="round"/><path d="M151.977 88.396L152.228 87.0996" stroke="#263238" stroke-width="0.75" stroke-linecap="round" stroke-linejoin="round"/><path d="M152.373 88.4801C152.373 88.4801 152.547 88.9085 152.939 88.8385C153.331 88.7685 153.89 89.0989 155.111 88.7097" stroke="#263238" stroke-width="0.75" stroke-linecap="round" stroke-linejoin="round"/><path d="M155.943 62.8237C155.943 62.8237 161.493 74.4941 161.389 76.1993C161.286 77.9045 157.338 85.3217 157.338 85.3217L154.289 84.5881L156.324 75.8885L154.5 69.8433C154.5 69.8433 154.086 65.4109 155.943 62.8237Z" fill="white" stroke="#263238" stroke-linecap="round" stroke-linejoin="round"/><path d="M157.009 75.6952C157.213 75.5766 157.451 75.4942 157.703 75.454C157.955 75.4138 158.216 75.4168 158.467 75.4628" stroke="#263238" stroke-width="0.75" stroke-linecap="round" stroke-linejoin="round"/><path d="M153.402 84.7728C153.291 84.6619 153.209 84.5366 153.158 84.4032C152.944 84.4001 152.737 84.4583 152.578 84.566C152.42 84.6738 152.321 84.8231 152.301 84.9839C152.282 85.1447 152.344 85.3051 152.475 85.4327C152.606 85.5603 152.795 85.6457 153.006 85.6716C153.227 85.6991 153.454 85.6592 153.636 85.5605C153.819 85.4619 153.942 85.3125 153.979 85.1452C153.741 85.0686 153.539 84.9387 153.402 84.7728V84.7728Z" fill="white"/><path d="M45.1176 60.1411L45.791 62.6527L38.3096 62.8907L39.6083 55.9299L44.6477 56.3723L45.1176 60.1411Z" fill="white"/><path d="M48.4706 56.3303L42.2139 57.7303C42.292 58.273 42.4407 58.8086 42.6579 59.3291C43.0279 60.1355 45.2812 61.5691 46.7279 61.5523C48.1746 61.5355 48.3374 58.0467 48.3374 58.0467L49.2106 57.6799C49.2606 57.6584 49.3039 57.6291 49.3379 57.5939C49.3718 57.5587 49.3955 57.5185 49.4074 57.4759C49.4193 57.4333 49.4191 57.3893 49.4068 57.3468C49.3946 57.3042 49.3706 57.2641 49.3364 57.2291L48.4706 56.3303Z" fill="#263238" stroke="#263238" stroke-width="0.75" stroke-linecap="round" stroke-linejoin="round"/><path d="M45.1176 60.1411L45.791 62.6527L38.3096 62.8907L39.6083 55.9299L44.6477 56.3723L45.1176 60.1411Z" stroke="#263238" stroke-linecap="round" stroke-linejoin="round"/><path d="M45.462 51.2932C45.462 51.2932 47.2787 51.5732 47.0937 50.0808C46.9087 48.5884 43.5232 49.5012 41.7583 49.6692C39.9934 49.8372 34.2954 51.4472 36.3119 53.9896C36.3119 53.9896 35.1242 55.4232 39.4014 57.8284C39.4014 57.8284 41.4327 57.106 42.5464 58.1616L43.4159 56.8792L45.6359 53.928L45.462 51.2932Z" fill="#263238" stroke="#263238" stroke-linecap="round" stroke-linejoin="round"/><path d="M45.3281 51.0692C45.3281 51.0692 47.0671 51.8028 48.0661 50.8844C48.0661 50.8844 48.1771 52.8444 45.3281 51.0692Z" fill="#263238" stroke="#263238" stroke-linecap="round" stroke-linejoin="round"/><path d="M45.5102 50.8647C45.5102 50.8647 48.1002 52.9283 48.0114 54.3423V55.6331L49.3805 56.7979C49.4187 56.8278 49.4477 56.8637 49.4654 56.903C49.483 56.9424 49.4889 56.9842 49.4825 57.0255C49.4761 57.0668 49.4577 57.1065 49.4285 57.1417C49.3993 57.1769 49.3602 57.2068 49.3138 57.2291L48.5183 57.6464C48.5183 57.6464 48.7514 60.9504 47.3824 61.068C46.0134 61.1856 43.7342 59.9479 43.2791 59.2199C42.9364 58.552 42.6883 57.8584 42.5391 57.1507C42.1407 57.0691 41.7836 56.899 41.5139 56.6625C41.2442 56.426 41.0743 56.1338 41.0258 55.8235C40.8667 54.7371 42.3134 54.7679 42.6871 55.4791L42.9905 56.0587L43.9303 56.0335C43.9303 56.0335 43.3938 55.0087 43.712 54.7063C44.0302 54.4039 45.2808 53.6675 44.7073 52.9647C44.1338 52.2619 44.3262 51.0663 45.5102 50.8647Z" fill="white" stroke="#263238" stroke-linecap="round" stroke-linejoin="round"/><path d="M46.9902 58.2932C47.098 58.4379 47.2631 58.5534 47.4623 58.6232C47.6615 58.6931 47.8847 58.7138 48.1002 58.6824" stroke="#263238" stroke-width="0.75" stroke-linecap="round" stroke-linejoin="round"/><path d="M46.3096 54.3507C46.3096 54.3507 46.8979 53.7319 47.4566 54.2975" stroke="#263238" stroke-linecap="round" stroke-linejoin="round"/><path d="M47.2382 55.6416C47.2382 55.8348 47.1382 55.9944 47.0013 55.9972C46.8644 56 46.746 55.846 46.7386 55.6528C46.7312 55.4596 46.8385 55.3 46.9754 55.2972C47.1123 55.2944 47.2308 55.44 47.2382 55.6416Z" fill="#263238"/><path d="M35.3724 117.667L34.292 124.704L37.5073 125.079L39.2796 118.124L35.3724 117.667Z" fill="white" stroke="#263238" stroke-linecap="round" stroke-linejoin="round"/><path d="M33.8584 86.5759C33.8584 86.5759 33.9879 90.6527 35.8897 93.5199L36.3226 104.339L34.1285 121.772L39.0088 122.125L43.4488 103.891L44.9288 87.3711L33.8584 86.5759Z" fill="white" stroke="#263238" stroke-linecap="round" stroke-linejoin="round"/><path opacity="0.2" d="M44.2414 95.3147L43.8344 93.3743L41.9844 87.2675L41.644 87.1359L33.874 86.5759C33.874 86.5759 33.874 87.2451 34.0479 88.2335L37.8848 89.8799C37.9753 90.9137 38.2838 91.9299 38.7987 92.8899C38.8448 92.9737 38.8617 93.0651 38.8476 93.1553C38.8336 93.2455 38.7891 93.3314 38.7185 93.4048C38.6479 93.4782 38.5535 93.5366 38.4444 93.5744C38.3354 93.6122 38.2153 93.6282 38.0957 93.6207C37.6998 93.5983 37.3557 93.6207 37.3557 93.8167C37.3557 94.2703 40.2491 95.7347 40.2491 95.7347C40.2491 95.7347 43.1684 102.875 43.0648 105.512L43.4607 103.888L44.2414 95.3147Z" fill="black"/><path d="M45.1846 118.129L45.5361 125.208H48.7884L49.1362 118.129H45.1846Z" fill="white" stroke="#263238" stroke-linecap="round" stroke-linejoin="round"/><path d="M53.9676 126.204C52.894 125.957 51.8495 125.642 50.8448 125.264C50.3638 125.037 49.6905 124.295 49.1947 124.085C49.0906 124.051 48.9786 124.033 48.8654 124.033C48.7521 124.033 48.6401 124.051 48.536 124.085C48.2992 124.23 48.2882 124.989 48.2882 124.989C48.2882 124.989 47.8701 124.216 47.5667 124.085C47.1449 123.906 45.9979 123.852 45.6242 124.085C45.0026 124.468 44.7769 125.801 44.6548 126.4C44.6252 126.532 44.6548 127.26 44.6548 127.26H54.6447V126.927C54.6455 126.768 54.5806 126.613 54.4592 126.483C54.3378 126.354 54.1659 126.256 53.9676 126.204V126.204Z" fill="#263238" stroke="#263238" stroke-linecap="round" stroke-linejoin="round"/><path d="M51.9883 86.912L51.1891 103.267L49.8534 121.94H44.7696C44.7696 121.94 43.704 107.607 43.9704 103.46L41.3027 93.87C41.3027 93.87 38.5018 91.042 39.1678 87.612L51.9883 86.912Z" fill="white" stroke="#263238" stroke-linecap="round" stroke-linejoin="round"/><path d="M44.3184 120.551L44.4849 122.797H50.0534L50.4863 120.551H44.3184Z" fill="white" stroke="#263238" stroke-linecap="round" stroke-linejoin="round"/><path d="M33.7221 120.358L33.6074 122.603L39.15 123.004L39.8641 120.8L33.7221 120.358Z" fill="white" stroke="#263238" stroke-linecap="round" stroke-linejoin="round"/><path d="M60.4179 76.146L52.7256 72.4444L60.8323 66.3096L68.5283 70.0112L60.4179 76.146Z" fill="white" stroke="#263238" stroke-linecap="round" stroke-linejoin="round"/><path d="M60.8573 74.8803L54.6709 71.9039L61.1903 66.9703L67.3767 69.9467L60.8573 74.8803Z" fill="white" stroke="#263238" stroke-width="0.75" stroke-linecap="round" stroke-linejoin="round"/><path d="M61.3094 69.7704L62.3898 68.9528L61.0023 68.2864L59.9219 69.1012L61.3094 69.7704Z" stroke="#263238" stroke-width="0.75" stroke-linecap="round" stroke-linejoin="round"/><path d="M59.6336 71.0415L60.714 70.2239L59.3228 69.5547L58.2461 70.3723L59.6336 71.0415Z" stroke="#263238" stroke-width="0.75" stroke-linecap="round" stroke-linejoin="round"/><path d="M57.898 72.3547L58.9747 71.5371L57.5872 70.8679L56.5068 71.6855L57.898 72.3547Z" stroke="#263238" stroke-width="0.75" stroke-linecap="round" stroke-linejoin="round"/><path d="M63.9548 67.2643L62.9336 68.0399C62.8852 68.0764 62.8483 68.1206 62.8257 68.1693C62.803 68.2181 62.7951 68.2701 62.8025 68.3214C62.81 68.3728 62.8326 68.4222 62.8688 68.4661C62.9049 68.5099 62.9536 68.547 63.0113 68.5747L64.4913 69.2943C64.6544 69.373 64.8482 69.4073 65.0405 69.3915C65.2329 69.3758 65.4124 69.3108 65.5495 69.2075L66.493 68.4907L63.9548 67.2643Z" fill="#858585" stroke="#263238" stroke-linecap="round" stroke-linejoin="round"/><path d="M36.582 62.4847L37.9177 60.2643C37.9177 60.2643 45.6544 59.6091 47.719 64.5035L36.582 62.4847Z" fill="#858585" stroke="#263238" stroke-linecap="round" stroke-linejoin="round"/><path d="M32.1901 64.3776C32.1901 64.3776 30.2809 75.446 30.7878 79.3688C31.1874 82.4712 33.8884 85.0976 33.8884 85.0976L37.8918 83.9104L35.8568 79.3688C35.8568 79.3688 36.4895 71.1928 37.0889 69.2888L32.1901 64.3776Z" fill="#858585" stroke="#263238" stroke-linecap="round" stroke-linejoin="round"/><path d="M32.7295 84.5543L33.858 85.5763L38.483 84.2127L37.8836 82.8491L32.7295 84.5543Z" fill="#858585" stroke="#263238" stroke-linecap="round" stroke-linejoin="round"/><path d="M32.1899 64.3776C32.1899 64.3776 31.5868 70.7364 33.2999 75.2052C35.013 79.674 33.2999 87.0128 33.2999 87.0128C33.2999 87.0128 41.1846 90.874 53.2799 87.92C53.2799 87.92 51.7814 66.192 49.7797 64.9824C47.778 63.7728 36.4819 59.1556 32.1899 64.3776Z" fill="#858585" stroke="#263238" stroke-linecap="round" stroke-linejoin="round"/><path opacity="0.2" d="M53.2797 87.92C53.2797 87.92 52.7654 80.472 51.9403 74.0544C50.1902 70.84 47.3301 66.5588 47.1784 72.5704C46.9564 81.2644 54.0271 80.752 48.4253 82.2668C47.1727 82.6258 45.8309 82.7713 44.4956 82.6929C43.1602 82.6145 41.8641 82.3141 40.6997 81.8132C40.6066 81.7771 40.5 81.7662 40.3975 81.7823C40.2951 81.7983 40.203 81.8404 40.1365 81.9015C40.0699 81.9627 40.033 82.0391 40.0318 82.1183C40.0307 82.1975 40.0652 82.2746 40.1299 82.3368C41.5359 83.6892 43.6708 84.532 45.3099 85.0164C45.4579 85.0592 45.583 85.1379 45.6658 85.2401C45.7485 85.3424 45.7843 85.4625 45.7674 85.5817C45.7505 85.701 45.6819 85.8126 45.5724 85.8993C45.4629 85.9859 45.3185 86.0427 45.1619 86.0608C39.8857 86.6516 35.7491 84.5292 33.851 83.2944C33.629 85.4336 33.2627 87.0128 33.2627 87.0128C33.2627 87.0128 41.1844 90.874 53.2797 87.92Z" fill="black"/><path d="M49.7874 64.9852C50.5087 65.2357 51.1346 65.6202 51.6068 66.1029C52.079 66.5856 52.3823 67.1508 52.4884 67.746C52.888 69.8292 55.4484 76.2272 55.4484 76.2272L56.2994 75.81C57.0099 76.0515 57.5952 76.4637 57.9644 76.9826C58.3337 77.5016 58.4664 78.0982 58.3418 78.68C58.3418 78.68 56.2624 81.76 53.9906 81.1804C51.6559 80.5812 50.3498 79.1364 49.1806 76.7732C48.5627 75.5132 46.7793 71.7164 46.7793 71.7164" fill="#858585"/><path d="M49.7874 64.9852C50.5087 65.2357 51.1346 65.6202 51.6068 66.1029C52.079 66.5856 52.3823 67.1508 52.4884 67.746C52.888 69.8292 55.4484 76.2272 55.4484 76.2272L56.2994 75.81C57.0099 76.0515 57.5952 76.4637 57.9644 76.9826C58.3337 77.5016 58.4664 78.0982 58.3418 78.68C58.3418 78.68 56.2624 81.76 53.9906 81.1804C51.6559 80.5812 50.3498 79.1364 49.1806 76.7732C48.5627 75.5132 46.7793 71.7164 46.7793 71.7164" stroke="#263238" stroke-linecap="round" stroke-linejoin="round"/><path d="M56.47 78.0807C56.4834 78.2453 56.4735 78.4105 56.4404 78.5735" stroke="#263238" stroke-width="0.75" stroke-linecap="round" stroke-linejoin="round"/><path d="M54.9414 79.3688C54.9414 79.3688 55.6407 78.5288 55.5408 76.7172C55.877 76.9099 56.1337 77.1712 56.2808 77.4704" stroke="#263238" stroke-width="0.75" stroke-linecap="round" stroke-linejoin="round"/><path d="M56.8584 75.6336L59.5261 74.1944C59.6594 73.7469 59.9498 73.3349 60.3665 73.0018C60.7832 72.6687 61.311 72.4268 61.8941 72.3016C61.8941 72.3016 63.1262 70.7616 63.8255 70.9408C64.5248 71.12 62.993 71.7472 62.8598 72.5536L63.4259 73.1276C63.4259 73.1276 65.2759 72.8812 65.7273 72.4276C65.7273 72.4276 65.6274 73.388 64.8948 73.5476C64.8948 73.5476 64.8948 74.2784 64.3953 74.2532L60.7249 75.0372L58.59 78.0528L56.8584 75.6336Z" fill="white" stroke="#263238" stroke-linecap="round" stroke-linejoin="round"/><path d="M45.9355 82.6336C46.3574 82.6042 46.7755 82.5499 47.1861 82.4712" stroke="#263238" stroke-width="0.75" stroke-linecap="round" stroke-linejoin="round"/><path d="M35.4502 78.0443C35.4502 78.0443 39.3833 82.5971 45.0702 82.6587" stroke="#263238" stroke-width="0.75" stroke-linecap="round" stroke-linejoin="round"/><path d="M55.707 75.684C55.707 75.684 58.4894 77.2744 58.223 79.1924L59.2257 77.7392C59.2257 77.7392 59.1924 76.5156 56.891 75.2192L55.707 75.684Z" fill="#858585" stroke="#263238" stroke-linecap="round" stroke-linejoin="round"/><path d="M44.6564 127.26H54.6464V126.927C54.6463 126.845 54.6289 126.764 54.5946 126.686H44.6416C44.6416 126.941 44.6564 127.26 44.6564 127.26Z" fill="white" stroke="#263238" stroke-width="0.75" stroke-linecap="round" stroke-linejoin="round"/><path d="M42.5497 126.204C41.4761 125.957 40.4315 125.642 39.4269 125.264C38.9459 125.037 38.2725 124.295 37.7804 124.085C37.6758 124.051 37.5631 124.033 37.4492 124.033C37.3354 124.033 37.2227 124.051 37.1181 124.085C36.8813 124.23 36.8702 124.989 36.8702 124.989C36.8702 124.989 36.4558 124.216 36.1487 124.085C35.7269 123.906 34.5799 123.852 34.2062 124.085C33.5846 124.468 33.3589 125.801 33.2368 126.4C33.2072 126.532 33.2368 127.26 33.2368 127.26H43.2268V126.927C43.2275 126.768 43.1627 126.613 43.0413 126.483C42.9199 126.354 42.748 126.256 42.5497 126.204V126.204Z" fill="#263238" stroke="#263238" stroke-linecap="round" stroke-linejoin="round"/><path d="M33.2306 127.26H43.2206V126.927C43.2206 126.845 43.2031 126.764 43.1688 126.686H33.2158C33.2158 126.941 33.2306 127.26 33.2306 127.26Z" fill="white" stroke="#263238" stroke-width="0.75" stroke-linecap="round" stroke-linejoin="round"/><path d="M47.967 103.569C47.967 103.569 46.9051 104.955 45.1846 104.426" stroke="#263238" stroke-width="0.75" stroke-linecap="round" stroke-linejoin="round"/><path d="M40.5628 104.056C40.5628 104.056 38.6573 105.288 37.0811 104.426" stroke="#263238" stroke-width="0.75" stroke-linecap="round" stroke-linejoin="round"/><path d="M60.4463 68.1884L60.7127 69.1908H63.0733L61.153 68.852L61.2455 68.1688L60.4463 68.1884Z" fill="white"/></svg>