<svg width="185" height="140" fill="none" xmlns="http://www.w3.org/2000/svg"><path d="M157.967 90.6387L157.679 92.5987L162.714 88.1439C163.317 88.1916 163.922 88.2159 164.527 88.2167" stroke="#263238" stroke-linecap="round" stroke-linejoin="round"/><path d="M151.66 77.1204C150.999 77.8759 150.584 78.7397 150.45 79.6404C149.973 82.8968 153.347 85.9768 158.446 87.402L158.187 89.152" stroke="#263238" stroke-linecap="round" stroke-linejoin="round"/><path d="M153.618 75.4991C153.29 75.7001 152.979 75.9161 152.686 76.1459" stroke="#263238" stroke-linecap="round" stroke-linejoin="round"/><path d="M172.502 75.4991C170.203 74.307 167.545 73.5714 164.772 73.3599C161.842 73.0881 158.869 73.4189 156.166 74.3175" stroke="#263238" stroke-linecap="round" stroke-linejoin="round"/><path d="M168.032 87.9536C172.842 87.2004 176.487 84.8736 176.912 81.8552C177.223 79.744 175.917 77.7084 173.582 76.146" stroke="#263238" stroke-linecap="round" stroke-linejoin="round"/><path d="M156.17 77.6636C156.577 77.7211 156.995 77.717 157.4 77.6517C157.806 77.5863 158.19 77.461 158.531 77.2828L160.329 78.3384C160.203 78.3692 160.214 78.1676 160.347 78.162C160.48 78.1564 160.58 78.2488 160.673 78.3216C161.095 78.6604 161.805 78.6716 162.408 78.5736C163.011 78.4756 163.6 78.2936 164.214 78.3104C164.579 78.3393 164.938 78.4023 165.283 78.498C167.755 79.0776 170.326 79.3688 172.887 79.6544" stroke="#263238" stroke-linecap="round" stroke-linejoin="round"/><path d="M154.046 79.6543C154.416 79.6375 156.477 79.6543 156.773 79.4667L157.276 80.1303L157.831 79.7243C157.927 80.0043 158.023 80.2843 158.116 80.5475C158.534 80.6231 158.486 80.0127 158.856 79.8307C158.97 79.7885 159.1 79.7803 159.222 79.8078C159.343 79.8353 159.446 79.8965 159.511 79.9791C159.632 80.151 159.691 80.3443 159.681 80.5391L162.212 80.6959L162.704 80.7267C162.88 80.5236 163.14 80.3709 163.444 80.2927C163.351 80.7351 164.088 80.9871 164.672 81.0767C167.551 81.5209 170.444 81.9045 173.352 82.2275" stroke="#263238" stroke-linecap="round" stroke-linejoin="round"/><path d="M155.171 82.6951C155.404 82.8183 155.689 82.5887 155.974 82.5607C156.259 82.5327 156.492 82.6951 156.743 82.7931C156.995 82.8911 157.409 82.8491 157.424 82.6363C157.483 82.9163 157.942 83.0171 158.316 83.0563L168.032 84.0895" stroke="#263238" stroke-linecap="round" stroke-linejoin="round"/><path d="M25.1602 73.1304L29.0526 77.0952L28.2719 71.9068C29.2025 71.5649 30.0925 71.163 30.9322 70.7056C34.9208 68.5216 36.5266 65.0076 35.0651 62.1768C34.0402 60.2 31.6389 58.856 28.6049 58.2988" stroke="#263238" stroke-linecap="round" stroke-linejoin="round"/><path d="M9.78709 66.8751C9.66579 67.7731 9.82811 68.68 10.2607 69.5211C11.8369 72.5731 16.7135 74.1131 22.1007 73.5811" stroke="#263238" stroke-linecap="round" stroke-linejoin="round"/><path d="M10.5232 64.7499C10.3579 65.0438 10.2158 65.3448 10.0977 65.6515" stroke="#263238" stroke-linecap="round" stroke-linejoin="round"/><path d="M27.2469 58.1084C24.4786 57.8579 21.6715 58.1391 19.0847 58.926C16.3237 59.716 13.8952 61.0547 12.0547 62.8012" stroke="#263238" stroke-linecap="round" stroke-linejoin="round"/><path d="M14.1113 65.7664C14.9073 65.5785 15.5725 65.1597 15.9613 64.6016L18.1813 64.904C18.0851 64.974 17.9741 64.792 18.0888 64.7388C18.2035 64.6856 18.3478 64.7388 18.4588 64.7668C19.0434 64.918 19.6761 64.68 20.1497 64.3804C20.6233 64.0808 21.0303 63.7084 21.589 63.5124C21.9303 63.4092 22.2869 63.3377 22.6509 63.2996C25.1965 62.9468 27.6496 62.2972 30.0953 61.6504" stroke="#263238" stroke-linecap="round" stroke-linejoin="round"/><path d="M13.4541 68.278C13.7834 68.1296 15.6075 67.4212 15.7555 67.158L16.6102 67.5696C16.6916 67.3848 16.773 67.1972 16.8507 67.0096L17.6092 67.6396C18.0273 67.5612 17.6092 67.0376 17.809 66.752C17.8834 66.6745 17.994 66.6212 18.1183 66.6031C18.2426 66.5849 18.3715 66.6031 18.4787 66.654C18.69 66.7613 18.8598 66.9091 18.9708 67.0824L21.3055 66.332L21.7643 66.1864C21.7906 65.946 21.9206 65.7187 22.1343 65.5396C22.3267 65.968 23.1333 65.9288 23.7031 65.8028C26.5274 65.1868 29.3259 64.5092 32.0984 63.77" stroke="#263238" stroke-linecap="round" stroke-linejoin="round"/><path d="M16.3174 70.5739C16.6023 70.6019 16.7133 70.2939 16.9464 70.1707C17.1795 70.0475 17.4903 70.1119 17.7715 70.1063C18.0527 70.1007 18.3968 69.9243 18.2784 69.7311C18.5041 69.9579 18.974 69.8851 19.3255 69.7899L28.5755 67.2839" stroke="#263238" stroke-linecap="round" stroke-linejoin="round"/><path d="M137.985 25.0935H45.7289C43.9327 25.0935 42.4766 26.1954 42.4766 27.5547V90.4483C42.4766 91.8076 43.9327 92.9095 45.7289 92.9095H137.985C139.781 92.9095 141.237 91.8076 141.237 90.4483V27.5547C141.237 26.1954 139.781 25.0935 137.985 25.0935Z" fill="white"/><path opacity="0.2" d="M141.237 62.2411V90.5211C141.237 91.1541 140.905 91.7611 140.314 92.209C139.723 92.6568 138.921 92.9088 138.085 92.9095H45.6327C44.7956 92.9095 43.9928 92.6579 43.401 92.21C42.8091 91.762 42.4766 91.1545 42.4766 90.5211V84.9211H42.6727V88.6955C42.6727 89.0542 42.7661 89.4095 42.9476 89.7409C43.1291 90.0723 43.3952 90.3733 43.7306 90.6269C44.066 90.8804 44.4641 91.0815 44.9022 91.2185C45.3403 91.3555 45.8098 91.4259 46.2839 91.4255H135.598C136.072 91.4259 136.542 91.3555 136.98 91.2185C137.418 91.0815 137.816 90.8804 138.151 90.6269C138.487 90.3733 138.753 90.0723 138.934 89.7409C139.116 89.4095 139.209 89.0542 139.209 88.6955V66.4355C139.209 65.9313 138.945 65.4477 138.474 65.0911C138.002 64.7346 137.363 64.5343 136.697 64.5343H42.4766V62.2411H141.237Z" fill="black"/><path d="M137.985 25.0935H45.7289C43.9327 25.0935 42.4766 26.1954 42.4766 27.5547V90.4483C42.4766 91.8076 43.9327 92.9095 45.7289 92.9095H137.985C139.781 92.9095 141.237 91.8076 141.237 90.4483V27.5547C141.237 26.1954 139.781 25.0935 137.985 25.0935Z" stroke="#263238" stroke-linecap="round" stroke-linejoin="round"/><path d="M132.639 70.294V67.0544C132.639 66.8969 132.599 66.7409 132.519 66.5953C132.44 66.4498 132.323 66.3175 132.176 66.2061C132.029 66.0948 131.854 66.0065 131.662 65.9464C131.47 65.8863 131.263 65.8556 131.055 65.856H52.6598C52.2398 65.856 51.837 65.9822 51.54 66.207C51.243 66.4317 51.0762 66.7365 51.0762 67.0544V70.294C51.0762 70.6118 50.9093 70.9166 50.6123 71.1414C50.3154 71.3661 49.9126 71.4924 49.4926 71.4924V71.4924C49.0716 71.4924 48.6679 71.6189 48.3702 71.8442C48.0725 72.0695 47.9053 72.375 47.9053 72.6936V79.086C47.9053 80.56 48.6791 81.9737 50.0564 83.0161C51.4338 84.0584 53.3019 84.644 55.2498 84.644V84.644C55.5628 84.644 55.863 84.7381 56.0844 84.9056C56.3057 85.0731 56.4301 85.3003 56.4301 85.5372V87.4524C56.4301 88.1593 56.8012 88.8373 57.4618 89.3372C58.1223 89.8371 59.0183 90.118 59.9525 90.118H123.763C124.697 90.118 125.593 89.8371 126.253 89.3372C126.914 88.8373 127.285 88.1593 127.285 87.4524V85.5372C127.285 85.3003 127.409 85.0731 127.631 84.9056C127.852 84.7381 128.152 84.644 128.465 84.644C129.43 84.644 130.385 84.5002 131.276 84.2209C132.167 83.9416 132.977 83.5322 133.659 83.0161C134.341 82.5 134.882 81.8873 135.251 81.2129C135.62 80.5386 135.81 79.8159 135.81 79.086V72.6936C135.81 72.3755 135.643 72.0704 135.346 71.8452C135.049 71.62 134.647 71.4931 134.226 71.4924C133.806 71.4924 133.403 71.3662 133.105 71.1415C132.808 70.9169 132.64 70.6121 132.639 70.294V70.294Z" fill="#263238"/><path d="M57.0813 67.6899H54.3396C54.004 67.6899 53.6822 67.7908 53.4448 67.9704C53.2075 68.15 53.0742 68.3936 53.0742 68.6475V69.1795C53.0742 70.2827 54.2545 71.6827 55.7123 71.6827C57.1701 71.6827 58.3504 70.2827 58.3504 69.1795V68.6475C58.3494 68.3933 58.2153 68.1497 57.9774 67.9702C57.7395 67.7907 57.4173 67.6899 57.0813 67.6899V67.6899Z" fill="white" stroke="#263238" stroke-linecap="round" stroke-linejoin="round"/><path d="M63.6397 67.6899H60.898C60.5621 67.6899 60.2398 67.7907 60.0019 67.9702C59.764 68.1498 59.6299 68.3933 59.6289 68.6475V69.1795C59.6289 70.2827 60.8092 71.6828 62.267 71.6828C63.7248 71.6828 64.9051 70.2827 64.9051 69.1795V68.6475C64.9051 68.3936 64.7718 68.15 64.5345 67.9704C64.2972 67.7908 63.9753 67.6899 63.6397 67.6899V67.6899Z" fill="white" stroke="#263238" stroke-linecap="round" stroke-linejoin="round"/><path d="M70.2278 67.6899H67.4861C67.1505 67.6899 66.8286 67.7908 66.5913 67.9704C66.354 68.15 66.2207 68.3936 66.2207 68.6475V69.1795C66.2207 70.2827 67.401 71.6827 68.8551 71.6827C70.3092 71.6827 71.4932 70.2827 71.4932 69.1795V68.6475C71.4932 68.3936 71.3599 68.15 71.1226 67.9704C70.8853 67.7908 70.5634 67.6899 70.2278 67.6899V67.6899Z" fill="white" stroke="#263238" stroke-linecap="round" stroke-linejoin="round"/><path d="M76.7981 67.6899H74.0564C73.7208 67.6899 73.3989 67.7908 73.1616 67.9704C72.9243 68.15 72.791 68.3936 72.791 68.6475V69.1795C72.791 70.2827 73.9713 71.6827 75.4291 71.6827C76.8869 71.6827 78.0635 70.2827 78.0635 69.1795V68.6475C78.0635 68.5218 78.0308 68.3973 77.9672 68.2811C77.9036 68.1649 77.8104 68.0593 77.6929 67.9704C77.5754 67.8815 77.4359 67.811 77.2824 67.7628C77.1288 67.7147 76.9643 67.6899 76.7981 67.6899V67.6899Z" fill="white" stroke="#263238" stroke-linecap="round" stroke-linejoin="round"/><path d="M83.3684 67.6899H80.6267C80.2911 67.6899 79.9693 67.7908 79.732 67.9704C79.4946 68.15 79.3613 68.3936 79.3613 68.6475V69.1795C79.3613 70.2827 80.5416 71.6828 81.9994 71.6828C83.4572 71.6828 84.6375 70.2827 84.6375 69.1795V68.6475C84.6366 68.3933 84.5024 68.1498 84.2645 67.9702C84.0266 67.7907 83.7044 67.6899 83.3684 67.6899V67.6899Z" fill="white" stroke="#263238" stroke-linecap="round" stroke-linejoin="round"/><path d="M89.9444 67.6899H87.2027C86.8667 67.6899 86.5445 67.7907 86.3066 67.9702C86.0687 68.1497 85.9346 68.3933 85.9336 68.6475V69.1795C85.9336 70.2827 87.1139 71.6827 88.5717 71.6827C90.0295 71.6827 91.2098 70.2827 91.2098 69.1795V68.6475C91.2098 68.3936 91.0765 68.15 90.8392 67.9704C90.6019 67.7908 90.28 67.6899 89.9444 67.6899V67.6899Z" fill="white" stroke="#263238" stroke-linecap="round" stroke-linejoin="round"/><path d="M96.5149 67.6899H93.7732C93.4376 67.6899 93.1157 67.7908 92.8784 67.9704C92.6411 68.15 92.5078 68.3936 92.5078 68.6475V69.1795C92.5078 70.2827 93.6881 71.6828 95.1422 71.6828C96.5963 71.6828 97.7803 70.2827 97.7803 69.1795V68.6475C97.7803 68.3936 97.647 68.15 97.4097 67.9704C97.1724 67.7908 96.8505 67.6899 96.5149 67.6899V67.6899Z" fill="white" stroke="#263238" stroke-linecap="round" stroke-linejoin="round"/><path d="M103.086 67.6899H100.345C100.009 67.6899 99.687 67.7908 99.4497 67.9704C99.2124 68.15 99.0791 68.3936 99.0791 68.6475V69.1795C99.0791 70.2827 100.259 71.6827 101.717 71.6827C103.175 71.6827 104.352 70.2827 104.352 69.1795V68.6475C104.352 68.3936 104.218 68.15 103.981 67.9704C103.744 67.7908 103.422 67.6899 103.086 67.6899V67.6899Z" fill="white" stroke="#263238" stroke-linecap="round" stroke-linejoin="round"/><path d="M109.658 67.6899H106.931C106.765 67.6899 106.601 67.7147 106.447 67.7628C106.294 67.8109 106.154 67.8814 106.037 67.9704C105.919 68.0593 105.826 68.1648 105.762 68.281C105.699 68.3972 105.666 68.5217 105.666 68.6475V69.1795C105.666 70.2827 106.846 71.6827 108.304 71.6827C109.762 71.6827 110.942 70.2827 110.942 69.1795V68.6475C110.942 68.5207 110.908 68.3951 110.843 68.2782C110.778 68.1613 110.683 68.0552 110.564 67.9662C110.445 67.8772 110.303 67.8069 110.148 67.7595C109.992 67.7121 109.826 67.6884 109.658 67.6899V67.6899Z" fill="white" stroke="#263238" stroke-linecap="round" stroke-linejoin="round"/><path d="M116.232 67.6899H113.491C113.155 67.6899 112.833 67.7907 112.595 67.9702C112.357 68.1497 112.223 68.3933 112.222 68.6475V69.1795C112.222 70.2827 113.402 71.6827 114.86 71.6827C116.318 71.6827 117.498 70.2827 117.498 69.1795V68.6475C117.498 68.3936 117.365 68.15 117.127 67.9704C116.89 67.7908 116.568 67.6899 116.232 67.6899V67.6899Z" fill="white" stroke="#263238" stroke-linecap="round" stroke-linejoin="round"/><path d="M122.804 67.6899H120.062C119.727 67.6899 119.405 67.7908 119.167 67.9704C118.93 68.15 118.797 68.3936 118.797 68.6475V69.1795C118.797 70.2827 119.977 71.6828 121.431 71.6828C122.885 71.6828 124.069 70.2827 124.069 69.1795V68.6475C124.069 68.3936 123.936 68.15 123.699 67.9704C123.461 67.7908 123.14 67.6899 122.804 67.6899V67.6899Z" fill="white" stroke="#263238" stroke-linecap="round" stroke-linejoin="round"/><path d="M129.375 67.69H126.634C126.298 67.69 125.976 67.7909 125.739 67.9705C125.501 68.1501 125.368 68.3936 125.368 68.6476V69.1796C125.368 70.28 126.541 71.68 128.021 71.68C129.501 71.68 130.655 70.28 130.655 69.1768V68.6448C130.655 68.5183 130.621 68.3932 130.557 68.2766C130.492 68.16 130.397 68.0543 130.278 67.9655C130.159 67.8767 130.018 67.8067 129.863 67.7594C129.708 67.7121 129.542 67.6885 129.375 67.69V67.69Z" fill="white" stroke="#263238" stroke-linecap="round" stroke-linejoin="round"/><path d="M57.0813 78.2291H54.3396C54.004 78.2291 53.6822 78.33 53.4448 78.5096C53.2075 78.6892 53.0742 78.9327 53.0742 79.1867V79.7187C53.0742 80.8219 54.2545 82.2219 55.7123 82.2219C57.1701 82.2219 58.3504 80.8219 58.3504 79.7187V79.1867C58.3494 78.9325 58.2153 78.6889 57.9774 78.5094C57.7395 78.3299 57.4173 78.2291 57.0813 78.2291V78.2291Z" fill="white" stroke="#263238" stroke-linecap="round" stroke-linejoin="round"/><path d="M63.6397 78.2291H60.898C60.5621 78.2291 60.2398 78.3299 60.0019 78.5094C59.764 78.6889 59.6299 78.9325 59.6289 79.1867V79.7187C59.6289 80.8219 60.8092 82.2219 62.267 82.2219C63.7248 82.2219 64.9051 80.8219 64.9051 79.7187V79.1867C64.9051 78.9328 64.7718 78.6892 64.5345 78.5096C64.2972 78.33 63.9753 78.2291 63.6397 78.2291V78.2291Z" fill="white" stroke="#263238" stroke-linecap="round" stroke-linejoin="round"/><path d="M70.2278 78.2291H67.4861C67.1505 78.2291 66.8286 78.33 66.5913 78.5096C66.354 78.6892 66.2207 78.9327 66.2207 79.1867V79.7187C66.2207 80.8219 67.401 82.2219 68.8551 82.2219C70.3092 82.2219 71.4932 80.8219 71.4932 79.7187V79.1867C71.4932 78.9327 71.3599 78.6892 71.1226 78.5096C70.8853 78.33 70.5634 78.2291 70.2278 78.2291V78.2291Z" fill="white" stroke="#263238" stroke-linecap="round" stroke-linejoin="round"/><path d="M76.7981 78.2291H74.0564C73.7208 78.2291 73.3989 78.33 73.1616 78.5096C72.9243 78.6892 72.791 78.9327 72.791 79.1867V79.7187C72.791 80.8219 73.9713 82.2219 75.4291 82.2219C76.8869 82.2219 78.0635 80.8219 78.0635 79.7187V79.1867C78.0635 79.061 78.0308 78.9364 77.9672 78.8203C77.9036 78.7041 77.8104 78.5985 77.6929 78.5096C77.5754 78.4207 77.4359 78.3501 77.2824 78.302C77.1288 78.2539 76.9643 78.2291 76.7981 78.2291V78.2291Z" fill="white" stroke="#263238" stroke-linecap="round" stroke-linejoin="round"/><path d="M83.3684 78.2291H80.6267C80.2911 78.2291 79.9693 78.33 79.732 78.5096C79.4946 78.6892 79.3613 78.9328 79.3613 79.1867V79.7187C79.3613 80.8219 80.5416 82.2219 81.9994 82.2219C83.4572 82.2219 84.6375 80.8219 84.6375 79.7187V79.1867C84.6366 78.9325 84.5024 78.6889 84.2645 78.5094C84.0266 78.3299 83.7044 78.2291 83.3684 78.2291V78.2291Z" fill="white" stroke="#263238" stroke-linecap="round" stroke-linejoin="round"/><path d="M89.9444 78.2291H87.2027C86.8667 78.2291 86.5445 78.3299 86.3066 78.5094C86.0687 78.6889 85.9346 78.9325 85.9336 79.1867V79.7187C85.9336 80.8219 87.1139 82.2219 88.5717 82.2219C90.0295 82.2219 91.2098 80.8219 91.2098 79.7187V79.1867C91.2098 78.9327 91.0765 78.6892 90.8392 78.5096C90.6019 78.33 90.28 78.2291 89.9444 78.2291Z" fill="white" stroke="#263238" stroke-linecap="round" stroke-linejoin="round"/><path d="M96.5149 78.2291H93.7732C93.4376 78.2291 93.1157 78.33 92.8784 78.5096C92.6411 78.6892 92.5078 78.9328 92.5078 79.1867V79.7187C92.5078 80.8219 93.6881 82.2219 95.1422 82.2219C96.5963 82.2219 97.7803 80.8219 97.7803 79.7187V79.1867C97.7803 78.9328 97.647 78.6892 97.4097 78.5096C97.1724 78.33 96.8505 78.2291 96.5149 78.2291V78.2291Z" fill="white" stroke="#263238" stroke-linecap="round" stroke-linejoin="round"/><path d="M103.086 78.2291H100.345C100.009 78.2291 99.687 78.33 99.4497 78.5096C99.2124 78.6892 99.0791 78.9327 99.0791 79.1867V79.7187C99.0791 80.8219 100.259 82.2219 101.717 82.2219C103.175 82.2219 104.352 80.8219 104.352 79.7187V79.1867C104.352 78.9327 104.218 78.6892 103.981 78.5096C103.744 78.33 103.422 78.2291 103.086 78.2291V78.2291Z" fill="white" stroke="#263238" stroke-linecap="round" stroke-linejoin="round"/><path d="M109.658 78.2292H106.931C106.765 78.2292 106.601 78.254 106.447 78.3021C106.294 78.3502 106.154 78.4207 106.037 78.5097C105.919 78.5986 105.826 78.7041 105.762 78.8203C105.699 78.9365 105.666 79.061 105.666 79.1868V79.7188C105.666 80.822 106.846 82.222 108.304 82.222C109.762 82.222 110.942 80.822 110.942 79.7188V79.1868C110.942 79.06 110.908 78.9345 110.843 78.8175C110.778 78.7006 110.683 78.5945 110.564 78.5055C110.445 78.4165 110.303 78.3462 110.148 78.2988C109.992 78.2514 109.826 78.2277 109.658 78.2292V78.2292Z" fill="white" stroke="#263238" stroke-linecap="round" stroke-linejoin="round"/><path d="M116.232 78.2291H113.491C113.155 78.2291 112.833 78.3299 112.595 78.5094C112.357 78.6889 112.223 78.9325 112.222 79.1867V79.7187C112.222 80.8219 113.402 82.2219 114.86 82.2219C116.318 82.2219 117.498 80.8219 117.498 79.7187V79.1867C117.498 78.9327 117.365 78.6892 117.127 78.5096C116.89 78.33 116.568 78.2291 116.232 78.2291V78.2291Z" fill="white" stroke="#263238" stroke-linecap="round" stroke-linejoin="round"/><path d="M122.804 78.2291H120.062C119.727 78.2291 119.405 78.33 119.167 78.5096C118.93 78.6892 118.797 78.9328 118.797 79.1867V79.7187C118.797 80.8219 119.977 82.2219 121.431 82.2219C122.885 82.2219 124.069 80.8219 124.069 79.7187V79.1867C124.069 78.9328 123.936 78.6892 123.699 78.5096C123.461 78.33 123.14 78.2291 122.804 78.2291Z" fill="white" stroke="#263238" stroke-linecap="round" stroke-linejoin="round"/><path d="M129.375 78.2291H126.634C126.298 78.2291 125.976 78.33 125.739 78.5096C125.501 78.6892 125.368 78.9327 125.368 79.1867V79.7187C125.368 80.8219 126.548 82.2219 128.006 82.2219C129.464 82.2219 130.641 80.8219 130.641 79.7187V79.1867C130.641 78.9327 130.507 78.6892 130.27 78.5096C130.033 78.33 129.711 78.2291 129.375 78.2291V78.2291Z" fill="white" stroke="#263238" stroke-linecap="round" stroke-linejoin="round"/><path d="M53.7946 73.1303H51.0603C50.7247 73.1303 50.4029 73.2312 50.1655 73.4107C49.9282 73.5903 49.7949 73.8339 49.7949 74.0879V74.6199C49.7949 75.7203 50.9752 77.1231 52.433 77.1231C53.8908 77.1231 55.0674 75.7231 55.0674 74.6199V74.0879C55.0674 73.9616 55.0344 73.8367 54.9704 73.7201C54.9063 73.6036 54.8125 73.4977 54.6942 73.4088C54.5759 73.3198 54.4355 73.2493 54.2811 73.2015C54.1268 73.1538 53.9614 73.1295 53.7946 73.1303V73.1303Z" fill="white" stroke="#263238" stroke-linecap="round" stroke-linejoin="round"/><path d="M60.3665 73.1302H57.6248C57.2892 73.1302 56.9673 73.2311 56.73 73.4107C56.4927 73.5903 56.3594 73.8339 56.3594 74.0879V74.6199C56.3594 75.7203 57.5397 77.1231 58.9975 77.1231C60.4553 77.1231 61.6356 75.7231 61.6356 74.6199V74.0879C61.6346 73.8336 61.5005 73.5901 61.2626 73.4106C61.0247 73.2311 60.7024 73.1302 60.3665 73.1302V73.1302Z" fill="white" stroke="#263238" stroke-linecap="round" stroke-linejoin="round"/><path d="M66.9415 73.1302H64.1998C63.8638 73.1302 63.5416 73.2311 63.3037 73.4106C63.0658 73.5901 62.9316 73.8336 62.9307 74.0879V74.6199C62.9307 75.7203 64.1147 77.1231 65.5688 77.1231C67.0229 77.1231 68.2069 75.7231 68.2069 74.6199V74.0879C68.2069 73.8339 68.0735 73.5903 67.8362 73.4107C67.5989 73.2311 67.2771 73.1302 66.9415 73.1302V73.1302Z" fill="white" stroke="#263238" stroke-linecap="round" stroke-linejoin="round"/><path d="M73.512 73.1302H70.7703C70.4347 73.1302 70.1128 73.2311 69.8755 73.4107C69.6382 73.5903 69.5049 73.8339 69.5049 74.0879V74.6199C69.5049 75.7203 70.6852 77.1231 72.1393 77.1231C73.5934 77.1231 74.7774 75.7231 74.7774 74.6199V74.0879C74.7774 73.9621 74.7446 73.8376 74.681 73.7214C74.6175 73.6052 74.5242 73.4996 74.4067 73.4107C74.2892 73.3218 74.1497 73.2513 73.9962 73.2031C73.8427 73.155 73.6781 73.1302 73.512 73.1302V73.1302Z" fill="white" stroke="#263238" stroke-linecap="round" stroke-linejoin="round"/><path d="M80.0836 73.1302H77.3308C76.9952 73.1302 76.6734 73.2311 76.4361 73.4107C76.1987 73.5903 76.0654 73.8339 76.0654 74.0879V74.6199C76.0654 75.7203 77.2457 77.1231 78.7035 77.1231C80.1613 77.1231 81.3379 75.7231 81.3379 74.6199V74.0879C81.3379 73.8353 81.2061 73.593 80.9712 73.4137C80.7363 73.2343 80.4173 73.1325 80.0836 73.1302V73.1302Z" fill="white" stroke="#263238" stroke-linecap="round" stroke-linejoin="round"/><path d="M86.6546 73.1302H83.9129C83.5773 73.1302 83.2554 73.2311 83.0181 73.4107C82.7808 73.5903 82.6475 73.8339 82.6475 74.0879V74.6199C82.6475 75.7203 83.8278 77.1231 85.2856 77.1231C86.7434 77.1231 87.9237 75.7231 87.9237 74.6199V74.0879C87.9227 73.8336 87.7885 73.5901 87.5507 73.4106C87.3128 73.2311 86.9905 73.1302 86.6546 73.1302V73.1302Z" fill="white" stroke="#263238" stroke-linecap="round" stroke-linejoin="round"/><path d="M93.2403 73.1302H90.4986C90.1626 73.1302 89.8404 73.2311 89.6025 73.4106C89.3646 73.5901 89.2305 73.8336 89.2295 74.0879V74.6199C89.2295 75.7203 90.4135 77.1231 91.8676 77.1231C93.3217 77.1231 94.5057 75.7231 94.5057 74.6199V74.0879C94.5057 73.8339 94.3724 73.5903 94.1351 73.4107C93.8978 73.2311 93.5759 73.1302 93.2403 73.1302V73.1302Z" fill="white" stroke="#263238" stroke-linecap="round" stroke-linejoin="round"/><path d="M99.8011 73.1302H97.0594C96.7237 73.1302 96.4019 73.2311 96.1646 73.4107C95.9273 73.5903 95.7939 73.8339 95.7939 74.0879V74.6199C95.7939 75.7203 96.9742 77.1231 98.4283 77.1231C99.8825 77.1231 101.066 75.7231 101.066 74.6199V74.0879C101.066 73.8339 100.933 73.5903 100.696 73.4107C100.459 73.2311 100.137 73.1302 99.8011 73.1302Z" fill="white" stroke="#263238" stroke-linecap="round" stroke-linejoin="round"/><path d="M106.372 73.1302H103.631C103.295 73.1302 102.973 73.2311 102.736 73.4107C102.499 73.5903 102.365 73.8339 102.365 74.0879V74.6199C102.365 75.7203 103.546 77.1231 105.003 77.1231C106.461 77.1231 107.638 75.7231 107.638 74.6199V74.0879C107.638 73.8339 107.504 73.5903 107.267 73.4107C107.03 73.2311 106.708 73.1302 106.372 73.1302Z" fill="white" stroke="#263238" stroke-linecap="round" stroke-linejoin="round"/><path d="M112.944 73.1302H110.202C109.866 73.1302 109.544 73.2311 109.307 73.4107C109.07 73.5903 108.937 73.8339 108.937 74.0879V74.6199C108.937 75.7203 110.117 77.1231 111.575 77.1231C113.032 77.1231 114.213 75.7231 114.213 74.6199V74.0879C114.212 73.8336 114.078 73.5901 113.84 73.4106C113.602 73.2311 113.28 73.1302 112.944 73.1302V73.1302Z" fill="white" stroke="#263238" stroke-linecap="round" stroke-linejoin="round"/><path d="M119.511 73.1302H116.769C116.433 73.1302 116.111 73.2311 115.873 73.4106C115.635 73.5901 115.501 73.8336 115.5 74.0879V74.6199C115.5 75.7203 116.684 77.1231 118.138 77.1231C119.592 77.1231 120.776 75.7231 120.776 74.6199V74.0879C120.776 73.8339 120.643 73.5903 120.406 73.4107C120.168 73.2311 119.846 73.1302 119.511 73.1302Z" fill="white" stroke="#263238" stroke-linecap="round" stroke-linejoin="round"/><path d="M126.089 73.1304H123.347C123.015 73.134 122.698 73.2365 122.465 73.4157C122.231 73.5949 122.101 73.8364 122.101 74.088V74.62C122.101 75.7203 123.281 77.1231 124.735 77.1231C126.189 77.1231 127.373 75.7231 127.373 74.62V74.088C127.373 73.961 127.34 73.8353 127.275 73.7182C127.21 73.6011 127.115 73.4949 126.996 73.4058C126.876 73.3167 126.735 73.2465 126.579 73.1992C126.423 73.1519 126.257 73.1285 126.089 73.1304V73.1304Z" fill="white" stroke="#263238" stroke-linecap="round" stroke-linejoin="round"/><path d="M132.66 73.1302H129.919C129.583 73.1302 129.261 73.2311 129.024 73.4107C128.787 73.5903 128.653 73.8339 128.653 74.0879V74.6199C128.653 75.7203 129.834 77.1231 131.291 77.1231C132.749 77.1231 133.926 75.7231 133.926 74.6199V74.0879C133.926 73.8339 133.793 73.5903 133.555 73.4107C133.318 73.2311 132.996 73.1302 132.66 73.1302V73.1302Z" fill="white" stroke="#263238" stroke-linecap="round" stroke-linejoin="round"/><path d="M116.959 83.538H66.757C66.1011 83.538 65.5693 83.9404 65.5693 84.4368V87.164C65.5693 87.6604 66.1011 88.0628 66.757 88.0628H116.959C117.615 88.0628 118.146 87.6604 118.146 87.164V84.4368C118.146 83.9404 117.615 83.538 116.959 83.538Z" fill="white" stroke="#263238" stroke-linecap="round" stroke-linejoin="round"/><path d="M123.68 83.804H120.938C120.603 83.804 120.281 83.9048 120.043 84.0844C119.806 84.264 119.673 84.5076 119.673 84.7616V85.2936C119.673 86.3968 120.853 87.7968 122.311 87.7968C123.769 87.7968 124.945 86.3968 124.945 85.2936V84.7616C124.945 84.5076 124.812 84.264 124.575 84.0844C124.337 83.9048 124.016 83.804 123.68 83.804Z" fill="white" stroke="#263238" stroke-linecap="round" stroke-linejoin="round"/><path d="M62.7747 83.804H60.033C59.6974 83.804 59.3755 83.9048 59.1382 84.0844C58.9009 84.264 58.7676 84.5076 58.7676 84.7616V85.2936C58.7676 86.3968 59.9479 87.7968 61.4057 87.7968C62.8635 87.7968 64.0438 86.3968 64.0438 85.2936V84.7616C64.0428 84.5073 63.9087 84.2638 63.6708 84.0843C63.4329 83.9048 63.1106 83.804 62.7747 83.804V83.804Z" fill="white" stroke="#263238" stroke-linecap="round" stroke-linejoin="round"/><path opacity="0.2" d="M57.2318 69.2103C57.3646 69.2108 57.4971 69.2202 57.6277 69.2383C57.6277 69.2187 57.6277 69.1991 57.6277 69.1795V68.6476C57.6267 68.5374 57.5682 68.432 57.4649 68.3544C57.3617 68.2767 57.222 68.2332 57.0764 68.2332H54.3347C54.1898 68.2339 54.0511 68.2778 53.9486 68.3553C53.8461 68.4329 53.7881 68.5379 53.7871 68.6476V69.1795C53.7871 69.9439 54.5271 70.9071 55.4003 71.1003C55.1302 70.2519 55.737 69.2103 57.2318 69.2103Z" fill="black"/><path opacity="0.2" d="M63.9513 69.0675C64.0351 69.0632 64.1191 69.0632 64.2029 69.0675V68.6363C64.2019 68.5266 64.1439 68.4217 64.0415 68.3441C63.939 68.2666 63.8002 68.2227 63.6553 68.2219H60.9136C60.768 68.2219 60.6284 68.2655 60.5251 68.3431C60.4218 68.4208 60.3633 68.5262 60.3623 68.6363V69.1683C60.3623 70.0083 61.2392 71.0583 62.2123 71.1283C61.7646 70.2603 62.3529 69.0675 63.9513 69.0675Z" fill="black"/><path opacity="0.2" d="M70.7197 68.9947H70.7752V68.6447C70.7752 68.5348 70.7175 68.4294 70.6148 68.3517C70.5121 68.274 70.3728 68.2303 70.2276 68.2303H67.4859C67.3403 68.2303 67.2006 68.2739 67.0973 68.3516C66.9941 68.4292 66.9355 68.5346 66.9346 68.6447V69.1767C66.9346 70.0307 67.867 71.1367 68.8549 71.1367C68.9029 71.1395 68.9511 71.1395 68.9992 71.1367C68.5034 70.2519 69.0769 68.9947 70.7197 68.9947Z" fill="black"/><path opacity="0.2" d="M76.8722 68.8519C77.0261 68.8486 77.1799 68.858 77.331 68.8799V68.6363C77.331 68.5264 77.2733 68.421 77.1706 68.3433C77.0679 68.2656 76.9287 68.2219 76.7834 68.2219H74.0417C73.8965 68.2219 73.7572 68.2656 73.6545 68.3433C73.5518 68.421 73.4941 68.5264 73.4941 68.6363V69.1683C73.4941 69.9691 74.3081 70.9883 75.2257 71.1283C74.5967 70.2491 75.1406 68.8519 76.8722 68.8519Z" fill="black"/><path opacity="0.2" d="M83.7801 68.8519H83.9207V68.6419C83.9197 68.5318 83.8612 68.4264 83.7579 68.3487C83.6546 68.2711 83.5149 68.2275 83.3694 68.2275H80.6277C80.4827 68.2283 80.344 68.2722 80.2415 68.3497C80.1391 68.4273 80.081 68.5323 80.0801 68.6419V69.1739C80.0801 70.0279 81.0125 71.1339 82.0004 71.1339C82.0509 71.1367 82.1016 71.1367 82.1521 71.1339C81.5046 70.2519 82.0485 68.8519 83.7801 68.8519Z" fill="black"/><path opacity="0.2" d="M90.4069 68.8799H90.492V68.6363C90.491 68.5266 90.433 68.4217 90.3305 68.3441C90.228 68.2666 90.0893 68.2227 89.9444 68.2219H87.2027C87.0571 68.2219 86.9174 68.2655 86.8141 68.3431C86.7109 68.4208 86.6523 68.5262 86.6514 68.6363V69.1683C86.6514 70.0223 87.5838 71.1283 88.5717 71.1283C88.632 71.1325 88.6926 71.1325 88.753 71.1283C88.1462 70.2463 88.6975 68.8799 90.4069 68.8799Z" fill="black"/><path opacity="0.2" d="M96.748 68.852C96.8532 68.8531 96.9582 68.8587 97.0625 68.8688V68.6476C97.0625 68.5376 97.0048 68.4322 96.9021 68.3545C96.7994 68.2768 96.6601 68.2332 96.5149 68.2332H93.7732C93.628 68.2332 93.4887 68.2768 93.386 68.3545C93.2833 68.4322 93.2256 68.5376 93.2256 68.6476V69.1796C93.2256 70.0196 94.1432 71.1227 95.1237 71.1395C94.4688 70.2604 95.009 68.852 96.748 68.852Z" fill="black"/><path opacity="0.2" d="M103.633 68.9248V68.6448C103.633 68.5348 103.575 68.4294 103.472 68.3517C103.37 68.274 103.23 68.2303 103.085 68.2303H100.344C100.198 68.2303 100.059 68.274 99.9563 68.3517C99.8536 68.4294 99.7959 68.5348 99.7959 68.6448V69.1767C99.7959 70.0308 100.725 71.1368 101.716 71.1368C101.815 71.1356 101.914 71.1233 102.009 71.1004C101.476 70.2379 102.02 68.964 103.633 68.9248Z" fill="black"/><path opacity="0.2" d="M109.668 68.8156C109.851 68.8153 110.032 68.8331 110.209 68.8688V68.6476C110.208 68.5374 110.149 68.432 110.046 68.3544C109.943 68.2767 109.803 68.2332 109.657 68.2332H106.93C106.785 68.2339 106.647 68.2778 106.544 68.3553C106.442 68.4329 106.384 68.5379 106.383 68.6476V69.1796C106.383 69.9692 107.175 70.966 108.074 71.1172C107.382 70.2408 107.918 68.8156 109.668 68.8156Z" fill="black"/><path opacity="0.2" d="M116.389 68.8156C116.52 68.8159 116.652 68.8252 116.781 68.8436V68.6476C116.78 68.5379 116.722 68.4329 116.62 68.3553C116.517 68.2778 116.378 68.2339 116.233 68.2332H113.492C113.346 68.2332 113.206 68.2767 113.103 68.3544C113 68.432 112.941 68.5374 112.94 68.6476V69.1796C112.94 70.0196 113.828 71.0863 114.79 71.1395C114.095 70.2604 114.628 68.8156 116.389 68.8156Z" fill="black"/><path opacity="0.2" d="M123.063 68.9584C123.16 68.9596 123.256 68.9652 123.352 68.9752V68.6476C123.352 68.5376 123.294 68.4322 123.191 68.3545C123.088 68.2768 122.949 68.2332 122.804 68.2332H120.062C119.99 68.2332 119.919 68.2439 119.853 68.2647C119.786 68.2855 119.726 68.316 119.675 68.3545C119.624 68.393 119.584 68.4387 119.556 68.489C119.529 68.5392 119.515 68.5931 119.515 68.6476V69.1796C119.515 70.0196 120.403 71.0835 121.365 71.1395C120.828 70.2548 121.394 68.9584 123.063 68.9584Z" fill="black"/><path opacity="0.2" d="M129.923 68.894V68.6476C129.923 68.5376 129.865 68.4322 129.762 68.3545C129.66 68.2768 129.52 68.2332 129.375 68.2332H126.634C126.488 68.2332 126.349 68.2768 126.246 68.3545C126.144 68.4322 126.086 68.5376 126.086 68.6476V69.1796C126.086 70.0336 127.015 71.1396 128.006 71.1396C128.149 71.138 128.29 71.1152 128.421 71.0724C127.895 70.2268 128.391 68.9892 129.923 68.894Z" fill="black"/><path opacity="0.2" d="M57.4207 79.2399C57.491 79.2371 57.5614 79.2371 57.6316 79.2399V79.1811C57.6306 79.071 57.5721 78.9656 57.4688 78.8879C57.3656 78.8103 57.2259 78.7667 57.0803 78.7667H54.3386C54.1937 78.7675 54.055 78.8114 53.9525 78.8889C53.85 78.9665 53.792 79.0714 53.791 79.1811V79.7131C53.791 80.5671 54.7234 81.6731 55.7113 81.6731C55.7797 81.6718 55.8477 81.6662 55.9148 81.6563C55.086 80.8051 55.5892 79.2399 57.4207 79.2399Z" fill="black"/><path opacity="0.2" d="M63.8588 79.2399C63.9741 79.2402 64.0892 79.2477 64.2029 79.2623V79.1896C64.2019 79.0799 64.1439 78.9749 64.0415 78.8973C63.939 78.8198 63.8002 78.7759 63.6553 78.7751H60.9136C60.768 78.7751 60.6284 78.8187 60.5251 78.8963C60.4218 78.974 60.3633 79.0794 60.3623 79.1896V79.7216C60.3623 80.5756 61.2947 81.6816 62.2826 81.6816H62.364C61.5167 80.8192 62.0162 79.2399 63.8588 79.2399Z" fill="black"/><path opacity="0.2" d="M70.3896 79.3099C70.5136 79.3102 70.6374 79.3186 70.7596 79.3351V79.1867C70.7596 79.1323 70.7454 79.0784 70.7179 79.0282C70.6903 78.9779 70.65 78.9322 70.5992 78.8937C70.5483 78.8552 70.4879 78.8247 70.4215 78.8039C70.3551 78.7831 70.2839 78.7723 70.2119 78.7723H67.4702C67.3247 78.7723 67.185 78.8159 67.0817 78.8935C66.9784 78.9712 66.9199 79.0766 66.9189 79.1867V79.7187C66.9189 80.5587 67.8365 81.6591 68.8171 81.6787C68.0807 80.8079 68.595 79.3099 70.3896 79.3099Z" fill="black"/><path opacity="0.2" d="M77.0608 79.3463C77.1561 79.3466 77.2512 79.3512 77.3457 79.3603V79.1867C77.3457 79.1323 77.3315 79.0784 77.304 79.0282C77.2765 78.9779 77.2362 78.9322 77.1853 78.8937C77.1345 78.8552 77.0741 78.8247 77.0077 78.8039C76.9412 78.7831 76.87 78.7723 76.7981 78.7723H74.0564C73.9845 78.7723 73.9133 78.7831 73.8468 78.8039C73.7804 78.8247 73.72 78.8552 73.6692 78.8937C73.6183 78.9322 73.578 78.9779 73.5505 79.0282C73.523 79.0784 73.5088 79.1323 73.5088 79.1867V79.7187C73.5088 80.5727 74.4375 81.6787 75.4291 81.6787H75.4735C74.7631 80.8023 75.2922 79.3463 77.0608 79.3463Z" fill="black"/><path opacity="0.2" d="M83.4989 79.2399C83.6404 79.24 83.7817 79.2503 83.9207 79.2707V79.1896C83.9197 79.0794 83.8612 78.974 83.7579 78.8963C83.6546 78.8187 83.5149 78.7751 83.3694 78.7751H80.6277C80.4827 78.7759 80.344 78.8198 80.2415 78.8973C80.1391 78.9749 80.081 79.0799 80.0801 79.1896V79.7215C80.0801 80.5756 81.0125 81.6816 82.0004 81.6816C81.1568 80.8248 81.6526 79.2399 83.4989 79.2399Z" fill="black"/><path opacity="0.2" d="M90.1701 79.2735C90.2778 79.2742 90.3854 79.2807 90.492 79.2931V79.1867C90.491 79.0771 90.433 78.9721 90.3305 78.8945C90.228 78.817 90.0893 78.7731 89.9444 78.7723H87.2027C87.0571 78.7723 86.9174 78.8159 86.8141 78.8935C86.7109 78.9712 86.6523 79.0766 86.6514 79.1867V79.7187C86.6514 80.5727 87.5838 81.6787 88.5717 81.6787H88.642C87.8428 80.8107 88.3534 79.2735 90.1701 79.2735Z" fill="black"/><path opacity="0.2" d="M96.9848 79.3799H97.0625V79.1839C97.0625 79.074 97.0048 78.9686 96.9021 78.8909C96.7994 78.8132 96.6601 78.7695 96.5149 78.7695H93.7732C93.628 78.7695 93.4887 78.8132 93.386 78.8909C93.2833 78.9686 93.2256 79.074 93.2256 79.1839V79.7159C93.2256 80.5699 94.1543 81.6759 95.1422 81.6759C95.2144 81.6751 95.2864 81.6685 95.3568 81.6563C94.7204 80.7827 95.2495 79.3799 96.9848 79.3799Z" fill="black"/><path opacity="0.2" d="M103.6 79.2735H103.622V79.1867C103.622 79.1323 103.608 79.0784 103.58 79.0282C103.553 78.9779 103.512 78.9322 103.461 78.8937C103.41 78.8552 103.35 78.8247 103.284 78.8039C103.217 78.7831 103.146 78.7723 103.074 78.7723H100.344C100.272 78.7723 100.2 78.7831 100.134 78.8039C100.068 78.8247 100.007 78.8552 99.9563 78.8937C99.9054 78.9322 99.8651 78.9779 99.8376 79.0282C99.8101 79.0784 99.7959 79.1323 99.7959 79.1867V79.7187C99.7959 80.5727 100.725 81.6787 101.716 81.6787C101.83 81.6775 101.942 81.6623 102.049 81.6339C101.298 80.7659 101.82 79.2735 103.6 79.2735Z" fill="black"/><path opacity="0.2" d="M109.998 79.1671H110.205C110.199 79.0599 110.139 78.9585 110.037 78.8839C109.935 78.8093 109.799 78.7674 109.657 78.7667H106.93C106.785 78.7675 106.647 78.8114 106.544 78.8889C106.442 78.9665 106.384 79.0714 106.383 79.1811V79.7131C106.383 80.5671 107.315 81.6731 108.303 81.6731C108.393 81.6711 108.483 81.6607 108.57 81.6423C107.641 80.8079 108.122 79.1671 109.998 79.1671Z" fill="black"/><path opacity="0.2" d="M116.768 79.2399V79.1896C116.767 79.0799 116.709 78.9749 116.607 78.8973C116.504 78.8198 116.366 78.7759 116.221 78.7751H113.479C113.333 78.7751 113.194 78.8187 113.091 78.8963C112.987 78.974 112.929 79.0794 112.928 79.1896V79.7216C112.928 80.5756 113.86 81.6816 114.848 81.6816C114.974 81.68 115.099 81.663 115.218 81.6312C114.445 80.7632 114.955 79.2399 116.768 79.2399Z" fill="black"/><path opacity="0.2" d="M123.21 79.2399H123.358V79.1839C123.358 79.1295 123.344 79.0756 123.317 79.0253C123.289 78.9751 123.249 78.9294 123.198 78.8909C123.147 78.8524 123.087 78.8219 123.02 78.8011C122.954 78.7802 122.883 78.7695 122.811 78.7695H120.069C119.924 78.7695 119.785 78.8132 119.682 78.8909C119.579 78.9686 119.521 79.074 119.521 79.1839V79.7159C119.521 80.5699 120.45 81.6759 121.438 81.6759C121.526 81.6751 121.613 81.6657 121.697 81.6479C120.872 80.7911 121.379 79.2399 123.21 79.2399Z" fill="black"/><path opacity="0.2" d="M129.686 79.4527C129.767 79.4527 129.849 79.4527 129.923 79.4527V79.1727C129.923 79.0628 129.865 78.9574 129.762 78.8797C129.66 78.802 129.52 78.7583 129.375 78.7583H126.634C126.488 78.7583 126.349 78.802 126.246 78.8797C126.144 78.9574 126.086 79.0628 126.086 79.1727V79.7047C126.086 80.5587 127.015 81.6647 128.006 81.6647C127.433 80.7967 127.988 79.4527 129.686 79.4527Z" fill="black"/><path opacity="0.2" d="M54.2988 74.2251H54.3469V74.0879C54.3459 73.9777 54.2874 73.8723 54.1841 73.7947C54.0808 73.717 53.9411 73.6735 53.7956 73.6735H51.0613C50.916 73.6735 50.7768 73.7171 50.6741 73.7948C50.5714 73.8725 50.5137 73.978 50.5137 74.0879V74.6199C50.5137 75.4739 51.4424 76.5799 52.434 76.5799C52.5293 76.5781 52.6238 76.5668 52.7152 76.5463C52.0048 75.6727 52.5413 74.2251 54.2988 74.2251Z" fill="black"/><path opacity="0.2" d="M60.7327 74.225H60.9177V74.0822C60.9168 73.9721 60.8583 73.8667 60.755 73.789C60.6517 73.7114 60.512 73.6678 60.3664 73.6678H57.6248C57.4798 73.6686 57.3411 73.7125 57.2386 73.79C57.1361 73.8676 57.0781 73.9726 57.0771 74.0822V74.6142C57.0771 75.4682 58.0095 76.5742 58.9974 76.5742C59.0516 76.577 59.106 76.577 59.1602 76.5742C58.4313 75.6978 58.9567 74.225 60.7327 74.225Z" fill="black"/><path opacity="0.2" d="M67.4553 74.2251H67.4886V74.0879C67.4877 73.9782 67.4296 73.8732 67.3272 73.7957C67.2247 73.7181 67.086 73.6742 66.941 73.6735H64.1993C64.1266 73.6728 64.0544 73.6829 63.9869 73.7034C63.9194 73.7238 63.8579 73.7542 63.806 73.7927C63.7541 73.8312 63.7127 73.8771 63.6844 73.9278C63.656 73.9785 63.6411 74.0329 63.6406 74.0879V74.6199C63.6406 75.4739 64.573 76.5799 65.5609 76.5799C65.6602 76.5789 65.7588 76.5667 65.8532 76.5435C65.1613 75.6727 65.6904 74.2251 67.4553 74.2251Z" fill="black"/><path opacity="0.2" d="M73.8894 74.2H74.0596V74.0936C74.0596 73.9837 74.0019 73.8783 73.8992 73.8006C73.7965 73.7229 73.6572 73.6792 73.512 73.6792H70.7703C70.625 73.6792 70.4857 73.7229 70.383 73.8006C70.2804 73.8783 70.2227 73.9837 70.2227 74.0936V74.6256C70.2227 75.4796 71.1514 76.5856 72.1393 76.5856C72.2064 76.5845 72.2732 76.5788 72.3391 76.5688C71.5732 75.698 72.0912 74.2 73.8894 74.2Z" fill="black"/><path opacity="0.2" d="M80.2898 74.2252C80.4076 74.2252 80.5252 74.2327 80.6413 74.2476V74.088C80.6413 73.9781 80.5836 73.8727 80.4809 73.795C80.3782 73.7172 80.239 73.6736 80.0937 73.6736H77.3298C77.1846 73.6736 77.0453 73.7172 76.9426 73.795C76.8399 73.8727 76.7822 73.9781 76.7822 74.088V74.62C76.7822 75.474 77.7109 76.58 78.7025 76.58C77.9699 75.7092 78.4916 74.2252 80.2898 74.2252Z" fill="black"/><path opacity="0.2" d="M86.9071 74.0459C87.0061 74.0462 87.1049 74.0508 87.2031 74.0599C87.1929 73.9551 87.1308 73.8572 87.0293 73.7855C86.9278 73.7139 86.7943 73.6739 86.6555 73.6735H83.9138C83.7689 73.6742 83.6302 73.7181 83.5277 73.7956C83.4252 73.8732 83.3672 73.9782 83.3662 74.0879V74.6199C83.3662 75.4739 84.2986 76.5799 85.2865 76.5799C85.3575 76.5789 85.4282 76.5723 85.4974 76.5603C84.5354 75.7287 85.0053 74.0459 86.9071 74.0459Z" fill="black"/><path opacity="0.2" d="M93.5302 74.2588C93.6153 74.2588 93.7004 74.2588 93.7781 74.2588V74.0768C93.7771 73.9671 93.7191 73.8621 93.6166 73.7845C93.5141 73.707 93.3754 73.6631 93.2305 73.6624H90.4888C90.3432 73.6624 90.2036 73.7059 90.1003 73.7836C89.997 73.8612 89.9385 73.9666 89.9375 74.0768V74.6088C89.9375 75.4628 90.8699 76.5688 91.8578 76.5688H91.9318C91.2399 75.7008 91.7616 74.2588 93.5302 74.2588Z" fill="black"/><path opacity="0.2" d="M100.349 74.0879C100.349 73.978 100.291 73.8725 100.188 73.7948C100.086 73.7171 99.9463 73.6735 99.801 73.6735H97.0593C96.9874 73.6735 96.9162 73.6842 96.8498 73.705C96.7833 73.7258 96.723 73.7564 96.6721 73.7948C96.6213 73.8333 96.5809 73.879 96.5534 73.9293C96.5259 73.9796 96.5117 74.0334 96.5117 74.0879V74.6199C96.5117 75.4739 97.4404 76.5799 98.4283 76.5799C98.6257 76.5762 98.8189 76.5358 98.9907 76.4623C98.2433 75.6279 98.6947 74.1999 100.349 74.0879Z" fill="black"/><path opacity="0.2" d="M106.931 74.2V74.0936C106.931 73.9837 106.873 73.8783 106.77 73.8006C106.668 73.7229 106.528 73.6792 106.383 73.6792H103.641C103.496 73.6792 103.357 73.7229 103.254 73.8006C103.151 73.8783 103.094 73.9837 103.094 74.0936V74.6256C103.094 75.4796 104.022 76.5856 105.014 76.5856C105.173 76.5837 105.329 76.556 105.473 76.5044C104.796 75.6504 105.28 74.27 106.931 74.2Z" fill="black"/><path opacity="0.2" d="M113.265 74.116C113.342 74.116 113.42 74.116 113.494 74.116V74.0796C113.493 73.9694 113.434 73.864 113.331 73.7864C113.228 73.7087 113.088 73.6652 112.943 73.6652H110.201C110.056 73.6659 109.917 73.7098 109.815 73.7873C109.712 73.8649 109.654 73.9699 109.653 74.0796V74.6116C109.653 75.4656 110.586 76.5716 111.574 76.5716C111.643 76.5708 111.713 76.5642 111.781 76.552C110.922 75.7092 111.415 74.116 113.265 74.116Z" fill="black"/><path opacity="0.2" d="M120.066 74.298V74.088C120.065 73.9783 120.007 73.8733 119.905 73.7958C119.802 73.7182 119.664 73.6743 119.519 73.6736H116.777C116.631 73.6736 116.492 73.7171 116.388 73.7948C116.285 73.8724 116.227 73.9778 116.226 74.088V74.62C116.226 75.474 117.158 76.58 118.146 76.58C118.258 76.5786 118.369 76.5645 118.475 76.538C117.872 75.67 118.401 74.3316 120.066 74.298Z" fill="black"/><path opacity="0.2" d="M126.327 74.1524C126.431 74.1535 126.535 74.1591 126.638 74.1692V74.088C126.638 73.9781 126.58 73.8727 126.477 73.795C126.375 73.7172 126.235 73.6736 126.09 73.6736H123.348C123.276 73.6736 123.205 73.6843 123.139 73.7051C123.072 73.726 123.012 73.7565 122.961 73.795C122.91 73.8334 122.87 73.8791 122.842 73.9294C122.815 73.9797 122.801 74.0336 122.801 74.088V74.62C122.801 75.474 123.729 76.58 124.717 76.58C124.752 76.5815 124.786 76.5815 124.821 76.58C123.992 75.7148 124.495 74.1524 126.327 74.1524Z" fill="black"/><path opacity="0.2" d="M132.954 74.3679C133.039 74.3635 133.124 74.3635 133.209 74.3679V74.0879C133.209 73.978 133.151 73.8725 133.049 73.7948C132.946 73.7171 132.807 73.6735 132.661 73.6735H129.92C129.774 73.6735 129.635 73.7171 129.532 73.7948C129.43 73.8725 129.372 73.978 129.372 74.0879V74.6199C129.372 75.4599 130.293 76.5799 131.281 76.5799C130.704 75.6979 131.263 74.3679 132.954 74.3679Z" fill="black"/><path opacity="0.2" d="M117.428 87.1808V84.42C117.428 84.2329 117.227 84.0812 116.98 84.0812H66.7341C66.4868 84.0812 66.2863 84.2329 66.2863 84.42V87.1808C66.2863 87.3679 66.4868 87.5196 66.7341 87.5196H116.98C117.227 87.5196 117.428 87.3679 117.428 87.1808Z" fill="black"/><path opacity="0.2" d="M124.229 85.0388V84.7588C124.229 84.7043 124.214 84.6504 124.187 84.6002C124.159 84.5499 124.119 84.5042 124.068 84.4657C124.017 84.4273 123.957 84.3967 123.89 84.3759C123.824 84.3551 123.753 84.3444 123.681 84.3444H120.939C120.867 84.3444 120.796 84.3551 120.73 84.3759C120.663 84.3967 120.603 84.4273 120.552 84.4657C120.501 84.5042 120.461 84.5499 120.433 84.6002C120.406 84.6504 120.392 84.7043 120.392 84.7588V85.2908C120.392 86.1448 121.32 87.2508 122.312 87.2508C122.394 87.2492 122.476 87.2408 122.556 87.2256C122.009 86.352 122.567 85.0472 124.229 85.0388Z" fill="black"/><path opacity="0.2" d="M63.0041 84.8596C63.1118 84.8602 63.2194 84.8667 63.326 84.8792V84.7616C63.325 84.6514 63.2665 84.546 63.1632 84.4684C63.0599 84.3907 62.9202 84.3472 62.7747 84.3472H60.033C59.888 84.3479 59.7493 84.3918 59.6468 84.4694C59.5443 84.5469 59.4863 84.6519 59.4854 84.7616V85.2936C59.4854 86.1476 60.4178 87.2536 61.4057 87.2536H61.4686C60.6805 86.3856 61.1985 84.8596 63.0041 84.8596Z" fill="black"/><path opacity="0.2" d="M46.5106 26.46H137.205C137.828 26.46 138.426 26.6473 138.866 26.9807C139.307 27.3142 139.555 27.7664 139.555 28.238V43.918H44.1611V28.238C44.1611 27.7664 44.4087 27.3142 44.8493 26.9807C45.2899 26.6473 45.8875 26.46 46.5106 26.46V26.46Z" fill="black"/><path d="M129.789 29.4167H53.9394C53.3069 25.4417 52.1922 21.5191 50.6094 17.6987H133.134C131.526 21.5148 130.406 25.4388 129.789 29.4167V29.4167Z" fill="white"/><path opacity="0.2" d="M130.536 25.6395C129.985 27.9187 129.796 29.4167 129.796 29.4167H53.946C53.946 29.4167 53.7536 27.9467 53.1875 25.6395H130.536Z" fill="black"/><path d="M129.789 29.4167H53.9394C53.3069 25.4417 52.1922 21.5191 50.6094 17.6987H133.134C131.526 21.5148 130.406 25.4388 129.789 29.4167V29.4167Z" stroke="#263238" stroke-linecap="round" stroke-linejoin="round"/><path d="M128.757 39.2839H54.3467V62.4511H128.757V39.2839Z" fill="#263238"/><g opacity="0.4"><path opacity="0.4" d="M89.6973 60.4016L90.0895 60.4156C90.5828 54.6382 91.0761 48.8515 91.5694 43.0555C90.9405 48.8534 90.3164 54.6354 89.6973 60.4016Z" fill="white"/><path opacity="0.4" d="M88.4316 60.3287L88.8238 60.3539C89.6798 54.6139 90.5345 48.8487 91.3879 43.0583C90.4037 48.8525 89.4183 54.6093 88.4316 60.3287Z" fill="white"/><path opacity="0.4" d="M87.1992 60.2223C87.3287 60.2223 87.4619 60.2447 87.5914 60.2559C88.805 54.5775 90.026 48.8441 91.2544 43.0555C89.8978 48.8497 88.546 54.5719 87.1992 60.2223Z" fill="white"/><path opacity="0.4" d="M85.9512 60.0795L86.3471 60.1271C87.9208 54.5271 89.5069 48.8338 91.1053 43.0471C89.3786 48.8394 87.6606 54.5169 85.9512 60.0795Z" fill="white"/><path opacity="0.4" d="M84.709 59.9032L85.1086 59.9648C87.0326 54.4711 88.9825 48.8338 90.9583 43.0527C88.8567 48.8357 86.7736 54.4525 84.709 59.9032Z" fill="white"/><path opacity="0.4" d="M83.4727 59.6903L83.8723 59.7659C86.1403 54.3955 88.4713 48.8263 90.8097 43.0499C88.3344 48.8263 85.8666 54.3703 83.4727 59.6903Z" fill="white"/><path opacity="0.4" d="M82.2412 59.4383L82.6445 59.5279C85.2345 54.3087 87.9466 48.8151 90.6624 43.0443C87.8097 48.8151 84.9681 54.2779 82.2412 59.4383Z" fill="white"/><path opacity="0.4" d="M81.0303 59.1527L81.4336 59.2507C84.3603 54.2107 87.4313 48.8039 90.5245 43.0415C87.2796 48.8039 84.068 54.1715 81.0303 59.1527Z" fill="white"/><path opacity="0.4" d="M79.8027 58.8252L80.2097 58.9372C83.4509 54.0876 86.8956 48.79 90.3662 43.036C86.7513 48.79 83.1623 54.04 79.8027 58.8252Z" fill="white"/><path opacity="0.4" d="M78.6035 58.4556L79.0105 58.5844C82.5477 53.9532 86.3661 48.7844 90.2178 43.0304C86.2107 48.7732 82.2554 53.914 78.6035 58.4556Z" fill="white"/><path opacity="0.4" d="M77.416 58.0412L77.823 58.1896C81.6414 53.8076 85.8335 48.7536 90.07 43.0248C85.6818 48.7536 81.3454 53.76 77.416 58.0412Z" fill="white"/><path opacity="0.4" d="M76.2461 57.582L76.6531 57.75C80.7231 53.6424 85.3 48.7312 89.9213 43.0164C85.7065 48.0512 81.1417 52.9132 76.2461 57.582V57.582Z" fill="white"/><path opacity="0.4" d="M75.1104 57.0781C75.2436 57.1425 75.3842 57.2012 75.5211 57.2628C80.6561 52.7366 85.4207 47.9771 89.7883 43.0109C85.3186 47.944 80.4149 52.6437 75.1104 57.0781Z" fill="white"/><path opacity="0.4" d="M73.9756 56.5209L74.3789 56.7309C79.9199 52.4609 85.0176 47.874 89.6266 43.0109C84.9219 47.8399 79.6863 52.3593 73.9756 56.5209V56.5209Z" fill="white"/><path opacity="0.4" d="M89.4777 42.994C83.5244 48.636 77.7006 52.9396 72.8906 55.9132L73.2865 56.1456C79.2248 52.162 84.6466 47.7582 89.4777 42.994V42.994Z" fill="white"/><path opacity="0.4" d="M89.3295 42.9856C82.9877 48.5856 76.7902 52.6792 71.8359 55.2552L72.2281 55.51C77.1158 52.7716 83.1542 48.5996 89.3295 42.9856Z" fill="white"/><path opacity="0.4" d="M89.1702 42.9771C82.4473 48.5351 75.8983 52.3879 70.833 54.5383C70.9551 54.6335 71.0772 54.7287 71.203 54.8183C76.2202 52.4943 82.6249 48.5491 89.1702 42.9771Z" fill="white"/><path opacity="0.4" d="M89.0345 42.9659C81.9453 48.4679 75.0559 52.0659 69.9092 53.7739L70.2792 54.0791C75.3741 52.1835 82.1081 48.4847 89.0345 42.9659Z" fill="white"/><path opacity="0.4" d="M69.0576 52.9563C69.1649 53.0683 69.2759 53.1803 69.3869 53.2895C74.5484 51.8475 81.5969 48.4063 88.8896 42.9575C81.4489 48.3811 74.2487 51.7103 69.0576 52.9563Z" fill="white"/><path opacity="0.4" d="M68.3027 52.1053C68.3989 52.2229 68.4988 52.3405 68.5987 52.4581C73.7787 51.4725 81.1343 48.3057 88.7415 42.9381C80.9863 48.2749 73.5012 51.3241 68.3027 52.1053Z" fill="white"/><path opacity="0.4" d="M67.6592 51.24C67.7406 51.3632 67.8257 51.4836 67.9108 51.6068C73.0908 51.0748 80.698 48.188 88.5938 42.9408C80.5685 48.1376 72.8392 50.904 67.6592 51.24Z" fill="white"/><path opacity="0.4" d="M67.1338 50.3551C67.2004 50.4783 67.2707 50.6043 67.341 50.7275C72.4914 50.6323 80.291 48.0311 88.431 42.9211C80.1985 47.9779 72.2768 50.4531 67.1338 50.3551Z" fill="white"/><path opacity="0.4" d="M90.9512 60.4408H91.3397C91.4581 54.6541 91.5814 48.86 91.7097 43.0583C91.4507 48.8562 91.1978 54.6504 90.9512 60.4408Z" fill="white"/><path opacity="0.4" d="M92.2004 60.4464H92.5926C92.3459 54.6597 92.0992 48.8656 91.8525 43.064L92.2004 60.4464Z" fill="white"/><path opacity="0.4" d="M93.4519 60.4212H93.8441C93.2275 54.6532 92.6108 48.8665 91.9941 43.0612C92.4801 48.859 92.966 54.6457 93.4519 60.4212Z" fill="white"/><path opacity="0.4" d="M94.7202 60.3623L95.1124 60.3399C94.1257 54.6149 93.139 48.8543 92.1523 43.0583C93.0009 48.8543 93.8568 54.6223 94.7202 60.3623Z" fill="white"/><path opacity="0.4" d="M95.9522 60.2727L96.3444 60.2363C95.0025 54.5785 93.6459 48.8515 92.2744 43.0555C93.5102 48.8515 94.7361 54.5906 95.9522 60.2727Z" fill="white"/><path opacity="0.4" d="M97.1992 60.1467L97.5951 60.1019C95.8931 54.5299 94.1726 48.8478 92.4336 43.0555C94.032 48.8497 95.6205 54.5467 97.1992 60.1467Z" fill="white"/><path opacity="0.4" d="M98.4438 59.9871L98.8397 59.9311C96.785 54.4693 94.6994 48.8431 92.583 43.0527C94.5514 48.8431 96.505 54.4879 98.4438 59.9871Z" fill="white"/><path opacity="0.4" d="M99.6791 59.7911L100.082 59.7211C97.6848 54.4011 95.2132 48.8375 92.7305 43.0499C95.0763 48.8385 97.3925 54.4189 99.6791 59.7911Z" fill="white"/><path opacity="0.4" d="M100.914 59.5615L101.314 59.4747C98.5833 54.3031 95.738 48.8347 92.8779 43.0443C95.5974 48.8291 98.3058 54.3199 100.914 59.5615Z" fill="white"/><path opacity="0.4" d="M102.139 59.2899L102.546 59.1891C99.4866 54.1995 96.2565 48.8291 93.0264 43.0415C96.127 48.8179 99.2054 54.2303 102.139 59.2899Z" fill="white"/><path opacity="0.4" d="M103.356 58.9792L103.763 58.8644C100.396 54.0792 96.7998 48.8068 93.1738 43.036C96.6555 48.8068 100.108 54.1156 103.356 58.9792Z" fill="white"/><path opacity="0.4" d="M104.564 58.6292C104.701 58.5844 104.841 58.5452 104.975 58.5004C101.312 53.9476 97.3377 48.7928 93.3232 43.0304C97.1897 48.7928 101.012 53.9868 104.564 58.6292Z" fill="white"/><path opacity="0.4" d="M105.757 58.24L106.168 58.0916C102.228 53.7992 97.8727 48.7788 93.4697 43.0276C97.721 48.7732 101.924 53.844 105.757 58.24Z" fill="white"/><path opacity="0.4" d="M106.931 57.8004C107.068 57.7472 107.205 57.6884 107.338 57.6324C102.425 52.9473 97.8426 48.0684 93.6113 43.0164C98.2585 48.7564 102.861 53.6816 106.931 57.8004Z" fill="white"/><path opacity="0.4" d="M108.093 57.3159L108.507 57.1311C103.18 52.6806 98.255 47.9631 93.7666 43.0107C98.1506 47.9966 102.935 52.7739 108.093 57.3159V57.3159Z" fill="white"/><path opacity="0.4" d="M93.915 43.0023C98.5425 47.8882 103.663 52.4958 109.229 56.7839L109.64 56.5739C103.901 52.3946 98.6403 47.8545 93.915 43.0023V43.0023Z" fill="white"/><path opacity="0.4" d="M94.0625 42.9939C98.9162 47.7809 104.368 52.2029 110.343 56.1987C110.479 56.1231 110.609 56.0447 110.742 55.9663C105.917 52.9927 100.049 48.6695 94.0625 42.9939Z" fill="white"/><path opacity="0.4" d="M94.2109 42.9856C100.427 48.6332 106.502 52.822 111.405 55.5604C111.538 55.4764 111.675 55.3924 111.804 55.3056C106.832 52.7352 100.593 48.6304 94.2109 42.9856Z" fill="white"/><path opacity="0.4" d="M94.3506 42.9772C100.955 48.5772 107.393 52.5504 112.425 54.8716C112.555 54.7792 112.677 54.6812 112.795 54.5916C107.726 52.444 101.129 48.5772 94.3506 42.9772Z" fill="white"/><path opacity="0.4" d="M94.5068 42.9659C101.489 48.5267 108.275 52.2423 113.377 54.1239L113.747 53.8159C108.6 52.1275 101.655 48.5155 94.5068 42.9659Z" fill="white"/><path opacity="0.4" d="M114.291 53.3287C114.405 53.2167 114.513 53.1047 114.624 52.9899C109.425 51.7719 102.158 48.4315 94.6436 42.9575C101.999 48.4539 109.118 51.9063 114.291 53.3287Z" fill="white"/><path opacity="0.4" d="M115.093 52.4859L115.397 52.1275C110.191 51.3855 102.635 48.3279 94.7988 42.9463C102.491 48.3587 109.891 51.5339 115.093 52.4859Z" fill="white"/><path opacity="0.4" d="M115.81 51.6153C115.899 51.4921 115.984 51.3689 116.07 51.2429C110.89 50.9629 103.079 48.1937 94.9795 42.9353C102.927 48.2385 110.63 51.1309 115.81 51.6153Z" fill="white"/><path opacity="0.4" d="M95.0908 42.9211C103.32 48.0899 111.223 50.6911 116.366 50.7303C116.44 50.6043 116.51 50.4783 116.58 50.3523C111.445 50.5119 103.438 48.0339 95.0908 42.9211Z" fill="white"/></g><path opacity="0.2" d="M81.031 43.4756C79.6287 46.1972 81.1457 54.1156 91.2652 54.1156C101.385 54.1156 105.059 48.552 104.648 45.1136L118.157 43.4672C118.157 43.4672 122.297 52.1248 113.506 58.1812C104.715 64.2376 74.2415 63.8456 67.7998 59.2424C61.3581 54.6392 64.9323 45.5448 64.9323 45.5448L81.031 43.4756Z" fill="black"/><path d="M140.319 31.7323V29.8227C140.319 29.7521 140.349 29.6832 140.404 29.6263C140.459 29.5693 140.537 29.5273 140.626 29.5063L142.476 29.0695V27.1599C142.476 26.9312 142.597 26.7119 142.81 26.5501C143.024 26.3884 143.314 26.2975 143.616 26.2975H145.836C145.945 26.296 146.051 26.3266 146.131 26.3831C146.212 26.4395 146.26 26.5173 146.265 26.5999V27.2159C146.265 27.3001 146.221 27.3809 146.143 27.4407C146.065 27.5004 145.958 27.5344 145.847 27.5351H143.024V29.4027C143.023 29.459 143.003 29.5142 142.966 29.5631C142.929 29.6121 142.876 29.6532 142.813 29.6827L141.237 30.4051V31.7351L140.319 31.7323Z" fill="#999999" stroke="#263238" stroke-linecap="round" stroke-linejoin="round"/><path d="M142.754 31.7323H140.319V37.2427H142.754V31.7323Z" fill="#263238"/><path d="M145.799 31.2646H142.754V37.7102H145.799V31.2646Z" fill="#757575"/><path opacity="0.2" d="M145.792 35.1903H142.754V37.7103H145.792V35.1903Z" fill="black"/><path d="M145.799 31.2646H142.754V37.7102H145.799V31.2646Z" stroke="#263238" stroke-linecap="round" stroke-linejoin="round"/><path d="M40.9599 37.24H43.3945V31.7296H40.9599V37.24Z" fill="#263238"/><path d="M37.9149 37.7075H40.96V31.2619H37.9149V37.7075Z" fill="#757575"/><path opacity="0.2" d="M40.964 35.1903H37.9189V37.6487H40.964V35.1903Z" fill="black"/><path d="M37.9149 37.7075H40.96V31.2619H37.9149V37.7075Z" stroke="#263238" stroke-linecap="round" stroke-linejoin="round"/><path d="M43.0282 34.8151C43.248 34.3786 43.282 33.9011 43.1255 33.4492C42.9689 32.9973 42.6296 32.5938 42.155 32.2951L40.3642 31.1751C40.2502 31.1025 40.1177 31.0484 39.9749 31.0162C39.8321 30.984 39.6821 30.9744 39.5342 30.9881C39.3862 31.0018 39.2436 31.0384 39.1153 31.0956C38.9869 31.1528 38.8755 31.2295 38.788 31.3207L31.6877 38.7323C31.5526 38.871 31.4799 39.0389 31.4805 39.2111V47.1715C31.4805 47.2784 31.5085 47.3842 31.563 47.4827C31.6175 47.5813 31.6973 47.6707 31.7978 47.7457C31.8983 47.8208 32.0175 47.8799 32.1485 47.9198C32.2795 47.9597 32.4197 47.9794 32.5609 47.9779V47.9779C32.8435 47.9779 33.1145 47.893 33.3144 47.7418C33.5142 47.5905 33.6265 47.3854 33.6265 47.1715V40.7063C33.6271 40.5468 33.693 40.3912 33.8152 40.2611L39.1247 34.6611C39.1712 34.612 39.2306 34.5706 39.2993 34.5398C39.368 34.5089 39.4444 34.4892 39.5237 34.4818C39.603 34.4744 39.6835 34.4796 39.76 34.497C39.8365 34.5143 39.9074 34.5436 39.9683 34.5827L40.9451 35.2099C41.1869 35.3653 41.4937 35.4506 41.8109 35.4507V35.4507C42.0746 35.4496 42.3318 35.3883 42.549 35.2749C42.7661 35.1615 42.9331 35.0013 43.0282 34.8151V34.8151Z" fill="white" stroke="#263238" stroke-linecap="round" stroke-linejoin="round"/><path d="M41.5626 34.09C41.8425 34.09 42.0695 33.9182 42.0695 33.7064C42.0695 33.4945 41.8425 33.3228 41.5626 33.3228C41.2826 33.3228 41.0557 33.4945 41.0557 33.7064C41.0557 33.9182 41.2826 34.09 41.5626 34.09Z" fill="#999999" stroke="#263238" stroke-linecap="round" stroke-linejoin="round"/><path d="M138.063 29.0696H45.6553V39.9H138.063V29.0696Z" fill="#263238"/><path opacity="0.2" d="M136.726 29.8844H46.953C46.671 29.8844 46.4424 30.0574 46.4424 30.2708V32.0236C46.4424 32.237 46.671 32.41 46.953 32.41H136.726C137.008 32.41 137.237 32.237 137.237 32.0236V30.2708C137.237 30.0574 137.008 29.8844 136.726 29.8844Z" fill="white"/><path d="M129.789 42.0783H53.9394C51.8019 38.3809 50.6694 34.3959 50.6094 30.3604H133.134C133.134 35.7868 129.789 42.0783 129.789 42.0783Z" fill="white"/><g opacity="0.7"><path opacity="0.7" d="M60.0742 41.1991C60.0742 41.1991 61.7355 41.1319 62.6642 40.7091C63.5929 40.2863 63.5263 41.0899 64.0591 41.1431C64.5919 41.1963 65.8499 40.8631 66.5159 40.8631C67.1819 40.8631 66.675 41.1711 67.4261 41.1431C68.1772 41.1151 67.7739 41.1711 68.1661 41.1151L71.3814 40.7091C71.3814 40.7091 73.0131 40.4711 73.3424 40.5915C73.6717 40.7119 74.1046 41.3055 74.5856 41.1515C75.0666 40.9975 74.8113 40.8715 75.5365 40.8715C75.9849 40.8731 76.4307 40.9221 76.8611 41.0171C76.8611 41.0171 76.9277 40.8743 77.2607 40.8715H77.8564C77.8564 40.8715 79.1181 41.1235 79.3179 41.1235C79.5177 41.1235 81.0088 40.8743 81.0606 40.8715C81.1124 40.8687 82.5406 40.5915 82.5406 40.5915C82.8436 40.8312 83.2274 41.0035 83.6506 41.0899C84.1908 41.1431 84.7606 41.0339 85.1676 41.1711C85.5746 41.3083 86.914 41.1151 86.914 41.1151C87.2336 41.1167 87.5526 41.1354 87.8686 41.1711C88.2831 41.2427 88.7148 41.2331 89.1229 41.1431C89.8732 40.993 90.6606 40.9834 91.4169 41.1151C92.6194 41.2803 93.7257 40.8659 94.2363 40.8631C94.7469 40.8603 96.7893 41.0339 97.4923 41.0339C98.1953 41.0339 100.056 41.2243 101.351 41.1151C102.646 41.0059 103.494 41.2523 104.363 41.2523C105.233 41.2523 106.161 41.2243 106.361 41.2243C106.561 41.2243 107.523 40.7483 108.899 40.8631C110.276 40.9779 109.051 40.7203 109.898 40.8631C110.746 41.0059 111.415 41.1431 111.774 41.1711C112.062 41.1838 112.351 41.1744 112.636 41.1431L114.116 41.0619H121.494" stroke="#263238" stroke-linecap="round" stroke-linejoin="round"/><path opacity="0.7" d="M58.5391 39.0375C58.5391 39.0375 63.1086 39.0375 63.9337 38.9815C64.7588 38.9255 65.1991 38.6063 65.6394 38.6063C66.0797 38.6063 68.3034 38.9255 68.3034 38.9255C68.3682 38.8211 68.4741 38.7344 68.6066 38.6772C68.739 38.6201 68.8916 38.5953 69.0434 38.6063C69.6465 38.6063 69.3394 38.6483 69.8944 38.8163C70.4494 38.9843 70.1608 38.8163 70.4531 38.9815C70.8888 39.1296 71.3495 39.2313 71.8221 39.2839C71.8221 39.2839 73.883 39.3567 73.9607 38.9815C74.0384 38.6063 75.0707 39.2839 75.0707 39.2839C75.0707 39.2839 77.8679 38.9815 78.9483 38.9815C80.0287 38.9815 82.7371 38.8163 82.7371 38.8163C82.7371 38.8163 84.9571 39.0375 85.0607 39.0375C85.1643 39.0375 85.5306 39.4771 85.9265 39.2839C86.3224 39.0907 86.7035 38.8695 87.1734 38.9255C87.6097 39.0074 88.0319 39.1277 88.4314 39.2839L89.4637 38.8695L90.6477 38.9255C90.6477 38.9255 91.8539 39.5331 92.716 39.2839C93.3723 39.0854 94.0134 38.8592 94.6363 38.6063L95.6982 39.2839H96.3938L98.4547 38.9815C98.6133 39.129 98.8271 39.2368 99.0681 39.2908C99.3091 39.3448 99.566 39.3424 99.8052 39.2839C100.678 39.0935 109.022 39.2839 111.146 39.2839C113.269 39.2839 113.736 38.8695 113.736 38.8695L115.371 39.2839H123.511" stroke="#263238" stroke-linecap="round" stroke-linejoin="round"/></g><path opacity="0.2" d="M130.563 40.46C130.115 41.468 129.789 42.0784 129.789 42.0784H53.9394C53.9394 42.0784 53.5694 41.4904 53.0625 40.46H130.563Z" fill="black"/><path opacity="0.2" d="M132.143 36.2207C131.888 37.0607 131.606 37.8811 131.329 38.6063H52.2377C51.9639 37.8951 51.6827 37.0915 51.4385 36.2207H132.143Z" fill="black"/><path d="M129.789 42.0783H53.9394C51.8019 38.3809 50.6694 34.3959 50.6094 30.3604H133.134C133.134 35.7868 129.789 42.0783 129.789 42.0783Z" stroke="#263238" stroke-linecap="round" stroke-linejoin="round"/><path d="M45.6377 28.5123H43.377V40.4627H45.6377V28.5123Z" fill="#757575"/><path opacity="0.2" d="M45.5921 36.918H43.3906V40.4628H45.5921V36.918Z" fill="black"/><path d="M45.6377 28.5123H43.377V40.4627H45.6377V28.5123Z" stroke="#263238" stroke-linecap="round" stroke-linejoin="round"/><path d="M140.338 28.5123H138.077V40.4627H140.338V28.5123Z" fill="#757575"/><path opacity="0.2" d="M140.338 36.918H138.059V40.4628H140.338V36.918Z" fill="black"/><path d="M140.338 28.5123H138.077V40.4627H140.338V28.5123Z" stroke="#263238" stroke-linecap="round" stroke-linejoin="round"/><path d="M138.096 28.0111V36.7275H45.6185V28.0111H44.7305V37.3127H138.984V28.0111H138.096Z" fill="#999999" stroke="#263238" stroke-linecap="round" stroke-linejoin="round"/><path d="M143.561 42.6943V62.2411C143.561 62.5708 143.388 62.8871 143.08 63.1202C142.772 63.3533 142.354 63.4843 141.919 63.4843H41.7854C41.3497 63.4843 40.9318 63.3533 40.6237 63.1202C40.3157 62.8871 40.1426 62.5708 40.1426 62.2411V42.6943C40.1426 42.3646 40.3157 42.0484 40.6237 41.8153C40.9318 41.5821 41.3497 41.4511 41.7854 41.4511H87.9244V42.6943C87.9244 42.6943 80.0471 47.8659 66.4644 49.7727C68.4106 56.4395 79.0444 61.5327 91.876 61.5327C104.708 61.5327 115.341 56.4339 117.291 49.7727C103.69 47.8659 95.8128 42.6943 95.8128 42.6943V41.4399H141.93C142.146 41.441 142.359 41.4744 142.558 41.538C142.757 41.6017 142.938 41.6945 143.089 41.811C143.241 41.9275 143.361 42.0655 143.442 42.2171C143.523 42.3687 143.563 42.5308 143.561 42.6943Z" fill="white" stroke="#263238" stroke-linecap="round" stroke-linejoin="round"/><path d="M143.561 42.6943V62.2411C143.561 62.4046 143.518 62.5665 143.436 62.7175C143.353 62.8685 143.232 63.0057 143.079 63.1212C142.926 63.2367 142.744 63.3282 142.544 63.3905C142.345 63.4528 142.131 63.4847 141.915 63.4843H41.7852C41.5691 63.4847 41.3551 63.4528 41.1554 63.3905C40.9556 63.3282 40.7741 63.2367 40.6211 63.1212C40.4682 63.0057 40.3469 62.8685 40.2641 62.7175C40.1813 62.5665 40.1387 62.4046 40.1387 62.2411V42.6943C40.1396 42.3641 40.3134 42.0476 40.622 41.8141C40.9306 41.5806 41.3488 41.4491 41.7852 41.4483H87.9242V42.6943C87.9242 42.6943 80.0432 47.8631 66.4642 49.7727C68.4104 56.4395 79.0442 61.5327 91.8795 61.5327C104.715 61.5327 115.341 56.4339 117.291 49.7727C103.69 47.8631 95.8126 42.6943 95.8126 42.6943V41.4399H141.929C142.365 41.4429 142.782 41.5766 143.088 41.8118C143.394 42.047 143.564 42.3644 143.561 42.6943V42.6943Z" fill="white"/><path opacity="0.2" d="M141.342 42.9938V61.0398C141.342 61.1598 141.31 61.2786 141.249 61.3894C141.188 61.5002 141.099 61.6007 140.987 61.6853C140.874 61.7699 140.741 61.8368 140.594 61.8822C140.447 61.9276 140.29 61.9506 140.132 61.9498H42.7699C42.6118 61.9502 42.4553 61.9269 42.3091 61.8813C42.163 61.8357 42.0303 61.7687 41.9185 61.6841C41.8067 61.5996 41.7182 61.4991 41.6579 61.3885C41.5977 61.2779 41.5669 61.1594 41.5674 61.0398V42.9938C41.5669 42.874 41.5976 42.7552 41.6578 42.6443C41.718 42.5334 41.8064 42.4326 41.9181 42.3476C42.0297 42.2626 42.1624 42.195 42.3086 42.1488C42.4547 42.1026 42.6115 42.0786 42.7699 42.0782H87.9099V42.6942C87.9099 42.6942 80.0289 47.863 66.4499 49.7726C68.3961 56.4394 79.0299 61.5326 91.8652 61.5326C104.7 61.5326 115.327 56.4338 117.277 49.7726C103.676 47.863 95.7983 42.6942 95.7983 42.6942V42.0782H140.143C140.462 42.0805 140.767 42.1779 140.991 42.3494C141.216 42.5208 141.342 42.7525 141.342 42.9938V42.9938Z" fill="white"/><path d="M143.561 42.6943V62.2411C143.561 62.4046 143.518 62.5665 143.436 62.7175C143.353 62.8685 143.232 63.0057 143.079 63.1212C142.926 63.2367 142.744 63.3282 142.544 63.3905C142.345 63.4528 142.131 63.4847 141.915 63.4843H41.7852C41.5691 63.4847 41.3551 63.4528 41.1554 63.3905C40.9556 63.3282 40.7741 63.2367 40.6211 63.1212C40.4682 63.0057 40.3469 62.8685 40.2641 62.7175C40.1813 62.5665 40.1387 62.4046 40.1387 62.2411V42.6943C40.1396 42.3641 40.3134 42.0476 40.622 41.8141C40.9306 41.5806 41.3488 41.4491 41.7852 41.4483H87.9242V42.6943C87.9242 42.6943 80.0432 47.8631 66.4642 49.7727C68.4104 56.4395 79.0442 61.5327 91.8795 61.5327C104.715 61.5327 115.341 56.4339 117.291 49.7727C103.69 47.8631 95.8126 42.6943 95.8126 42.6943V41.4399H141.929C142.365 41.4429 142.782 41.5766 143.088 41.8118C143.394 42.047 143.564 42.3644 143.561 42.6943V42.6943Z" stroke="#263238" stroke-linecap="round" stroke-linejoin="round"/><path opacity="0.2" d="M110.481 69.2777L115.399 79.6573C115.399 79.6573 117.526 68.2333 118.795 68.2333C120.064 68.2333 122.799 74.4801 122.799 74.4801C122.799 74.4801 124.486 71.2209 126.084 71.1033C127.683 70.9857 129.129 79.1057 129.129 79.1057L129.377 97.1293L127.361 124.387C127.361 124.387 114.496 113.663 110.744 110.9C106.992 108.136 103.407 102.054 102.371 100.82C101.335 99.5849 101.072 93.1197 101.072 93.1197C102.384 91.8497 103.07 90.2734 103.011 88.6621C103.011 88.6621 106.03 84.8373 105.845 82.0149C105.66 79.1925 105.194 68.2249 110.481 69.2777Z" fill="black" fill-opacity="0.7"/><path d="M149.187 119.56L129.71 127.314C129.71 127.235 127.15 124.096 124.057 120.546C122.658 118.939 121.148 117.25 119.717 115.722C117.371 113.221 114.389 111.062 114.133 110.592C113.393 109.192 107.688 103.95 106.411 101.912C105.135 99.8735 104.843 93.5315 104.28 92.0391C103.718 90.5467 105.331 89.1215 106.626 88.4271C107.921 87.7327 109.279 85.9071 109.279 85.9071C109.279 85.9071 107.847 81.6847 107.832 79.5371C107.817 77.3895 106.852 69.8939 108.006 69.1939C109.16 68.4939 110.193 68.7879 110.481 69.2695C111.429 70.8571 112.28 74.8499 113.008 76.6895C113.737 78.5291 115.106 83.8659 115.78 84.2495C116.453 84.6331 117.652 83.1939 117.652 83.1939C117.652 83.1939 117.767 78.7139 118.022 76.8575L117.652 70.9775C117.652 70.9775 116.96 67.4439 118.57 67.1079C120.79 66.6459 121.6 67.7015 121.851 68.1467C122.103 68.5919 123.139 71.1567 123.139 71.1567L123.198 71.3331C123.198 71.3499 123.198 71.3667 123.198 71.3863V71.4171C123.216 71.4657 123.234 71.5189 123.254 71.5767C123.294 71.6943 123.343 71.8343 123.394 71.9939C123.886 73.4527 124.834 76.3731 124.793 77.0927C124.737 78.0643 124.29 83.4459 124.922 84.5631L125.907 77.1291C125.907 77.1291 124.319 71.4003 124.782 70.5743C125.244 69.7483 127.424 70.6611 127.683 70.9859C127.942 71.3107 130.058 73.2763 130.435 74.0267L130.805 74.7771C130.805 74.7771 131.327 73.0019 132.552 73.4639C133.777 73.9259 133.928 76.1827 134.013 77.1683C134.098 78.1539 134.986 84.4931 135.123 84.5043C135.26 84.5155 136.674 87.8083 136.481 89.9839C136.078 94.6403 137.144 98.1039 137.181 99.8903C137.218 101.677 135.438 105.815 135.438 105.815C135.501 105.896 136.663 107.392 136.981 108.705C137.214 109.668 141.362 113.148 144.751 115.918C147.108 117.827 149.083 119.39 149.187 119.56Z" fill="white"/><path opacity="0.4" d="M124.06 120.551C122.661 118.944 121.151 117.256 119.72 115.727C117.374 113.227 114.392 111.068 114.136 110.597C113.396 109.197 107.691 103.956 106.414 101.917C105.138 99.879 104.845 93.537 104.283 92.0446C103.721 90.5522 105.334 89.127 106.629 88.4326C107.924 87.7382 109.282 85.9126 109.282 85.9126C109.282 85.9126 107.85 81.6902 107.835 79.5426C107.82 77.395 106.855 69.8994 108.009 69.1994C109.163 68.4994 110.196 68.7934 110.484 69.275C111.431 70.8626 112.282 74.8554 113.011 76.695C113.74 78.5346 115.109 83.8714 115.783 84.255C116.456 84.6386 117.655 83.1994 117.655 83.1994C117.655 83.1994 117.77 78.7194 118.025 76.863L117.655 70.983C117.655 70.983 116.963 67.4494 118.572 67.1134C120.793 66.6514 121.603 67.707 121.854 68.1522C122.106 68.5974 123.142 71.1622 123.142 71.1622L123.201 71.3386C123.201 71.3554 123.201 71.3722 123.201 71.3918V71.4226C123.216 71.4712 123.235 71.5244 123.257 71.5822C123.297 71.6998 123.346 71.8398 123.397 71.9994C122.824 71.3134 122.036 70.7282 120.981 70.5742C118.021 70.1374 118.661 72.6294 118.943 74.1246C119.102 75.1168 119.071 76.1212 118.85 77.1066L119.59 76.7846C119.057 77.5042 118.295 83.485 118.295 84.815C118.295 86.145 116.904 86.5874 115.657 86.1982C114.41 85.809 113.966 79.705 113.019 78.6102C112.072 77.5154 109.437 79.607 109.319 81.5194C109.2 83.4318 111.557 89.1354 110.999 90.4794C110.44 91.8234 110.447 96.9194 110.447 96.9194L109.767 95.6062C109.811 95.7854 109.766 96.3874 108.342 98.1598C107.807 98.8013 107.461 99.5226 107.327 100.274C107.194 101.026 107.276 101.791 107.569 102.517C108.438 103.97 112.849 107.8 113.589 108.195C113.589 108.195 114.125 106.532 115.809 106.974C115.235 107.664 114.818 108.421 114.573 109.214C114.225 110.435 117.736 111.216 118.835 112.378C119.509 113.087 119.96 115.245 124.06 120.551Z" fill="white"/><path opacity="0.4" d="M144.773 115.92C141.31 113.28 135.216 110.765 135.586 110.107C136.082 109.222 135.453 107.338 134.387 105.809C133.322 104.28 134.757 101.8 134.757 101.8L135.416 103.242C135.943 101.578 136.004 99.8503 135.597 98.168C134.924 95.3092 134.398 96.3144 134.398 96.3144C134.398 96.3144 134.535 93.7384 135.138 92.3328C135.741 90.9272 136.248 87.514 135.416 85.4952C134.583 83.4764 132.826 83.8572 132.356 84.5516C131.886 85.246 132.389 87.9536 132.778 88.8412C133.166 89.7288 131.512 91.2212 131.479 90.1124C131.446 89.0036 130.82 85.9124 130.82 85.9124L132.075 79.7048L130.82 74.774C130.82 74.774 131.342 72.9988 132.567 73.4608C133.791 73.9228 133.943 76.1796 134.028 77.1652C134.113 78.1508 135.001 84.49 135.138 84.5012C135.275 84.5124 136.689 87.8052 136.496 89.9808C136.093 94.6372 137.158 98.1008 137.195 99.8872C137.232 101.674 135.453 105.812 135.453 105.812C135.516 105.893 136.677 107.388 136.996 108.702C137.229 109.665 141.376 113.145 144.766 115.914L144.773 115.92Z" fill="white"/><path opacity="0.4" d="M130.436 74.0264C130.506 74.1664 130.565 74.2812 130.61 74.3736C129.433 72.3044 127.428 72.9456 127.072 73.5336C126.717 74.1216 127.912 77.77 128.182 78.3356C128.452 78.9012 127.109 83.4176 126.913 84.9128C126.717 86.408 126.195 86.7132 126.195 86.7132C124.867 86.7888 124.715 84.014 124.715 83.6332C124.741 83.9518 124.823 84.2663 124.96 84.5684L125.944 77.1344C125.944 77.1344 124.32 71.4 124.782 70.574C125.245 69.748 127.424 70.6608 127.683 70.9856C127.942 71.3104 130.058 73.276 130.436 74.0264Z" fill="white"/><path d="M149.186 119.56C148.935 119.129 137.38 110.32 136.976 108.702C136.651 107.352 135.43 105.809 135.43 105.809C135.43 105.809 137.209 101.679 137.172 99.8844C137.135 98.0896 136.062 94.6344 136.473 89.978C136.665 87.8024 135.256 84.5096 135.115 84.4984C134.975 84.4872 134.087 78.148 134.005 77.1624C133.924 76.1768 133.772 73.92 132.544 73.458C131.315 72.996 130.797 74.7712 130.797 74.7712L130.427 74.0208C130.057 73.2704 127.933 71.3048 127.674 70.98C127.415 70.6552 125.24 69.7396 124.774 70.5684C124.308 71.3972 125.932 77.1176 125.932 77.1176L124.955 84.56C124.322 83.44 124.77 78.0612 124.825 77.0896C124.881 76.118 123.142 71.1536 123.142 71.1536C123.142 71.1536 122.099 68.6 121.854 68.1408C121.61 67.6816 120.792 66.64 118.572 67.102C116.963 67.438 117.655 70.9716 117.655 70.9716L118.025 76.8516C117.777 78.7164 117.655 83.188 117.655 83.188C117.655 83.188 116.456 84.6244 115.783 84.2436C115.109 83.8628 113.74 78.5288 113.011 76.6836C112.282 74.8384 111.431 70.8512 110.484 69.2636C110.196 68.782 109.163 68.488 108.009 69.188C106.855 69.888 107.817 77.3808 107.835 79.5312C107.854 81.6816 109.282 85.9012 109.282 85.9012C109.282 85.9012 107.924 87.7156 106.629 88.4212C105.334 89.1268 103.721 90.538 104.283 92.0332C104.845 93.5284 105.138 99.8732 106.414 101.906C107.691 103.939 113.381 109.186 114.136 110.586C114.391 111.056 117.374 113.215 119.719 115.716C124.326 120.624 129.709 127.196 129.709 127.308" stroke="#263238" stroke-linecap="round" stroke-linejoin="round"/><path d="M109.278 85.9153C109.278 85.9153 110.196 89.3565 110.163 89.9333C110.163 89.9333 109.36 92.5905 109.352 94.3125C108.791 94.9613 108.286 95.6375 107.843 96.3369C107.532 96.9585 106.977 98.4873 107.206 99.3385" stroke="#263238" stroke-linecap="round" stroke-linejoin="round"/><path d="M107.602 91C107.602 91 109.851 91.014 109.707 91.7308" stroke="#263238" stroke-linecap="round" stroke-linejoin="round"/><path d="M109.352 94.3124C109.352 94.3124 107.909 93.8392 107.402 94.4748" stroke="#263238" stroke-linecap="round" stroke-linejoin="round"/><path d="M117.659 83.1992C117.659 83.1992 117.555 85.8368 116.638 85.6268" stroke="#263238" stroke-linecap="round" stroke-linejoin="round"/><path d="M124.956 84.5601C124.956 84.5601 124.689 86.0021 125.407 86.4473" stroke="#263238" stroke-linecap="round" stroke-linejoin="round"/><path d="M130.81 74.7767C130.81 74.7767 131.809 78.4167 132.038 79.2791C132.267 80.1415 130.902 84.5431 130.928 85.6883C130.954 86.8335 131.601 88.4715 131.513 89.2415" stroke="#263238" stroke-linecap="round" stroke-linejoin="round"/><path d="M134.798 102.421C134.798 102.421 134.476 104.798 135.441 105.815" stroke="#263238" stroke-linecap="round" stroke-linejoin="round"/><path d="M115.398 107.125C115.398 107.125 113.245 108.609 114.033 110.435" stroke="#263238" stroke-linecap="round" stroke-linejoin="round"/><path d="M129.552 88.6228C129.585 89.67 128.775 90.8908 128.689 92.3384" stroke="#263238" stroke-linecap="round" stroke-linejoin="round"/><path d="M122.691 87.6876C123.15 88.5444 122.151 90.4092 121.999 91.1092C121.939 91.6569 122.018 92.2082 122.232 92.7332" stroke="#263238" stroke-linecap="round" stroke-linejoin="round"/><path d="M135.586 90.6389C135.401 91.5489 134.55 92.1985 134.387 94.9985" stroke="#263238" stroke-linecap="round" stroke-linejoin="round"/><path d="M114.576 87.4216C115.198 87.934 114.78 90.3812 114.946 90.7816" stroke="#263238" stroke-linecap="round" stroke-linejoin="round"/><path d="M126.169 73.3236C126.169 73.3236 128.285 72.1504 130.106 73.5336" stroke="#263238" stroke-linecap="round" stroke-linejoin="round"/><path d="M118.881 70.6273C118.881 70.6273 119.251 70.1597 121.038 70.2745C122.825 70.3893 123.143 71.1509 123.143 71.1509" stroke="#263238" stroke-linecap="round" stroke-linejoin="round"/><path d="M113.659 78.6213C113.659 78.6213 113.06 77.9521 111.48 78.1733C109.9 78.3945 109.197 80.0856 109.197 80.0856" fill="white"/><path d="M113.659 78.6213C113.659 78.6213 113.06 77.9521 111.48 78.1733C109.9 78.3945 109.197 80.0856 109.197 80.0856" stroke="#263238" stroke-linecap="round" stroke-linejoin="round"/><path d="M135.126 84.504C135.126 84.504 133.809 83.0592 132.226 83.678" stroke="#263238" stroke-linecap="round" stroke-linejoin="round"/><path opacity="0.2" d="M79.0129 73.9199C81.2329 75.2219 79.3607 83.2131 79.3607 83.2131L79.5568 85.8143L83.3641 84.5599L85.0994 90.1179C85.0994 90.1179 85.055 92.1535 86.4647 92.9179C86.4647 92.9179 86.8125 97.4847 86.4647 100.822C86.1169 104.16 79.0647 108.083 76.6338 111.586C74.2029 115.088 58.3484 125.384 58.3484 125.384L44.9248 120.551L54.6299 90.8879L63.3249 82.4291L68.479 72.6991C68.479 72.6991 69.3633 79.0551 68.849 83.3391L79.0129 73.9199Z" fill="black" fill-opacity="0.7"/><path d="M82.7509 91.6721C82.4142 92.8985 83.2245 99.6213 83.0839 100.528C82.9433 101.436 75.8763 107.528 75.5211 107.99C75.1659 108.452 70.441 110.51 69.3421 111.493C64.2065 116.026 61.4019 120.201 59.1486 124.387C58.7157 125.194 58.3013 126.003 57.8943 126.815L37.5146 117.855C39.2277 116.248 40.8446 114.82 42.3246 113.52C45.2847 110.886 47.6416 108.777 48.796 106.786C49.1502 106.278 49.556 105.791 50.0096 105.33C50.4684 104.838 50.8791 104.432 50.8791 104.432C50.8791 104.432 49.3991 101.276 49.7432 100.285C50.0873 99.2937 49.3176 91.1457 49.3176 91.1457C49.3176 91.1457 48.315 85.5989 47.3271 84.1989C47.0844 83.8333 46.9746 83.4255 47.0089 83.0173C47.057 81.7377 48.0375 80.1249 48.5185 78.2573C49.1623 75.7373 48.8515 74.4913 50.8717 75.3621C52.8919 76.2329 51.9484 81.5221 51.9484 81.5221L55.0009 86.6405C55.8038 85.4029 55.0009 81.7909 54.9602 80.9369C54.9602 80.7969 54.9602 80.5645 54.9306 80.2621C54.8677 78.7893 54.7382 75.7233 54.9047 74.5137C54.9047 74.4465 54.9047 74.3849 54.9343 74.3289C55.1822 73.0801 56.0665 69.1069 56.6289 68.6645C57.4651 68.0093 58.7934 67.4577 60.044 68.9445C60.7433 69.7845 60.4436 76.4457 60.4436 76.4457C60.4436 76.4457 63.3444 73.7969 64.225 73.1501C65.1056 72.5033 67.777 71.3217 68.4911 72.6909C69.2052 74.0601 66.5708 78.2909 66.5708 78.2909C67.1221 79.2709 67.1887 81.9841 67.1887 81.9841C67.1887 81.9841 68.4356 85.3749 69.2015 85.3441H69.2348C69.4568 85.3077 69.701 84.6917 69.9563 83.8265C70.5853 81.7069 71.2698 78.0809 71.8063 77.7645L72.1763 77.5405C72.1932 77.5243 72.2131 77.5102 72.2355 77.4985L72.3724 77.4061C73.6822 76.5241 76.4424 74.5641 76.4424 74.5641C76.4424 74.5641 76.6385 73.6261 79.0546 73.9145C81.4707 74.2029 77.9816 79.5985 77.9816 79.5985C77.4969 81.3149 76.7532 85.7305 76.7532 85.7305C76.5275 87.5673 76.6607 92.5037 76.6607 92.5037C76.6607 92.5037 77.804 89.6309 77.73 88.5837C77.656 87.5365 80.0018 84.9717 80.69 84.3109C81.3782 83.6501 84.4492 83.8825 83.5945 85.1509C82.7398 86.4193 83.0876 90.4401 82.7509 91.6721Z" fill="white"/><path opacity="0.4" d="M48.7848 106.798C49.139 106.289 49.5448 105.802 49.9984 105.342C49.9984 105.342 48.7959 107.862 48.6775 109.203C48.5998 110.088 45.5214 111.619 42.3135 113.532C45.292 110.897 47.6304 108.788 48.7848 106.798Z" fill="white"/><path opacity="0.4" d="M49.9989 105.342C50.4577 104.849 50.8684 104.443 50.8684 104.443C50.8684 104.443 49.3884 101.287 49.7325 100.296C50.0766 99.3048 49.307 91.1568 49.307 91.1568C49.307 91.1568 48.3043 85.61 47.3164 84.21L49.6178 87.2536C49.6178 87.2536 49.3921 89.6588 50.047 90.9776C50.7019 92.2964 51.527 96.32 51.527 96.32C51.527 96.32 50.5576 99.7024 50.8869 100.92C51.2162 102.138 52.6999 101.696 52.6999 101.696C52.6999 101.696 53.4288 103.925 49.9989 105.342Z" fill="white"/><path opacity="0.4" d="M55.3675 82.4291C56.9548 89.4627 54.2205 87.5167 53.2325 85.9991C52.2446 84.4815 49.9248 81.6087 48.1784 82.2219C47.6879 82.3961 47.2771 82.6768 46.998 83.0283C47.0461 81.7487 48.0267 80.1359 48.5077 78.2683C49.1515 75.7483 48.8407 74.5023 50.8609 75.3731C52.8811 76.2439 51.9375 81.5331 51.9375 81.5331L54.9901 86.6515C55.793 85.4139 54.9901 81.8019 54.9494 80.9479C54.9494 80.8079 54.9493 80.5755 54.9197 80.2731C55.0419 80.9199 55.1899 81.6395 55.3675 82.4291Z" fill="white"/><path opacity="0.4" d="M59.2522 75.4798C59.2522 75.4798 57.5391 73.783 56.0517 73.8698C55.7963 73.8803 55.5505 73.9471 55.3447 74.062C55.1389 74.177 54.9821 74.335 54.8936 74.5166C54.8936 74.4494 54.8936 74.3878 54.9232 74.3318C55.1711 73.083 56.0554 69.1098 56.6178 68.6674C57.454 68.0122 58.7823 67.4606 60.0329 68.9474C60.7322 69.7874 60.4325 76.4486 60.4325 76.4486C60.4325 76.4486 63.3333 73.7998 64.2139 73.153C65.0945 72.5062 67.7659 71.3246 68.48 72.6938C69.1941 74.063 66.5597 78.2938 66.5597 78.2938C67.111 79.2738 67.1776 81.987 67.1776 81.987C67.1776 81.987 68.4245 85.3778 69.1904 85.347C67.5032 87.7494 66.3783 82.4378 66.3783 82.4378C66.6299 81.3402 65.7345 78.9602 65.8233 78.333C65.9121 77.7058 64.2694 75.4882 61.5018 76.093C58.7342 76.6978 60.7322 84.9746 60.7322 84.9746C60.1853 85.6339 59.8671 86.387 59.8072 87.1642C58.9525 86.3662 59.8072 84.0842 59.8072 84.0842C59.0487 81.9002 59.2522 75.4798 59.2522 75.4798Z" fill="white"/><path opacity="0.4" d="M72.1497 77.532C70.9694 78.47 71.1322 80.8416 69.9297 83.818C70.5587 81.6984 71.2432 78.0724 71.7797 77.756L72.1497 77.532Z" fill="white"/><path opacity="0.4" d="M82.7507 91.6719C82.414 92.8983 83.2243 99.6211 83.0837 100.528C82.9431 101.436 75.8761 107.528 75.5209 107.99C75.1657 108.452 70.4408 110.51 69.3419 111.493C64.2063 116.026 61.4017 120.201 59.1484 124.387C59.9972 122.217 61.0216 120.089 62.2157 118.014C64.6466 113.879 65.6382 113.142 67.096 111.961C68.5538 110.779 68.3947 108.268 68.3947 108.268C69.4707 108.071 70.5736 107.973 71.6803 107.974C73.5303 107.974 79.0063 102.066 80.8896 101.03C82.7729 99.9935 83.1096 99.9935 80.8896 97.7087C78.6696 95.4239 79.2986 98.0755 78.6326 97.9887C77.9666 97.9019 77.604 99.0051 77.604 99.0051C77.3709 96.6755 75.384 93.9651 74.9659 93.2875C74.5478 92.6099 75.9797 88.6367 75.6837 87.5307C75.3877 86.4247 76.9565 79.6907 76.9565 79.6907C76.9565 79.6907 76.7604 77.1063 73.6672 77.0979C73.1925 77.0781 72.7237 77.1851 72.3426 77.4003C73.6524 76.5183 76.4126 74.5583 76.4126 74.5583C76.4126 74.5583 76.6087 73.6203 79.0248 73.9087C81.4409 74.1971 77.9518 79.5927 77.9518 79.5927C77.4671 81.3091 76.7234 85.7247 76.7234 85.7247C76.4977 87.5615 76.6309 92.4979 76.6309 92.4979C76.6309 92.4979 77.7742 89.6251 77.7002 88.5779C77.6262 87.5307 79.972 84.9659 80.6602 84.3051C81.3484 83.6443 84.4194 83.8767 83.5647 85.1451C82.71 86.4135 83.0874 90.4399 82.7507 91.6719Z" fill="white"/><path d="M57.8903 126.84C60.4026 121.82 63.2109 116.92 69.3418 111.507C70.4518 110.538 75.1619 108.48 75.5208 108.004C75.8797 107.528 82.9467 101.447 83.0836 100.542C83.2205 99.638 82.4139 92.9124 82.7506 91.686C83.0873 90.4596 82.6951 86.4164 83.5461 85.1564C84.3971 83.8964 81.3261 83.6668 80.6416 84.3164C79.9571 84.966 77.6187 87.5532 77.6816 88.5892C77.7445 89.6252 76.6123 92.5092 76.6123 92.5092C76.6123 92.5092 76.4791 87.5728 76.7048 85.736C76.7048 85.736 77.4448 81.3204 77.9332 79.604C77.9332 79.604 81.4186 74.2056 79.0062 73.92C76.5938 73.6344 76.394 74.5696 76.394 74.5696C76.394 74.5696 72.5423 77.308 71.7801 77.756C71.0179 78.204 69.9782 85.204 69.2123 85.3356C68.4464 85.4672 67.1662 81.9756 67.1662 81.9756C67.1662 81.9756 67.0996 79.2624 66.5483 78.2824C66.5483 78.2824 69.179 74.0628 68.4686 72.6824C67.7582 71.302 65.0868 72.4976 64.2025 73.1416C63.3182 73.7856 60.4211 76.4372 60.4211 76.4372C60.4211 76.4372 60.7208 69.7704 60.0215 68.936C58.7709 67.4436 57.4315 67.9952 56.6064 68.656C56.044 69.0984 55.1597 73.0716 54.9118 74.3204C54.6639 75.5692 54.9118 80.0716 54.9377 80.9284C54.9636 81.7852 55.7813 85.3944 54.9784 86.632L51.9259 81.5136C51.9259 81.5136 52.8731 76.2188 50.8492 75.3536C48.8253 74.4884 49.1398 75.7372 48.496 78.2488C47.8522 80.7604 46.3204 82.8016 47.3046 84.2044C48.2888 85.6072 49.2952 91.1512 49.2952 91.1512C49.2952 91.1512 50.0574 99.2992 49.7207 100.29C49.384 101.282 50.8677 104.44 50.8677 104.44C50.8677 104.44 49.1583 106.145 48.7846 106.795C47.0604 109.76 42.6981 113.002 37.5107 117.88" stroke="#263238" stroke-linecap="round" stroke-linejoin="round"/><path d="M60.4313 76.454C60.0016 76.9348 59.784 77.5062 59.8097 78.0864C59.8097 79.1504 60.731 84.9744 60.731 84.9744C60.731 84.9744 60.0613 85.5736 60.028 86.0944" stroke="#263238" stroke-linecap="round" stroke-linejoin="round"/><path d="M76.6191 92.4951C76.7202 93.4788 77.0549 94.4406 77.607 95.3343C78.4729 96.6279 78.1917 97.3419 77.8956 98.1063C77.6973 98.7766 77.5919 99.4607 77.5811 100.148" stroke="#263238" stroke-linecap="round" stroke-linejoin="round"/><path d="M55.315 85.4923C55.315 85.4923 55.9588 87.0379 54.7637 87.7715" stroke="#263238" stroke-linecap="round" stroke-linejoin="round"/><path d="M69.224 85.3356C69.224 85.3356 69.3498 85.9432 68.2139 85.9992" stroke="#263238" stroke-linecap="round" stroke-linejoin="round"/><path d="M76.8526 78.3355C76.8526 78.3355 74.0036 75.9835 71.791 77.7559" stroke="#263238" stroke-linecap="round" stroke-linejoin="round"/><path d="M65.3097 77.014C65.3097 77.014 63.9962 75.7568 62.8566 75.8324C61.717 75.908 60.1778 76.4344 60.0039 77.126" stroke="#263238" stroke-linecap="round" stroke-linejoin="round"/><path d="M78.1406 97.3503C78.6001 97.8478 78.935 98.4049 79.1285 98.9939" stroke="#263238" stroke-linecap="round" stroke-linejoin="round"/><path d="M70.7412 87.7911C69.8569 89.0371 70.2787 91.1511 69.9531 91.7307" stroke="#263238" stroke-linecap="round" stroke-linejoin="round"/><path d="M61.3725 85.7219C61.5797 86.4387 60.9248 87.6063 60.8249 88.4659C60.725 89.3255 61.6537 90.6527 61.4835 91.8595" stroke="#263238" stroke-linecap="round" stroke-linejoin="round"/><path d="M55.367 88.6564C55.367 88.6564 54.5937 90.006 54.627 90.8964C54.6603 91.7868 55.0784 93.7384 55.0784 93.7384" stroke="#263238" stroke-linecap="round" stroke-linejoin="round"/><path d="M49.6795 88.5919C49.6795 88.5919 49.3983 89.9919 50.0495 90.9775C50.7007 91.9631 51.3334 94.0575 51.3334 94.0575" stroke="#263238" stroke-linecap="round" stroke-linejoin="round"/><path d="M50.8672 104.44C51.2083 104.369 51.513 104.221 51.742 104.017C51.971 103.813 52.1135 103.561 52.1511 103.295" stroke="#263238" stroke-linecap="round" stroke-linejoin="round"/><path d="M69.4678 108.707C69.4678 108.707 70.1745 110.687 68.8203 111.961" stroke="#263238" stroke-linecap="round" stroke-linejoin="round"/><path d="M47.0156 82.7932C47.0156 82.7932 49.0062 81.3232 50.5121 82.5636" stroke="#263238" stroke-linecap="round" stroke-linejoin="round"/><path d="M54.9229 74.3315C54.9229 74.3315 56.4028 73.1584 58.1345 74.4127" stroke="#263238" stroke-linecap="round" stroke-linejoin="round"/></svg>